<svg width="180" height="129" viewBox="0 0 180 129" fill="none" xmlns="http://www.w3.org/2000/svg">
<g clip-path="url(#clip0_2080_1519)">
<g clip-path="url(#clip1_2080_1519)">
<path d="M162.531 127.256C162.531 127.256 162.193 125.331 161.171 125.405C160.889 123.238 160.233 118.799 159.06 113.081C156.245 99.4202 152.624 89.0672 150.082 82.7788C144.894 69.9684 138.543 59.7649 131.216 52.4393C126.853 48.0851 122.078 44.7119 117.04 42.4227C111.524 39.9092 105.539 38.6384 99.2717 38.6384C99.2436 38.6384 99.2154 38.6384 99.1873 38.6384C92.2825 38.6478 85.5279 39.9372 79.1297 42.4694C73.3132 44.768 67.6468 48.1411 62.2994 52.4954C53.3025 59.8209 45.0093 70.0151 37.6542 82.8068C31.1154 94.1689 26.5466 105.531 23.8635 113.053C21.7526 118.977 20.4392 123.527 19.8764 125.592C19.4823 125.845 19.0226 126.349 18.4785 127.246H21.7526H27.6536C27.8506 127.246 28.0101 127.087 28.0101 126.891C28.0101 126.695 27.8506 126.536 27.6536 126.536H21.7433C21.6776 126.536 21.6213 126.555 21.565 126.583C21.3962 126.116 21.1053 125.546 20.6456 125.415C21.246 123.228 22.5219 118.874 24.5202 113.286C26.1619 108.68 27.86 104.447 29.5299 100.626C31.6407 102.036 33.7046 103.55 35.6747 105.148C35.7404 105.204 35.8155 105.223 35.8999 105.223C36.0031 105.223 36.1063 105.176 36.172 105.092C36.2939 104.942 36.2752 104.718 36.1157 104.597C34.0987 102.962 31.9785 101.41 29.8113 99.9715C32.9541 92.8328 35.9562 87.1611 38.264 83.1525C39.5962 80.8259 40.9659 78.5927 42.3637 76.4437C44.5215 77.8452 46.5573 79.4617 48.4148 81.2464C48.4805 81.3118 48.5743 81.3492 48.6587 81.3492C48.7431 81.3492 48.8463 81.3118 48.912 81.2464C49.0433 81.1062 49.0433 80.882 48.912 80.7512C47.0263 78.9385 44.953 77.2939 42.7578 75.8643C48.9026 66.5205 55.601 58.8679 62.7497 53.0466C64.2976 51.7852 65.8643 50.6172 67.4686 49.524L71.0992 54.5977C71.1649 54.6912 71.2774 54.7472 71.39 54.7472C71.4651 54.7472 71.5307 54.7285 71.5964 54.6818C71.7559 54.5697 71.7934 54.3454 71.6808 54.1959L68.0596 49.1316C71.7465 46.6741 75.5366 44.6652 79.4112 43.1328C85.3402 40.7875 91.5602 39.5261 97.9396 39.3672C98.1084 41.0305 98.146 42.7217 98.0428 44.3942C98.0334 44.5905 98.1835 44.7587 98.3711 44.768H98.3899C98.5775 44.768 98.7276 44.6278 98.737 44.441C98.8402 42.7497 98.8027 41.0491 98.6338 39.3579C98.8214 39.3579 99.009 39.3579 99.2061 39.3579C105.407 39.3486 111.308 40.6006 116.768 43.0768C121.731 45.3286 126.422 48.655 130.728 52.9439C131.141 53.355 131.544 53.7755 131.947 54.1959C130.193 55.448 128.636 56.9337 127.304 58.6249C127.182 58.7744 127.21 58.9987 127.36 59.1202C127.426 59.1669 127.501 59.1949 127.576 59.1949C127.679 59.1949 127.782 59.1482 127.857 59.0641C129.161 57.4009 130.7 55.9432 132.426 54.7192C138.674 61.4841 144.162 70.4542 148.768 81.4333L142.267 84.4887C142.089 84.5728 142.014 84.7784 142.098 84.9559C142.154 85.0867 142.286 85.1615 142.417 85.1615C142.464 85.1615 142.52 85.1521 142.567 85.1241L149.031 82.078C149.162 82.3957 149.294 82.7134 149.425 83.0404C152.68 91.0668 155.035 99.1025 156.686 105.774C154.472 106.821 152.146 107.671 149.782 108.288C149.594 108.334 149.481 108.53 149.528 108.717C149.566 108.876 149.716 108.979 149.866 108.979C149.894 108.979 149.922 108.979 149.96 108.97C152.324 108.353 154.651 107.512 156.865 106.475C157.465 108.951 157.972 111.221 158.384 113.221C159.604 119.126 160.251 123.649 160.523 125.723C160.289 125.901 160.026 126.181 159.745 126.564H153.159C152.962 126.564 152.802 126.723 152.802 126.919C152.802 127.115 152.962 127.274 153.159 127.274H159.276H162.55L162.531 127.256Z" fill="#005CA1"/>
<path d="M162.531 127.723H153.14C152.69 127.723 152.315 127.358 152.315 126.9C152.315 126.443 152.681 126.078 153.14 126.078H159.492C159.66 125.863 159.839 125.667 160.008 125.518C159.717 123.284 159.069 118.93 157.906 113.305C157.493 111.278 157.024 109.203 156.527 107.129C154.444 108.073 152.268 108.839 150.063 109.409C150.026 109.418 149.894 109.437 149.857 109.437C149.482 109.437 149.153 109.185 149.059 108.82C148.947 108.381 149.209 107.932 149.65 107.82C151.864 107.241 154.05 106.465 156.133 105.503C154.135 97.4767 151.733 89.9829 148.984 83.2086L148.778 82.7041L142.755 85.5352C142.361 85.7221 141.854 85.5352 141.657 85.1428C141.564 84.9466 141.554 84.7223 141.629 84.5168C141.704 84.3112 141.854 84.143 142.051 84.0496L148.14 81.181C143.665 70.6225 138.346 61.9233 132.342 55.3266C130.784 56.4665 129.396 57.8214 128.204 59.3351C127.942 59.6715 127.388 59.7369 127.05 59.4752C126.694 59.1949 126.628 58.681 126.91 58.3259C128.148 56.7468 129.602 55.3266 131.216 54.1212C130.934 53.8316 130.653 53.5419 130.371 53.2616C126.103 49.0101 121.459 45.7211 116.543 43.4879C111.177 41.0492 105.37 39.8158 99.2719 39.8158H99.1218C99.2531 41.3575 99.2719 42.9179 99.1781 44.4597C99.1499 44.8895 98.7934 45.2259 98.3619 45.2259C98.0898 45.2072 97.8928 45.1137 97.7427 44.9549C97.5926 44.796 97.5269 44.5811 97.5363 44.3662C97.6301 42.8712 97.602 41.3482 97.4706 39.8531C91.307 40.0587 85.2747 41.3108 79.5426 43.572C75.8651 45.0296 72.2157 46.9358 68.6883 49.2531L72.0281 53.925C72.2908 54.2894 72.2063 54.8033 71.8405 55.0649C71.4746 55.3266 70.9492 55.2238 70.6959 54.8781L67.328 50.1781C65.8738 51.1872 64.4291 52.2805 63.0219 53.4204C56.0233 59.1108 49.4187 66.6233 43.3865 75.7429C45.4691 77.1351 47.4205 78.7049 49.2124 80.4335C49.3718 80.583 49.4563 80.7886 49.4657 81.0035C49.4657 81.2184 49.3906 81.4333 49.2311 81.5828C48.9309 81.8911 48.3774 81.9005 48.0678 81.6015C46.351 79.9476 44.4747 78.4433 42.4858 77.1164C41.1912 79.1254 39.9059 81.2464 38.6582 83.4049C35.7593 88.4505 32.973 93.9634 30.3931 99.822C32.4664 101.214 34.4834 102.709 36.4066 104.26C36.5755 104.4 36.6881 104.597 36.7069 104.812C36.7256 105.027 36.6693 105.241 36.5286 105.41C36.2565 105.746 35.7218 105.802 35.3747 105.531C33.5641 104.073 31.669 102.663 29.727 101.354C28.029 105.288 26.4248 109.362 24.9613 113.464C23.0662 118.781 21.8185 122.985 21.1993 125.2C21.462 125.396 21.6777 125.686 21.8654 126.088H27.6444C28.0947 126.088 28.4699 126.452 28.4699 126.91C28.4699 127.368 28.104 127.732 27.6444 127.732H18.4693C18.3004 127.732 18.1409 127.639 18.0565 127.498C17.9721 127.358 17.9721 127.171 18.0565 127.031C18.5443 126.228 19.004 125.667 19.4449 125.34C20.0547 123.116 21.34 118.687 23.3945 112.931C26.087 105.391 30.6746 94.0008 37.2228 82.6106C44.606 69.7722 52.9368 59.5313 61.9711 52.1777C67.3561 47.7954 73.0694 44.3943 78.9235 42.077C85.4061 39.5074 92.217 38.1993 99.1781 38.1899C105.604 38.1899 111.646 39.4794 117.228 42.0116C122.313 44.3195 127.135 47.73 131.535 52.1216C138.918 59.4846 145.297 69.7441 150.504 82.6106C153.056 88.9084 156.686 99.2894 159.51 112.987C160.636 118.444 161.274 122.733 161.584 124.985C162.625 125.303 162.944 126.957 162.981 127.171C163.01 127.312 162.972 127.442 162.878 127.555C162.794 127.657 162.653 127.723 162.522 127.723H162.531ZM19.3418 126.788H21.1336C21.1336 126.788 21.1336 126.77 21.1242 126.751C20.9554 126.265 20.7302 125.938 20.5238 125.882C20.4394 125.863 20.3737 125.817 20.3174 125.761C20.2799 125.854 20.2142 125.938 20.1298 125.994C19.9515 126.106 19.6982 126.331 19.3511 126.788H19.3418ZM160.129 126.788H161.921C161.762 126.321 161.49 125.835 161.208 125.873C161.115 125.873 161.03 125.863 160.955 125.817C160.927 125.919 160.871 126.003 160.786 126.069C160.58 126.228 160.364 126.461 160.129 126.779V126.788Z" fill="#005CA1"/>
<path d="M27.438 127.256C27.438 127.256 51.8955 46.3004 97.4331 44.3382C142.98 42.376 153.422 127.256 153.422 127.256H27.438Z" fill="#F5E83A"/>
<path d="M154.482 128.19H26.1807L26.5465 126.985C26.6122 126.779 32.8227 106.409 44.5496 86.0678C60.1603 58.9706 78.4354 44.2167 97.3954 43.4037C116.487 42.6002 132.36 56.8682 143.383 84.7223C151.639 105.568 154.332 126.928 154.36 127.143L154.491 128.19H154.482ZM28.723 126.321H152.352C150.964 116.744 139.209 45.2351 98.9621 45.2351C98.4743 45.2351 97.9771 45.2445 97.4798 45.2632C56.1169 47.0478 31.9972 116.286 28.723 126.321Z" fill="#005CA1"/>
<path d="M58.9878 112.978C58.9878 112.978 69.0353 62.2876 96.5606 61.6336C124.086 60.9795 131.291 112.978 131.291 112.978H58.9878Z" fill="#005CA1"/>
<path d="M95.0594 54.5231C88.9333 54.5231 82.9386 53.5514 77.2253 51.6265C77.0376 51.5611 76.9438 51.3649 77.0001 51.178C77.0658 50.9911 77.2628 50.8977 77.4504 50.9538C83.6047 53.0281 90.0873 53.9812 96.72 53.785C103.353 53.5981 109.77 52.2712 115.792 49.8418C115.971 49.7671 116.177 49.8605 116.252 50.0381C116.327 50.2156 116.233 50.4212 116.055 50.4959C109.948 52.9533 103.456 54.2895 96.7387 54.4857C96.1758 54.5044 95.6223 54.5138 95.0594 54.5138V54.5231Z" fill="#005CA1"/>
<path d="M95.0593 54.9903C88.8863 54.9903 82.8258 54.0092 77.075 52.075C76.8686 52.0002 76.6997 51.8601 76.5965 51.6639C76.5027 51.4676 76.484 51.2434 76.559 51.0378C76.6247 50.8323 76.7748 50.6641 76.9718 50.5706C77.1688 50.4772 77.394 50.4585 77.6003 50.5333C83.7077 52.5889 90.134 53.5326 96.7104 53.3458C103.287 53.1589 109.647 51.8414 115.623 49.44C115.83 49.3559 116.046 49.3559 116.252 49.44C116.449 49.5241 116.609 49.683 116.693 49.8885C116.777 50.0941 116.777 50.3183 116.693 50.5146C116.609 50.7108 116.449 50.8696 116.243 50.9537C110.088 53.4298 103.531 54.7847 96.7667 54.9809C96.2038 54.9996 95.6315 55.009 95.0687 55.009L95.0593 54.9903Z" fill="#005CA1"/>
</g>
</g>
<defs>
<clipPath id="clip0_2080_1519">
<rect width="180" height="128" fill="white" transform="translate(0 0.189941)"/>
</clipPath>
<clipPath id="clip1_2080_1519">
<rect width="145" height="90" fill="white" transform="translate(18 38.1899)"/>
</clipPath>
</defs>
</svg>
