<svg width="180" height="129" viewBox="0 0 180 129" fill="none" xmlns="http://www.w3.org/2000/svg">
<g clip-path="url(#clip0_2080_2346)">
<g clip-path="url(#clip1_2080_2346)">
<path d="M71.7672 86.0391C71.7672 83.4131 71.7672 80.7871 71.7672 78.1611C71.7672 75.7302 71.7672 73.2993 71.7823 70.8684C71.7823 69.4879 71.8199 68.0999 71.8274 66.7194C71.835 64.8887 71.8274 63.0655 71.835 61.2348C71.835 59.3516 71.8576 57.4684 71.8651 55.5927C71.8726 53.1243 71.8801 50.6559 71.8801 48.1874C71.8801 47.3546 71.8576 46.5218 71.85 45.689C71.85 45.2839 72.0984 45.0212 72.5199 45.0363C73.0016 45.0513 73.4758 45.1038 73.9575 45.1488C75.3047 45.2763 76.6519 45.4039 77.9992 45.5239C80.1969 45.7265 82.3947 45.9216 84.5924 46.1167C86.7149 46.3117 88.8449 46.5143 90.9674 46.7094C93.1124 46.9045 95.2575 47.092 97.4025 47.2796C99.1186 47.4372 100.842 47.6022 102.558 47.7598C104.771 47.9624 106.991 48.1574 109.204 48.36C111.327 48.5551 113.457 48.7576 115.579 48.9527C117.724 49.1478 119.869 49.3279 122.014 49.5229C124.137 49.718 126.267 49.9281 128.389 50.1232C130.143 50.2807 131.897 50.4308 133.65 50.5958C134.922 50.7159 136.202 50.8284 137.474 50.9635C138.061 51.031 138.249 51.2486 138.249 51.8338C138.249 52.7716 138.234 53.717 138.219 54.6549C138.159 58.1662 138.098 61.685 138.031 65.1963C137.97 68.34 137.895 71.4761 137.843 74.6198C137.79 77.6209 137.76 80.6221 137.715 83.6157C137.677 85.9566 137.624 88.3049 137.587 90.6458C137.549 92.7391 137.526 94.8324 137.489 96.9257C137.444 99.3416 137.391 101.75 137.346 104.166C137.308 106.154 137.293 108.142 137.255 110.131C137.218 112.509 137.158 114.887 137.12 117.266C137.097 118.399 137.09 119.539 137.067 120.672C137.045 122.128 137.015 123.583 136.984 125.039C136.969 125.706 136.751 125.932 136.074 125.947C134.772 125.977 133.477 125.992 132.175 126.014C130.451 126.044 128.72 126.089 126.997 126.119C125.288 126.157 123.58 126.187 121.871 126.217C120.2 126.254 118.529 126.284 116.851 126.322C114.819 126.367 112.794 126.404 110.762 126.449C108.715 126.494 106.668 126.547 104.628 126.592C103.296 126.622 101.956 126.629 100.624 126.659C98.8777 126.689 97.1391 126.734 95.393 126.772C93.7371 126.809 92.0813 126.839 90.4255 126.869C88.7019 126.907 86.9708 126.944 85.2472 126.974C83.5763 127.012 81.9055 127.042 80.227 127.072C78.5185 127.109 76.81 127.139 75.1015 127.177C74.2284 127.192 73.3553 127.222 72.4898 127.237C71.7898 127.244 71.564 127.027 71.5565 126.322C71.5414 125.661 71.5565 125.009 71.5565 124.348C71.5715 122.435 71.5941 120.514 71.6092 118.601C71.6242 114.077 71.6318 109.553 71.6543 105.029C71.6619 102.523 71.6844 100.024 71.692 97.5184C71.692 95.6727 71.692 93.827 71.692 91.9813C71.692 90.6833 71.7221 89.3928 71.7296 88.0949C71.7296 87.4046 71.7296 86.7143 71.7296 86.0166C71.7447 86.0166 71.7522 86.0166 71.7672 86.0166V86.0391Z" fill="white"/>
<path d="M72.4521 128.002C71.3759 128.002 70.8189 127.447 70.7963 126.344C70.7888 125.752 70.7963 125.151 70.7963 124.559L70.8189 122.233C70.8339 121.025 70.8415 119.817 70.849 118.609C70.8565 116.05 70.8641 113.492 70.8716 110.941L70.8866 105.036C70.8866 103.783 70.9017 102.53 70.9092 101.277C70.9092 100.024 70.9243 98.7789 70.9243 97.526C70.9243 96.6256 70.9243 95.7328 70.9243 94.8325C70.9243 93.8871 70.9243 92.9418 70.9243 91.9889C70.9243 91.2536 70.9393 90.5109 70.9468 89.7756C70.9468 89.2204 70.9619 88.6577 70.9619 88.1025C70.9619 87.6223 70.9619 87.1346 70.9619 86.6544V85.2814H70.9995V77.6285C70.9995 75.3702 70.9995 73.1119 71.0146 70.8535C71.0146 70.1407 71.0296 69.428 71.0372 68.7077C71.0447 68.04 71.0597 67.3647 71.0597 66.697C71.0597 65.6691 71.0597 64.6412 71.0597 63.6058V61.2124C71.0597 60.2746 71.0748 59.3292 71.0748 58.3913C71.0748 57.4535 71.0823 56.5081 71.0898 55.5703C71.0974 53.1019 71.1049 50.6334 71.1049 48.1725C71.1049 47.6848 71.1049 47.1972 71.0898 46.7095C71.0898 46.3643 71.0823 46.0192 71.0748 45.6741C71.0748 45.2689 71.2178 44.9013 71.4812 44.6462C71.7447 44.3911 72.1059 44.2636 72.5274 44.2711C72.9188 44.2861 73.3177 44.3236 73.7091 44.3611L87.7234 45.6516C88.8223 45.7566 89.9212 45.8542 91.0201 45.9592C92.1716 46.0642 93.3232 46.1693 94.4823 46.2668L112.237 47.8874C113.366 47.9925 114.503 48.0975 115.632 48.2025C116.67 48.3001 117.717 48.3901 118.755 48.4801C119.862 48.5777 120.961 48.6752 122.067 48.7727C123.188 48.8778 124.31 48.9828 125.431 49.0879C126.432 49.1854 127.441 49.2754 128.442 49.373C129.315 49.4555 130.196 49.5305 131.069 49.6056C131.949 49.6806 132.822 49.7631 133.703 49.8381C134.982 49.9582 136.262 50.0707 137.541 50.2133C138.497 50.3183 138.987 50.8585 138.987 51.8264C138.987 52.7717 138.971 53.7171 138.956 54.6624C138.896 58.1738 138.836 61.6926 138.768 65.2039C138.746 66.5394 138.716 67.8749 138.685 69.2104C138.648 71.0111 138.61 72.8192 138.58 74.6199C138.55 76.3005 138.527 77.9737 138.505 79.6543C138.49 80.9748 138.467 82.2953 138.445 83.6158C138.422 84.9588 138.399 86.2943 138.369 87.6373L138.272 93.3694C138.256 94.5549 138.234 95.7478 138.211 96.9333C138.189 98.1112 138.166 99.2891 138.144 100.46C138.121 101.698 138.091 102.936 138.068 104.173C138.053 105.164 138.038 106.162 138.023 107.152C138.008 108.15 137.993 109.14 137.978 110.138C137.955 111.459 137.925 112.779 137.903 114.107L137.842 117.273C137.827 117.881 137.82 118.481 137.812 119.089L137.79 120.68C137.767 122.135 137.737 123.591 137.707 125.046C137.684 126.112 137.127 126.667 136.066 126.689C135.268 126.712 134.471 126.719 133.673 126.734L114.48 127.117C113.238 127.14 112.004 127.17 110.762 127.192C109.799 127.215 108.835 127.237 107.872 127.26C106.788 127.29 105.704 127.312 104.62 127.335C103.89 127.35 103.153 127.365 102.423 127.372C101.821 127.38 101.218 127.387 100.616 127.402C99.5928 127.425 98.5616 127.447 97.538 127.47L74.1381 127.95C73.5811 127.965 73.0317 127.98 72.4747 127.987H72.4296L72.4521 128.002ZM72.3167 126.502C72.3543 126.502 72.407 126.502 72.4823 126.502C73.0317 126.502 73.5811 126.479 74.123 126.464L97.523 125.984C98.5541 125.962 99.5777 125.939 100.601 125.917C101.203 125.902 101.813 125.894 102.415 125.887C103.145 125.879 103.875 125.864 104.605 125.849C105.689 125.827 106.773 125.797 107.849 125.774C108.813 125.752 109.776 125.729 110.74 125.707C111.981 125.677 113.223 125.654 114.458 125.632L133.658 125.249C134.448 125.241 135.246 125.226 136.036 125.204C136.111 125.204 136.164 125.204 136.194 125.196C136.194 125.159 136.202 125.106 136.209 125.031C136.247 123.576 136.269 122.128 136.292 120.672L136.315 119.082C136.322 118.474 136.33 117.866 136.345 117.258L136.405 114.085C136.435 112.764 136.458 111.444 136.48 110.123C136.495 109.133 136.51 108.135 136.525 107.145C136.54 106.147 136.555 105.156 136.571 104.158C136.593 102.921 136.616 101.683 136.646 100.445C136.668 99.2666 136.691 98.0962 136.714 96.9183C136.736 95.7328 136.751 94.5474 136.774 93.3619L136.872 87.6223C136.894 86.2868 136.924 84.9438 136.947 83.6083C136.969 82.2878 136.984 80.9673 137.007 79.6468C137.03 77.9662 137.052 76.2855 137.082 74.6049C137.112 72.7967 137.15 70.9961 137.188 69.1879C137.218 67.8524 137.24 66.5169 137.27 65.1814C137.338 61.6701 137.398 58.1513 137.459 54.6399C137.474 53.7021 137.489 52.7642 137.489 51.8264C137.489 51.7814 137.489 51.7439 137.489 51.7214C137.466 51.7214 137.429 51.7139 137.391 51.7063C136.119 51.5713 134.847 51.4512 133.582 51.3387C132.702 51.2562 131.829 51.1811 130.956 51.1061C130.075 51.0311 129.202 50.9486 128.321 50.8735C127.32 50.7835 126.312 50.686 125.311 50.5884C124.189 50.4834 123.068 50.3783 121.946 50.2733C120.848 50.1758 119.741 50.0782 118.642 49.9807C117.596 49.8907 116.558 49.7931 115.511 49.7031C114.375 49.5981 113.246 49.493 112.109 49.388L94.3618 47.7674C93.2103 47.6623 92.0512 47.5648 90.8996 47.4598C89.8008 47.3622 88.7019 47.2572 87.603 47.1521L73.5886 45.8617C73.265 45.8317 72.9338 45.8016 72.6102 45.7866C72.6102 46.1017 72.6102 46.4019 72.6177 46.702C72.6253 47.1972 72.6328 47.6923 72.6328 48.1875C72.6328 50.656 72.6328 53.1244 72.6177 55.5928C72.6177 56.5307 72.6102 57.476 72.6027 58.4139C72.6027 59.3517 72.5951 60.2971 72.5876 61.2349V63.6208C72.5876 64.6562 72.5876 65.6841 72.5801 66.7195C72.5801 67.3947 72.565 68.07 72.5575 68.7452C72.55 69.458 72.5349 70.1633 72.5349 70.8685C72.5274 73.1269 72.5274 75.3852 72.5199 77.6435L72.4823 86.797C72.4823 87.2396 72.4823 87.6823 72.4823 88.1325C72.4823 88.6952 72.4672 89.2504 72.4672 89.8131C72.4597 90.5484 72.4521 91.2836 72.4446 92.0114C72.4446 92.9568 72.4446 93.9021 72.4446 94.8475C72.4446 95.7928 72.4446 96.6482 72.4446 97.5485C72.4446 98.8015 72.4296 100.054 72.422 101.307C72.422 102.56 72.407 103.806 72.407 105.059L72.3919 110.964C72.3919 113.522 72.3769 116.08 72.3694 118.639C72.3694 119.854 72.3543 121.062 72.3392 122.27L72.3167 124.589C72.3167 125.174 72.3091 125.752 72.3167 126.337C72.3167 126.412 72.3167 126.472 72.3242 126.517L72.3167 126.502Z" fill="#005CA1"/>
<path d="M107.3 54.4148C103.672 54.2497 100.044 54.0771 96.4087 53.9121C93.511 53.7845 90.6058 53.672 87.7081 53.5444C84.148 53.3869 80.5955 53.2068 77.0355 53.0417C75.0936 52.9517 73.1518 52.8917 71.2175 52.8092C68.6359 52.7041 66.0543 52.5841 63.4802 52.4715C63.2168 52.4565 62.9458 52.4415 62.6824 52.3965C62.1781 52.3065 61.9749 51.8188 62.2609 51.3836C62.3211 51.2936 62.3964 51.2186 62.4641 51.136C76.4559 34.8399 90.4477 18.5438 104.447 2.25525C104.62 2.05267 104.793 1.8501 104.966 1.64752C105.508 1.03229 105.9 1.03979 106.381 1.69254C106.938 2.45032 107.488 3.21561 108.037 3.98089C119.884 20.3745 131.731 36.7757 143.57 53.1693C143.946 53.687 144.315 54.2047 144.691 54.7299C144.774 54.8424 144.864 54.9625 144.925 55.09C145.143 55.5627 144.879 55.9903 144.353 56.0354C144.232 56.0504 144.104 56.0354 143.976 56.0354C140.115 55.8628 136.254 55.6827 132.393 55.5177C128.652 55.3526 124.919 55.2101 121.178 55.045C117.799 54.8949 114.42 54.7299 111.04 54.5723C109.798 54.5123 108.549 54.4748 107.3 54.4223V54.4148Z" fill="#005CA1"/>
<path d="M116.106 73.7945C116.106 71.4011 116.106 69.0002 116.106 66.6068C116.106 65.6465 116.211 65.5414 117.16 65.5564C120.223 65.609 123.279 65.654 126.342 65.714C126.824 65.7215 127.305 65.744 127.78 65.7665C128.329 65.7965 128.585 66.0666 128.57 66.6218C128.525 68.31 128.472 69.9906 128.419 71.6787C128.397 72.4215 128.397 73.1718 128.382 73.9146C128.344 75.7753 128.306 77.6435 128.269 79.5042C128.254 80.0218 128.224 80.532 128.201 81.0422C128.178 81.5974 127.998 81.83 127.441 81.8675C126.711 81.9201 125.981 81.9351 125.251 81.9576C123.113 82.0401 120.983 82.1226 118.846 82.2052C118.243 82.2277 117.634 82.2577 117.032 82.2727C116.279 82.2952 116.016 82.0551 116.023 81.3048C116.031 79.3316 116.061 77.3659 116.076 75.3926C116.076 74.8599 116.076 74.3272 116.076 73.7945H116.091H116.106Z" fill="#005CA1"/>
<path d="M115.353 102.44C115.353 100.467 115.368 98.5012 115.346 96.528C115.346 96.0778 115.496 95.7252 115.797 95.4401C115.948 95.2975 116.196 95.2 116.414 95.185C117.604 95.1024 118.793 95.0574 119.99 94.9974C121.322 94.9299 122.654 94.8698 123.986 94.8023C124.822 94.7648 125.657 94.7123 126.492 94.6823C127.08 94.6673 127.335 94.9149 127.366 95.5001C127.478 97.6459 127.584 99.7842 127.689 101.93C127.795 104.038 127.907 106.147 128.005 108.255C128.043 108.998 127.832 109.208 127.072 109.223C125.062 109.268 123.045 109.298 121.036 109.335C119.508 109.365 117.972 109.388 116.445 109.418C116.317 109.418 116.196 109.425 116.068 109.418C115.654 109.373 115.436 109.148 115.391 108.728C115.383 108.622 115.391 108.517 115.391 108.405C115.391 106.417 115.391 104.428 115.391 102.44H115.361H115.353Z" fill="#005CA1"/>
<path d="M91.1931 72.369C91.1931 74.7999 91.1931 77.2308 91.1931 79.6617C91.1931 79.8042 91.2006 79.9468 91.1931 80.0894C91.1479 80.4795 90.9372 80.6896 90.5458 80.7421C90.4404 80.7571 90.3351 80.7571 90.2297 80.7571C87.4675 80.7496 84.7128 80.7421 81.9505 80.7271C81.2054 80.7271 81.0022 80.5095 80.9796 79.7817C80.8968 77.5834 80.814 75.3851 80.7312 73.1943C80.6635 71.5136 80.5882 69.8255 80.5205 68.1449C80.4829 67.3121 80.4528 66.4793 80.4151 65.6465C80.4001 65.2638 80.4603 64.9412 80.8667 64.7761C80.942 64.7461 81.0022 64.6636 81.0549 64.5961C81.2205 64.3485 81.4688 64.2809 81.7473 64.2734C83.4859 64.2059 85.2321 64.1309 86.9707 64.0559C88.0019 64.0108 89.033 63.9808 90.0641 63.9133C90.8996 63.8608 91.178 64.0709 91.178 64.9187C91.1856 67.4021 91.178 69.8855 91.178 72.369H91.2157H91.1931Z" fill="#005CA1"/>
<path d="M81.6118 103.506C81.5742 101.45 81.5666 99.3866 81.4914 97.3309C81.4613 96.5356 81.6795 96.1904 82.7634 96.0779C83.4332 96.0104 84.1181 96.0704 84.7955 96.0779C87.0911 96.1079 89.3867 96.1379 91.6823 96.1754C91.8629 96.1754 92.0436 96.1679 92.2167 96.1904C92.6532 96.243 92.879 96.483 92.9242 96.9182C92.9317 96.9857 92.9242 97.0608 92.9317 97.1283C92.9693 99.1165 93.007 101.105 93.0446 103.093C93.0822 105.029 93.1198 106.964 93.15 108.893C93.15 109.05 93.15 109.215 93.15 109.373C93.1424 110.041 92.9467 110.251 92.2618 110.296C91.6973 110.333 91.1253 110.371 90.5533 110.401C87.9416 110.551 85.3299 110.701 82.7182 110.851C82.0182 110.888 81.7247 110.641 81.7097 109.943C81.672 107.797 81.6344 105.651 81.6043 103.498L81.6118 103.506Z" fill="#005CA1"/>
<path fill-rule="evenodd" clip-rule="evenodd" d="M103.612 86.6544C101.888 84.6662 98.7949 83.3682 96.8983 81.8451C95.0016 80.322 94.2941 78.5664 94.7984 77.4109C95.3026 76.248 97.0262 75.6853 98.5917 75.4152C100.157 75.1451 101.565 75.1676 102.129 74.5224C102.694 73.8846 102.415 72.5791 100.932 72.084C99.4422 71.5888 96.7477 71.8964 94.7607 72.9693C92.7737 74.0422 91.5093 75.8879 91.4566 77.8761C91.4039 79.8644 92.578 82.0102 94.6252 83.7058C96.6725 85.4014 99.6078 86.6469 100.955 88.6051C102.302 90.5634 102.069 93.2344 100.029 94.7274C98.5315 95.8228 96.0628 96.288 94.0758 96.5506C94.0156 96.4381 93.9479 96.3255 93.8801 96.2205C91.6598 92.5966 87.5428 92.139 81.8076 92.8217C76.0724 93.5045 68.7265 95.3126 64.2633 95.9279C61.5537 96.303 59.913 96.228 58.7388 96.1079C60.628 94.1497 60.9893 91.3887 61.0269 87.9674C61.072 83.6008 60.5979 78.1537 59.8603 75.4077C59.1302 72.6617 58.1367 72.6092 57.0153 73.3369C55.8863 74.0647 54.6218 75.5728 53.9745 76.3455C53.3273 77.1258 53.2896 77.1709 53.267 77.1934C53.2369 77.2159 53.2219 77.2159 51.4757 77.2834C49.7296 77.3509 46.2599 77.4785 44.5212 77.5385C43.3622 77.5835 42.7676 77.596 42.7375 77.576C42.6923 77.5535 42.5945 77.501 41.8192 76.8257C41.0515 76.1505 39.614 74.845 38.4323 74.4999C37.2506 74.1547 36.3324 74.77 35.9485 78.0037C35.5647 81.2374 35.7227 87.0821 36.4679 91.2836C37.1152 94.9675 38.214 97.3909 41.1644 98.5989C41.1268 99.1991 41.0967 99.9419 41.059 100.857C40.8784 104.744 40.4795 111.729 40.2913 116.696C40.1032 121.662 40.1258 124.604 40.8935 126.179C41.6612 127.755 43.174 127.965 44.017 126.224C44.8599 124.484 45.0481 120.8 45.4771 117.769C45.9061 114.737 46.591 112.352 47.3061 111.451C48.0286 110.551 48.7888 111.121 48.992 113.102C49.1877 115.075 48.8264 118.459 48.6909 121.197C48.5555 123.936 48.6533 126.044 49.5715 126.742C50.4822 127.44 52.2133 126.727 53.0488 124.634C53.8842 122.533 53.8165 119.044 53.809 116.666C53.8014 114.28 53.8466 112.997 53.8842 112.337C53.9143 111.676 53.9294 111.639 53.967 111.661C54.0046 111.676 54.0649 111.751 55.7884 112.839C57.5195 113.927 60.9215 116.028 65.0912 116.501C69.2684 116.973 74.2133 115.818 77.1938 114.797C80.1743 113.77 81.1754 112.869 81.6721 112.434C82.1689 111.991 82.1613 112.014 82.071 113.98C81.9807 115.953 81.8076 119.877 82.0259 122.285C82.2441 124.701 82.8538 125.601 83.8774 125.917C84.901 126.239 86.3461 125.977 87.1138 123.898C87.8815 121.82 87.9718 117.934 88.1374 115.42C88.303 112.907 88.5513 111.766 89.0105 111.579C89.4621 111.384 90.1319 112.141 90.305 113.95C90.4781 115.758 90.162 118.616 89.9588 120.882C89.7556 123.148 89.6728 124.814 90.1996 125.601C90.734 126.397 91.8781 126.314 92.7587 125.812C93.6317 125.309 94.2414 124.386 94.8661 122.255C95.4908 120.124 96.1381 116.786 96.2961 111.721C96.4166 107.94 96.2585 103.191 95.2499 99.5217C96.9359 99.3642 98.7874 99.064 100.293 98.5163C102.957 97.5485 104.523 95.7928 105.125 93.572C105.727 91.3512 105.358 88.6652 103.634 86.6694L103.612 86.6544Z" fill="#F5E83A"/>
<path d="M42.3383 128.183C41.4878 128.115 40.6975 127.5 40.2083 126.502C39.3804 124.799 39.3277 121.97 39.5309 116.658C39.6513 113.515 39.8545 109.583 40.0352 106.109C40.1405 104.099 40.2384 102.245 40.2986 100.812L40.3287 100.1C40.3438 99.7169 40.3588 99.3717 40.3739 99.0641C37.3858 97.6161 36.3396 94.9451 35.7149 91.4038C34.9247 86.9021 34.8268 81.0049 35.1881 77.9062C35.444 75.7529 35.9332 74.5375 36.7912 73.9748C37.3106 73.6296 37.9353 73.5621 38.6352 73.7647C39.9223 74.1398 41.3523 75.4003 42.2028 76.1506L42.3157 76.2481C42.6845 76.5782 42.8877 76.7433 42.9931 76.8258C43.2189 76.8258 43.6931 76.8033 44.4909 76.7733L51.4454 76.5182C52.1754 76.4957 52.6346 76.4732 52.8905 76.4657L53.4023 75.8505C54.042 75.0852 55.3817 73.4871 56.6085 72.6918C56.9021 72.5042 57.7827 71.934 58.7235 72.2941C59.5514 72.6092 60.146 73.5396 60.5901 75.2052C61.3201 77.9362 61.832 83.4208 61.7793 87.9675C61.7492 90.9986 61.4406 93.4896 60.2062 95.4403C61.1771 95.4628 62.4416 95.4103 64.1652 95.1777C66.0844 94.9151 68.5832 94.4199 71.225 93.8947C74.612 93.2194 78.458 92.4617 81.7245 92.0715C86.7673 91.4713 91.8025 91.5088 94.4669 95.7329C96.1529 95.4853 98.3054 95.0501 99.5774 94.1198C101.196 92.9418 101.519 90.751 100.33 89.0329C99.5624 87.9225 98.185 87.0371 96.7249 86.0918C95.8443 85.5291 94.9336 84.9439 94.1433 84.2836C91.9004 82.4304 90.6434 80.0895 90.7037 77.8612C90.7639 75.6104 92.1412 73.5396 94.3992 72.3166C96.484 71.1837 99.3893 70.7861 101.166 71.3788C102.151 71.7089 102.851 72.3767 103.077 73.2245C103.258 73.8847 103.107 74.5525 102.693 75.0326C102.091 75.7154 101.06 75.8505 99.871 76.0005C99.5022 76.0455 99.1183 76.098 98.7194 76.1656C96.9657 76.4732 95.7916 77.0359 95.4905 77.7262C95.1744 78.4539 95.626 79.8795 97.3722 81.275C98.0646 81.8302 98.9377 82.3629 99.871 82.9331C101.429 83.886 103.047 84.8688 104.184 86.1818C105.922 88.1851 106.554 91.0962 105.832 93.7672C105.14 96.3256 103.311 98.2088 100.533 99.2217C99.3667 99.6494 97.899 99.9645 96.1754 100.175C97.056 103.963 97.1388 108.503 97.0335 111.744C96.898 116.013 96.4088 119.622 95.5733 122.465C94.9185 124.709 94.2261 125.827 93.1197 126.464C91.9531 127.132 90.3499 127.2 89.5596 126.022C88.8822 125.009 88.9801 123.223 89.1908 120.815L89.2736 119.899C89.4618 117.851 89.6801 115.525 89.537 114.025C89.4693 113.357 89.3414 112.907 89.2209 112.637C89.1156 113.064 88.9801 113.89 88.8747 115.48C88.8446 115.9 88.822 116.351 88.7919 116.831C88.6564 119.284 88.4833 122.33 87.806 124.169C86.8877 126.667 84.991 127.065 83.6438 126.644C82.2062 126.194 81.4987 124.919 81.2729 122.36C81.0471 119.847 81.2353 115.713 81.3181 113.95V113.867C81.3181 113.8 81.3256 113.732 81.3331 113.672C80.6106 114.175 79.444 114.828 77.4344 115.518C75.8237 116.073 70.1563 117.859 65.0006 117.258C60.5826 116.756 57.0677 114.55 55.3817 113.485C55.0882 113.304 54.8323 113.139 54.6065 112.989C54.5689 114.01 54.5538 115.218 54.5613 116.673V117.071C54.5764 119.487 54.5914 122.803 53.7485 124.926C53.1915 126.337 52.183 127.365 51.054 127.672C50.339 127.875 49.6465 127.755 49.1121 127.35C47.9305 126.449 47.7875 124.319 47.938 121.175C47.9756 120.387 48.0358 119.539 48.0961 118.699C48.2391 116.658 48.3821 114.542 48.2466 113.192C48.1713 112.449 48.0283 112.074 47.9305 111.901C47.923 111.916 47.9079 111.924 47.9004 111.939C47.4337 112.524 46.7187 114.43 46.222 117.896C46.1091 118.699 46.0112 119.547 45.9134 120.395C45.6349 122.856 45.3715 125.189 44.6941 126.577C44.1823 127.62 43.3845 128.22 42.4888 128.22C42.4361 128.22 42.391 128.22 42.3383 128.22V128.183ZM37.9578 75.1602C37.7622 75.1452 37.6794 75.2052 37.6342 75.2352C37.3934 75.3928 36.9493 75.978 36.7009 78.0938C36.3472 81.0874 36.445 86.7895 37.2127 91.1562C37.9052 95.0952 39.0567 96.9258 41.4577 97.9087L41.9544 98.1113L41.9243 98.644C41.9017 99.0791 41.8716 99.5893 41.8491 100.182L41.8189 100.895C41.7512 102.328 41.6534 104.181 41.5555 106.199C41.3749 109.666 41.1717 113.597 41.0512 116.733C40.8706 121.573 40.9007 124.461 41.5781 125.864C41.834 126.382 42.1727 126.727 42.4963 126.712C42.7823 126.712 43.0985 126.412 43.3468 125.917C43.9113 124.761 44.1747 122.45 44.4306 120.222C44.5285 119.367 44.6263 118.504 44.7392 117.686C44.9575 116.156 45.5897 112.434 46.7262 111.009C47.381 110.191 48.066 110.281 48.3294 110.356C48.8713 110.513 49.5562 111.114 49.7519 113.042C49.9024 114.512 49.7519 116.696 49.6089 118.797C49.5487 119.637 49.496 120.47 49.4584 121.25C49.4057 122.315 49.2476 125.557 50.0379 126.157C50.2336 126.307 50.5121 126.262 50.6626 126.224C51.1819 126.082 51.9045 125.519 52.3561 124.371C53.0861 122.518 53.0786 119.374 53.0636 117.078V116.681C53.0636 114.903 53.0786 113.477 53.1313 112.314C53.1689 111.541 53.184 111.256 53.5603 111.024L53.9065 110.821L54.4334 111.084C54.742 111.301 55.5624 111.819 56.1871 112.217C57.7827 113.222 61.1019 115.308 65.1737 115.765C69.0198 116.208 73.769 115.188 76.9452 114.092C79.7601 113.124 80.7085 112.284 81.16 111.886C81.4385 111.639 81.8374 111.286 82.3568 111.534C82.9212 111.804 82.9062 112.209 82.8234 113.935V114.017C82.7406 115.75 82.5524 119.809 82.7707 122.225C83.0116 124.874 83.7115 125.091 84.0954 125.211C84.5545 125.361 85.7136 125.497 86.3985 123.651C87.0006 122.03 87.1662 119.104 87.2942 116.748C87.3243 116.261 87.3468 115.803 87.3769 115.383C87.5802 112.292 87.8963 111.241 88.7016 110.896C89.0403 110.754 89.4242 110.784 89.7628 110.986C90.4402 111.391 90.8918 112.419 91.0348 113.882C91.1929 115.525 90.9671 117.926 90.7714 120.042L90.6886 120.957C90.5607 122.383 90.365 124.544 90.809 125.196C91.0725 125.587 91.8101 125.497 92.367 125.174C92.9767 124.829 93.5035 124.161 94.1282 122.06C94.926 119.329 95.4002 115.848 95.5282 111.714C95.6335 108.323 95.5432 103.498 94.5045 99.7394L94.2637 98.8766L95.1594 98.794C97.1388 98.6065 98.7721 98.2838 100.014 97.8337C102.34 96.9859 103.807 95.4928 104.372 93.3995C104.966 91.2012 104.455 88.8153 103.04 87.1872C102.054 86.0543 100.541 85.1314 99.0807 84.2386C98.1097 83.6459 97.1915 83.0907 96.4238 82.4754C94.339 80.8023 93.4283 78.7165 94.1056 77.1559C94.6325 75.948 96.1002 75.1302 98.456 74.7175C98.8775 74.6425 99.2914 74.59 99.6753 74.545C100.488 74.4399 101.331 74.3349 101.557 74.0723C101.64 73.9748 101.662 73.8172 101.617 73.6446C101.572 73.4796 101.391 73.0744 100.684 72.8343C99.4871 72.4292 97.0109 72.6393 95.1142 73.6671C93.3379 74.635 92.2466 76.2256 92.2014 77.9362C92.1563 79.6769 93.2401 81.6351 95.0991 83.1657C95.8217 83.7659 96.6948 84.3211 97.5377 84.8688C99.0581 85.8442 100.631 86.8646 101.572 88.2226C103.228 90.6235 102.754 93.6996 100.466 95.3728C98.7871 96.6032 96.0701 97.0834 94.1659 97.331L93.6541 97.3985L93.4057 96.9483C93.3455 96.8433 93.2928 96.7458 93.2326 96.6482C91.4262 93.7071 88.2425 92.8518 81.8976 93.6021C78.6913 93.9847 74.8829 94.735 71.5186 95.4028C68.8542 95.928 66.3328 96.4307 64.3684 96.7008C61.5234 97.0909 59.8224 97.0009 58.6633 96.8808L57.1354 96.7233L58.2042 95.6128C59.8826 93.8722 60.2439 91.4038 60.2815 87.9825C60.3266 83.5483 59.8374 78.2363 59.145 75.6254C58.7235 74.0423 58.3095 73.7722 58.1891 73.7272C58.0085 73.6521 57.6773 73.8247 57.4365 73.9823C56.3978 74.65 55.1635 76.1356 54.5689 76.8483L54.0119 77.5236C53.8388 77.7337 53.8012 77.7637 53.7861 77.7787C53.6356 77.9137 52.8905 78.0063 51.5507 78.0563L44.5737 78.3114C43.2841 78.3564 42.5666 78.3414 42.4211 78.2664C42.3006 78.1988 42.1802 78.1388 41.3523 77.4035L41.2394 77.306C40.5319 76.6833 39.2148 75.5128 38.2514 75.2352C38.146 75.2052 38.0557 75.1902 37.988 75.1827L37.9578 75.1602Z" fill="#005CA1"/>
<path fill-rule="evenodd" clip-rule="evenodd" d="M41.2697 83.2481C41.202 84.201 40.6375 85.0038 39.6064 84.8462C38.6881 84.7037 38.4924 83.8934 38.4172 83.1131C38.4172 82.9405 38.2666 82.798 38.0935 82.8055C37.9204 82.8055 37.7774 82.9555 37.785 83.1281C37.9054 84.381 38.4172 85.5515 39.8924 85.4915C41.217 85.4389 41.8116 84.4486 41.902 83.2406C41.902 83.0681 41.7514 82.9255 41.5783 82.933C41.4052 82.933 41.2622 83.0831 41.2697 83.2556V83.2481Z" fill="#005CA1"/>
<path fill-rule="evenodd" clip-rule="evenodd" d="M57.1804 82.9256C57.1051 83.916 56.5331 84.7413 55.4568 84.5762C54.5085 84.4262 54.3053 83.5859 54.23 82.7831C54.23 82.603 54.0795 82.4604 53.8988 82.4604C53.7182 82.4604 53.5752 82.6105 53.5752 82.7906C53.6956 84.0886 54.23 85.2965 55.7504 85.2365C57.1127 85.184 57.7298 84.1561 57.8277 82.9106C57.8277 82.7305 57.6771 82.588 57.4965 82.588C57.3159 82.588 57.1729 82.7381 57.1729 82.9181L57.1804 82.9256Z" fill="#005CA1"/>
<path fill-rule="evenodd" clip-rule="evenodd" d="M48.7885 88.4926C48.6079 88.9353 48.2316 89.588 47.8703 89.8356C47.5165 90.0832 47.1854 89.9257 46.8994 89.6105C46.6134 89.2954 46.3725 88.8303 46.2446 88.4926C46.1166 88.155 46.1016 87.9374 46.3048 87.8024C46.508 87.6673 46.9295 87.6148 47.4036 87.5923C47.8778 87.5698 48.4047 87.5848 48.6756 87.7048C48.9466 87.8249 48.9692 88.05 48.7961 88.4926H48.7885Z" fill="#005CA1"/>
<path fill-rule="evenodd" clip-rule="evenodd" d="M48.9692 92.3715C48.9466 93.1518 48.5928 93.8346 47.9079 94.0072L47.8251 89.573H47.1402L47.223 94.0072C46.4177 93.8346 46.2145 93.0768 46.1091 92.349C46.1016 92.1765 45.951 92.0414 45.7779 92.0489C45.6048 92.0564 45.4693 92.2065 45.4769 92.379C45.65 93.6245 46.2069 94.7799 47.6746 94.6599C48.9917 94.5549 49.5487 93.542 49.5939 92.334C49.5863 92.1615 49.4358 92.0264 49.2627 92.0339C49.0896 92.0414 48.9541 92.1915 48.9692 92.364V92.3715Z" fill="#005CA1"/>
<path fill-rule="evenodd" clip-rule="evenodd" d="M77.0657 93.5344C77.0507 93.6619 77.0356 93.782 77.0206 93.887C76.9302 94.6373 76.6518 95.8227 76.5163 96.5955C76.4335 97.0607 76.3507 97.4958 76.2754 97.976C76.1324 98.9139 76.1099 99.9267 75.997 100.895L75.8163 103.108C75.8013 103.723 74.9658 103.656 75.0185 103.07C75.0411 102.815 75.0486 102.545 75.0787 102.275L75.2594 100.354C75.2744 100.227 75.2895 100.092 75.297 99.9718C75.3948 97.976 75.726 96.7306 76.0722 94.8173C76.1324 94.4797 76.2077 94.0746 76.2604 93.6694C76.5313 93.6169 76.8023 93.5719 77.0657 93.5269V93.5344Z" fill="#005CA1"/>
<path fill-rule="evenodd" clip-rule="evenodd" d="M74.928 93.9321C74.8076 95.6352 74.6119 96.7606 74.341 98.5763C74.2055 99.4766 74.1001 100.354 74.0173 101.3L73.9345 102.748C73.927 102.98 73.8894 103.213 73.8743 103.453C73.8367 104.061 73.0163 103.963 73.0841 103.423C73.0991 103.311 73.0991 103.183 73.1066 103.048C73.1066 102.943 73.1367 102.778 73.1367 102.673C73.1367 102.53 73.1367 102.433 73.1443 102.283L73.2647 100.384C73.3324 99.6492 73.4378 98.9664 73.5582 98.2312C73.6335 97.766 73.7163 97.3083 73.784 96.8507C73.927 95.9278 74.0776 95.0125 74.1378 94.0746C74.4012 94.0221 74.6721 93.9696 74.9356 93.9246L74.928 93.9321Z" fill="#005CA1"/>
<path fill-rule="evenodd" clip-rule="evenodd" d="M67.906 98.0737L67.9737 99.4242L68.177 101.277C68.177 101.352 68.177 101.435 68.177 101.502C68.177 101.585 68.1995 101.608 68.1995 101.713L68.2296 103.371C68.2296 103.566 68.034 103.746 67.8608 103.746C67.6501 103.746 67.4619 103.611 67.4469 103.416C67.4093 103.048 67.4544 102.17 67.4093 101.908C67.3716 101.698 67.3867 101.397 67.3641 101.18C67.3566 101.09 67.334 100.932 67.3265 100.842C67.2888 100.527 67.2587 100.122 67.206 99.7918C67.1684 99.5592 67.1609 99.3192 67.1308 99.0941C67.1157 98.974 67.1308 98.8465 67.1157 98.7339C67.048 98.3063 67.1383 96.3781 67.1534 95.8829C67.1534 95.8078 67.1684 95.8153 67.1684 95.7403V95.4252C67.4394 95.3802 67.7028 95.3277 67.9737 95.2751L67.8834 98.0587L67.906 98.0737Z" fill="#005CA1"/>
<path fill-rule="evenodd" clip-rule="evenodd" d="M64.5039 95.8828C64.5189 96.3405 64.549 96.6931 64.6318 97.3309C64.9028 99.3866 65.407 101.225 65.0985 103.333C65.0157 103.888 65.0684 103.513 65.0533 104.001C65.0458 104.391 64.549 104.511 64.3383 104.218C64.2028 104.031 64.263 103.543 64.2856 103.318C64.3082 103.138 64.3082 102.98 64.3232 102.8C64.4211 101.96 64.3007 100.67 64.1953 99.8593C64.12 99.2516 64.0071 98.6739 63.9318 98.0961C63.8792 97.721 63.7813 97.1283 63.7663 96.7606C63.7663 96.6181 63.7286 96.423 63.7211 96.288L63.7061 95.9879C63.8867 95.9653 64.0749 95.9428 64.263 95.9128C64.3383 95.9053 64.4211 95.8903 64.4963 95.8828H64.5039Z" fill="#005CA1"/>
<path fill-rule="evenodd" clip-rule="evenodd" d="M79.226 93.1743C79.226 93.9921 79.2035 94.6823 79.0906 95.4776C78.9777 96.2054 78.8422 96.9031 78.7293 97.6609C78.6013 98.5012 78.4583 98.7939 78.3605 99.8367C78.3229 100.204 78.225 101.232 78.1573 101.532C78.0519 102.005 77.382 101.885 77.3745 101.495L77.5175 100.332C77.6154 99.3791 77.6304 99.0039 77.8562 98.0511C77.939 97.6834 77.9842 97.2933 78.0368 96.9107C78.0895 96.543 78.1648 96.1679 78.2325 95.7927C78.3003 95.4176 78.3454 95.0425 78.3906 94.6223L78.4282 93.2943C78.6917 93.2493 78.9626 93.2043 79.2185 93.1667L79.226 93.1743Z" fill="#005CA1"/>
<path fill-rule="evenodd" clip-rule="evenodd" d="M85.834 92.5517C85.8039 93.347 85.7136 93.9772 85.5405 94.9301C85.4728 95.3127 85.405 95.6729 85.3599 96.0705C85.2695 96.8283 85.0739 97.286 84.976 98.3063C84.961 98.5089 84.833 99.8294 84.7653 100.069C84.6448 100.535 84.0051 100.407 83.9976 100.009C83.9976 99.8894 84.118 99.0716 84.133 98.839C84.1857 98.1113 84.3061 97.256 84.4717 96.5582C84.5696 96.1455 84.5846 95.8079 84.6524 95.4328L84.9384 93.7596C84.9685 93.5721 84.9986 93.3545 85.0061 93.1669C85.0136 92.9718 85.0287 92.7693 85.0362 92.5592C85.3072 92.5517 85.5706 92.5442 85.834 92.5517Z" fill="#005CA1"/>
<path fill-rule="evenodd" clip-rule="evenodd" d="M87.6327 100.129C87.422 100.129 87.2188 99.9569 87.2188 99.7468L87.3015 99.1841C87.3693 98.6439 87.422 97.9011 87.4972 97.4134C87.5574 97.0233 87.6252 96.6782 87.708 96.318C87.7908 95.9579 87.8209 95.5753 87.8886 95.1926L88.1671 93.5195C88.2123 93.2194 88.2348 92.9718 88.2499 92.7317C88.5133 92.7692 88.7767 92.8217 89.0326 92.8742L89.0176 93.0843C88.9348 93.9471 88.7617 94.7049 88.6413 95.5152C88.581 95.9429 88.5284 96.3105 88.438 96.7082C88.1746 97.8411 88.2047 98.7639 88.0166 99.7918C88.0015 99.8969 87.9639 99.9719 87.9037 100.024C87.851 100.069 87.7306 100.137 87.6402 100.137L87.6327 100.129Z" fill="#005CA1"/>
<path fill-rule="evenodd" clip-rule="evenodd" d="M81.4611 100.775C81.2654 100.775 81.0998 100.662 81.0622 100.505C81.002 100.295 81.0622 100.122 81.0998 99.9419C81.3557 98.8315 81.6793 97.0759 81.7621 95.9429C81.7922 95.5303 81.8374 95.1326 81.8449 94.705L81.8901 93.4295C81.8901 93.2944 81.9051 93.2344 81.9051 93.1144C81.9051 93.0093 81.9051 92.9043 81.9051 92.7993C82.1761 92.7692 82.4395 92.7392 82.7029 92.7092C82.7029 93.0018 82.7029 93.3094 82.6879 93.362C82.6653 93.557 82.6879 93.8046 82.6728 94.0072C82.6202 94.5699 82.6277 95.3052 82.5599 95.8754C82.4922 96.4606 82.4696 97.0308 82.3793 97.6761C82.3191 98.0737 82.2739 98.4414 82.1987 98.824C82.1309 99.1917 81.9955 99.8069 81.8826 100.167C81.8073 100.415 81.86 100.31 81.8374 100.452C81.8073 100.602 81.6417 100.76 81.4761 100.767L81.4611 100.775Z" fill="#005CA1"/>
<path fill-rule="evenodd" clip-rule="evenodd" d="M61.8172 96.1604C61.7795 96.8732 61.6667 97.586 61.5613 98.2912L61.2903 99.9944C61.2075 100.535 61.1097 101.195 61.057 101.728C60.8914 103.528 61.1398 103.603 61.1473 103.768C61.1473 104.031 60.9968 104.181 60.7334 104.181C60.2065 104.188 60.2517 103.078 60.2441 102.703C60.2441 102.38 60.2592 102.043 60.2893 101.758C60.3269 101.435 60.3495 101.15 60.3871 100.842C60.5226 99.7243 60.7334 98.4638 60.9065 97.3309C60.9516 97.0083 61.0118 96.5431 61.0419 96.1679C61.2828 96.1679 61.5462 96.1529 61.8172 96.1379V96.1604Z" fill="#005CA1"/>
<path fill-rule="evenodd" clip-rule="evenodd" d="M71.541 97.2634C71.5636 98.4489 71.4657 99.2517 71.3077 100.34C71.2926 100.422 71.2851 100.52 71.27 100.617C71.2173 101.007 71.4206 101.758 70.8561 101.765C70.7055 101.765 70.5776 101.668 70.5174 101.578C70.4271 101.435 70.4572 101.3 70.4722 101.12C70.4722 101.045 70.4722 100.94 70.4722 100.857C70.4722 100.58 70.6228 99.5218 70.6604 99.2142L70.7507 97.346L70.5926 94.7875C70.8485 94.735 71.1044 94.6825 71.3679 94.6375C71.3679 94.6825 71.3679 94.72 71.3829 94.7575L71.5109 96.4981C71.5109 96.5882 71.5109 96.6782 71.5109 96.7607L71.541 97.2709V97.2634Z" fill="#005CA1"/>
<path fill-rule="evenodd" clip-rule="evenodd" d="M60.9361 87.7048C60.0029 87.6523 58.1664 87.6598 57.0148 87.8549C55.8633 88.0499 55.3891 88.4476 55.2386 88.8602C55.0805 89.2729 55.2461 89.7156 55.8407 90.0157C56.4353 90.3158 57.4664 90.4733 58.5653 90.4809C59.4083 90.4884 60.2889 90.4133 60.9211 90.3308C60.9888 89.5805 61.0114 88.7852 61.0265 87.9524C61.0265 87.8699 61.0265 87.7873 61.0265 87.7048C60.9964 87.7048 60.9662 87.7048 60.9361 87.7048Z" fill="#005CA1"/>
<path fill-rule="evenodd" clip-rule="evenodd" d="M60.7556 91.7038C59.7847 91.6663 58.0837 91.6738 56.9924 91.8613C55.8408 92.0564 55.3666 92.4541 55.2161 92.8667C55.0581 93.2794 55.2236 93.722 55.8182 94.0221C56.4128 94.3223 57.444 94.4798 58.5428 94.4873C59.0019 94.4873 59.4761 94.4723 59.9127 94.4423C60.3266 93.617 60.59 92.7092 60.7556 91.7038Z" fill="#005CA1"/>
<path fill-rule="evenodd" clip-rule="evenodd" d="M35.9634 87.1946C36.9569 87.1345 38.3869 87.112 39.3578 87.2396C40.5169 87.3971 41.0061 87.7723 41.1717 88.1774C41.3448 88.5901 41.1943 89.0328 40.6072 89.3479C40.0202 89.6705 38.9966 89.8656 37.8977 89.9181C37.3407 89.9481 36.7612 89.9331 36.2569 89.9106C36.1365 89.0403 36.0386 88.1249 35.9634 87.1946Z" fill="#005CA1"/>
<path fill-rule="evenodd" clip-rule="evenodd" d="M36.4528 91.186C37.4162 91.141 38.6581 91.1335 39.5312 91.2535C40.6903 91.4111 41.1795 91.7862 41.3451 92.1914C41.5182 92.604 41.3677 93.0467 40.7806 93.3618C40.1935 93.6845 39.1699 93.8795 38.071 93.932C37.7474 93.9471 37.4162 93.9546 37.1001 93.947C36.8367 93.1442 36.6335 92.2589 36.4604 91.2836C36.4604 91.2535 36.4528 91.2235 36.4453 91.1935L36.4528 91.186Z" fill="#005CA1"/>
<path fill-rule="evenodd" clip-rule="evenodd" d="M51.2647 127.98C51.0991 127.98 50.8357 128.01 50.8281 127.627L51.6636 125.421C51.7915 125.181 52.1227 125.181 52.2657 125.429C52.341 125.564 52.2657 125.684 52.2281 125.811C52.1453 126.082 52.07 126.344 51.9797 126.614C51.8818 126.899 51.7915 127.087 51.6711 127.335C51.5808 127.522 51.4528 127.98 51.2571 127.98H51.2647Z" fill="#005CA1"/>
<path fill-rule="evenodd" clip-rule="evenodd" d="M89.5748 126.427C88.8372 126.442 89.3565 125.669 89.4543 124.881C89.5597 124.011 89.3715 123.673 89.8909 123.658C90.2672 123.658 90.1919 124.123 90.1769 124.236C90.1543 124.506 90.1769 124.694 90.1167 125.099C90.0715 125.376 90.0113 125.601 89.9436 125.857C89.8833 126.089 89.8532 126.427 89.5748 126.427Z" fill="#005CA1"/>
<path fill-rule="evenodd" clip-rule="evenodd" d="M85.7741 126.734C85.5332 126.734 85.4053 126.614 85.4053 126.374L85.7816 125.489C85.9472 125.144 86.2031 124.213 86.2106 124.198C86.3461 123.928 86.7299 123.973 86.8278 124.221C86.8805 124.348 86.8127 124.506 86.7751 124.619C86.6923 124.889 86.6396 125.151 86.5493 125.414C86.4665 125.661 86.3386 125.886 86.2257 126.119C86.0827 126.412 86.0074 126.719 85.7665 126.727L85.7741 126.734Z" fill="#005CA1"/>
<path fill-rule="evenodd" clip-rule="evenodd" d="M84.4344 124.851C84.4344 125.054 83.9 126.277 83.7043 126.622C83.5237 126.937 83.5387 127.079 83.2904 127.087C83.1022 127.087 82.9517 126.944 82.9517 126.727C82.9517 126.584 83.0269 126.562 83.0871 126.472C83.1624 126.352 83.5989 125.204 83.6667 125.001C83.7946 124.656 83.7796 124.528 84.1258 124.521C84.2236 124.521 84.2839 124.559 84.3365 124.611C84.3742 124.649 84.4344 124.784 84.4419 124.844L84.4344 124.851Z" fill="#005CA1"/>
<path fill-rule="evenodd" clip-rule="evenodd" d="M85.6532 124.919C85.6607 125.422 84.9683 126.735 84.7199 126.945C84.4941 127.14 83.9146 126.9 84.2834 126.404C84.7425 125.774 85.0285 124.806 85.036 124.799C85.2317 124.514 85.6532 124.716 85.6532 124.919Z" fill="#005CA1"/>
<path fill-rule="evenodd" clip-rule="evenodd" d="M50.0001 125.752C50.0001 125.842 49.7066 126.337 49.6313 126.472C49.5786 126.562 49.541 126.622 49.5034 126.704C49.4131 126.877 49.1045 127.59 48.9088 127.597C48.1185 127.612 48.6529 126.854 48.7582 126.652C48.8185 126.539 48.8486 126.457 48.9088 126.344C48.969 126.232 49.0217 126.149 49.0894 126.037C49.1496 125.924 49.1948 125.864 49.2625 125.752C49.3604 125.579 49.5184 125.286 49.8195 125.451C49.9023 125.496 50.0076 125.631 50.0076 125.752H50.0001Z" fill="#005CA1"/>
<path fill-rule="evenodd" clip-rule="evenodd" d="M90.6813 126.802C90.5007 126.802 90.3125 126.652 90.3125 126.472C90.3125 126.352 90.606 125.572 90.6662 125.406C90.7265 125.241 90.7942 125.054 90.8544 124.874C90.9673 124.514 91.02 124.484 91.3135 124.484C91.3888 124.484 91.6748 124.619 91.5318 125.016L90.9673 126.622C90.9221 126.697 90.8092 126.802 90.6888 126.802H90.6813Z" fill="#005CA1"/>
<path fill-rule="evenodd" clip-rule="evenodd" d="M43.1964 128.062C43.0383 128.062 42.7222 127.905 42.933 127.507C43.0308 127.312 43.1061 126.899 43.1362 126.689C43.2115 126.187 43.1663 125.759 43.5878 125.751C43.8437 125.751 43.9415 125.969 43.9039 126.232C43.8663 126.487 43.8512 126.719 43.8136 126.982C43.7534 127.357 43.5878 128.062 43.2039 128.07L43.1964 128.062Z" fill="#005CA1"/>
<path fill-rule="evenodd" clip-rule="evenodd" d="M91.6297 127.057C91.4716 127.057 91.291 126.915 91.291 126.697C91.291 126.599 91.3889 126.472 91.4641 126.179C91.5168 125.969 91.7426 124.889 91.8254 124.799C91.9533 124.649 92.2243 124.619 92.3748 124.829C92.4652 124.949 92.435 125.016 92.3974 125.166C92.2394 125.902 92.2017 126.157 91.9007 126.862C91.848 126.982 91.7351 127.05 91.6297 127.05V127.057Z" fill="#005CA1"/>
<path fill-rule="evenodd" clip-rule="evenodd" d="M42.918 126.157C42.918 126.494 42.5568 127.402 42.4062 127.755C42.3009 128.01 42.2858 128.107 42.0073 128.115C41.7966 128.115 41.6987 127.942 41.6987 127.725C41.6987 127.642 41.8417 127.335 41.8794 127.237L42.2181 126.224C42.3686 125.692 42.7524 125.849 42.8428 125.954C42.8804 125.999 42.918 126.082 42.918 126.157Z" fill="#005CA1"/>
<path fill-rule="evenodd" clip-rule="evenodd" d="M40.9984 127.86C40.8855 127.86 40.5769 127.68 40.6973 127.395L40.9307 126.787C41.0135 126.562 41.0962 126.412 41.1941 126.202C41.3521 125.872 41.3371 125.737 41.6607 125.729C41.9016 125.729 42.022 125.999 41.9166 126.217L41.6607 126.809C41.5779 127.027 41.4951 127.207 41.4124 127.41C41.322 127.627 41.2995 127.867 40.9984 127.875V127.86Z" fill="#005CA1"/>
<path fill-rule="evenodd" clip-rule="evenodd" d="M50.8657 126.224C50.8657 126.419 50.4818 127.282 50.3614 127.53C50.1281 128.025 49.6765 127.822 49.6689 127.462C49.6689 127.327 49.9399 126.779 50.0076 126.622C50.0679 126.457 50.1205 126.352 50.1732 126.187C50.3313 125.714 50.8581 125.871 50.8657 126.224Z" fill="#005CA1"/>
<path fill-rule="evenodd" clip-rule="evenodd" d="M38.7407 75.7003C39.245 75.8053 39.7342 76.3005 39.8546 76.7582C39.9751 77.2158 39.7342 77.6435 39.26 77.7485C38.7934 77.8536 38.101 77.636 37.7171 77.3134C37.3333 76.9907 37.2655 76.5706 37.4913 76.2255C37.7171 75.8728 38.2364 75.5952 38.7407 75.7078V75.7003Z" fill="#005CA1"/>
<path fill-rule="evenodd" clip-rule="evenodd" d="M57.2937 75.3551C56.7969 75.4826 56.3228 75.9928 56.2174 76.4505C56.112 76.9157 56.3755 77.3283 56.8496 77.4183C57.3238 77.5009 58.0012 77.2608 58.3775 76.9232C58.7463 76.593 58.799 76.1654 58.5657 75.8278C58.3323 75.4901 57.798 75.2275 57.3012 75.3551H57.2937Z" fill="#005CA1"/>
</g>
</g>
<defs>
<clipPath id="clip0_2080_2346">
<rect width="180" height="128" fill="white" transform="translate(0 0.189941)"/>
</clipPath>
<clipPath id="clip1_2080_2346">
<rect width="110" height="127" fill="white" transform="translate(35 1.18994)"/>
</clipPath>
</defs>
</svg>
