<svg width="36" height="36" viewBox="0 0 36 36" fill="none" xmlns="http://www.w3.org/2000/svg">
<g clip-path="url(#clip0_2140_577)">
<path d="M18 36C27.9411 36 36 27.9411 36 18C36 8.05888 27.9411 0 18 0C8.05888 0 0 8.05888 0 18C0 27.9411 8.05888 36 18 36Z" fill="white"/>
<path d="M23.3705 20.0444C22.9807 19.9924 22.5823 20.0877 22.2704 20.3302C21.9586 20.5641 21.7594 20.9019 21.6987 21.2831C21.3262 22.8509 20.5207 24.0809 19.4899 24.6613C18.667 25.1291 17.7228 25.1897 16.6747 24.8519C14.3792 24.1069 14.1886 21.9154 14.3272 19.6979C14.3792 19.3081 14.2839 18.9096 14.0414 18.5978C13.7988 18.2773 13.4523 18.0781 13.0625 18.0174C12.6727 17.9654 12.2829 18.0607 11.9624 18.3033C11.6419 18.5458 11.4427 18.8923 11.3821 19.3254C11.0529 24.4967 13.0019 27.4765 17.0038 27.9529C17.3243 27.9876 17.6362 28.0136 17.948 28.0136C21.2829 28.0136 23.691 25.7874 24.6439 21.7335C24.7565 20.9192 24.1934 20.1743 23.3792 20.053L23.3705 20.0444Z" fill="#005CA1"/>
<path fill-rule="evenodd" clip-rule="evenodd" d="M5.4052 13.6949C5.81232 10.6025 7.05968 10.9577 8.27238 10.7844C9.2079 10.6545 11.001 13.2878 9.70164 14.5611C9.17325 15.0809 8.04717 16.2849 7.22426 16.1117C6.15015 15.8778 5.26661 14.8123 5.41386 13.6949H5.4052Z" fill="#005CA1"/>
<path fill-rule="evenodd" clip-rule="evenodd" d="M30.6728 14.0154C30.2657 17.1078 29.0183 16.7527 27.8056 16.9259C26.8701 17.0558 25.0164 14.9509 25.9259 12.4562C26.1771 11.7546 28.0395 11.4168 28.8624 11.5987C29.9365 11.8325 30.82 12.898 30.6728 14.0154Z" fill="#005CA1"/>
</g>
<defs>
<clipPath id="clip0_2140_577">
<rect width="36" height="36" fill="white"/>
</clipPath>
</defs>
</svg>
