<svg width="48" height="48" viewBox="0 0 48 48" fill="none" xmlns="http://www.w3.org/2000/svg">
<g clip-path="url(#clip0_46_44)">
<path d="M23.845 2.009C26.785 2.1531 29.7311 2.27918 32.5868 3.08971C39.6013 5.08 44.088 10.0753 47.1183 16.7306C47.666 17.9374 47.9037 19.2732 47.9789 20.6151C48.2498 25.3402 46.0771 29.0416 41.8492 31.1039C38.3043 32.8301 34.5428 33.3464 30.679 33.3224C26.5714 33.2954 22.5751 32.3618 18.5368 31.7434C15.7593 31.3171 12.9607 31.0259 10.1862 30.5816C8.54316 30.3174 6.91217 29.9392 5.30224 29.5009C2.23284 28.6664 0.526611 26.604 0.126385 23.2899C-0.228702 20.3419 0.153468 17.4931 1.30901 14.7613C1.69118 13.8577 1.94094 12.8911 2.3201 11.9845C4.46267 6.88117 8.41377 4.21244 13.4301 3.00865C16.8576 2.18612 20.3393 1.94896 23.845 2.009Z" fill="#F5E83A"/>
<path d="M32.2979 19.8646C33.6581 32.0616 24.8832 41.2145 21.8228 44.4416C21.221 45.075 20.252 45.1831 19.5268 44.6968C15.8285 42.2172 5.25108 35.2166 3.89091 23.0197C3.01824 15.1936 8.66955 8.145 16.5146 7.27143C24.3596 6.40086 31.4252 12.0385 32.3009 19.8646H32.2979Z" fill="#DD4747"/>
<path d="M42.8302 32.0466C41.6957 39.7886 34.9069 43.3279 32.4965 44.8259C32.0241 45.1201 31.4072 45.03 31.0401 44.6127C29.2195 42.5534 23.9925 37.5762 24.7117 30.1403C25.2172 24.9109 29.9116 20.9814 35.1266 21.7379C40.1098 22.4613 43.5584 27.0783 42.8302 32.0466Z" fill="#DD4747"/>
<path d="M19.3553 29.8191C24.2281 29.8191 28.1783 25.8784 28.1783 21.0174C28.1783 16.1563 24.2281 12.2157 19.3553 12.2157C14.4825 12.2157 10.5323 16.1563 10.5323 21.0174C10.5323 25.8784 14.4825 29.8191 19.3553 29.8191Z" fill="white"/>
<path d="M33.7845 35.8561C36.5915 35.8561 38.867 33.586 38.867 30.7858C38.867 27.9855 36.5915 25.7155 33.7845 25.7155C30.9774 25.7155 28.7019 27.9855 28.7019 30.7858C28.7019 33.586 30.9774 35.8561 33.7845 35.8561Z" fill="white"/>
<path fill-rule="evenodd" clip-rule="evenodd" d="M15.1183 18.5138C15.1995 20.0327 14.4803 21.4016 12.8193 21.3536C11.3447 21.3086 10.8783 20.0718 10.6075 18.865C10.5684 18.5918 10.3126 18.4027 10.0387 18.4417C9.7649 18.4807 9.57532 18.7359 9.61444 19.0091C10.0538 20.9543 11.098 22.6955 13.4 22.3112C15.4644 21.966 16.2076 20.2909 16.1053 18.3727C16.0662 18.0995 15.8104 17.9104 15.5366 17.9494C15.2627 17.9884 15.0732 18.2436 15.1123 18.5168L15.1183 18.5138Z" fill="#005CA1"/>
<path fill-rule="evenodd" clip-rule="evenodd" d="M27.8292 16.6585C27.9015 18.0364 27.2485 19.2823 25.7408 19.2372C24.4017 19.1982 23.9804 18.0725 23.7337 16.9768C23.6976 16.7276 23.4659 16.5565 23.2191 16.5925C22.9693 16.6285 22.7978 16.8597 22.8339 17.1058C23.2311 18.874 24.1821 20.453 26.2705 20.1048C28.1452 19.7896 28.8193 18.2706 28.729 16.5265C28.6929 16.2773 28.4612 16.1062 28.2144 16.1422C27.9646 16.1782 27.7931 16.4094 27.8292 16.6555V16.6585Z" fill="#005CA1"/>
<path d="M34.8708 29.9752C34.7595 29.9602 34.6481 29.9872 34.5608 30.0563C34.4736 30.1223 34.4164 30.2184 34.3983 30.3235C34.293 30.7647 34.0643 31.11 33.7724 31.2751C33.5407 31.4072 33.2729 31.4222 32.978 31.3291C32.328 31.119 32.2769 30.5036 32.316 29.8792C32.331 29.7681 32.3039 29.657 32.2347 29.57C32.1685 29.4799 32.0692 29.4229 31.9579 29.4079C31.8465 29.3928 31.7352 29.4199 31.6479 29.4889C31.5607 29.558 31.5005 29.654 31.4854 29.7771C31.3921 31.233 31.9428 32.0736 33.0713 32.2057C33.1616 32.2177 33.2488 32.2207 33.3361 32.2207C34.275 32.2207 34.9581 31.5933 35.2259 30.4525C35.259 30.2244 35.0965 30.0113 34.8678 29.9812L34.8708 29.9752Z" fill="#005CA1"/>
<path d="M23.177 20.474C23.1589 20.3449 23.0897 20.2309 22.9844 20.1528C22.8791 20.0748 22.7497 20.0418 22.6203 20.0598C22.4909 20.0778 22.3765 20.1468 22.2983 20.2519C22.2201 20.354 22.1869 20.48 22.205 20.6091C22.2351 21.1945 22.0786 21.7078 21.7747 22.017C21.5309 22.2662 21.1999 22.3833 20.7997 22.3743C19.909 22.3473 19.6201 21.6028 19.4425 20.8103C19.4034 20.5431 19.1507 20.357 18.8858 20.396C18.618 20.435 18.4314 20.6842 18.4736 20.9634C18.8287 22.5424 19.6171 23.3619 20.7666 23.3619C20.911 23.3619 21.0615 23.3499 21.218 23.3229C22.5481 23.1007 23.2642 22.0681 23.18 20.477L23.177 20.474Z" fill="#005CA1"/>
<path d="M36.6884 9.25872L37.3684 11.0959L39.2101 11.7744C39.7698 11.9815 39.7698 12.771 39.2101 12.9781L37.3684 13.6566L36.6884 15.4938C36.4807 16.0521 35.6893 16.0521 35.4817 15.4938L34.8016 13.6566L32.9599 12.9781C32.4002 12.771 32.4002 11.9815 32.9599 11.7744L34.8016 11.0959L35.4817 9.25872C35.6893 8.70036 36.4807 8.70036 36.6884 9.25872Z" fill="white"/>
<path d="M40.7177 15.1816L41.0216 16.0011L41.8431 16.3043C42.0929 16.3974 42.0929 16.7486 41.8431 16.8417L41.0216 17.1449L40.7177 17.9644C40.6244 18.2136 40.2723 18.2136 40.1791 17.9644L39.8751 17.1449L39.0536 16.8417C38.8038 16.7486 38.8038 16.3974 39.0536 16.3043L39.8751 16.0011L40.1791 15.1816C40.2723 14.9324 40.6244 14.9324 40.7177 15.1816Z" fill="white"/>
<path d="M37.886 20.444C38.2683 20.444 38.5781 20.1349 38.5781 19.7536C38.5781 19.3722 38.2683 19.0631 37.886 19.0631C37.5038 19.0631 37.1939 19.3722 37.1939 19.7536C37.1939 20.1349 37.5038 20.444 37.886 20.444Z" fill="white"/>
<path fill-rule="evenodd" clip-rule="evenodd" d="M29.8815 28.3782C29.9989 27.5076 30.3479 27.6067 30.691 27.5586C30.9558 27.5226 31.4614 28.2641 31.0942 28.6213C30.9438 28.7684 30.6248 29.1076 30.3931 29.0566C30.0892 28.9906 29.8394 28.6904 29.8815 28.3782Z" fill="#005CA1"/>
<path fill-rule="evenodd" clip-rule="evenodd" d="M37.8981 29.9782C37.7807 30.8488 37.4316 30.7497 37.0886 30.7978C36.8238 30.8338 36.3002 30.2424 36.556 29.5399C36.6282 29.3418 37.1518 29.2487 37.3835 29.2968C37.6874 29.3628 37.9372 29.663 37.8951 29.9752L37.8981 29.9782Z" fill="#005CA1"/>
</g>
<defs>
<clipPath id="clip0_46_44">
<rect width="48" height="43" fill="white" transform="translate(0 2)"/>
</clipPath>
</defs>
</svg>
