<svg width="168" height="48" viewBox="0 0 168 48" fill="none" xmlns="http://www.w3.org/2000/svg">
<g clip-path="url(#clip0_145_369)">
<g clip-path="url(#clip1_145_369)">
<path d="M27.7837 0.852127C31.001 1.00921 34.2285 1.1429 37.3539 2.0152C45.0312 4.15753 49.9406 9.53843 53.2567 16.7074C53.8559 18.0075 54.1146 19.4446 54.1998 20.8918C54.496 25.9786 52.1196 29.9691 47.4927 32.1883C43.6115 34.0499 39.4954 34.6047 35.2669 34.578C30.7729 34.5512 26.3946 33.5419 21.9755 32.8768C18.9352 32.4189 15.8745 32.1048 12.8376 31.6268C11.04 31.3427 9.25256 30.935 7.49239 30.4638C4.13208 29.5647 2.26637 27.3455 1.82718 23.7761C1.43565 20.601 1.85782 17.5329 3.12092 14.5884C3.53968 13.6125 3.81205 12.5731 4.22741 11.5972C6.56975 6.09933 10.8936 3.22507 16.3817 1.92831C20.137 1.04263 23.9467 0.785284 27.7837 0.852127Z" fill="#F5E83A"/>
<path d="M37.0339 20.083C38.5251 33.221 28.9208 43.0771 25.5673 46.5563C24.9102 47.2381 23.848 47.3551 23.0547 46.8304C19.0067 44.16 7.43113 36.62 5.93993 23.482C4.98324 15.053 11.1694 7.45959 19.7557 6.52044C28.342 5.58129 36.0772 11.654 37.0339 20.083Z" fill="#DD4747"/>
<path d="M48.5618 33.2077C47.3191 41.5464 39.8869 45.3598 37.2518 46.9741C36.7343 47.2916 36.0602 47.1913 35.6585 46.7435C33.6634 44.5276 27.9437 39.1634 28.7336 31.1556C29.2885 25.5207 34.426 21.2928 40.1321 22.105C45.5862 22.8837 49.3619 27.8569 48.5652 33.2077H48.5618Z" fill="#DD4747"/>
<path d="M22.8675 30.808C28.2019 30.808 32.5263 26.5629 32.5263 21.3262C32.5263 16.0896 28.2019 11.8445 22.8675 11.8445C17.5331 11.8445 13.2087 16.0896 13.2087 21.3262C13.2087 26.5629 17.5331 30.808 22.8675 30.808Z" fill="white"/>
<path d="M38.6647 37.3085C41.7371 37.3085 44.2278 34.8635 44.2278 31.8474C44.2278 28.8313 41.7371 26.3863 38.6647 26.3863C35.5923 26.3863 33.1016 28.8313 33.1016 31.8474C33.1016 34.8635 35.5923 37.3085 38.6647 37.3085Z" fill="white"/>
<path fill-rule="evenodd" clip-rule="evenodd" d="M18.2339 18.6291C18.3224 20.2634 17.5359 21.7407 15.7179 21.6872C14.1041 21.6404 13.5934 20.3036 13.2972 19.0068C13.253 18.7127 12.9738 18.5088 12.6742 18.5523C12.3746 18.5957 12.1669 18.8698 12.2112 19.1639C12.6912 21.2594 13.8351 23.1344 16.3545 22.7199C18.6152 22.349 19.4289 20.5442 19.3165 18.4754C19.2723 18.1813 18.9931 17.9774 18.6935 18.0209C18.3939 18.0643 18.1862 18.3384 18.2304 18.6325L18.2339 18.6291Z" fill="#005CA1"/>
<path fill-rule="evenodd" clip-rule="evenodd" d="M32.1449 16.6305C32.2267 18.1144 31.5117 19.4546 29.8605 19.4079C28.3931 19.3644 27.9335 18.1545 27.6645 16.9714C27.6237 16.704 27.3717 16.5202 27.0994 16.557C26.827 16.5971 26.6397 16.8444 26.6772 17.1118C27.113 19.0135 28.1514 20.718 30.4393 20.3403C32.4922 20.0028 33.2276 18.3651 33.1289 16.4868C33.088 16.2194 32.8361 16.0356 32.5637 16.0724C32.2913 16.1125 32.1041 16.3598 32.1415 16.6272L32.1449 16.6305Z" fill="#005CA1"/>
<path d="M39.4307 30.9484C39.3082 30.9316 39.189 30.9617 39.0903 31.0353C38.9949 31.1054 38.9337 31.209 38.9132 31.326C38.7975 31.8006 38.5489 32.1749 38.2289 32.3521C37.9736 32.4924 37.6842 32.5125 37.3608 32.4089C36.6492 32.1816 36.5947 31.5165 36.6356 30.8447C36.6526 30.7244 36.622 30.6075 36.5471 30.5105C36.4722 30.4136 36.3666 30.3535 36.244 30.3367C36.1215 30.32 36.0023 30.3501 35.9036 30.4236C35.8049 30.4972 35.7436 30.6008 35.7232 30.7345C35.621 32.3019 36.2236 33.2077 37.4595 33.3514C37.5582 33.3614 37.6569 33.3681 37.7489 33.3681C38.7771 33.3681 39.5227 32.693 39.8189 31.4631C39.8529 31.2157 39.6793 30.9885 39.4273 30.955L39.4307 30.9484Z" fill="#005CA1"/>
<path d="M27.0551 20.7414C27.0347 20.601 26.9598 20.4774 26.844 20.3938C26.7283 20.3103 26.5887 20.2735 26.4457 20.2935C26.3027 20.3136 26.1767 20.3871 26.0916 20.5008C26.0065 20.611 25.9724 20.7481 25.9895 20.8851C26.0235 21.5134 25.8499 22.0682 25.5162 22.4025C25.2507 22.6698 24.8864 22.7968 24.4472 22.7868C23.4735 22.7601 23.1569 21.9546 22.9628 21.1023C22.9185 20.8149 22.6428 20.6144 22.3534 20.6578C22.0606 20.7013 21.8563 20.9687 21.9006 21.2661C22.2887 22.9673 23.1535 23.8496 24.4097 23.8496C24.5664 23.8496 24.7332 23.8362 24.9034 23.8062C26.3606 23.5655 27.1436 22.4559 27.0517 20.7414H27.0551Z" fill="#005CA1"/>
<path d="M41.8412 8.65944L42.5868 10.638L44.6023 11.3699C45.2151 11.5939 45.2151 12.4428 44.6023 12.6667L42.5868 13.3986L41.8412 15.3772C41.6131 15.9788 40.7483 15.9788 40.5202 15.3772L39.7746 13.3986L37.7591 12.6667C37.1463 12.4428 37.1463 11.5939 37.7591 11.3699L39.7746 10.638L40.5202 8.65944C40.7483 8.05785 41.6131 8.05785 41.8412 8.65944Z" fill="white"/>
<path d="M46.2501 15.0396L46.5838 15.922L47.4826 16.2495C47.7549 16.3498 47.7549 16.7274 47.4826 16.8277L46.5838 17.1552L46.2501 18.0376C46.148 18.3049 45.7632 18.3049 45.6611 18.0376L45.3275 17.1552L44.4287 16.8277C44.1563 16.7274 44.1563 16.3498 44.4287 16.2495L45.3275 15.922L45.6611 15.0396C45.7632 14.7723 46.148 14.7723 46.2501 15.0396Z" fill="white"/>
<path d="M43.1553 20.708C43.5728 20.708 43.9112 20.3758 43.9112 19.966C43.9112 19.5562 43.5728 19.224 43.1553 19.224C42.7379 19.224 42.3995 19.5562 42.3995 19.966C42.3995 20.3758 42.7379 20.708 43.1553 20.708Z" fill="white"/>
<path fill-rule="evenodd" clip-rule="evenodd" d="M33.803 28.9163C33.9289 27.9772 34.3137 28.0841 34.6882 28.034C34.9776 27.9939 35.5291 28.7927 35.1308 29.1804C34.9673 29.3374 34.6201 29.7051 34.3647 29.6516C34.0311 29.5814 33.7587 29.2572 33.803 28.9197V28.9163Z" fill="#005CA1"/>
<path fill-rule="evenodd" clip-rule="evenodd" d="M42.5766 30.6376C42.4506 31.5767 42.0659 31.4698 41.6914 31.5199C41.402 31.56 40.83 30.9216 41.1092 30.1663C41.1875 29.9524 41.7629 29.8521 42.0148 29.9056C42.3485 29.9758 42.6208 30.3 42.5766 30.6376Z" fill="#005CA1"/>
<path d="M147.066 33.8059C146.808 34.1468 146.593 34.3474 146.481 34.5913C145.926 35.8079 145.408 37.0378 144.853 38.251C144.741 38.4983 144.557 38.7657 144.329 38.9027C143.876 39.1701 143.362 39.0431 143.086 38.5451C142.644 37.7497 142.276 36.9108 141.905 36.0786C141.602 35.4001 141.35 34.6983 141.064 34.0131C140.986 33.826 140.894 33.6355 140.761 33.4884C140.662 33.3781 140.489 33.2812 140.346 33.2779C140.278 33.2779 140.155 33.5051 140.145 33.6388C140.087 34.2605 140.09 34.8888 140.019 35.5071C139.866 36.8774 139.695 38.2477 139.498 39.6146C139.457 39.902 139.331 40.2329 139.13 40.4334C138.946 40.6173 138.596 40.7509 138.34 40.7175C138.157 40.6941 137.867 40.3699 137.867 40.1828C137.867 39.4976 137.963 38.8125 138.024 38.1273C138.18 36.4329 138.337 34.7384 138.49 33.0472C138.565 32.2251 138.599 31.3996 138.708 30.5807C138.831 29.6683 139.668 29.3174 140.312 29.9925C141.078 30.798 141.687 31.7505 142.307 32.6763C142.685 33.2377 142.937 33.8761 143.281 34.4576C143.437 34.7217 143.686 34.9289 143.893 35.1628C144.094 34.9222 144.333 34.7016 144.493 34.4376C145.299 33.1041 146.086 31.7572 146.886 30.417C147.009 30.2131 147.172 30.036 147.301 29.8354C147.546 29.4578 147.938 29.2673 148.316 29.441C148.612 29.5781 148.939 29.9156 149.007 30.2198C149.184 30.9885 149.269 31.7839 149.307 32.5727C149.426 34.8821 149.507 37.1915 149.593 39.5043C149.606 39.8954 149.572 40.2764 149.204 40.5504C148.694 40.9281 148.159 40.8211 147.887 40.2596C147.451 39.3573 147.509 38.3847 147.461 37.4288C147.414 36.4529 147.376 35.4737 147.312 34.5011C147.301 34.3206 147.189 34.1435 147.066 33.8126V33.8059Z" fill="#DD4747"/>
<path d="M160.031 39.8318C160.031 38.0772 160.031 36.3259 160.031 34.5713C160.031 34.3875 160.041 34.1903 160.106 34.0232C160.188 33.8093 160.317 33.4583 160.453 33.445C160.726 33.4182 161.124 33.4984 161.274 33.6823C161.515 33.9831 161.713 33.9563 162.016 33.8661C163.099 33.5452 164.154 33.5452 165.128 34.2036C165.254 34.2905 165.369 34.3975 165.465 34.5111C166.656 35.9449 166.238 38.7156 164.634 39.6681C164.188 39.9321 163.599 39.9856 163.068 40.0992C162.819 40.1527 162.554 40.1326 162.295 40.1326C161.968 40.1326 161.856 40.2697 161.849 40.5939C161.835 41.5029 161.791 42.4153 161.75 43.3244C161.74 43.5417 161.706 43.7622 161.655 43.9728C161.526 44.5176 161.185 44.7649 160.661 44.7181C160.246 44.6813 159.936 44.3438 159.922 43.8257C159.895 42.6961 159.902 41.5664 159.895 40.4368C159.895 40.2329 159.895 40.0324 159.895 39.8285C159.939 39.8285 159.98 39.8285 160.024 39.8285L160.031 39.8318ZM164.089 36.6267C164.103 36.0117 163.824 35.5606 163.35 35.4202C162.956 35.3032 162.033 35.6475 161.825 35.985C161.509 36.503 161.675 37.3921 162.176 37.9101C162.455 38.2009 162.748 38.2811 163.146 38.114C163.827 37.8232 164.072 37.3018 164.093 36.6267H164.089Z" fill="#DD4747"/>
<path d="M119.949 38.0505C119.779 38.5852 119.687 39.1233 119.431 39.5712C119.302 39.7984 118.856 39.9956 118.584 39.9622C118.356 39.9355 118.066 39.5812 117.991 39.3205C117.828 38.759 117.797 38.1641 117.692 37.5859C117.627 37.2383 117.692 36.7504 117.229 36.6668C116.766 36.5799 116.538 37.0111 116.378 37.352C116.204 37.7296 116.143 38.1541 116.017 38.5518C115.928 38.8359 115.857 39.14 115.707 39.3907C115.492 39.7516 115.145 39.9221 114.699 39.8218C114.26 39.7249 114.001 39.4508 113.947 39.0297C113.879 38.495 113.892 37.9469 113.793 37.4188C113.746 37.1514 113.528 36.9175 113.385 36.6668C113.102 36.8206 112.714 36.9075 112.564 37.1414C112.309 37.5425 112.19 38.0338 112.04 38.495C111.958 38.749 111.945 39.0264 111.873 39.2871C111.768 39.6647 111.563 39.9822 111.114 40.0056C110.644 40.0257 110.328 39.775 110.164 39.3639C110.082 39.1668 110.028 38.9395 110.042 38.7289C110.089 37.8232 110.164 36.9175 110.236 36.0084C110.27 35.5672 110.505 35.3868 110.978 35.3567C111.386 35.3333 111.815 35.213 112.187 35.0358C113.062 34.6147 114.107 34.6816 114.835 35.3066C115.087 35.5205 115.305 35.5505 115.571 35.3567C115.765 35.2163 115.962 35.0826 116.166 34.9556C117.28 34.2605 118.795 34.6114 119.336 35.7912C119.653 36.4797 119.748 37.2651 119.952 38.0471L119.949 38.0505Z" fill="#DD4747"/>
<path d="M133.506 36.9108C133.802 36.3393 134.04 35.8781 134.279 35.4168C134.466 35.0559 134.643 34.6916 134.844 34.3373C135.028 34.0165 135.293 33.846 135.699 33.9463C136.093 34.0432 136.26 34.3106 136.311 34.6682C136.332 34.7985 136.328 34.9423 136.294 35.0693C135.46 38.241 134.255 41.2556 132.277 43.926C132.052 44.2302 131.725 44.4842 131.395 44.688C131.007 44.9287 130.554 44.9587 130.197 44.6279C129.832 44.2936 129.955 43.8826 130.163 43.5082C130.898 42.1948 131.637 40.878 132.386 39.5712C132.59 39.2169 132.512 38.9796 132.294 38.6287C131.582 37.4823 130.953 36.2858 130.292 35.1094C130.268 35.0659 130.255 35.0158 130.244 34.9657C130.163 34.5412 130.084 34.0733 130.537 33.8327C131.007 33.582 131.385 33.9129 131.64 34.2504C132.151 34.9256 132.607 35.6441 133.087 36.3426C133.193 36.493 133.305 36.6401 133.503 36.9075L133.506 36.9108Z" fill="#DD4747"/>
<path d="M105.885 38.4415C105.721 38.6821 105.605 38.8894 105.456 39.0732C104.802 39.8853 103.947 40.1059 102.964 39.8118C102.027 39.5311 101.639 38.8292 101.493 37.9235C101.217 36.2089 102.116 34.6181 103.699 34.1468C104.05 34.0432 104.445 34.0733 104.816 34.0365C105.153 34.0031 105.503 34.0098 105.823 33.9162C106.317 33.7758 106.664 33.9229 106.94 34.3072C107.008 34.4042 107.063 34.5145 107.097 34.6248C107.543 36.092 107.992 37.5592 108.418 39.0331C108.527 39.4107 108.486 39.7917 108.091 40.0123C107.703 40.2329 107.287 40.1661 106.998 39.8653C106.637 39.491 106.351 39.0498 105.881 38.4415H105.885ZM103.284 37.2985C103.311 37.3754 103.369 37.5826 103.461 37.7764C103.597 38.0638 103.838 38.114 104.012 37.8499C104.383 37.2885 104.741 36.7136 105.037 36.112C105.19 35.8012 104.989 35.6107 104.615 35.6408C103.924 35.6976 103.29 36.4128 103.287 37.2951L103.284 37.2985Z" fill="#DD4747"/>
<path d="M155.581 38.4348C155.271 38.7958 155.054 39.0765 154.808 39.3339C154.179 39.9956 153.389 40.0524 152.568 39.8085C151.775 39.5745 151.329 39.013 151.169 38.2109C150.788 36.3092 151.612 34.6749 153.27 34.1569C153.603 34.0533 153.978 34.0633 154.332 34.0265C154.72 33.9831 155.111 33.9764 155.489 33.8962C155.963 33.7926 156.31 33.9363 156.548 34.3173C156.681 34.5278 156.756 34.7785 156.827 35.0191C157.195 36.229 157.546 37.4422 157.913 38.6521C158.148 39.4208 158.08 39.8252 157.644 40.0458C157.188 40.2764 156.626 40.0558 156.208 39.4575C156.017 39.1835 155.854 38.8927 155.574 38.4348H155.581ZM152.885 37.3018C152.919 37.3921 152.987 37.616 153.092 37.8232C153.212 38.0538 153.433 38.1106 153.579 37.8867C153.957 37.3119 154.339 36.7337 154.635 36.1154C154.805 35.7611 154.546 35.6007 154.165 35.6508C153.487 35.7444 152.888 36.4429 152.885 37.3018Z" fill="#DD4747"/>
<path d="M81.9709 39.0464C81.9743 39.7917 81.4738 40.1694 80.9087 39.9655C80.5478 39.8352 80.2039 39.6079 79.9145 39.3573C79.6558 39.13 79.4856 39.1099 79.2166 39.3172C78.6038 39.7917 77.9058 40.0725 77.1092 39.9889C76.0435 39.8753 75.1992 39.0698 75.0766 37.8834C74.9881 37.0211 75.0937 36.1388 75.1413 35.2664C75.1515 35.0759 75.2299 34.8253 75.3694 34.7183C75.5907 34.5479 75.8971 34.3774 76.1491 34.4008C76.3227 34.4175 76.561 34.7417 76.6019 34.9623C76.6938 35.4402 76.67 35.9349 76.7142 36.4228C76.7517 36.8239 76.7789 37.235 76.8845 37.6193C77.0411 38.1942 77.3475 38.2744 77.8309 37.9001C78.3212 37.5224 78.5391 37.0044 78.6004 36.4095C78.6446 35.9917 78.6651 35.5606 78.7808 35.1595C78.9136 34.6949 79.1689 34.2872 79.7545 34.2471C80.4423 34.2036 80.7861 34.5044 80.81 35.1796C80.81 35.2631 80.8202 35.35 80.81 35.4336C80.7146 36.4696 80.8372 37.4322 81.5896 38.261C81.8143 38.5084 81.8892 38.886 81.9641 39.0498L81.9709 39.0464Z" fill="#DD4747"/>
<path d="M90.4006 37.9703C90.3223 38.3981 90.2713 38.9195 90.1215 39.4174C89.9614 39.9488 89.5835 40.1728 89.1239 40.1126C88.6064 40.0424 88.409 39.7015 88.3681 39.2336C88.3136 38.5786 88.2523 37.9235 88.1979 37.2684C88.1366 36.5231 87.5578 36.2023 86.8871 36.5699C86.2368 36.9242 85.9304 37.5157 85.7636 38.1975C85.6683 38.5919 85.6104 38.993 85.4844 39.3773C85.3653 39.7517 85.1235 40.0424 84.6639 40.009C84.2315 39.9789 83.7243 39.5344 83.7481 39.1133C83.8366 37.6862 83.9626 36.2624 84.109 34.842C84.1396 34.5412 84.2452 34.2037 84.6707 34.1502C85.0963 34.0967 85.3142 34.334 85.4538 34.6649C85.5968 35.0091 85.8113 35.0091 86.1041 34.8587C86.7611 34.5278 87.4659 34.4911 88.1706 34.6214C89.2601 34.822 89.958 35.4636 90.21 36.5198C90.3155 36.9609 90.3257 37.4222 90.3938 37.9703H90.4006Z" fill="#DD4747"/>
<path d="M128.072 34.8721C127.984 36.3861 127.912 37.9034 127.796 39.4141C127.776 39.6982 127.64 40.009 127.463 40.2396C127.027 40.8078 126.316 40.7008 126.04 40.0391C125.951 39.8252 125.883 39.5812 125.89 39.3539C125.934 37.382 125.972 35.4102 126.064 33.4383C126.115 32.3454 126.254 31.2592 126.37 30.173C126.418 29.7385 126.622 29.3374 127.109 29.3408C127.623 29.3408 127.844 29.7886 127.885 30.2164C127.967 31.0553 127.984 31.8975 128.004 32.7398C128.021 33.4483 128.008 34.1568 128.008 34.8654C128.028 34.8654 128.052 34.8654 128.072 34.8687V34.8721Z" fill="#DD4747"/>
<path d="M92.1336 35.9783C92.1336 34.9991 92.0995 34.0198 92.1506 33.0439C92.171 32.6429 92.331 32.2284 92.5149 31.8608C92.6102 31.6736 92.92 31.4363 93.0834 31.4698C93.3286 31.5165 93.6384 31.7438 93.7201 31.9644C93.8869 32.4156 93.9891 32.9136 93.9925 33.3915C94.0095 35.1762 93.9993 36.9609 93.9482 38.7457C93.938 39.0899 93.761 39.4809 93.5397 39.755C93.383 39.9488 93.0085 40.0792 92.7464 40.0558C92.3957 40.0291 92.12 39.765 92.12 39.364C92.1131 38.2343 92.12 37.1047 92.12 35.975C92.1234 35.975 92.1302 35.975 92.1336 35.975V35.9783Z" fill="#DD4747"/>
<path d="M65.6834 35.9683C65.6834 34.989 65.6494 34.0098 65.7004 33.0339C65.7209 32.6328 65.8775 32.215 66.0579 31.8474C66.1499 31.6636 66.4699 31.4363 66.6333 31.4697C66.875 31.5232 67.1882 31.7572 67.2563 31.9744C67.43 32.5325 67.5525 33.1208 67.5696 33.7023C67.6104 35.2029 67.6138 36.7036 67.5696 38.2042C67.5559 38.6754 67.3823 39.1601 67.2019 39.6079C67.0657 39.9488 66.7525 40.1861 66.3337 40.0858C65.9286 39.9923 65.6596 39.7316 65.6528 39.3004C65.6426 38.1875 65.6494 37.0745 65.6494 35.9649C65.663 35.9649 65.6732 35.9649 65.6868 35.9649L65.6834 35.9683Z" fill="#DD4747"/>
<path d="M67.0078 30.5039C66.7831 30.5039 66.5414 30.5573 66.3405 30.4905C66.109 30.4136 65.7719 30.2532 65.7413 30.0827C65.7038 29.8622 65.8536 29.4711 66.0409 29.3775C66.5686 29.1135 67.144 28.8829 67.7228 28.786C69.0574 28.5654 70.4056 28.3949 71.7572 28.2813C72.1351 28.2512 72.5845 28.4117 72.9045 28.6256C73.119 28.7693 73.2688 29.167 73.245 29.4344C73.228 29.6115 72.8705 29.8655 72.6356 29.8989C71.2431 30.0961 69.8438 30.2465 68.4445 30.4036C67.9679 30.4571 67.4878 30.4938 67.0112 30.5373C67.0112 30.5272 67.0112 30.5172 67.0112 30.5039H67.0078Z" fill="#DD4747"/>
<path d="M93.4682 30.5072C93.2605 30.5072 93.0358 30.5573 92.8519 30.4938C92.6034 30.4069 92.2766 30.2866 92.1744 30.0861C92.011 29.7619 92.2255 29.4511 92.566 29.3174C93.0732 29.1169 93.5873 28.8862 94.1184 28.7994C95.4905 28.5788 96.8727 28.3983 98.2584 28.2813C98.6329 28.2512 99.0755 28.4351 99.3989 28.6523C99.6032 28.7893 99.753 29.1837 99.7122 29.4277C99.6815 29.6182 99.3343 29.8655 99.0993 29.8989C97.7069 30.0995 96.3042 30.2465 94.9049 30.4036C94.4283 30.4571 93.9482 30.4938 93.4682 30.5373C93.4682 30.5273 93.4682 30.5172 93.4682 30.5072Z" fill="#DD4747"/>
<path d="M123.663 37.2216C123.585 37.9402 123.531 38.5919 123.435 39.2403C123.374 39.648 123.139 39.9555 122.71 40.0792C122.233 40.2162 121.815 39.9889 121.74 39.5177C121.508 38.0538 121.661 36.6 121.944 35.1595C122.019 34.7752 122.288 34.598 122.686 34.5947C123.074 34.588 123.326 34.7752 123.388 35.1328C123.503 35.8447 123.578 36.5632 123.663 37.225V37.2216Z" fill="#DD4747"/>
<path d="M70.5894 35.1227C70.0787 35.0793 69.5374 35.0793 69.0199 34.9757C68.4309 34.8587 68.2947 34.2571 68.751 33.8661C68.9382 33.7056 69.1901 33.5486 69.4251 33.5285C70.3443 33.445 71.2703 33.3748 72.1964 33.3815C72.7786 33.3881 73.0169 33.6956 73.0509 34.2003C73.085 34.7584 72.7241 34.9422 72.2543 34.9957C71.7095 35.0559 71.158 35.0793 70.5894 35.1227Z" fill="#DD4747"/>
<path d="M97.0906 35.1227C96.5425 35.0759 96.0046 35.0692 95.4871 34.9656C95.2862 34.9255 95.0275 34.6849 94.9866 34.4944C94.9457 34.2972 95.0853 34.0098 95.2385 33.8427C95.3883 33.6822 95.6471 33.5486 95.8684 33.5318C96.8081 33.4516 97.7511 33.3748 98.6908 33.3848C99.2525 33.3915 99.4909 33.7224 99.5045 34.2404C99.5181 34.7317 99.2151 34.9356 98.7691 34.979C98.2039 35.0358 97.6388 35.0759 97.0872 35.1227H97.0906Z" fill="#DD4747"/>
<path d="M123.541 32.0312C123.544 32.6128 123.194 33.0506 122.713 33.0573C122.213 33.0673 121.917 32.7531 121.92 32.2184C121.924 31.6836 122.339 31.2191 122.809 31.2224C123.248 31.2224 123.537 31.5466 123.541 32.0312Z" fill="#DD4747"/>
<path d="M64.2841 9.47157C64.2841 9.04043 64.7369 8.79311 65.6426 8.72292L67.2768 8.59926L68.1449 8.53576L68.0802 8.16144C68.0394 8.03778 68.0156 7.91078 68.0156 7.78712C68.0156 7.50972 68.1041 7.27577 68.2811 7.0886C68.4581 6.90144 68.6726 6.80786 68.928 6.80786C69.1833 6.80786 69.4387 6.91147 69.6906 7.11868C69.9459 7.3259 70.0719 7.54982 70.0719 7.78377C70.0719 7.95088 69.9936 8.11131 69.8404 8.26171L69.6293 8.46892L70.6473 8.44887H71.495C71.8185 8.44887 72.0466 8.45889 72.1725 8.47895C72.2985 8.499 72.3836 8.51571 72.4279 8.53242C72.4687 8.54579 72.5334 8.61597 72.6185 8.73963L72.8092 9.24096C72.8092 9.2677 72.8092 9.31449 72.8194 9.37465C72.8262 9.43815 72.8296 9.48828 72.8296 9.53173C72.8296 9.6721 72.7956 9.74563 72.7241 9.76234C72.7513 9.80245 72.7037 9.85258 72.5743 9.90939C72.404 9.96621 72.1419 10.0197 71.7912 10.0765L71.3452 10.14L71.3657 10.5979C71.3793 10.8352 71.352 11.029 71.2805 11.1794C71.2533 11.2195 71.1375 11.3733 70.9401 11.6373C70.7971 11.8044 70.6847 11.9414 70.5996 12.0551L70.3443 12.3659C70.3443 12.4494 70.5792 12.4996 71.0456 12.5129C71.3997 12.5263 71.6925 12.6132 71.924 12.7736C72.1589 12.9341 72.2747 13.1246 72.2747 13.3451C72.2747 13.539 72.1828 13.7195 71.9989 13.8866C72.0261 13.8999 72.0398 13.92 72.0398 13.9501C72.0398 14.0069 71.8729 14.0537 71.5427 14.0971C71.209 14.1372 70.8686 14.1707 70.5145 14.1907C70.1604 14.2108 69.9698 14.2375 69.9425 14.2642C69.8438 14.3344 69.7927 14.8124 69.7927 15.7014C69.7927 15.9387 69.8064 16.0556 69.8336 16.0556C69.9732 16.0556 70.2592 16.0122 70.6813 15.922C71.1069 15.8317 71.4371 15.7883 71.6789 15.7883C71.9615 15.7883 72.2134 15.8417 72.4313 15.9454C72.6492 16.049 72.7615 16.206 72.7615 16.4133C72.7615 16.6071 72.6594 16.7976 72.4551 16.9848C72.2508 17.1719 71.9989 17.2922 71.7027 17.3491C70.9537 17.5162 70.4464 17.6432 70.1877 17.7334C69.9255 17.8237 69.7961 17.9239 69.7961 18.0342C69.7961 18.1178 69.9017 18.2782 70.1128 18.5121C70.3954 18.833 70.8686 19.2742 71.5325 19.8457C72.2679 20.4573 72.6696 20.8182 72.7411 20.9285C72.8262 21.0522 72.8671 21.1525 72.8671 21.2193C72.8671 21.2861 72.8262 21.343 72.7411 21.3864C72.656 21.4299 72.5368 21.47 72.3802 21.5101C72.1964 21.5502 72.0976 21.5802 72.084 21.5936C72.0432 21.6504 71.9717 21.6772 71.8729 21.6772C71.478 21.6772 70.7562 21.4198 69.711 20.9085C69.6532 20.8817 69.6123 21.1792 69.5851 21.8042C69.5714 22.359 69.4353 22.6497 69.1833 22.6798C69.0131 22.7634 68.8667 22.8035 68.7373 22.8035C68.482 22.8035 68.2811 22.6832 68.1313 22.4392C67.9815 22.1952 67.8555 21.8643 67.75 21.4399C67.6445 21.0154 67.5627 20.7414 67.5049 20.6177C67.3619 20.7714 67.2053 21.0221 67.0282 21.3764C66.8512 21.7306 66.6605 22.0415 66.4563 22.3122C66.252 22.5829 66.0069 22.76 65.7243 22.8436C65.5268 23.0241 65.3634 23.1143 65.2374 23.1143C65.04 23.1143 64.9412 22.8937 64.9412 22.4492C64.9412 22.0482 64.9889 21.6705 65.091 21.3262C65.0774 21.0622 65.2476 20.5977 65.6017 19.9326C65.9558 19.2675 66.2928 18.7194 66.6197 18.2882C66.252 18.2314 65.8468 18.0977 65.4008 17.8838C64.9548 17.6699 64.7335 17.4493 64.7335 17.2287C64.7335 17.075 64.8731 16.938 65.1591 16.811C65.3566 16.7274 65.7651 16.6439 66.3882 16.5603L67.3414 16.4367C67.3414 16.2161 67.338 15.8852 67.3312 15.4474C67.3244 15.0095 67.321 14.682 67.321 14.4581H64.8391C64.5429 14.3612 64.3863 14.0637 64.3727 13.5624C64.359 13.0911 64.5122 12.8137 64.8391 12.7302H65.3906C65.5745 12.7302 65.9217 12.7101 66.429 12.6667L66.9397 12.6266L66.4529 11.9615C66.143 11.5303 65.9864 11.1761 65.9864 10.8987V10.4809H65.394C64.6586 10.4809 64.2909 10.1467 64.2909 9.4816L64.2841 9.47157ZM67.8657 10.7616C67.8657 10.8719 67.8862 11.0925 67.9304 11.4167C67.9713 11.7442 68.0019 11.9949 68.0156 12.1754C68.0156 12.3559 68.0292 12.4628 68.0564 12.4996C68.0836 12.533 68.1619 12.5531 68.2879 12.5531C68.4309 12.5531 68.5433 12.4428 68.6284 12.2188C68.7135 11.9983 68.785 11.7376 68.8395 11.4368C68.8973 11.1393 68.9586 10.9488 69.0301 10.8653C69.2003 10.6848 69.2855 10.5377 69.2855 10.4274C69.2855 10.3305 69.1935 10.2804 69.0097 10.2804C68.9382 10.2804 68.7918 10.2904 68.5637 10.3105C68.3356 10.3305 68.1688 10.3405 68.053 10.3405H67.9883C67.9032 10.4107 67.8623 10.5477 67.8623 10.7583L67.8657 10.7616ZM72.976 22.7534C72.976 22.5729 73.0611 22.3423 73.2314 22.0548C73.4016 21.7708 73.5991 21.4867 73.8238 21.2026C74.0485 20.9185 74.1778 20.7481 74.2051 20.6912C74.9677 19.5683 75.349 18.9633 75.349 18.8798C75.349 18.7962 75.223 18.7194 74.9677 18.6492C74.474 18.5255 74.1268 18.1779 73.9293 17.6098C73.7012 16.958 73.565 16.2796 73.5173 15.5811C73.4663 14.8792 73.4356 13.3652 73.422 11.0324L73.4016 7.3894C75.5941 7.18218 77.4871 7.07858 79.0838 7.07858C80.2856 7.07858 81.2185 7.14876 81.8824 7.28579C82.0526 7.36935 82.1922 7.46627 82.308 7.57656C82.4203 7.68685 82.4986 7.77709 82.5395 7.84728C82.5803 7.91746 82.6518 8.05449 82.7506 8.26505C82.7642 8.30515 82.7778 8.33523 82.7914 8.3486C83.0331 8.91677 83.1523 9.54844 83.1523 10.2436C83.1523 10.785 83.0672 11.1661 82.8969 11.39C82.8697 11.5136 82.6995 12.2255 82.3863 13.5223C82.0764 14.819 81.8858 15.7381 81.8143 16.2796C81.7564 16.684 81.719 16.9681 81.6985 17.1318C81.6781 17.2989 81.6407 17.436 81.593 17.5496C81.5419 17.6599 81.5011 17.72 81.467 17.7267C81.433 17.7334 81.3547 17.7769 81.2355 17.8504C81.1164 17.9273 80.9904 18.0275 80.8644 18.1512C80.6363 18.3584 80.3265 18.4787 79.9316 18.5055L79.3392 18.569L79.38 18.8196C79.38 18.8464 79.38 18.8865 79.3902 18.9333C79.397 18.9834 79.4005 19.0201 79.4005 19.0469C79.4005 19.3243 79.3358 19.7354 79.2098 20.2768C79.0838 20.8182 79.0123 21.1992 78.9987 21.4232L78.934 21.9212H79.2098C79.2813 21.9078 79.3868 21.9011 79.5264 21.9011C79.6388 21.9011 79.809 21.9111 80.0371 21.9312C80.2618 21.9512 80.4184 21.9613 80.5035 21.9613C80.8304 21.9613 80.9904 21.8443 80.9904 21.607C80.9904 21.5669 80.9768 21.4766 80.9495 21.3363C80.9768 21.1291 81.0244 20.9085 81.0857 20.6812C81.1504 20.4506 81.2253 20.2066 81.307 19.9426C81.3921 19.6786 81.45 19.4981 81.4772 19.4012H81.5181C82.1275 19.4012 82.6995 20.1231 83.234 21.5669C83.2919 21.6772 83.3191 21.9145 83.3191 22.2754C83.3191 23.1912 83.0876 23.6491 82.6178 23.6491H82.5973C82.4271 23.7059 82.2228 23.7326 81.9811 23.7326C81.753 23.7326 81.3581 23.6958 80.7929 23.619C80.2278 23.5421 79.7818 23.5053 79.4583 23.5053C79.2609 23.5053 79.1111 23.512 79.0123 23.5254C78.6855 23.4853 78.3348 23.375 77.9535 23.2012C77.5722 23.0274 77.3509 22.8703 77.2964 22.7333C76.9866 22.5662 76.83 22.2687 76.83 21.8376C76.83 21.5335 76.9219 21.089 77.1058 20.5041C77.2896 19.9225 77.3883 19.5683 77.402 19.4413C77.133 19.6485 76.7925 20.0395 76.384 20.6077C75.9754 21.1758 75.6895 21.5502 75.5363 21.7306C75.2673 22.0214 75.0562 22.242 74.8996 22.3857C74.743 22.5328 74.6306 22.6297 74.5591 22.6765C74.4876 22.7266 74.3549 22.7935 74.1574 22.8837C73.9599 22.9739 73.7829 23.0608 73.6263 23.1444H73.5616C73.1667 23.1444 72.9692 23.014 72.9692 22.75L72.976 22.7534ZM75.9482 16.4233C75.9482 16.6606 75.972 16.8177 76.0231 16.9012C76.0742 16.9848 76.1627 17.0249 76.2887 17.0249C76.3295 17.0249 76.4861 17.0082 76.7551 16.9714C77.0241 16.938 77.2692 16.9179 77.4973 16.9179C78.9544 16.9179 79.9214 16.9246 80.4014 16.938C80.3163 16.8411 80.2482 16.6572 80.2005 16.3865C80.1495 16.1158 80.078 15.8852 79.9792 15.698C79.8805 15.5109 79.7171 15.4173 79.4924 15.4173C79.4515 15.4173 79.3732 15.4307 79.2575 15.4574C78.8625 15.5543 78.2463 15.6045 77.4122 15.6045C77.2283 15.6045 76.9934 15.6045 76.7108 15.5944C76.4283 15.5877 76.2512 15.5844 76.1797 15.5844C76.081 15.5844 76.0197 15.6111 75.9993 15.668C75.9789 15.7248 75.9618 15.9119 75.9448 16.2294V16.4166L75.9482 16.4233ZM76.1593 14.1138C76.1593 14.2542 76.1797 14.3211 76.224 14.3211L77.8786 14.1339C78.9817 13.9969 79.5877 13.9267 79.7035 13.9267C79.7307 13.9267 79.7443 13.7729 79.7443 13.4688V12.9909H78.9374C78.7808 12.9909 78.2157 12.9708 77.2419 12.9274L76.3738 12.8639L76.2682 13.3652C76.1967 13.6292 76.1627 13.8799 76.1627 14.1138H76.1593ZM76.4351 9.9495C76.4351 10.2135 76.4419 10.4074 76.4555 10.531C76.4691 10.6547 76.4827 10.7683 76.4964 10.8653C76.51 10.9622 76.561 11.0257 76.6461 11.0524C76.7313 11.0792 76.8028 11.1025 76.8572 11.1159C76.9151 11.1293 77.0445 11.1427 77.2488 11.156C77.453 11.1694 77.6335 11.1828 77.7901 11.1961C77.9161 11.2797 78.3893 11.3198 79.2098 11.3198C79.5366 11.3198 79.7545 11.3064 79.8669 11.2797C79.8533 11.2663 79.8465 11.2463 79.8465 11.2162C79.8465 11.1594 79.8839 10.8953 79.9622 10.4241C80.0405 9.95284 80.078 9.60526 80.078 9.38467C80.078 9.13401 80.0439 8.99698 79.9724 8.9669C79.7613 8.88335 78.791 8.84324 77.0683 8.84324H76.8879C76.8232 8.84324 76.7755 8.84658 76.7381 8.85327C76.704 8.85995 76.6768 8.8633 76.6632 8.8633C76.5508 8.87666 76.4827 8.93348 76.4623 9.0304C76.4419 9.12733 76.4317 9.43481 76.4317 9.94616L76.4351 9.9495Z" fill="#005CA1"/>
<path d="M86.8905 15.1132C86.8905 15.0162 86.8973 14.9394 86.9109 14.8825C87.5748 14.7288 88.6371 14.5985 90.0908 14.4882C91.548 14.3779 92.5659 14.2509 93.1447 14.1139H93.972V13.7195C93.972 13.3986 93.938 13.1012 93.8665 12.8238C93.8256 12.3926 93.8018 12.0317 93.8018 11.7409C93.8018 11.2563 93.8597 10.8953 93.972 10.658C94.0844 10.4208 94.3091 10.1601 94.6393 9.86595C94.9696 9.57518 95.2419 9.2911 95.4564 9.0137L95.7118 8.74298H94.7347C93.206 9.04712 92.1404 9.20086 91.5309 9.20086C90.101 9.20086 89.2975 8.6728 89.1137 7.62002C89.3248 7.53646 89.5495 7.45625 89.781 7.37938C90.0159 7.30251 90.227 7.23567 90.4177 7.18219C90.6083 7.12537 90.8602 7.07524 91.1701 7.02511C91.4799 6.97498 91.7148 6.93821 91.8714 6.91148C92.028 6.88474 92.3038 6.85132 92.6987 6.81789C93.0936 6.78447 93.3592 6.75774 93.492 6.74437C93.6248 6.731 93.9346 6.7076 94.4146 6.67084C94.8947 6.63742 95.2079 6.61068 95.3475 6.59731C96.8046 6.50039 97.7307 6.45026 98.1256 6.45026C99.0448 6.45026 99.9505 6.63742 100.839 7.01174C101.081 7.20559 101.2 7.39275 101.2 7.57322C101.2 7.7537 101.009 7.991 100.628 8.28177C100.247 8.57253 100.005 8.78977 99.9062 8.9268C99.8211 9.05046 99.341 9.54511 98.4627 10.404L97.2949 11.527V13.3786C97.3528 13.4889 97.38 13.5858 97.38 13.6693C97.38 13.6961 97.3766 13.7328 97.3698 13.7729C97.363 13.8131 97.3596 13.8431 97.3596 13.8565C97.3596 13.9267 97.5843 13.9601 98.0371 13.9601H99.2457C100.25 13.9735 100.972 13.9902 101.408 14.0136C101.847 14.0336 102.361 14.1372 102.957 14.3244C103.553 14.5116 104.009 14.799 104.336 15.1867C104.264 15.2836 104.182 15.3872 104.09 15.4975C103.999 15.6078 103.934 15.6847 103.9 15.7281C103.866 15.7682 103.818 15.8184 103.76 15.8752C103.702 15.932 103.655 15.9654 103.61 15.9788C103.57 15.9922 103.512 16.0022 103.44 16.0089C103.369 16.0155 103.284 16.0189 103.185 16.0189C103.127 16.0189 102.974 16.0189 102.718 16.0089C102.463 16.0022 102.232 15.9988 102.017 15.9988C101.847 15.9988 101.367 16.0122 100.573 16.0389H97.6694V19.4747C97.6966 20.0295 97.7102 20.3771 97.7102 20.5141C97.7102 20.9586 97.683 21.2728 97.6251 21.4599C97.5673 21.6471 97.4787 21.8476 97.3596 22.0649C97.2404 22.2788 97.1451 22.5695 97.0736 22.9272V23.0508C97.0736 23.3416 96.934 23.5622 96.6616 23.7059C96.3893 23.8496 96.0352 23.9231 95.613 23.9231C95.133 23.9231 94.7006 23.8396 94.3193 23.6725C94.3329 23.6323 94.2614 23.5822 94.1082 23.5254C93.9516 23.4686 93.795 23.4151 93.6316 23.3583C93.4682 23.3015 93.3864 23.2614 93.3864 23.2346C92.3106 22.6531 91.5344 22.0682 91.0543 21.4867C91.1258 21.3196 91.296 21.236 91.565 21.236C91.7216 21.236 92.0076 21.2828 92.4229 21.3697C92.8383 21.4599 93.1481 21.5067 93.3456 21.5067C93.7133 21.5067 93.9618 21.3764 94.0878 21.1124C94.1729 20.8617 94.2138 19.6752 94.2138 17.5529C94.2138 16.6372 94.1797 16.1793 94.1082 16.1793C94.0367 16.1793 93.1617 16.313 91.4799 16.5737C91.0849 16.6439 90.6866 16.6773 90.2917 16.6773C89.3861 16.6773 88.5928 16.5336 87.9051 16.2495C87.2208 15.9654 86.8769 15.5811 86.8769 15.0931L86.8905 15.1132Z" fill="#005CA1"/>
<path d="M106.589 12.9474L106.95 12.6968C107.614 12.406 108.21 12.2255 108.731 12.1553H109.347V11.1761C109.504 10.8987 109.65 10.511 109.793 10.0097C109.933 9.50834 110.086 9.08389 110.249 8.72962C110.413 8.37535 110.648 8.12134 110.961 7.97095C111.073 7.91413 111.237 7.88739 111.448 7.88739C111.788 7.88739 112.095 7.96426 112.37 8.118C112.646 8.27174 112.782 8.47896 112.782 8.74299C112.782 8.82654 112.762 8.93015 112.718 9.05381V9.20087C112.718 9.45153 112.615 9.82251 112.411 10.3138C112.207 10.8051 112.105 11.1995 112.105 11.4903C112.105 11.5604 112.118 11.6908 112.146 11.8846C112.302 11.9247 112.428 11.9481 112.527 11.9481C112.85 11.9481 113.092 11.8011 113.249 11.5103C113.405 11.2195 113.494 10.902 113.514 10.5645C113.535 10.2236 113.63 9.90941 113.8 9.61864C113.971 9.32787 114.239 9.18081 114.607 9.18081C114.917 9.18081 115.329 9.2911 115.836 9.51503C116.218 9.99964 116.408 10.5912 116.408 11.283C116.408 11.8646 116.286 12.5096 116.037 13.2081C115.789 13.91 115.479 14.6453 115.104 15.414C114.73 16.1827 114.485 16.7508 114.372 17.1118C114.274 17.4025 114.12 17.7201 113.916 18.0576C113.712 18.3985 113.61 18.6425 113.61 18.7962C113.61 18.9065 113.65 19.0469 113.736 19.214C113.807 19.2708 113.899 19.3477 114.011 19.4546C114.124 19.5616 114.209 19.6318 114.267 19.6719C114.325 19.712 114.396 19.7755 114.488 19.859C114.58 19.9426 114.648 20.0094 114.689 20.0562C114.73 20.1064 114.788 20.1598 114.859 20.2233C114.931 20.2868 114.978 20.337 115.009 20.3804C115.036 20.4205 115.067 20.4707 115.094 20.5275C115.121 20.5843 115.145 20.6344 115.159 20.6846C115.172 20.7347 115.179 20.7781 115.179 20.8182C115.179 21.0555 114.975 21.3263 114.563 21.6304C114.478 21.7708 114.328 21.8376 114.117 21.8376C113.933 21.8376 113.627 21.7574 113.194 21.597C112.762 21.4365 112.469 21.3563 112.316 21.3563C112.105 21.3563 111.975 21.4733 111.935 21.7106C111.737 22.2387 111.403 22.6899 110.937 23.0642C110.471 23.4385 109.97 23.6257 109.432 23.6257C109.221 23.6257 109.065 23.6123 108.966 23.5856C108.939 23.4753 109.02 23.1578 109.211 22.6397C109.402 22.1184 109.616 21.5468 109.858 20.9219C110.1 20.2969 110.239 19.8524 110.283 19.5883C110.185 19.4513 109.892 19.2508 109.405 18.9934C108.918 18.7361 108.472 18.4553 108.07 18.1512C107.669 17.8471 107.468 17.5262 107.468 17.192C107.468 16.8879 107.601 16.5937 107.87 16.3163C108.38 15.317 108.632 14.6787 108.632 14.4013C108.632 14.2643 108.574 14.1707 108.462 14.1205C108.35 14.0704 108.213 14.047 108.06 14.047C107.907 14.047 107.72 13.9902 107.509 13.8799C107.298 13.7696 107.114 13.6025 106.957 13.3819L106.596 12.9441L106.589 12.9474ZM110.236 16.9447C110.277 17.0149 110.42 17.1084 110.661 17.2254C110.903 17.3424 111.063 17.4025 111.148 17.4025C111.233 17.4025 111.499 16.8711 111.945 15.8083C112.391 14.7455 112.612 14.1406 112.612 13.9869C112.442 13.9601 112.295 13.9467 112.166 13.9467C111.516 13.9467 111.169 14.2041 111.128 14.7154C110.603 15.9353 110.307 16.6806 110.236 16.9413V16.9447ZM115.897 15.0096C115.897 14.9394 115.911 14.8725 115.938 14.8124C115.966 14.7489 116.01 14.6921 116.064 14.6352C116.122 14.5784 116.18 14.535 116.245 14.5015C116.309 14.4681 116.398 14.4314 116.51 14.3979C116.623 14.3645 116.721 14.3344 116.807 14.3144C116.892 14.2943 117.004 14.2743 117.147 14.2509C117.29 14.2308 117.409 14.2141 117.508 14.1974C117.607 14.184 117.736 14.1673 117.899 14.1439C118.063 14.1239 118.192 14.1072 118.291 14.0905C118.502 14.1172 118.771 14.1306 119.098 14.1306C119.946 14.1306 120.371 13.9234 120.371 13.5056C120.371 13.2683 120.194 12.8672 119.84 12.2991C119.486 11.7309 119.282 11.3632 119.224 11.1961C119.139 11.0992 119.098 10.9956 119.098 10.8853C119.098 10.6647 119.275 10.3606 119.629 9.97959C119.983 9.59858 120.16 9.37132 120.16 9.30447C120.16 9.20755 120.048 9.15742 119.82 9.15742C119.51 9.15742 119.071 9.21423 118.505 9.32452C118.223 9.25434 117.933 9.10728 117.637 8.87667C117.341 8.64607 117.191 8.42882 117.191 8.22161C117.191 7.98432 117.389 7.81386 117.784 7.70023C119.694 7.06188 121.154 6.74103 122.172 6.74103C123.105 6.74103 123.847 6.95493 124.399 7.38607C124.497 7.56654 124.549 7.74034 124.549 7.90745C124.549 8.22829 124.385 8.55248 124.062 8.8867C123.738 9.22092 123.336 9.55848 122.863 9.90606C122.39 10.2536 122.073 10.5177 121.92 10.6982C122.005 10.8786 122.135 11.1293 122.312 11.4468C122.489 11.7677 122.642 12.0618 122.768 12.3325C122.894 12.6032 123.01 12.8906 123.108 13.1948V13.8832H125.018L125.359 14.2576C125.601 14.4514 125.72 14.6687 125.72 14.9026C125.72 15.1666 125.563 15.4073 125.253 15.6212C124.943 15.8351 124.63 15.952 124.32 15.9654H123.854V16.4233C124.011 16.7441 124.085 17.192 124.085 17.7769C124.085 19.0268 123.803 20.464 123.238 22.0849C123.364 22.2788 123.428 22.4659 123.428 22.6464C123.428 22.9506 123.302 23.1945 123.047 23.375C122.792 23.5555 122.462 23.6457 122.05 23.6457C121.638 23.6457 121.26 23.5622 120.872 23.3951C120.483 23.228 120.143 23.0341 119.854 22.8135C119.564 22.5929 119.251 22.2855 118.921 21.8978C118.587 21.5101 118.332 21.1892 118.148 20.9386C117.964 20.6879 117.729 20.3503 117.447 19.9192C117.164 19.4881 116.98 19.2173 116.895 19.1071C117.191 18.9399 117.481 18.8564 117.763 18.8564C118.172 18.8564 118.723 19.0469 119.418 19.4279C120.109 19.8089 120.514 20.0228 120.626 20.0629C120.967 19.3276 121.134 18.4587 121.134 17.4594C121.134 17.0416 121.093 16.6339 121.008 16.2328V15.9621H119.82C118.236 16.0456 117.436 16.0857 117.423 16.0857C117.096 16.0857 116.844 16.0423 116.66 15.952C116.476 15.8618 116.265 15.6847 116.023 15.4206C115.938 15.2535 115.897 15.1165 115.897 15.0029V15.0096Z" fill="#005CA1"/>
<path d="M128.137 11.8947C128.137 11.8445 128.178 11.7509 128.263 11.6139C128.362 11.4769 128.532 11.3766 128.774 11.3231C129.029 11.2663 129.492 11.2028 130.163 11.126C130.833 11.0491 131.194 10.9889 131.245 10.9388C131.296 10.8887 131.276 10.6714 131.191 10.2837C131.106 9.90941 131.041 9.68882 131 9.61864C130.959 9.54845 130.881 9.52171 130.765 9.53508C130.595 9.54845 130.306 9.57519 129.897 9.61864L129.175 9.65874L128.814 9.34792C128.249 8.86331 128.355 8.50904 129.131 8.28511C129.458 8.18819 129.815 8.11132 130.214 8.0545C130.622 7.99768 130.844 7.93753 130.871 7.86734C130.884 7.78379 130.871 7.55652 130.83 7.17885C130.789 6.79116 130.772 6.56055 130.789 6.49037C130.803 6.40681 130.874 6.3032 131 6.17954C131.126 6.05588 131.283 6.00575 131.467 6.03249C131.65 6.05923 131.763 6.03917 131.807 5.96899C131.848 5.8988 131.919 5.87875 132.018 5.90549C132.57 6.07259 132.91 6.2397 133.036 6.40347C133.148 6.57058 133.22 6.71429 133.247 6.84129C133.274 6.96495 133.288 7.16214 133.288 7.42283C133.302 7.67349 133.322 7.81052 133.353 7.8406C133.394 7.86734 133.734 7.91413 134.371 7.97429C135.007 8.03779 135.351 8.08124 135.399 8.11132C135.447 8.13806 135.559 8.1815 135.726 8.23498C135.896 8.2918 135.981 8.30516 135.981 8.27508C135.981 8.23498 135.94 8.15142 135.855 8.02442C135.784 7.90076 135.842 7.76707 136.025 7.63005C136.55 7.24235 137.976 6.99838 140.308 6.90145C140.788 6.88808 141.102 6.88808 141.241 6.90145C141.381 6.91482 141.582 6.97832 141.834 7.08861C142.075 7.19891 142.215 7.30251 142.259 7.39944L141.963 8.08792C141.963 8.17148 141.82 8.21158 141.537 8.21158C141.34 8.21158 141.19 8.26172 141.091 8.35864C141.091 8.37201 141.119 8.39874 141.176 8.44219C141.217 8.46893 141.241 8.66278 141.241 9.02373C141.241 9.38468 141.255 9.57185 141.282 9.58521C141.309 9.58521 141.354 9.56516 141.408 9.52171C141.691 9.28442 142.657 9.14071 144.312 9.08389L145.841 9.02039L146.181 9.33121C146.392 9.52506 146.508 9.72559 146.522 9.93614C146.549 10.4074 146.528 10.8853 146.457 11.3733L145.122 16.577C145.082 16.7842 145.194 17.1318 145.463 17.6164C145.745 18.1011 145.909 18.442 145.95 18.6358L146.712 20.591C146.784 20.7447 146.784 20.835 146.712 20.8617C146.627 20.8884 146.586 20.9586 146.586 21.0689C146.586 21.1658 146.522 21.2828 146.396 21.4232C146.27 21.5636 146.154 21.6304 146.055 21.6304C145.97 21.6304 145.885 21.5936 145.8 21.5168C145.715 21.4399 145.551 21.2427 145.313 20.9252C145.085 20.6043 144.874 20.337 144.676 20.113C144.479 19.8758 144.302 19.6284 144.145 19.3644L143.849 18.8664L143.699 19.1572L141.98 20.7815C141.752 20.9219 141.568 20.9753 141.428 20.9486C141.285 20.9085 141.211 20.9085 141.193 20.9486C141.166 20.9753 141.142 21.0956 141.129 21.3029C141.115 21.4967 141.044 21.6237 140.918 21.6772C140.792 21.734 140.713 21.8109 140.683 21.9078C140.656 22.0047 140.519 22.0749 140.281 22.115C140.039 22.1417 139.862 22.115 139.75 22.0315C139.651 21.9479 139.58 21.7942 139.539 21.5736C139.498 21.3664 139.457 20.9553 139.423 20.347C139.389 19.7354 139.369 19.4246 139.369 19.4112C139.355 19.4112 138.817 19.5148 137.758 19.722C136.682 19.9292 136.11 19.9426 136.042 19.7621C136.002 19.6786 135.937 19.6385 135.852 19.6385C135.78 19.6385 135.688 19.5883 135.576 19.4914C135.477 19.3811 135.419 19.2976 135.406 19.2407C135.406 19.2006 135.433 19.1171 135.491 18.9901C135.562 18.8664 135.712 18.7461 135.947 18.6358C136.182 18.5255 136.315 18.4486 136.349 18.4052C136.383 18.3651 136.393 18.2581 136.379 18.0944C136.352 17.9273 136.322 17.3925 136.294 16.4901V12.2222C136.322 10.4876 136.359 9.47492 136.4 9.18415C136.458 8.89339 136.451 8.69286 136.379 8.57922C136.322 8.46893 136.26 8.42548 136.189 8.45556C136.117 8.4823 136.097 8.52575 136.124 8.57922C136.151 8.64941 136.104 8.77975 135.974 8.9736C135.862 9.18081 135.756 9.30781 135.658 9.34792C135.559 9.38803 135.198 9.42479 134.575 9.45153C133.911 9.47827 133.55 9.51503 133.492 9.55514C133.394 9.59524 133.274 9.79243 133.131 10.1367C132.975 10.4976 132.927 10.6982 132.982 10.7416C133.023 10.7683 133.298 10.7683 133.809 10.7416C134.728 10.6848 135.392 10.8519 135.801 11.2429L136.012 11.4501L135.821 11.7008C135.695 11.8545 135.63 11.9648 135.63 12.035C135.63 12.0918 135.61 12.1253 135.566 12.1386C135.525 12.1386 135.44 12.152 135.31 12.1787C135.184 12.2055 134.854 12.2356 134.323 12.2623C133.792 12.289 133.492 12.3592 133.421 12.4695C133.363 12.5664 133.349 12.7904 133.38 13.1346L133.465 15.4039C133.438 15.4875 133.465 15.5276 133.55 15.5276C133.649 15.541 133.877 15.5343 134.228 15.5075C135.188 15.4374 135.756 15.5476 135.923 15.8418C135.981 15.9387 136.008 16.0022 136.008 16.0289C135.995 16.069 135.93 16.1459 135.818 16.2595C135.28 16.7308 134.616 16.9681 133.826 16.9681C133.571 16.9681 133.445 17.0182 133.445 17.1151C133.445 17.212 133.387 17.8504 133.274 19.0302C133.162 20.1699 133.142 20.7915 133.21 20.9051C133.237 20.9753 133.697 21.2327 134.589 21.6738C134.97 21.8677 135.855 22.0615 137.241 22.2554C137.918 22.3657 138.824 22.4292 139.954 22.4425L145.19 22.506C145.967 22.9071 145.807 23.3115 144.704 23.7126L139.804 24.0668C136.383 23.7761 133.741 23.2346 131.875 22.4425C131.198 22.1083 130.673 21.7975 130.306 21.5067C130.278 21.5067 130.248 21.5468 130.221 21.6304C130.193 21.7139 130.149 21.8109 130.095 21.9212C129.615 22.7133 129.148 23.2112 128.695 23.4185C128.624 23.4586 128.552 23.4586 128.484 23.4185C128.413 23.3917 128.372 23.3215 128.358 23.2112C128.358 23.1143 128.372 22.8102 128.399 22.2955C128.426 21.7808 128.484 21.3296 128.569 20.9419C128.654 20.5542 128.719 20.1665 128.76 19.7755C128.787 19.3878 128.825 19.1639 128.866 19.1104C128.906 19.0536 128.923 18.5355 128.906 17.5496C128.893 16.5637 128.866 16.0356 128.821 15.9688C128.763 15.8986 128.77 15.8083 128.842 15.698C128.968 15.4775 129.196 15.3939 129.519 15.4474C129.829 15.5042 130.084 15.6011 130.282 15.7381C130.466 15.8785 130.598 16.2595 130.684 16.8845C130.769 17.5095 130.775 18.1211 130.704 18.716C130.632 19.3143 130.605 19.6251 130.619 19.6518C130.66 19.6919 130.775 19.7287 130.959 19.7554L131.235 19.8189L131.194 19.3811C131.167 19.1171 131.123 18.0075 131.068 16.049C131.01 14.0771 130.963 13.0043 130.918 12.8238L130.854 12.6166L128.883 12.7402L128.733 12.5096C128.634 12.3726 128.552 12.2991 128.488 12.2924C128.423 12.2857 128.341 12.2255 128.242 12.1152C128.157 12.0049 128.117 11.9247 128.117 11.8746L128.137 11.8947ZM138.048 16.7776C138.014 17.4427 137.986 17.827 137.973 17.9239C137.959 18.0209 137.993 18.0743 138.078 18.081C138.163 18.0877 138.453 18.071 138.946 18.0275L139.498 17.964V17.0683C139.498 16.4868 139.505 16.0891 139.518 15.8819C139.532 15.6746 139.529 15.5543 139.508 15.5276C139.488 15.5009 139.406 15.4908 139.263 15.4975C139.12 15.5042 138.906 15.5376 138.616 15.5911C138.327 15.6479 138.167 15.6914 138.14 15.7281C138.112 15.7615 138.078 16.1125 138.044 16.7809L138.048 16.7776ZM138.187 13.7897C138.116 13.9066 138.095 14.0102 138.123 14.1005C138.15 14.1907 138.214 14.2342 138.313 14.2342C138.412 14.2342 138.643 14.2008 139.015 14.1306L139.587 14.047V13.1313C139.587 12.533 139.563 12.2255 139.512 12.2055C139.461 12.1854 139.28 12.1988 138.96 12.2456C138.643 12.2957 138.463 12.3392 138.419 12.3793C138.378 12.4194 138.344 12.6366 138.323 13.0243C138.303 13.412 138.255 13.666 138.184 13.783L138.187 13.7897ZM138.398 10.1166L138.463 10.8653L138.824 10.8452C138.851 10.8318 138.957 10.8185 139.141 10.8051C139.324 10.7917 139.44 10.7416 139.491 10.6581C139.539 10.5745 139.559 10.3907 139.546 10.1066C139.532 9.82251 139.522 9.52506 139.515 9.21089C139.508 8.90007 139.495 8.68951 139.474 8.58591C139.454 8.4823 139.392 8.42548 139.294 8.4188C139.195 8.41211 139.042 8.42882 138.838 8.47227C138.633 8.51572 138.511 8.54914 138.466 8.57588C138.354 8.68617 138.334 9.20087 138.402 10.1166H138.398ZM141.262 10.1166C141.248 10.2135 141.255 10.4709 141.282 10.8853C141.309 11.3031 141.326 11.6473 141.336 11.9247C141.343 12.2021 141.354 12.3458 141.367 12.3525C141.381 12.3592 141.425 12.3225 141.493 12.2389C141.565 12.1553 141.765 12.1052 142.099 12.0818C142.433 12.0618 142.674 12.0818 142.831 12.1353C142.903 12.162 143.178 12.4762 143.658 13.0711C143.73 13.1547 143.778 13.1881 143.808 13.1747C143.849 13.1346 143.873 13.0778 143.873 13.0076C143.873 12.9374 143.907 12.8271 143.978 12.6734L144.36 10.7784L144.401 10.4442L143.808 10.5077C143.413 10.5478 143.117 10.5945 142.916 10.6413C142.719 10.6915 142.487 10.6982 142.228 10.6614C141.966 10.628 141.823 10.5645 141.793 10.4742C141.765 10.384 141.674 10.2603 141.517 10.0999C141.36 9.93949 141.275 9.94283 141.262 10.1099V10.1166ZM141.282 15.1967C141.282 18.7227 141.302 20.464 141.347 20.4205C141.418 20.3503 141.558 20.0629 141.772 19.5582C141.983 19.0502 142.123 18.6559 142.184 18.3718C142.249 18.0877 142.348 17.7368 142.48 17.319C142.613 16.9012 142.678 16.6439 142.671 16.5369C142.664 16.4333 142.576 16.196 142.406 15.8284C142.235 15.4607 142.041 14.926 141.823 14.2241C141.605 13.5223 141.486 13.1079 141.473 12.9742C141.459 12.8438 141.422 12.767 141.367 12.7436C141.309 12.7235 141.282 13.539 141.282 15.19V15.1967Z" fill="#005CA1"/>
<path d="M150.573 10.2202C150.573 10.0264 150.771 9.89938 151.166 9.8459C151.291 9.83253 151.431 9.80245 151.577 9.75232C151.727 9.70219 151.836 9.67879 151.908 9.67879C152.02 9.67879 152.132 9.70553 152.248 9.76235C152.473 9.85927 152.674 9.9094 152.841 9.9094C152.967 9.9094 153.075 9.88266 153.157 9.82585C153.327 9.70219 154.917 9.61195 157.927 9.55513H158.308L158.118 8.9502C157.849 8.00771 157.716 7.23567 157.716 6.64076V6.26644H157.781C157.781 6.26644 157.781 6.22633 157.791 6.18288C157.801 6.13944 157.801 6.10601 157.801 6.07928C157.801 5.84198 158.056 5.72501 158.564 5.72501C158.819 5.72501 159.095 5.75509 159.391 5.81859C159.687 5.88209 159.929 5.95227 160.113 6.03583C160.297 6.11938 160.368 6.19625 160.324 6.26644H160.388C160.375 6.33662 160.354 6.43355 160.324 6.55721C160.293 6.68087 160.273 6.77779 160.259 6.84797L160.6 6.80787C161.066 6.73768 161.652 6.70426 162.36 6.70426C163.32 6.70426 164.157 6.77779 164.872 6.9215C165.587 7.06856 165.945 7.29248 165.945 7.59662C165.945 7.73699 165.853 7.89407 165.669 8.07455C165.584 8.15811 165.056 8.22829 164.089 8.28177C163.122 8.33858 162.183 8.3954 161.28 8.4589C160.375 8.5224 159.922 8.61598 159.922 8.73964C159.922 8.89338 159.857 9.04378 159.731 9.19752L159.541 9.42813C159.541 9.45487 159.575 9.46824 159.646 9.46824C159.687 9.46824 159.738 9.46824 159.796 9.45821C159.854 9.45153 159.936 9.4415 160.051 9.42813C160.164 9.41476 160.269 9.40139 160.368 9.38802C161.345 9.27773 162.149 9.22092 162.785 9.22092C163.579 9.22092 164.099 9.29779 164.355 9.45153C164.44 9.50834 164.644 9.54511 164.971 9.56516C165.298 9.58521 165.58 9.64203 165.819 9.73227C166.061 9.82251 166.18 9.98627 166.18 10.2202C166.18 10.4408 166.101 10.6313 165.945 10.7817C165.788 10.9354 165.526 11.1026 165.162 11.2797C165.077 11.3198 164.957 11.4167 164.801 11.5604C164.644 11.7075 164.491 11.7777 164.334 11.7777C164.222 11.7777 164.045 11.8044 163.803 11.8612C163.562 11.918 163.402 11.9448 163.316 11.9448C163.133 11.9448 163.041 11.8612 163.041 11.6941C163.041 11.6106 163.061 11.507 163.105 11.3833L163.19 11.1126H162.023L153.814 11.4468C154.025 12.4194 154.131 13.0143 154.131 13.2382V13.4688C154.131 13.6092 154.168 14.0938 154.247 14.926C154.325 15.7582 154.362 16.3765 154.362 16.7776C154.362 17.2087 154.322 17.4928 154.236 17.6298C154.165 18.8363 154.053 19.585 153.896 19.8791C153.855 19.9626 153.736 20.2167 153.545 20.6378C153.355 21.0622 153.174 21.4365 153.004 21.7607C152.834 22.0883 152.715 22.2487 152.643 22.2487C152.585 22.2487 152.486 22.3523 152.347 22.5595C152.207 22.7667 152.092 22.8703 152.006 22.8703H151.942L151.877 22.8503C151.792 22.8503 151.676 22.8971 151.526 22.984C151.377 23.0742 151.254 23.1177 151.155 23.1177C150.971 23.1177 150.856 23.0608 150.805 22.9505C150.754 22.8403 150.73 22.6464 150.73 22.369C150.73 22.0916 150.822 21.2594 151.005 19.8724C151.046 19.4981 151.07 19.0469 151.07 18.5188C151.07 17.6432 150.995 16.176 150.849 14.1172C150.699 12.0551 150.617 10.902 150.604 10.6514C150.604 10.5812 150.597 10.501 150.583 10.4107C150.57 10.3205 150.563 10.2536 150.563 10.2135L150.573 10.2202ZM154.219 20.3169C154.219 19.6919 154.379 19.0135 154.696 18.2782C155.013 17.5429 155.37 17.0215 155.768 16.7174C155.939 16.5937 156.102 16.5302 156.255 16.5302C156.381 16.5302 156.592 16.6171 156.882 16.7909C157.171 16.9647 157.43 17.0516 157.655 17.0516C159.408 17.065 160.283 17.456 160.283 18.218C160.283 18.6492 159.949 19.3978 159.285 20.4673C159.173 20.6478 159.115 20.7781 159.115 20.8617C159.115 21.0689 159.442 21.1725 160.092 21.1725C160.15 21.1725 160.205 20.9219 160.263 20.4239C160.32 19.9225 160.423 19.3845 160.569 18.7996C160.719 18.218 160.933 17.8504 161.216 17.6967C161.301 17.6398 161.342 17.5797 161.342 17.5095C161.342 17.1485 161.999 16.9681 163.313 16.9681C164.488 16.9681 165.179 17.1084 165.39 17.3858C165.475 17.4961 165.516 17.6566 165.516 17.8638C165.516 18.071 165.465 18.4219 165.366 18.9165C165.267 19.4078 165.216 19.7387 165.216 19.9058C165.216 20.1565 165.274 20.2802 165.386 20.2802C165.57 20.2802 165.703 20.0596 165.788 19.6151C165.901 18.7962 166.091 18.3851 166.36 18.3851C166.558 18.3851 166.745 18.5322 166.922 18.823C167.099 19.1137 167.187 19.3845 167.187 19.6351C167.187 19.6919 167.177 19.7621 167.157 19.8524C167.136 19.9426 167.126 20.0094 167.126 20.0495C167.126 20.2033 167.201 20.357 167.347 20.5174C167.497 20.6779 167.569 20.7982 167.569 20.8817C167.569 21.1023 167.358 21.3062 166.932 21.4867C166.507 21.6672 166.105 21.7574 165.723 21.7574H165.533C165.407 21.7574 165.342 21.7774 165.342 21.8209C165.342 21.8643 165.424 21.9412 165.587 22.0615C165.751 22.1785 165.832 22.252 165.832 22.2788C165.832 22.3891 165.866 22.4994 165.938 22.613C166.009 22.7233 166.044 22.8002 166.044 22.8436C166.044 22.9405 165.958 23.0675 165.788 23.2179L165.448 23.5287L164.494 23.5087C163.844 23.4953 162.748 23.385 161.206 23.1745C159.663 22.9673 158.639 22.7868 158.131 22.633C157.89 22.5629 157.743 22.5294 157.685 22.5294C157.6 22.5294 157.542 22.5863 157.515 22.6965C157.501 22.7935 157.287 22.9706 156.868 23.2279C156.449 23.4853 156.18 23.6123 156.051 23.6123C156.01 23.6123 155.986 23.5789 155.986 23.5087C155.986 23.4953 156.044 23.1678 156.157 22.5294L156.221 22.2186L155.523 21.988C154.859 21.7674 154.526 21.5101 154.526 21.2193C154.526 21.2059 154.536 21.1658 154.556 21.1057C154.577 21.0422 154.587 20.9987 154.587 20.9686C154.587 20.9553 154.522 20.8951 154.396 20.7915C154.27 20.6879 154.206 20.5308 154.206 20.3236L154.219 20.3169ZM155.132 13.676C155.132 13.5524 155.179 13.4454 155.282 13.3652C155.38 13.2817 155.54 13.2115 155.758 13.158C155.976 13.1012 156.153 13.0611 156.289 13.0343C156.422 13.0076 156.647 12.9742 156.957 12.9408C157.267 12.9073 157.444 12.8873 157.488 12.8873L157.89 12.8238V12.406C157.89 11.781 158.165 11.4702 158.717 11.4702C158.972 11.4702 159.207 11.5404 159.428 11.6774C159.646 11.8178 159.779 11.9882 159.82 12.1988L159.885 12.5731L160.371 12.5531C160.484 12.5531 160.712 12.5464 161.049 12.533C161.389 12.5196 161.648 12.513 161.832 12.513C162.949 12.513 163.507 12.7502 163.507 13.2215C163.507 13.6092 163.214 13.8832 162.629 14.0437C162.043 14.2041 161.458 14.3044 160.879 14.3445C160.3 14.3846 160.011 14.4614 160.011 14.5751C160.011 14.6453 160.538 14.7355 161.59 14.8458C162.642 14.9561 163.17 15.1165 163.17 15.3237C163.17 15.4775 162.939 15.6579 162.472 15.8651C161.992 16.0857 161.328 16.1994 160.477 16.1994C159.728 16.1994 159.217 16.0891 158.952 15.8651C158.925 15.8518 158.785 15.7649 158.54 15.6045C158.291 15.444 158.094 15.297 157.947 15.1566C157.798 15.0196 157.726 14.8792 157.726 14.7388C156.313 14.7121 155.472 14.428 155.203 13.8866C155.162 13.803 155.139 13.7328 155.139 13.6794L155.132 13.676ZM155.554 20.2334C155.554 20.2902 155.796 20.337 156.276 20.3804L156.912 20.4439L157.018 20.2133C157.059 20.103 157.134 19.9426 157.239 19.7354C157.345 19.5282 157.42 19.3644 157.461 19.2474C157.501 19.1304 157.525 19.0302 157.525 18.9466C157.525 18.7795 157.399 18.696 157.144 18.696C156.946 18.696 156.793 18.7561 156.688 18.8731C156.582 18.9901 156.517 19.1271 156.497 19.2775C156.477 19.4312 156.422 19.5649 156.337 19.6819C156.252 19.7989 156.133 19.859 155.976 19.859C155.918 19.859 155.833 19.9058 155.721 19.9961C155.608 20.0863 155.551 20.1665 155.551 20.2367L155.554 20.2334ZM161.536 21.2126C161.536 21.3229 161.887 21.4165 162.584 21.4934C163.286 21.5702 163.79 21.607 164.099 21.607C164.198 21.607 164.249 21.6003 164.249 21.5869C164.249 21.5736 164.188 21.5234 164.069 21.4399C163.95 21.3563 163.82 21.2628 163.688 21.1591C163.551 21.0555 163.466 20.982 163.422 20.9419C163.31 20.7882 163.225 20.5141 163.167 20.1197C163.109 19.7254 163.068 19.3711 163.041 19.0569C163.013 18.7461 162.969 18.589 162.915 18.589C162.816 18.589 162.581 19.214 162.213 20.464C162.172 20.6177 162.047 20.7715 161.842 20.9319C161.638 21.0923 161.536 21.1859 161.536 21.2126Z" fill="#005CA1"/>
</g>
</g>
<defs>
<clipPath id="clip0_145_369">
<rect width="167.579" height="48" fill="white"/>
</clipPath>
<clipPath id="clip1_145_369">
<rect width="165.895" height="46.3158" fill="white" transform="translate(1.68421 0.842102)"/>
</clipPath>
</defs>
</svg>
