<svg width="180" height="129" viewBox="0 0 180 129" fill="none" xmlns="http://www.w3.org/2000/svg">
<g clip-path="url(#clip0_2080_1892)">
<g clip-path="url(#clip1_2080_1892)">
<path d="M124.655 115.291C133.807 115.64 142.24 115.584 140.761 103.607C140.014 90.9736 136.378 78.7871 135.01 66.2513C134.291 57.5167 137.235 49.0896 138.231 40.4947C139.668 31.9698 140.152 23.333 140.18 14.6963C140.111 7.02382 137.443 4.67596 130.226 3.1247C123.37 1.825 116.25 2.34208 109.31 2.71942C105.384 3.02688 101.389 3.0688 97.5873 4.27068C89.0577 6.99587 92.0438 18.5395 93.0391 25.2476C94.0483 31.2011 94.3801 37.2804 94.1313 43.3177C93.6474 51.3815 92.9009 59.585 90.0254 67.1876C86.6661 77.138 79.0213 100.798 88.1315 108.638C93.1497 112.607 99.5504 113.558 105.744 113.977C112.061 114.075 118.31 115.263 124.641 115.291H124.655Z" fill="white" stroke="#005CA1" stroke-width="3" stroke-miterlimit="10"/>
<path d="M121.835 100.547C122.568 98.4504 122.25 95.9348 120.674 94.3137C120.494 94.132 120.466 93.9503 120.48 93.7267C120.618 90.7919 120.687 87.885 120.798 84.9502C123.107 84.1955 125.194 83.1055 126.812 81.2607C129.148 85.1319 133.392 86.6832 137.705 87.312C137.65 86.9487 137.595 86.6552 137.567 86.3897C133.821 85.5232 129.687 84.489 127.752 80.7856C127.213 79.5278 128.761 77.9905 127.918 75.7405C127.6 74.1752 126.342 74.4827 126.079 75.8942C125.319 77.725 126.812 79.7514 126.051 80.6738C124.669 82.225 122.858 83.2871 120.881 83.8741C120.715 76.0479 120.812 68.2078 120.466 60.3816C117.466 59.7248 114.439 59.3474 111.342 58.8862C110.845 66.6705 111.232 74.5106 110.61 82.2949C108.605 81.0231 107.015 79.3182 105.716 77.3476C104.928 75.9641 106.891 73.9656 105.619 71.5199C105.26 70.5556 103.836 70.6954 103.587 71.6876C103.006 73.2808 103.587 74.9159 104.167 76.4113C104.264 76.6768 104.278 76.8865 104.14 77.152C100.767 82.8679 92.1679 80.2685 88.8363 75.7265C88.6704 76.2017 88.5736 76.4951 88.463 76.8166C92.3753 81.4424 101.126 83.7763 104.886 77.8368C106.338 79.9051 107.983 81.7638 110.14 83.1055C110.513 83.3431 110.665 83.5946 110.651 84.0558C110.485 90.6382 110.388 97.1087 110.07 103.705C104.914 102.559 103.504 96.9131 102.813 92.3152C102.688 91.4348 101.776 91.5605 101.817 92.427C102.688 98.4644 97.352 102.224 91.8085 101.176C87.6336 100.645 86.1682 96.6895 84.689 93.2935C84.0116 94.9426 85.0761 96.4799 85.7811 97.9473C89.2787 104.6 100.545 103.37 102.578 96.1445C103.49 100.253 105.826 103.565 109.918 104.767C109.987 112.747 108.964 120.713 109.6 128.679C112.6 128.763 115.545 128.861 118.545 128.945C119.512 127.086 118.959 124.738 119.208 122.698C119.443 117.694 119.678 112.677 119.886 107.674C119.955 106.249 120.024 104.823 120.107 103.398C120.245 102.657 120.95 102.224 121.392 101.609C126.563 106.179 134.304 106.193 140.18 102.811C140.152 102.503 140.124 102.182 140.083 101.763C134.622 105.103 126.425 105.438 121.863 100.547H121.835ZM120.466 95.6693C121.199 96.8292 121.448 98.0591 121.13 99.4566C120.024 98.3106 120.369 96.969 120.466 95.6693ZM104.72 75.1954C104.347 74.1054 104.084 73.0153 104.541 71.8414C105.177 72.4143 105.246 73.756 104.72 75.1954ZM127.116 78.3539C126.77 77.6411 126.798 76.8026 127.116 76.2715V78.3539ZM120.729 100.728C120.563 100.966 120.397 101.204 120.231 101.455C120.19 101.441 120.162 101.413 120.121 101.399C120.162 100.994 120.204 100.589 120.259 100.058C120.466 100.351 120.577 100.519 120.729 100.742V100.728Z" fill="#005CA1"/>
<path d="M117.273 23.1654C117.702 21.5722 118.462 19.965 117.619 18.3998C117.259 17.4774 116.139 16.8904 115.545 17.9526C113.679 21.9355 118.849 22.7741 112.974 26.226C109.766 27.5396 106.034 25.625 103.974 23.0675C103.172 22.0054 105.177 19.7973 103.518 17.2119C102.564 15.9401 101.679 17.5752 101.707 18.5815C101.306 20.2445 102.868 22.1591 102.232 23.0675C100.2 25.9185 96.5366 26.6313 93.3847 27.5955C93.4262 27.889 93.4676 28.1406 93.5091 28.4341C96.9652 27.7213 100.905 26.6313 103.062 23.5287C106.449 27.903 113.485 29.622 116.651 24.0738C121.807 30.8099 128.72 29.7477 131.554 21.698C133.71 24.7725 136.475 27.0086 139.585 28.8953C139.705 28.6064 139.756 28.2664 139.738 27.8751C136.945 25.9744 132.3 22.9138 131.789 19.3361C131.609 18.3718 131.789 16.1777 130.641 15.9541C130.282 15.9681 130.033 16.2895 129.95 16.8765C129.535 18.5954 131.222 20.0069 130.531 21.6421C127.89 29.0769 121.407 29.3844 117.259 23.1793L117.273 23.1654ZM116.388 18.3579C117.176 19.2104 117.232 20.7896 116.582 21.8936C116.139 20.7337 115.863 19.6296 116.388 18.3579ZM103.048 20.9433C102.716 19.993 102.495 19.0287 102.84 18.0225C103.297 18.9588 103.324 19.9371 103.048 20.9433Z" fill="#005CA1"/>
<path d="M94.1589 43.4296C94.1451 43.779 94.1312 44.0585 94.1174 44.3659C99.7439 46.9653 104.527 48.0973 109.186 43.0103C112.269 47.4265 117.743 51.102 123.162 48.9778C125.581 48.2371 127.392 46.7278 128.637 44.4777C130.448 47.7619 133.005 50.2635 136.157 52.3039C136.268 51.8707 136.295 51.7589 136.392 51.3536C133.503 49.3831 130.918 46.8955 129.356 43.6951C128.927 42.2976 130.157 40.7184 129.425 39.2649C129.134 38.65 128.443 38.5662 128.07 39.1252C127.019 40.5507 128.305 42.2417 127.918 43.6951C126.356 47.3427 122.084 49.0477 118.338 48.5166C114.799 47.748 111.771 45.1765 109.822 42.1578C112.946 37.3503 107.638 33.8146 108.177 40.1034C108.149 40.8581 108.965 41.7246 108.467 42.3954C106.836 44.1283 104.942 45.3861 102.55 45.6796C99.6195 45.8753 96.9514 44.2541 94.2004 43.4436L94.1589 43.4296ZM109.366 37.6717C109.988 38.4683 109.919 40.0336 109.296 40.8721C109.048 39.81 108.813 38.7898 109.366 37.6717Z" fill="#005CA1"/>
<path d="M68.874 120.238C75.5788 120.448 81.9241 118.673 88.311 116.912C96.4811 115.109 99.7851 107.087 100.034 99.3169C100.228 85.4674 98.8589 69.2141 87.288 60.0602C82.0209 54.1766 71.5145 54.4561 64.2014 54.4701C39.2209 55.3925 33.9262 75.8524 39.3039 97.2346C42.0825 111.797 54.3585 121.063 68.8878 120.238H68.874Z" fill="#F5E83A" stroke="#005CA1" stroke-width="2" stroke-miterlimit="10"/>
<path d="M74.4454 98.0311C71.1138 97.2485 67.7683 96.8572 64.3399 96.5078C64.7269 107.059 63.9113 117.666 64.6855 128.19C68.2936 128.064 71.8326 127.938 75.4546 127.813C74.6251 117.876 74.5145 107.982 74.4454 98.0311Z" fill="#005CA1"/>
<path d="M49.2713 91.9241C47.0456 91.9241 46.9765 94.8309 48.5386 95.8791C50.0869 97.1928 52.2988 95.1943 51.1652 93.4893C50.7505 92.7346 50.1837 91.938 49.2713 91.9241Z" fill="#005CA1"/>
<path d="M92.0851 83.2593C89.5691 83.2593 90.0253 87.4379 92.251 87.2982C94.85 87.2422 94.6012 83.2593 92.0851 83.2593Z" fill="#005CA1"/>
<path d="M56.5981 106.416C56.6672 108.96 60.773 109.351 60.5104 106.458C60.2339 104.208 56.6672 103.971 56.5981 106.416Z" fill="#005CA1"/>
<path d="M46.216 79.8213C46.3681 82.784 51.4969 82.0713 49.8518 79.0386C48.9118 77.5573 46.2298 77.8647 46.216 79.8213Z" fill="#005CA1"/>
<path d="M76.4775 84.9363C76.5052 87.354 80.141 87.6895 80.2101 85.09C80.293 82.7003 76.4914 82.4767 76.4775 84.9363Z" fill="#005CA1"/>
<path d="M85.0763 75.2234C87.4126 75.3213 87.855 71.7156 85.3943 71.52C82.9335 71.3802 82.5465 75.0697 85.0763 75.2234Z" fill="#005CA1"/>
<path d="M72.2474 65.874C72.2474 68.2638 75.8831 68.2219 75.897 65.86C75.897 63.4563 72.2612 63.5122 72.2474 65.874Z" fill="#005CA1"/>
<path d="M61.2709 69.3819C61.2847 71.8416 64.8238 71.562 64.8652 69.2841C64.8514 66.8384 61.3124 67.0899 61.2709 69.3819Z" fill="#005CA1"/>
<path d="M51.0271 66.3631C53.3358 66.3631 53.3219 62.7575 51.0271 62.6876C48.6079 62.6457 48.7737 66.3212 51.0271 66.3631Z" fill="#005CA1"/>
<path d="M82.8228 109.407C85.1038 109.449 85.0624 105.829 82.8228 105.843C80.5142 105.843 80.4727 109.421 82.8228 109.407Z" fill="#005CA1"/>
<path d="M55.603 82.7841C57.9394 82.7562 57.9255 79.2903 55.603 79.2344C53.2944 79.2484 53.2806 82.7562 55.603 82.7841Z" fill="#005CA1"/>
<path d="M67.5746 84.4192C67.5746 86.5015 70.8095 86.4456 70.7127 84.3493C70.6851 82.2949 67.5193 82.3788 67.5746 84.4192Z" fill="#005CA1"/>
<path d="M90.0251 96.5917C88.0344 96.5498 87.9653 99.7082 89.9836 99.7082C92.002 99.7781 92.0158 96.5917 90.0251 96.5917Z" fill="#005CA1"/>
</g>
</g>
<defs>
<clipPath id="clip0_2080_1892">
<rect width="180" height="128" fill="white" transform="translate(0 0.189941)"/>
</clipPath>
<clipPath id="clip1_2080_1892">
<rect width="107" height="128" fill="white" transform="matrix(-1 0 0 1 143 0.189941)"/>
</clipPath>
</defs>
</svg>
