<svg width="369" height="57" viewBox="0 0 369 57" fill="none" xmlns="http://www.w3.org/2000/svg">
<g clip-path="url(#clip0_2136_2231)">
<path d="M0 27.4228C0 26.4073 1.38295 25.621 4.15533 25.0706C10.1935 24.0158 16.6538 23.4851 23.5361 23.4851C25.1722 23.4851 28.5679 23.3344 33.7296 23.0395C38.8913 22.7447 42.8129 22.594 45.4944 22.594C53.5453 22.594 57.7007 23.7602 57.9539 26.0862C57.4929 27.6521 55.8373 28.4318 52.9805 28.4318C51.8897 28.4318 50.0653 28.2811 47.5071 27.9863C44.949 27.6914 43.0791 27.5408 41.9104 27.5408C40.8586 27.5408 39.9821 27.6259 39.2679 27.7963C35.8268 27.7963 30.0288 28.0518 21.8739 28.5563C13.7126 29.0608 8.08342 29.3163 4.97991 29.3163C3.72032 29.3163 2.79836 29.2967 2.21401 29.2508C0.746661 28.6611 0.0129854 28.0453 0.0129854 27.4097L0 27.4228ZM3.71383 51.4818C3.71383 50.7218 4.51243 49.7586 6.10314 48.5924C7.70035 47.4261 8.70023 46.843 9.12225 46.843H9.18718C9.64816 46.3778 10.5506 45.9453 11.8946 45.5391C13.2386 45.1394 14.5177 44.9363 15.7318 44.9363C17.9978 44.9363 19.1924 45.6964 19.3158 47.223C18.264 48.7037 16.3681 49.9224 13.6217 50.8725C10.8753 51.8225 8.13536 52.3008 5.40842 52.3008H4.27869C3.90212 52.1304 3.71383 51.8553 3.71383 51.4752V51.4818ZM11.135 9.45066C11.135 6.95435 12.018 5.70291 13.7775 5.70291C14.284 5.70291 14.8034 5.78809 15.3488 5.95844C15.9785 5.78809 16.2902 5.55877 16.2902 5.25738C17.1278 4.41217 18.0432 3.84214 19.0301 3.54075C20.017 3.24591 21.3675 3.09521 23.0881 3.09521C23.6724 3.09521 25.0489 3.12797 27.2109 3.18694C29.373 3.25246 31.2689 3.28522 32.905 3.28522H46.8708C47.2864 3.54075 47.9616 4.04526 48.8836 4.81184V7.03297C48.507 10.0797 47.9421 13.1525 47.1825 16.2385C46.9293 17.3 45.6957 18.2566 43.4687 19.128C41.2482 19.9994 40.0081 20.5367 39.7548 20.7463C39.164 21.0412 37.0474 21.3819 33.3985 21.7619C29.7496 22.1419 26.2695 22.3319 22.9517 22.3319C16.1993 22.3319 12.8231 21.467 12.8231 19.7308V19.4163C12.8231 19.1607 12.6413 18.5514 12.2907 17.5751C11.9336 16.5989 11.7583 15.8847 11.7583 15.4195C11.7583 15.1247 11.6544 14.2664 11.4466 12.8512C11.2389 11.4359 11.135 10.3024 11.135 9.45721V9.45066ZM15.6669 33.7717C15.6669 33.3524 15.7903 32.9462 16.0435 32.5661C16.2123 31.8454 16.3681 31.3933 16.5174 31.2033C16.6668 31.0133 16.946 30.8561 17.368 30.725C18.5821 30.345 20.8481 29.9519 24.1659 29.5522C27.4771 29.1525 30.6456 28.9494 33.6647 28.9494C40.8391 28.9494 44.4231 30.2009 44.4231 32.6972C44.4231 32.992 44.3582 33.3327 44.2348 33.7127C43.9426 33.9224 43.6699 34.4335 43.4167 35.2394C43.1635 36.0453 42.7869 36.6153 42.287 36.956L41.2157 37.906V38.7316C41.8455 39.3671 42.1571 39.9175 42.1571 40.3827C42.1571 41.0182 41.5598 41.5031 40.3652 41.8438C39.1705 42.1845 37.7096 42.44 35.9891 42.6038C34.2685 42.7742 33.1388 42.9642 32.5934 43.1738C32.6323 43.259 32.6583 44.0518 32.6583 45.5522C32.6583 47.0526 32.7232 48.481 32.8466 49.8372C32.97 51.1935 33.2232 51.8684 33.5998 51.8684H33.7231C33.8919 52.2942 33.9763 52.5891 33.9763 52.7594C33.9763 53.4801 33.5024 54.0633 32.5609 54.5088C31.6195 54.9544 30.4313 55.1771 29.0094 55.1771C26.9512 55.1771 25.0229 54.7316 23.2179 53.8405C22.5492 53.6702 22.0103 53.4933 21.6142 53.3032C21.2117 53.1132 20.9455 52.9298 20.7961 52.766C20.6468 52.5956 20.4261 52.3729 20.1339 52.0977C19.8417 51.8225 19.5236 51.5801 19.1924 51.3704C19.2768 51.3311 19.3937 51.1804 19.5366 50.9249C19.6859 50.6693 20.03 50.5842 20.5754 50.6693C20.6598 50.5449 21.4779 50.4138 23.0296 50.2893C24.5814 50.1648 25.354 49.5686 25.354 48.5137C25.354 47.924 25.1852 47.2688 24.8476 46.5481C25.0554 45.9126 25.1592 45.3032 25.1592 44.707C25.1592 43.7766 24.7307 43.1411 23.8672 42.8004C23.0037 42.4597 22.0557 42.3221 21.0039 42.3876C19.9521 42.4531 18.9587 42.2304 18.0173 41.7193C17.0758 41.2082 16.5369 40.3041 16.4136 38.9871C16.6668 38.7316 16.7901 38.4367 16.7901 38.096C16.7901 37.716 16.6018 37.015 16.2253 35.9994C15.8487 34.9838 15.6604 34.2435 15.6604 33.7783L15.6669 33.7717ZM18.1796 17.1362C18.1796 17.431 18.6406 17.5817 19.5625 17.5817C19.6859 17.5817 21.2636 17.5424 24.2827 17.4572C25.0359 17.4572 26.0422 17.4376 27.3018 17.3917C28.5614 17.3524 29.3795 17.3262 29.7561 17.3262C30.1327 17.3262 30.7235 17.3065 31.5156 17.2607C32.3142 17.2213 32.944 17.1624 33.405 17.1034C33.866 17.0379 34.4503 16.9658 35.1645 16.8806C35.8787 16.7955 36.6968 16.671 37.6187 16.5006C39.2094 16.2451 40.0081 16.0354 40.0081 15.8651C40.0081 15.5244 37.9304 15.354 33.7815 15.354C33.2816 15.354 32.2817 15.3868 30.7949 15.4523C29.3081 15.5178 27.8277 15.5702 26.3604 15.6095C24.893 15.6554 23.5945 15.6751 22.4583 15.6751C20.5299 15.6751 19.2704 15.6358 18.686 15.5506C18.6406 15.7602 18.5821 15.9961 18.4977 16.2516C18.4133 16.5072 18.3419 16.6972 18.277 16.8217C18.212 16.9462 18.1796 17.0575 18.1796 17.1362ZM18.5302 7.36057C18.5107 7.39988 18.5367 7.55058 18.6276 7.80611C18.712 8.06164 18.7509 8.54648 18.7509 9.26721C18.7509 9.98793 18.8483 10.558 19.0366 10.9838C19.2249 11.4097 19.6339 11.6194 20.2637 11.6194C20.7637 11.6194 21.3091 11.5145 21.8999 11.3049C24.1204 11.01 28.0225 10.8593 33.5998 10.8593H39.3263V9.27376C39.4497 8.55304 39.1056 8.04853 38.2875 7.74714C37.4694 7.4523 36.2618 7.3016 34.6711 7.3016C33.5348 7.3016 31.7753 7.39333 29.386 7.58989C26.9967 7.7799 25.4254 7.87818 24.6658 7.87818C23.9061 7.87818 23.3478 7.81266 22.9647 7.68817C20.6598 7.68817 19.2963 7.603 18.8743 7.43264C18.6665 7.34747 18.5497 7.32781 18.5302 7.36712V7.36057ZM22.8413 37.7684H28.3796C32.2363 37.7684 34.1906 37.7029 34.2295 37.5784C34.6905 36.7332 34.9243 35.9273 34.9243 35.1673C34.9243 33.9421 34.1451 33.3262 32.5999 33.3262C31.8467 33.3262 30.9637 33.4769 29.9573 33.7717C27.7758 33.7717 26.1202 33.8372 24.9904 33.9617H22.8543V37.7684H22.8413ZM37.2487 45.4539C37.2032 45.0739 37.6642 44.766 38.6316 44.5301C39.599 44.3008 40.7287 44.1828 42.0273 44.1828C44.1244 44.1828 45.423 44.4187 45.9294 44.8839C46.5137 45.0936 47.4162 45.6243 48.6369 46.4695C49.851 47.3147 50.6496 47.7406 51.0262 47.7406H51.2145C52.513 47.8258 53.7856 48.2189 55.0192 48.9134C56.2528 49.6145 56.8761 50.3221 56.8761 51.0428C56.8761 51.7177 56.2463 52.2615 54.9867 52.6612C53.7271 53.0674 52.4935 53.2639 51.2729 53.2639C48.4616 53.2639 45.7151 52.458 43.0337 50.8528C40.3522 49.2476 38.4173 47.4458 37.2422 45.4539H37.2487Z" fill="#005CA1"/>
<path d="M64.1089 7.29497C64.1933 5.26384 64.3621 4.28759 64.6088 4.37277C64.901 3.95344 65.2061 3.68481 65.5243 3.57998C65.8359 3.47515 66.219 3.46204 66.654 3.54722C67.0955 3.63239 67.7318 3.63239 68.5759 3.54722C72.5169 3.03616 78.9382 3.54722 87.8267 5.07384C89.5473 4.77899 90.7225 5.12625 91.3523 6.12216C91.9821 7.11806 92.2028 8.27777 92.0145 9.61438C91.8262 10.951 91.586 12.3531 91.2938 13.8339C91.0017 15.3146 90.8913 16.245 90.9822 16.625C90.9367 16.8347 90.9108 17.005 90.8848 17.1361C90.8653 17.2606 90.8393 17.3785 90.8199 17.4833C90.8004 17.5882 90.7679 17.7061 90.7225 17.8306C90.677 17.9551 90.6511 18.0403 90.6251 18.0861C90.6056 18.132 90.5537 18.2106 90.4693 18.3416C90.3849 18.4661 90.3329 18.5448 90.3134 18.5644C90.294 18.5841 90.216 18.6889 90.0927 18.8855C89.9693 19.0755 89.8849 19.1934 89.8395 19.2327C88.6643 20.2941 87.8072 21.349 87.2619 22.4104C87.0541 22.6201 86.0997 22.7905 84.3986 22.915C82.6975 23.0394 81.5807 23.3212 81.0354 23.7405C80.7432 23.7405 80.5419 23.8388 80.438 24.0288C80.3341 24.2188 80.2822 24.7168 80.2822 25.5226V27.2982H81.6067C81.7301 27.2982 82.1716 27.3507 82.9312 27.4555C83.6844 27.5603 84.2298 27.6127 84.5674 27.6127C85.6127 27.4424 86.4568 27.6783 87.0866 28.3138C87.5865 28.91 87.3787 29.3097 86.4568 29.5194C86.249 29.6045 85.9958 29.6439 85.7036 29.6439C84.905 29.729 84.509 29.8535 84.509 30.0239C84.3856 30.1484 84.0869 30.2466 83.6259 30.3122C83.165 30.3777 82.6196 30.4367 81.9898 30.5022C81.36 30.5677 80.9834 30.6005 80.8601 30.6005H79.7888V31.9371C79.7888 32.4023 79.7563 32.7823 79.6914 33.0771C79.6264 33.372 79.5355 33.6733 79.4057 33.9682C79.2823 34.263 79.1979 34.5841 79.1525 34.9182V35.8683H80.1588C81.5418 35.6127 82.5611 35.4555 83.2104 35.39C83.8597 35.3245 84.2687 35.3245 84.4375 35.39C84.6063 35.4555 84.931 35.5145 85.4114 35.58C85.8919 35.6455 86.5542 35.6783 87.3917 35.6783C89.4434 35.6783 90.4108 36.0845 90.2875 36.8838C90.1641 37.5194 89.5343 38.0501 88.3981 38.4694C87.8981 38.6791 87.4112 38.7643 86.9502 38.7249L85.314 38.9805C84.2233 39.1508 83.2688 39.2884 82.4508 39.3932C81.6327 39.4981 80.5289 39.6291 79.146 39.7733C77.763 39.924 76.5164 40.0157 75.3997 40.0616C74.2894 40.1009 73.1272 40.1271 71.9066 40.1271C70.686 40.1271 69.6082 40.055 68.6668 39.9043C67.7253 39.7536 66.9786 39.5112 66.4333 39.177C66.3489 38.7512 66.4982 38.3908 66.8748 38.096C67.2513 37.8011 67.7967 37.5783 68.5109 37.4276C69.2251 37.277 69.8939 37.1525 70.5237 37.0476C71.1535 36.9428 71.9001 36.838 72.7572 36.7266C73.6142 36.6217 74.192 36.5497 74.4907 36.5038C75.0751 36.5497 75.5101 36.4711 75.7828 36.281C76.0555 36.091 76.2048 35.7831 76.2243 35.3572C76.2437 34.9379 76.2243 34.5251 76.1593 34.1189C76.0944 33.7192 75.9905 33.254 75.8477 32.7233C75.6984 32.1926 75.6269 31.7995 75.6269 31.5505C75.5425 30.7905 74.5881 30.3318 72.7636 30.1877C70.9392 30.037 69.8354 29.6897 69.4589 29.1394C67.8227 28.3335 68.2642 27.7831 70.7834 27.4883C71.4521 27.4031 72.9 27.2786 75.127 27.1082C75.2504 26.9379 75.3283 26.5579 75.3477 25.9682C75.3672 25.3785 75.2633 24.815 75.0361 24.2843C74.8024 23.7536 74.4388 23.5767 73.9323 23.7471C73.7635 23.8322 72.8805 23.6815 71.2898 23.3015C70.1146 23.0067 69.5303 23.177 69.5303 23.8126C69.5303 23.8978 69.5498 24.0026 69.5952 24.1271C69.6796 24.553 69.5108 24.8478 69.0953 25.0181C68.6732 25.1885 68.4655 25.3785 68.4655 25.5882C68.2967 26.014 67.9201 26.2958 67.3357 26.4465C66.7449 26.5972 66.193 26.5382 65.6671 26.2892C65.1412 26.0337 64.9205 25.5489 65.0049 24.8281C64.8815 25.1688 64.7516 24.553 64.6283 22.987C64.1283 17.5685 63.9595 12.34 64.1283 7.30807L64.1089 7.29497ZM65.3035 54.2139C65.3879 53.6242 65.3879 52.8511 65.3035 51.8945C65.2191 50.9444 65.2191 49.9354 65.3035 48.8806C65.3879 47.8257 65.5308 46.8691 65.745 46.0239C65.9528 45.1787 66.3943 44.5431 67.0631 44.1172C67.7318 43.6979 68.6148 43.5865 69.7056 43.8027C70.5886 43.7634 71.1924 44.0059 71.53 44.53C71.8677 45.0607 71.9391 45.7618 71.7508 46.6267C71.5625 47.4915 71.3612 48.2385 71.1535 48.8478C70.9457 49.4637 70.6925 50.0861 70.4003 50.7217C70.2315 50.7217 70.1471 50.8462 70.1471 51.1017C69.9393 51.3114 69.7056 51.6652 69.4524 52.15C69.1992 52.6349 68.9459 53.0804 68.6992 53.4801C68.446 53.8863 68.1668 54.2401 67.8487 54.5611C67.5305 54.8822 67.154 55.0198 66.7189 54.9739C66.2774 54.9346 65.8035 54.6791 65.3035 54.2139ZM71.2184 17.2606V18.0206C71.2184 18.1451 71.2314 18.3285 71.2508 18.5579C71.2703 18.7937 71.3223 18.951 71.4067 19.0362C71.4911 19.1213 71.595 19.2262 71.7183 19.3507C71.8417 19.4751 72.0235 19.5538 72.2507 19.5734C72.478 19.5931 72.7507 19.6389 73.0688 19.6979C73.3805 19.7634 73.7505 19.7962 74.1726 19.7962H75.0556V17.8896C75.2244 16.874 75.153 16.2254 74.8348 15.9502C74.5232 15.675 74.0362 15.5308 73.3869 15.5046C72.7377 15.485 72.2442 15.3015 71.9066 14.9674C71.53 14.6267 71.2963 14.8429 71.2119 15.6029V17.254L71.2184 17.2606ZM71.5365 8.50054C71.4976 8.92642 71.6015 9.24091 71.8547 9.45058C72.1079 9.66024 72.4001 9.79128 72.7377 9.83059C73.0753 9.8699 73.4064 10.0009 73.744 10.2106C74.0817 10.4203 74.2894 10.6955 74.3738 11.0362L75.127 12.1172V10.7806C75.127 9.47023 75.1465 8.5595 75.1919 8.04845V6.65287H74.2505C73.0363 6.69873 72.2767 6.82322 71.9845 7.03289C71.6924 7.24255 71.543 7.73395 71.543 8.49398L71.5365 8.50054ZM72.887 50.6234C72.8675 50.4727 72.8545 50.1385 72.8545 49.6078V48.435C72.7701 46.358 73.0039 45.028 73.5493 44.4317C74.0947 43.8421 75.101 43.7569 76.5684 44.1762C76.945 44.3007 77.2631 44.4711 77.5098 44.6807C77.763 44.8904 77.9318 45.1787 78.0163 45.539C78.1007 45.8994 78.1656 46.2598 78.2045 46.6201C78.2435 46.9805 78.224 47.4129 78.1396 47.924C78.0552 48.435 77.9838 48.8675 77.9189 49.2278C77.8539 49.5882 77.7371 50.0534 77.5747 50.6234C77.4059 51.1934 77.2826 51.5996 77.1982 51.829C77.1138 52.0648 76.9774 52.4252 76.7891 52.91C76.6008 53.3949 76.5034 53.6635 76.5034 53.7028C76.5034 54.0435 76.4515 54.2401 76.3476 54.3056C76.2437 54.3711 75.9386 54.358 75.4386 54.2729C75.101 54.1877 74.8218 54.096 74.5881 53.9846C74.3544 53.8797 74.1596 53.7552 73.9908 53.6046C73.822 53.4539 73.6791 53.3425 73.5493 53.2573C73.4259 53.1721 73.3155 53.0018 73.2376 52.7462C73.1532 52.4907 73.0883 52.3007 73.0493 52.1762C73.0039 52.0517 72.9779 51.7962 72.9519 51.4162C72.9325 51.0362 72.9065 50.7741 72.887 50.6234ZM79.3992 45.8339C79.4382 44.8183 79.7953 44.3531 80.4705 44.4383C82.0612 43.7634 83.2688 43.96 84.0869 45.0411C84.905 46.1222 85.2491 47.4129 85.1258 48.9133C85.0024 50.4137 84.7881 51.5931 84.496 52.4383C84.496 53.539 83.9895 54.0894 82.9832 54.0894C82.3923 54.5153 81.6846 53.8142 80.8471 51.9928C79.7173 49.6668 79.2304 47.6095 79.3992 45.8339ZM80.2173 19.2C80.1329 19.39 80.1848 19.5407 80.3731 19.6455C80.5614 19.7503 80.7107 19.8027 80.8146 19.8027C80.9185 19.8027 81.1912 19.8159 81.6327 19.8355C82.0742 19.8552 82.4832 19.8879 82.8598 19.9338H85.1907V19.1082C85.1452 18.9837 85.0868 18.5972 85.0024 17.9682C84.7102 15.9371 84.3921 14.9018 84.061 14.856C83.9376 14.856 83.7883 14.9805 83.6194 15.236C83.535 15.4915 82.9377 15.8519 81.8275 16.3171C80.7172 16.7823 80.2043 17.4178 80.2887 18.2237C80.3277 18.6889 80.3082 19.0165 80.2238 19.2065L80.2173 19.2ZM80.4056 10.3416C80.4056 12.3728 80.4705 13.3883 80.5939 13.3883C80.6328 13.349 80.9055 13.1263 81.4119 12.72C81.9184 12.3204 82.3469 11.9403 82.704 11.58C83.0611 11.2196 83.3987 10.8003 83.7103 10.3089C84.022 9.82404 84.0155 9.45058 83.6779 9.19505C83.6389 8.81503 83.613 8.53985 83.613 8.36949C83.613 8.19914 83.5415 8.055 83.3922 7.92396C83.2429 7.79947 83.152 7.72085 83.1065 7.70119C83.0676 7.68153 82.8663 7.64877 82.5092 7.60291C82.1521 7.5636 81.8664 7.51773 81.6587 7.47842H80.3991V10.3351L80.4056 10.3416ZM86.0023 43.6717C86.4633 43.1213 87.2943 42.9706 88.489 43.2262C89.6836 43.4817 90.3004 43.9862 90.3459 44.7528C90.8069 45.8535 91.1835 46.9346 91.4756 47.9895C91.7678 49.0509 92.0405 49.8503 92.2937 50.4006C92.2937 50.1058 92.1898 49.123 91.9821 47.4457C91.7743 45.7749 91.5925 43.5538 91.4497 40.7823C91.3003 38.0108 91.2289 34.6955 91.2289 30.8429C91.2289 30.5874 91.2159 30.2401 91.1964 29.7946C91.177 29.349 91.177 29.0738 91.1964 28.969C91.2159 28.8642 91.2354 28.6807 91.2614 28.4317C91.2808 28.1762 91.3328 28.019 91.4172 27.9534C91.5016 27.8879 91.5925 27.7962 91.7029 27.6652C91.8068 27.5407 91.9756 27.462 92.2093 27.4424C92.4366 27.4227 92.6833 27.3769 92.93 27.3179C93.1767 27.2589 93.5403 27.1803 94.0013 27.0951C95.6764 26.6758 96.7672 26.6103 97.2736 26.9051C97.7801 27.2 98.4358 27.6127 99.2539 28.1435C100.072 28.6742 101.007 28.8969 102.052 28.8118C103.351 28.8511 103.981 28.7921 103.942 28.6217C103.942 28.5366 103.669 28.4973 103.124 28.4973C102.663 28.5431 102.429 28.4579 102.429 28.2417C101.422 27.5669 100.806 26.1975 100.572 24.1467C100.338 22.0959 100.117 16.625 99.9097 7.73395C99.9097 5.70283 99.9941 4.49726 100.163 4.11724C100.332 3.73723 100.877 3.54722 101.799 3.54722C102.805 3.54722 103.623 3.57998 104.253 3.6455C104.883 3.71102 105.565 3.88137 106.298 4.15655C107.032 4.43174 107.558 4.88383 107.87 5.51937C108.181 6.15492 108.259 6.98047 108.09 7.99603C108.214 9.05746 108.318 10.1778 108.409 11.3638C108.448 12.1697 108.5 12.6349 108.564 12.7593C108.629 12.8838 108.87 12.8838 109.285 12.7593C110.545 12.3793 111.967 12.34 113.564 12.6349C117.382 12.4252 119.479 12.8707 119.855 13.9649C120.108 14.7708 119.375 15.5112 117.654 16.186C117.485 16.2712 117.317 16.3367 117.148 16.376C115.804 16.376 114.297 16.5267 112.616 16.8216C110.941 17.1164 109.616 17.1819 108.655 17.0116C108.448 16.7168 108.253 16.7168 108.09 17.0116C108.052 17.1361 108.052 17.2671 108.09 17.3916C108.214 17.8175 108.123 19.3048 107.805 21.8666C107.493 24.4285 107.039 26.2565 106.454 27.3572C105.532 27.9534 105.383 28.2876 106.013 28.3728C106.305 28.4186 106.954 28.4186 107.961 28.3728C109.305 28.3335 110.369 28.3335 111.168 28.3728C112.259 28.4186 113.33 28.4055 114.375 28.34C115.421 28.2745 116.187 28.2221 116.674 28.1828C117.154 28.1435 117.667 28.1828 118.213 28.3073C118.758 28.4317 119.303 28.6873 119.849 29.0673L120.978 29.8928V31.7995C120.81 33.0706 120.634 35.2917 120.446 38.4629C120.258 41.634 120.005 44.3269 119.693 46.5284C119.381 48.7299 118.927 50.5251 118.342 51.9272C118.089 51.9731 117.966 52.2352 117.966 52.72C117.966 53.2049 117.914 53.6832 117.81 54.1484C117.706 54.6136 117.42 54.8232 116.96 54.7839C115.953 55.2491 115.187 55.5046 114.661 55.5439C114.135 55.5833 113.746 55.4915 113.499 55.2557C113.252 55.0198 112.583 54.8232 111.519 54.6529C110.447 54.4825 109.012 54.4432 107.207 54.5284C105.863 54.6136 104.513 54.5415 103.15 54.3056C101.786 54.0763 100.793 53.978 100.163 54.0173C99.5331 54.0566 98.9682 54.3973 98.4618 55.0329C97.8709 55.8781 96.8905 56.1467 95.5076 55.8257C94.1247 55.5046 93.4105 54.7577 93.3715 53.5718V53.4473L92.6183 54.6529H91.6769C90.3329 54.2336 88.95 52.6349 87.5216 49.8568C86.0932 47.0853 85.5932 45.0214 86.0088 43.6652L86.0023 43.6717ZM100.163 51.3572H112.934C112.765 50.8462 112.557 47.6095 112.304 41.6406C112.051 35.6717 111.863 32.3302 111.739 31.6095C107.292 32.114 103.831 32.1598 101.358 31.734H100.351V39.924C100.351 41.4047 100.286 44.8969 100.163 50.4006V51.3507V51.3572Z" fill="#005CA1"/>
<path d="M129.043 6.27973C129.043 5.72936 129.419 5.19865 130.172 4.69414L130.737 3.86859L135.081 3.93411C136.672 4.10446 137.535 4.18964 137.658 4.18964C138.412 4.18964 138.899 4.06515 139.106 3.80962C139.314 3.5541 139.379 3.27891 139.295 2.98407C139.21 2.68923 139.444 2.40094 139.989 2.12576C140.535 1.85057 141.476 1.69332 142.82 1.64746H143.573C144.034 1.64746 144.43 1.66057 144.768 1.68022C145.106 1.69988 145.398 1.7654 145.651 1.87023C145.904 1.97506 146.092 2.04058 146.216 2.06024C146.339 2.07989 146.489 2.21093 146.657 2.44025C146.826 2.67613 146.93 2.81372 146.969 2.85303C147.008 2.89234 147.105 3.09545 147.255 3.45581C147.404 3.81618 147.495 4.01929 147.54 4.0586C148.547 4.3993 151.397 4.56966 156.098 4.56966C156.351 4.56966 156.708 4.55655 157.169 4.5369C157.63 4.51724 157.968 4.50414 158.175 4.50414L162.136 4.37965L162.954 3.2396C163.077 3.02993 163.194 2.82027 163.298 2.60405C163.402 2.39439 163.473 2.24369 163.519 2.15852C163.558 2.07334 163.623 1.98817 163.707 1.90299C163.792 1.81781 163.895 1.7654 164.019 1.74574C164.142 1.72609 164.279 1.70643 164.428 1.68022C164.577 1.66057 164.817 1.64746 165.149 1.64746H166.661C168.298 1.64746 169.336 1.74574 169.778 1.93575C170.219 2.12576 170.525 2.60405 170.687 3.36409C170.771 3.7441 170.888 3.96687 171.031 4.03239C171.18 4.09791 171.667 4.15033 172.511 4.18964C173.725 4.2355 174.836 4.47793 175.849 4.92346C176.855 5.369 177.361 5.97179 177.361 6.73182C177.361 6.77113 177.348 6.83665 177.329 6.92183C177.309 7.007 177.296 7.07252 177.296 7.11183C176.959 7.78669 176.193 8.28464 174.998 8.60569C173.803 8.92019 171.485 9.274 168.044 9.65401C166.992 9.7785 165.908 10.5451 164.772 11.9407C163.636 13.3362 162.61 14.0963 161.688 14.2273C161.565 14.2273 161.259 14.3518 160.772 14.6073C160.292 14.8629 159.922 14.9873 159.669 14.9873C159.162 14.9873 158.916 14.568 158.916 13.7163C158.916 13.4607 159.292 12.0652 160.045 9.52297C159.539 9.35262 157.831 9.24779 154.916 9.20192C152.001 9.16261 150.436 9.1364 150.228 9.1364L147.962 8.88088L148.086 9.77195C148.423 10.3223 148.592 10.9775 148.592 11.7376C148.592 12.4583 148.41 13.0938 148.06 13.6442C147.703 14.1946 147.255 14.4697 146.709 14.4697C146.079 14.4697 145.43 14.0504 144.761 13.1986C144.008 12.609 143.417 11.8948 143.002 11.0692C142.58 10.2437 142.132 9.6278 141.651 9.22813C141.171 8.82846 140.32 8.62535 139.106 8.62535C138.814 8.62535 138.106 8.69742 136.996 8.84812C135.886 8.99881 135.074 9.07088 134.574 9.07088C133.146 9.07088 131.867 8.7957 130.737 8.24533C129.607 7.69496 129.036 7.03976 129.036 6.27973H129.043ZM132.12 24.1864C132.12 22.4108 132.328 21.0152 132.75 19.9931C132.789 19.4427 132.938 18.9906 133.191 18.6303C133.445 18.2699 133.802 18.0144 134.263 17.8702C134.724 17.7195 135.146 17.6278 135.522 17.5819C135.899 17.5426 136.457 17.5164 137.191 17.5164C137.925 17.5164 138.457 17.4968 138.795 17.4509H139.171C140.431 17.4509 142.34 17.5164 144.898 17.6409L150.624 17.8309V17.1299C150.202 16.4091 149.995 15.5836 149.995 14.6532C149.995 13.5525 150.306 12.5893 150.936 11.7638C151.566 10.9382 152.384 10.5254 153.39 10.5254C153.897 10.5254 154.52 10.6958 155.28 11.0365C155.994 11.3772 156.351 11.9472 156.351 12.7531C156.351 13.3035 156.143 14.1094 155.721 15.1643C155.299 16.2257 155.072 16.835 155.026 17.0054C154.734 17.1299 154.585 17.2609 154.585 17.3854C154.585 17.4706 155.091 17.5099 156.098 17.5099H159.305C164.843 17.5099 168.2 17.8244 169.369 18.4599C170.544 18.6303 171.128 19.9407 171.128 22.3977C171.128 23.9243 170.921 25.6278 170.499 27.5082C170.077 29.3952 169.68 30.6925 169.304 31.4132C169.219 31.7081 169.148 32.1208 169.083 32.6516C169.018 33.1823 168.947 33.5819 168.862 33.8571C168.778 34.1323 168.57 34.4206 168.233 34.7154C167.895 35.0103 167.363 35.2265 166.629 35.351C165.895 35.4755 164.921 35.541 163.701 35.541C163.279 35.541 162.441 35.5213 161.182 35.4755C159.922 35.4362 159.065 35.41 158.604 35.41C157.974 35.41 157.662 35.4296 157.662 35.4755C157.662 35.6 157.818 36.0979 158.136 36.9693C158.448 37.8407 158.61 39.1184 158.61 40.8088C158.61 41.1888 158.597 41.6999 158.578 42.3354C158.558 42.971 158.545 43.3968 158.545 43.6065C158.545 44.1569 158.61 44.4321 158.734 44.4321C158.857 44.4321 159.11 44.1569 159.487 43.6065C159.571 43.4362 159.961 42.663 160.649 41.2871C161.344 39.9112 162.032 38.8104 162.727 37.9849C163.422 37.1593 164.123 36.7466 164.837 36.7466C165.636 36.7466 166.408 37.2773 167.168 38.3321C167.337 38.3321 167.421 38.4828 167.421 38.7777C167.421 39.6229 167.044 40.704 166.285 42.0144C166.032 42.2699 165.908 42.4796 165.908 42.6499C165.908 42.9054 166.116 43.0299 166.538 43.0299C167.252 43.0299 167.609 42.7744 167.609 42.2699C167.609 42.2306 167.577 42.093 167.512 41.8571C167.447 41.6278 167.421 41.464 167.421 41.3788C167.421 41.1233 167.577 40.9136 167.895 40.7433C168.207 40.5729 168.388 40.3829 168.427 40.1733C168.596 40.0029 168.973 39.9177 169.557 39.9177C170.226 39.9177 170.888 40.0226 171.537 40.2322C172.187 40.4419 172.531 40.7171 172.576 41.0578C172.829 41.1036 173.122 41.5885 173.459 42.5189C173.797 43.4493 174.044 43.9145 174.212 43.9145C174.336 43.9145 174.466 43.7441 174.589 43.4034C175.173 42.8137 175.803 42.5123 176.478 42.5123C177.822 42.5123 179.004 43.6327 180.036 45.8801C181.062 48.1208 181.575 50.2371 181.575 52.229C181.575 54.5156 179.79 55.6557 176.225 55.6557C175.427 55.6557 174.608 55.5901 173.771 55.4656C173.102 55.3412 171.18 55.2101 168.012 55.0856C164.843 54.9611 161.974 54.7777 159.39 54.5484C156.812 54.319 155.481 54.0111 155.397 53.6245C154.014 52.8186 152.942 51.3706 152.189 49.274C151.436 47.1774 151.053 44.8842 151.053 42.3878C151.053 41.5819 151.222 40.4747 151.559 39.0529C151.897 37.6376 152.066 36.6286 152.066 36.0389C152.066 35.5737 151.52 35.3379 150.43 35.3379C149.547 35.3379 149.105 35.5737 149.105 36.0389C149.105 36.2945 149.228 36.5697 149.482 36.8645C149.566 37.0742 149.605 37.4804 149.605 38.0701C149.605 39.4656 149.248 41.1823 148.534 43.2134C147.82 45.2445 147.19 46.4763 146.644 46.8956C145.891 48.206 144.8 49.6606 143.372 51.2461C141.944 52.8317 140.606 53.8604 139.347 54.3256C137.964 54.876 136.957 55.1511 136.327 55.1511C135.737 55.1511 135.444 54.9218 135.444 54.4501C135.444 54.0308 135.782 53.2838 136.451 52.229C136.62 51.9734 136.983 51.4165 137.555 50.5451C138.119 49.6802 138.49 49.1167 138.658 48.8612C138.827 48.6057 139.139 48.0881 139.6 47.3084C140.061 46.5287 140.372 45.9456 140.541 45.5656C140.71 45.1855 140.95 44.6155 141.262 43.8489C141.574 43.0889 141.807 42.3878 141.957 41.7523C142.106 41.1167 142.262 40.3764 142.431 39.5312C142.599 38.686 142.723 37.8145 142.807 36.93L142.872 35.7244L140.924 35.6589C138.866 35.4034 137.373 35.0889 136.425 34.7089C135.483 34.3289 134.737 33.5688 134.191 32.4222C133.562 31.7015 133.055 30.5615 132.679 28.9955C132.302 27.4296 132.114 25.8244 132.114 24.1733L132.12 24.1864ZM139.171 23.9898C139.171 24.2846 139.236 24.4747 139.36 24.5598C139.483 24.645 139.717 24.6843 140.054 24.6843H140.496C141.08 24.7236 142.781 24.7826 145.593 24.8416C148.404 24.9071 150.098 24.9398 150.689 24.9398L150.624 22.5877C147.943 22.3321 145.086 22.2077 142.067 22.2077C140.223 22.2077 139.301 22.2928 139.301 22.4632C139.217 23.3936 139.178 23.9046 139.178 23.9898H139.171ZM139.418 29.8342C139.418 30.3846 139.457 30.6597 139.541 30.6597C139.71 30.6597 140.119 30.6401 140.768 30.5942C141.418 30.5549 142.236 30.4959 143.223 30.437C144.21 30.3715 145.119 30.3387 145.956 30.3387H150.735L150.67 28.3731C149.326 28.419 147.904 28.4386 146.391 28.4386C145.3 28.4386 143.917 28.4321 142.236 28.4059C140.561 28.3862 139.658 28.3731 139.528 28.3731C139.444 28.3731 139.405 28.8579 139.405 29.8342H139.418ZM156.033 30.4697H156.409C157.163 30.4697 158.266 30.5156 159.714 30.5942C161.162 30.6794 162.136 30.7187 162.642 30.7187C163.857 30.7187 164.467 30.5484 164.467 30.2142C164.467 30.0439 164.421 29.9194 164.343 29.8342L163.844 28.4976L156.422 28.5631L156.046 30.4697H156.033ZM156.091 25.2019C156.299 25.2019 156.741 25.1888 157.409 25.1692C158.078 25.1495 158.649 25.1364 159.11 25.1364C159.825 25.1364 160.682 25.1823 161.688 25.2609L163.889 25.3854C163.889 24.0291 163.908 23.0136 163.954 22.3387L156.091 22.4632V25.1954V25.2019ZM161.753 49.5819L166.596 49.6475C170.245 49.8178 172.258 49.9423 172.635 50.0275C172.758 50.0275 172.907 50.0406 173.076 50.0602C173.245 50.0799 173.349 50.093 173.388 50.093C173.81 50.093 174.018 49.8637 174.018 49.3919C174.018 49.3526 174.005 49.2412 173.985 49.0774C173.966 48.9071 173.953 48.7629 173.953 48.6319C173.868 48.2126 173.797 47.9767 173.732 47.9308C173.667 47.8915 173.472 48.016 173.135 48.3109H172.505C171.752 48.3109 171.193 48.1077 170.836 47.7081C170.479 47.3084 170.135 47.1053 169.797 47.1053C169.336 47.1053 168.668 47.2756 167.785 47.6163C167.492 47.7408 166.869 47.957 165.928 48.2519C164.986 48.5467 164.363 48.7367 164.071 48.8219L161.746 49.5819H161.753Z" fill="#005CA1"/>
<path d="M192.457 20.3728L193.398 18.9117C194.697 16.9657 195.716 15.4915 196.45 14.5022C197.184 13.5063 198.242 12.1631 199.625 10.4727C201.008 8.78228 202.423 7.3736 203.871 6.2532C205.319 5.13281 206.819 4.25484 208.371 3.6193C208.747 3.44895 209.228 3.36377 209.819 3.36377C210.994 3.36377 212.24 3.65206 213.565 4.22208C214.889 4.79211 215.545 5.30972 215.545 5.77491C215.545 6.15492 214.935 6.34493 213.721 6.34493C213.675 6.34493 213.604 6.48252 213.5 6.75771C213.396 7.03289 213.24 7.36049 213.026 7.74051C212.818 8.12053 212.565 8.41537 212.273 8.63158L211.078 9.52266H212.838C215.604 9.52266 216.993 9.22782 216.993 8.63158C217.577 7.78637 219.051 6.7184 221.395 5.42765C223.745 4.13691 225.797 3.48826 227.563 3.48826C228.524 3.48826 229.303 3.69792 229.887 4.1238C229.926 4.16967 229.952 4.20898 229.952 4.24829C229.952 4.2876 229.855 4.36623 229.667 4.47106C229.478 4.57589 229.245 4.75935 228.972 5.00832C228.699 5.26385 228.479 5.57835 228.31 5.95836C228.102 6.46942 227.472 7.046 226.42 7.70775C225.369 8.36295 224.849 8.82159 224.849 9.07057C224.849 9.28023 225.037 9.47024 225.414 9.64059C225.537 9.72577 226.758 9.8306 229.063 9.95509C231.368 10.0796 233.614 10.2303 235.796 10.4006C237.977 10.571 239.068 10.761 239.068 10.9706C239.068 11.01 238.964 11.0755 238.757 11.1607C239.802 11.5407 240.328 12.1369 240.328 12.9363C240.328 13.9977 239.445 14.5218 237.685 14.5218C237.477 14.5218 237.036 14.4825 236.361 14.3973C235.147 14.2729 233.348 14.1418 230.978 14.0173C228.608 13.8928 226.648 13.7421 225.096 13.5718C224.758 15.6881 224.589 16.9985 224.589 17.5096L224.654 17.634C224.693 17.634 225.05 17.5816 225.726 17.4768C226.394 17.372 227.024 17.3195 227.615 17.3195C229.712 17.3195 232.524 17.4702 236.043 17.7651C236.335 17.7651 236.601 17.8699 236.828 18.0796C237.055 18.2892 237.172 18.5055 237.172 18.7151C237.172 19.3114 236.504 19.6062 235.16 19.6062H235.036L225.161 19.7962L225.226 22.5284C225.141 22.5743 225.102 22.6136 225.102 22.6529C225.102 22.7381 225.732 22.7774 226.992 22.7774H232.342C232.679 22.7381 233.16 22.7118 233.79 22.7118C234.796 22.7118 235.601 22.8363 236.211 23.0919C236.822 23.3474 237.127 23.6619 237.127 24.0419C237.127 24.6774 236.497 25.2082 235.237 25.6275L224.921 25.693C224.875 26.3679 224.823 26.9444 224.765 27.4096C224.706 27.8748 224.648 28.1959 224.609 28.3597L224.544 28.6152H231.335C233.095 28.6152 234.251 28.6611 234.796 28.7397C236.179 29.2507 236.874 29.8601 236.874 30.5808C236.874 31.3015 236.14 31.7012 234.673 31.7864C233.79 32.0419 230.459 32.2319 224.667 32.3564C224.921 33.9682 225.369 35.0034 226.018 35.4686C226.667 35.9338 227.751 36.1697 229.258 36.1697H232.842C234.017 36.1697 234.874 36.1828 235.419 36.2024C235.965 36.2221 236.478 36.2417 236.958 36.2679C237.438 36.2876 237.809 36.3662 238.062 36.4907C238.315 36.6152 238.51 36.7266 238.659 36.8052C238.808 36.8904 239.036 37.0804 239.354 37.3752C239.665 37.6701 239.951 37.9256 240.204 38.1353C240.497 38.1353 240.646 38.2204 240.646 38.3908C240.646 38.6005 240.308 39.0132 239.64 39.6291C238.971 40.245 238.633 40.5923 238.633 40.6774C238.802 40.7233 238.886 40.7823 238.886 40.8675C238.886 41.123 236.601 41.2999 232.03 41.4047C227.459 41.5096 225.174 41.6668 225.174 41.883L225.239 41.9485C225.408 42.2434 226.368 42.512 228.134 42.7413C229.894 42.9772 230.861 43.2196 231.03 43.4686C232.705 44.1435 235.108 45.5456 238.237 47.6619C241.36 49.7782 243.723 51.1541 245.314 51.7897C245.86 52.3007 246.132 52.8511 246.132 53.4408C246.132 54.0763 245.873 54.6136 245.347 55.0591C244.821 55.5046 244.119 55.7274 243.236 55.7274C242.814 55.7274 242.399 55.6619 241.977 55.5374C238.367 54.7315 235.348 53.7356 232.92 52.5562C230.485 51.3703 227.615 49.634 224.297 47.3474C224.297 47.9436 224.115 48.7692 223.765 49.8241C223.408 50.8855 223.232 51.711 223.232 52.3007C223.232 52.8511 223.012 53.1918 222.57 53.3163C222.129 53.4408 221.888 53.8011 221.85 54.3974C221.135 54.9477 220.421 55.2229 219.713 55.2229C218.415 55.2229 217.344 54.3908 216.506 52.7135C215.668 51.0427 215.162 49.2737 214.993 47.4129C214.363 47.7536 212.929 48.553 210.682 49.8241C208.436 51.0951 206.436 52.1631 204.676 53.028C202.917 53.8928 201.404 54.5218 200.144 54.9019C199.515 55.4915 198.132 55.7929 195.989 55.7929C193.846 55.7929 192.847 55.6029 192.847 55.2229C192.847 55.0984 193.067 54.856 193.509 54.4956C193.95 54.1353 194.171 53.8535 194.171 53.6373C194.801 53.0018 195.574 52.3269 196.495 51.6062C197.417 50.8855 198.281 50.263 199.073 49.7323C199.872 49.2016 200.911 48.5399 202.19 47.734C203.469 46.9281 204.436 46.3384 205.085 45.9584C205.735 45.5784 206.773 44.9756 208.202 44.15C209.63 43.3245 210.507 42.8069 210.844 42.5972L211.539 42.3417H210.656C210.448 42.3417 209 42.4989 206.312 42.82C203.631 43.1344 201.573 43.2983 200.144 43.2983C197.963 43.2983 196.768 42.9837 196.56 42.3482C195.301 41.6734 194.671 41.0575 194.671 40.5071C194.671 39.9174 195.32 39.4719 196.619 39.177L196.554 39.1115C196.554 38.7315 199.761 38.2204 206.183 37.5849C212.604 36.9494 215.85 36.399 215.935 35.9338C216.142 34.7937 216.253 34.073 216.253 33.7782C216.253 33.0182 215.707 32.6381 214.617 32.6381C214.24 32.6381 213.019 32.7561 210.968 32.9854C208.91 33.2213 207.423 33.3326 206.501 33.3326C205.287 33.3326 204.676 33.1623 204.676 32.8216C204.676 32.7823 204.696 32.7168 204.741 32.6316C204.618 32.3367 204.072 31.9436 203.105 31.4588C202.138 30.9739 201.657 30.5611 201.657 30.2204C201.657 30.096 201.677 29.9911 201.722 29.8994C201.599 29.8601 201.482 29.0869 201.378 27.58C201.274 26.0796 201.17 24.3433 201.066 22.3711C200.962 20.4055 200.826 19.0362 200.657 18.2761C200.534 18.3613 200.261 18.5317 199.839 18.7872C199.417 19.0427 199.054 19.2655 198.735 19.4555C198.424 19.6455 198.054 19.829 197.632 19.9928C197.21 20.1631 196.853 20.2483 196.56 20.2483H196.437C196.099 20.6742 195.411 20.8838 194.359 20.8838C193.898 20.8838 193.522 20.8183 193.223 20.6938L192.47 20.3728H192.457ZM207.053 17.5161C207.221 17.3458 207.936 17.2606 209.189 17.2606C209.695 17.2606 210.74 17.2802 212.338 17.3261C213.928 17.372 215.207 17.3916 216.175 17.3916H217.116C217.116 15.2753 217.24 14.0501 217.493 13.7094H207.299L207.046 17.5161H207.053ZM207.118 22.7249C207.286 22.5546 208.001 22.4694 209.254 22.4694C209.76 22.4694 210.818 22.4891 212.429 22.5349C214.045 22.5808 215.311 22.6005 216.233 22.6005H217.24V21.5194C217.24 20.7135 217.259 20.2942 217.305 20.2483L207.111 20.1828V22.7249H207.118ZM207.494 28.8838L209.254 28.7593C211.643 28.6349 213.617 28.5497 215.169 28.5038L217.37 28.4383V26.4727C217.37 26.0075 217.305 25.6996 217.181 25.5489C217.058 25.3982 216.74 25.3261 216.24 25.3261C215.61 25.3261 214.811 25.2933 213.85 25.2278C212.883 25.1623 212.175 25.1295 211.714 25.1295C211.338 25.1295 210.727 25.1754 209.89 25.254L207.501 25.5096V28.8773L207.494 28.8838Z" fill="#005CA1"/>
<path d="M250.716 12.6284C250.716 12.5432 250.735 12.4515 250.781 12.3401C250.82 12.2353 250.885 12.1305 250.969 12.0256C251.053 11.9208 251.138 11.8356 251.222 11.7701C251.307 11.7046 251.424 11.6194 251.566 11.5146C251.716 11.4097 251.839 11.3246 251.943 11.259C252.047 11.1935 252.216 11.1214 252.449 11.0363C252.677 10.9511 252.845 10.879 252.956 10.8135C253.06 10.748 253.241 10.6628 253.488 10.558C253.741 10.4531 253.904 10.3811 253.995 10.3352H256.702L263.37 9.50966C267.857 8.9986 271.252 8.74962 273.564 8.74962C278.933 8.74962 281.615 9.95519 281.615 12.3663C281.615 12.4908 281.576 12.766 281.491 13.1919L281.556 13.3164C281.556 13.8274 280.413 14.1878 278.128 14.3975C275.843 14.6071 273.336 14.7447 270.609 14.8102C267.883 14.8757 266.331 14.9478 265.954 15.033C264.441 15.3737 262.072 15.5441 258.845 15.5441C256.579 15.5441 255.261 15.4589 254.884 15.2885H254.001C251.82 14.3123 250.729 13.4278 250.729 12.6219L250.716 12.6284ZM253.865 37.1984H254.748C255.67 36.1436 256.78 35.6129 258.085 35.6129C259.299 35.6129 260.539 36.078 261.799 37.0084C262.091 36.9691 263.097 36.766 264.818 36.4056C266.539 36.0453 268.097 35.7701 269.506 35.5801C270.908 35.3901 272.22 35.2918 273.44 35.2918C277.596 35.2918 279.667 36.6874 279.667 39.4851V39.9306C279.498 42.1321 279.238 43.7373 278.881 44.7594C278.524 45.775 278.323 46.6006 278.284 47.2361C277.862 47.8323 277.654 48.5727 277.654 49.4572C277.654 50.0076 277.738 50.4728 277.907 50.8528C277.531 53.1788 274.784 54.345 269.668 54.345C265.766 54.345 262.286 53.8798 259.228 52.9495C257.929 52.825 257.066 52.2484 256.65 51.2328C256.228 50.2173 256.02 48.802 256.02 46.9806V44.5694C256.02 41.6079 255.54 39.5768 254.572 38.4761L253.878 37.205L253.865 37.1984ZM257.449 22.1485C257.449 21.1722 258.656 20.3205 261.065 19.5801C263.474 18.8397 266.045 18.4662 268.772 18.4662C270.83 18.4662 272.525 18.7283 273.869 19.259C275.213 19.7898 275.862 20.6022 275.817 21.7029C275.226 22.6333 273.791 23.354 271.505 23.8586C269.22 24.3696 266.798 24.6186 264.24 24.6186C262.481 24.6186 261.033 24.4941 259.897 24.2386C258.26 23.5637 257.442 22.8626 257.442 22.1419L257.449 22.1485ZM258.079 29.3229C258.079 29.1133 258.247 28.9036 258.578 28.6874L258.39 28.6219C258.39 28.4515 259.143 28.1894 260.656 27.8291C262.169 27.4687 264 27.1215 266.162 26.7807C268.324 26.44 270.136 26.2762 271.603 26.2762C273.823 26.2762 274.94 26.6563 274.94 27.4163C274.94 27.626 274.901 27.7963 274.817 27.9208C274.856 28.006 274.882 28.1567 274.882 28.3663C274.882 29.4671 273.518 30.463 270.791 31.3475C268.064 32.2386 265.402 32.6776 262.799 32.6776C259.864 32.6776 258.397 32.1075 258.397 30.9609C258.397 30.9216 258.403 30.843 258.429 30.7382C258.449 30.6333 258.462 30.5613 258.462 30.5154C258.462 30.345 258.397 30.1354 258.273 29.8798C258.15 29.6243 258.085 29.4343 258.085 29.3098L258.079 29.3229ZM258.267 3.04282H259.085C260.007 2.06658 261.351 1.58173 263.11 1.58173C265.039 1.58173 266.831 2.09278 268.493 3.10834C270.148 4.12391 270.98 5.30982 270.98 6.66608C270.98 7.13128 270.856 7.61613 270.603 8.12718C270.35 8.33685 269.934 8.44168 269.343 8.44168C268.753 8.44168 268.051 8.33685 267.233 8.12718C266.415 7.91752 265.597 7.66199 264.779 7.36715C263.961 7.07231 263.448 6.90196 263.24 6.85609C262.734 6.85609 262.085 6.61367 261.292 6.12882C260.494 5.64397 259.845 5.0805 259.345 4.44495L258.273 3.04938L258.267 3.04282ZM264.182 47.7996C264.182 48.3041 264.811 48.5596 266.071 48.5596H266.513C267.142 48.8545 267.727 49.0052 268.272 49.0052C269.616 49.0052 270.285 47.7144 270.285 45.1329C270.285 44.6677 270.265 44.0322 270.22 43.2263C270.181 42.4204 270.155 41.87 270.155 41.5752V40.9396C268.019 41.3655 266.545 41.6997 265.753 41.9552H264.682V44.3663C264.721 44.5367 264.747 44.7922 264.747 45.1264C264.747 45.5916 264.649 46.1223 264.461 46.712C264.273 47.3082 264.175 47.662 264.175 47.793L264.182 47.7996ZM281.796 14.7251C281.796 13.1591 284.017 12.2287 288.464 11.9339C289.179 12.1436 289.705 12.2484 290.036 12.2484C291.419 12.2484 292.113 11.2721 292.113 9.3262C292.113 8.43513 291.945 7.19025 291.613 5.57845C291.276 3.97321 291.107 3.06248 291.107 2.84626C291.107 2.63005 291.146 2.53177 291.23 2.53177C291.269 1.94209 291.503 1.41137 291.925 0.946182C292.341 0.480989 292.951 0.245117 293.749 0.245117C294.042 0.245117 294.275 0.264773 294.444 0.310637H294.951C295.412 0.310637 295.86 0.376157 296.301 0.500645C296.743 0.625134 297.191 0.795486 297.652 1.0117C298.113 1.22137 298.431 1.35241 298.593 1.39172C298.931 1.60138 299.229 1.8176 299.509 2.02726C299.781 2.23693 300.002 2.52522 300.171 2.88558C300.34 3.24594 300.482 3.54078 300.612 3.77665C300.736 4.01252 300.833 4.39254 300.898 4.92325C300.963 5.45396 301.002 5.81432 301.021 6.00433C301.041 6.19434 301.086 6.63988 301.145 7.34094C301.21 8.04201 301.236 8.47444 301.236 8.64479V10.8004H302.242C303.287 10.7611 304.651 10.7349 306.332 10.7349C309.812 10.7349 311.552 11.0756 311.552 11.7504C311.806 12.5563 311.929 13.2509 311.929 13.8471C311.929 14.9478 311.384 15.7079 310.293 16.1337C309.202 16.5596 307.358 16.8086 304.755 16.8938C303.579 16.9396 302.794 17.0641 302.398 17.2738C302.002 17.4834 301.8 17.8242 301.8 18.2893C301.8 18.499 301.852 18.9052 301.956 19.4949C302.06 20.0911 302.112 20.5957 302.112 21.0215C302.112 21.2771 302.067 21.6571 301.989 22.1616C302.073 24.7038 302.112 27.6456 302.112 30.9871C302.112 44.4056 301.651 51.1149 300.729 51.1149C300.684 51.1149 300.645 51.0952 300.606 51.0494C300.521 52.0256 300.151 52.9429 299.502 53.8078C298.853 54.6792 298.041 55.1116 297.08 55.1116C296.872 55.1116 296.47 55.0264 295.886 54.8561C294.418 53.3753 293.418 51.567 292.899 49.4245C292.373 47.2885 292.113 44.5236 292.113 41.1362C292.113 39.8651 292.165 37.526 292.269 34.119C292.373 30.712 292.425 27.9536 292.425 25.8307C292.425 23.3737 292.36 20.7529 292.237 17.9552C291.107 18.1649 290.12 18.2697 289.282 18.2697C287.27 18.2697 285.517 17.9028 284.03 17.1558C282.543 16.4155 281.796 15.603 281.796 14.7119V14.7251Z" fill="#005CA1"/>
<path d="M317.032 54.2796C318.123 53.4344 318.818 52.9888 319.11 52.943C319.402 52.9037 321.629 52.7923 325.778 52.6285C328.167 52.5892 331.699 52.4385 336.381 52.1829C341.055 51.9274 344.594 51.8029 346.983 51.8029C349.963 51.8029 352.814 51.7308 355.54 51.5801C358.267 51.4295 360.007 51.3574 360.761 51.3574C362.189 51.3574 363.741 51.4426 365.416 51.6129C367.091 51.9929 367.935 52.4581 367.935 53.0085C368.441 53.4737 368.688 53.8996 368.688 54.2796C368.688 54.7448 368.429 55.1444 367.903 55.4851C367.377 55.8258 366.76 55.9962 366.046 55.9962C365.377 55.9962 364.682 55.8062 363.968 55.4262C361.871 55.2165 359.124 55.1117 355.729 55.1117C352.333 55.1117 347.223 55.282 340.536 55.6162C333.842 55.9569 328.888 56.1272 325.655 56.1272C320.116 56.1272 317.246 55.5113 317.032 54.2861V54.2796ZM318.097 31.6751C318.097 31.5048 318.454 31.21 319.168 30.7841L320.24 30.083L328.291 29.9585C330.05 29.9192 332.167 29.8864 334.647 29.8602C337.121 29.8406 338.841 29.7882 339.809 29.703C339.893 29.5326 339.828 29.133 339.62 28.4974L339.244 27.4163L332.069 27.2263C327.33 27.1412 324.298 27.0363 322.98 26.9118C321.655 26.7874 320.727 26.5122 320.181 26.0863C319.889 25.9159 319.74 25.7063 319.74 25.4507C319.74 25.11 320.136 24.7497 320.934 24.3697C321.395 24.16 323.155 24.0552 326.219 24.0552H330.433L339.114 24.1797V22.024L334.141 21.834C332.043 21.7489 330.563 21.6768 329.706 21.6113C328.849 21.5457 327.933 21.3557 326.973 21.0412C326.005 20.7267 325.271 20.2484 324.772 19.6129C324.895 19.5277 325.083 19.3901 325.336 19.2001C325.59 19.0101 325.745 18.8922 325.81 18.8529C325.875 18.8136 325.986 18.7349 326.154 18.6301C326.323 18.5253 326.479 18.4729 326.628 18.4729C326.778 18.4729 326.953 18.4598 327.161 18.4401C327.369 18.4204 327.641 18.4073 327.979 18.4073C328.187 18.4073 328.804 18.4204 329.836 18.4401C330.862 18.4598 331.836 18.4729 332.764 18.4729H333.394C334.192 18.4729 335.101 18.5056 336.134 18.5646C337.16 18.6301 337.776 18.6629 337.991 18.6629C338.536 18.6629 338.913 18.5777 339.12 18.4073C339.328 18.237 339.432 17.9225 339.432 17.4573C339.432 17.0314 339.367 16.5073 339.244 15.8717C338.153 15.5769 335.472 15.2558 331.193 14.9217C326.914 14.581 324.103 14.0109 322.765 13.205L322.012 12.445L322.765 11.875C323.142 11.2853 325.031 10.9839 328.427 10.9839C329.31 10.9839 330.407 11.0036 331.732 11.0494C333.056 11.0953 333.816 11.115 334.03 11.115H334.283C334.491 11.2001 335.374 11.2853 336.926 11.3705L339.445 11.495V8.63829C339.445 7.91757 339.296 7.47204 339.004 7.30824C338.711 7.13788 337.893 7.05271 336.549 7.05271H334.03C332.978 7.05271 331.641 7.10512 330.005 7.20996C328.368 7.31479 327.258 7.3672 326.667 7.3672C324.739 7.3672 323.291 7.00684 322.324 6.28612C322.032 5.99128 321.876 5.80127 321.85 5.7161C321.83 5.63092 321.947 5.48678 322.194 5.27056C322.402 5.10021 322.59 4.97572 322.759 4.89055C322.928 4.80537 323.155 4.72019 323.454 4.63502C323.746 4.54984 324.012 4.49743 324.239 4.47777C324.466 4.45811 324.849 4.41225 325.369 4.35328C325.895 4.28776 326.362 4.24845 326.784 4.22879C327.206 4.20914 327.875 4.16327 328.797 4.10431C329.719 4.03878 330.602 3.98637 331.44 3.94706C331.946 3.90774 332.615 3.88154 333.452 3.88154C333.998 3.88154 334.66 3.89464 335.433 3.9143C336.205 3.93395 336.725 3.94706 336.971 3.94706C338.185 3.94706 338.796 3.60635 338.796 2.9315C338.796 2.67597 338.692 2.23043 338.484 1.59489C338.692 1.21487 338.861 0.95279 338.991 0.802094C339.114 0.651398 339.367 0.507253 339.744 0.356557C340.12 0.205861 340.601 0.133789 341.192 0.133789H342.01C344.607 0.133789 346.269 0.834854 346.983 2.23043L347.548 3.24599H349.249C350.255 3.37048 352.385 3.55394 355.631 3.78326C358.884 4.01913 361.092 4.2419 362.267 4.45156C363.481 5.17228 364.091 6.22715 364.091 7.62928C364.091 8.22552 363.987 9.11004 363.78 10.296C363.526 10.807 363.403 11.2263 363.403 11.567C363.403 12.1633 364.033 12.4581 365.293 12.4581H365.669C366.929 12.4581 367.597 12.7333 367.682 13.2837C368.104 13.6244 368.312 13.9847 368.312 14.3647C368.312 14.6203 368.188 14.8955 367.935 15.1903C367.727 15.7014 366.773 16.0027 365.072 16.1141C363.371 16.2255 362.462 16.5662 362.338 17.1625C362.293 17.418 362.066 17.8701 361.644 18.5253C361.222 19.1805 361.053 19.7833 361.137 20.3336C361.137 20.9299 361.098 21.2968 361.014 21.4475C360.929 21.5982 360.702 21.7554 360.319 21.9258C359.689 22.1813 358.514 22.3058 356.794 22.3058C355.196 22.3058 353.755 22.2861 352.45 22.2403L348.048 22.1158L347.925 23.1969C347.84 23.7079 347.801 24.0028 347.801 24.0879C347.801 24.4679 348.028 24.6579 348.496 24.6579C348.58 24.6579 348.782 24.6448 349.093 24.6252C349.411 24.6055 349.691 24.5924 349.944 24.5924H351.392C352.437 24.5924 354.073 24.4417 356.3 24.1469C358.521 23.8521 360.098 23.7014 361.02 23.7014C363.202 23.7014 364.481 24.3172 364.858 25.5425C364.435 26.0077 363.611 26.3877 362.371 26.6825C361.131 26.9774 359.949 27.1477 358.819 27.1936H358.443C357.729 27.1936 356.67 27.2656 355.268 27.4163C353.859 27.567 352.658 27.6391 351.651 27.6391H351.145L347.808 27.7046L347.301 28.6547C347.217 28.825 347.093 29.015 346.925 29.2247C346.756 29.4344 346.632 29.6047 346.548 29.7358C346.464 29.8602 346.425 29.9716 346.425 30.0503C346.425 30.2206 346.931 30.3779 347.938 30.5285C348.944 30.6792 349.781 30.7513 350.457 30.7513C351.502 30.7513 353.573 30.6137 356.651 30.3385C359.735 30.0634 362.007 29.9258 363.475 29.9258C367.162 29.9258 369.013 30.6006 369.013 31.9569C369.013 32.2124 368.961 32.4352 368.857 32.6252C368.753 32.8152 368.571 32.9724 368.325 33.1035C368.071 33.228 367.831 33.3263 367.604 33.3918C367.37 33.4573 367.059 33.4966 366.662 33.5163C366.26 33.5359 365.929 33.5556 365.656 33.5818C365.383 33.6014 365.026 33.6145 364.585 33.6145H362.54C361.741 33.6145 359.644 33.6473 356.248 33.7063C352.852 33.7718 350.353 33.8046 348.762 33.8046C346.496 33.8046 345.113 33.739 344.607 33.6145C343.386 33.3197 341.672 33.169 339.445 33.169C338.315 33.169 336.445 33.2214 333.848 33.3263C331.245 33.4311 329.297 33.4835 327.998 33.4835C323.006 33.4835 319.714 32.8938 318.123 31.7079L318.097 31.6751ZM322.317 35.2919L323.2 34.6563C324.083 34.0666 325.336 33.7652 326.973 33.7652C329.239 33.7652 330.557 34.296 330.933 35.3508C331.939 36.0257 333.576 36.3664 335.842 36.3664C336.848 36.3664 338.517 36.2681 340.841 36.0781C343.165 35.8881 344.879 35.7898 345.97 35.7898C347.269 35.7898 349.002 35.9143 351.158 36.1698C353.32 36.4254 354.521 36.5498 354.774 36.5498C355.573 36.5498 356.475 36.3991 357.482 36.1043C358.573 35.4294 359.813 35.0887 361.196 35.0887C362.371 35.0887 363.345 35.3508 364.124 35.8815C364.896 36.4123 365.286 37.1657 365.286 38.1354C365.286 38.771 365.137 39.4065 364.845 40.0421C364.637 40.5073 364.338 41.3525 363.962 42.5842C363.585 43.8095 363.215 44.825 362.858 45.6309C362.501 46.4368 362.072 46.9872 361.566 47.282C360.936 47.4065 360.098 47.9372 359.047 48.8676C357.995 49.798 356.722 50.2632 355.209 50.2632C353.865 50.2632 351.353 50.3353 347.658 50.486C343.964 50.6367 341.159 50.7087 339.224 50.7087C334.361 50.7087 330.816 50.3287 328.589 49.5687C327.122 49.5294 326.07 48.7038 325.447 47.092C324.817 45.4868 324.343 43.495 324.031 41.1231C323.72 38.7513 323.33 37.1461 322.869 36.2943L322.304 35.2788L322.317 35.2919ZM331.375 47.2296L333.576 47.4851C334.705 47.6096 335.627 47.6752 336.342 47.6752C337.225 47.6752 338.393 47.59 339.867 47.4196C341.166 47.2951 341.815 47.0003 341.815 46.5286C341.815 46.3582 341.75 46.1485 341.627 45.893C341.166 45.513 339.653 45.2706 337.095 45.1657C334.537 45.0609 332.985 44.8381 332.439 44.4974H332.316C332.193 44.4974 332.076 44.5826 331.972 44.753C331.868 44.9233 331.79 45.1002 331.751 45.2902C331.712 45.4802 331.66 45.7161 331.595 45.9913C331.53 46.2665 331.498 46.4434 331.498 46.5286L331.375 47.2296ZM332.004 40.3107C332.004 40.9855 332.465 41.4442 333.387 41.6735C334.309 41.9094 335.588 42.0208 337.225 42.0208C338.861 42.0208 339.802 42.0404 340.055 42.0863L341.25 41.8963V39.9307C341.25 39.2558 341.062 38.9151 340.685 38.9151C340.562 38.9151 340.231 38.9479 339.711 39.0134C339.185 39.0789 338.692 39.1051 338.231 39.1051H337.978C336.718 39.1903 335.861 39.2296 335.4 39.2296C334.809 39.2296 334.179 39.1903 333.511 39.1051L331.998 38.9151L332.063 39.9307C332.063 39.9765 332.05 40.0355 332.03 40.1207C332.011 40.2059 331.998 40.2714 331.998 40.3107H332.004ZM346.918 46.7251C346.918 46.9348 347.756 47.1051 349.437 47.2296C350.483 47.3148 351.346 47.4 352.015 47.4851C353.606 47.5703 354.554 47.6096 354.846 47.6096C355.261 47.6096 355.683 47.5703 356.105 47.4851L357.047 47.1706L356.858 44.504H354.722C354.554 44.504 354.125 44.5171 353.43 44.5367C352.736 44.5564 352.106 44.5826 351.541 44.6023C350.976 44.6219 350.366 44.6547 349.717 44.694C349.067 44.7399 348.561 44.8185 348.204 44.9495C347.847 45.074 347.671 45.2444 347.671 45.4606C347.587 45.6309 347.489 45.7882 347.386 45.9389C347.282 46.0896 347.197 46.201 347.132 46.2861C347.067 46.3713 347.016 46.4565 346.977 46.5417C346.938 46.6268 346.912 46.6923 346.912 46.7317L346.918 46.7251ZM347.418 39.5507C347.418 39.6751 347.457 39.9962 347.541 40.5007L347.73 41.7063L349.996 41.6408C350.372 41.5163 350.775 41.4507 351.19 41.4507C351.775 41.4507 352.573 41.5556 353.58 41.7652C354.586 41.9749 355.235 42.0797 355.527 42.0797C356.326 42.0797 356.683 41.6342 356.599 40.7431L356.664 39.282H352.827C350.353 39.282 348.866 39.1969 348.36 39.0265C348.106 38.9413 347.938 38.902 347.86 38.902C347.567 38.902 347.418 39.1117 347.418 39.5376V39.5507ZM347.86 9.70627C347.86 10.8922 348.087 11.4819 348.554 11.4819C348.639 11.4819 348.762 11.4426 348.931 11.3574C349.184 11.3181 350.333 11.2919 352.392 11.2919H355.157V8.62519C355.157 7.98964 355.073 7.60963 354.904 7.48514C354.735 7.36065 354.209 7.20996 353.333 7.0396C353.08 7.00029 352.872 6.95443 352.703 6.91512C351.151 6.62028 349.807 6.46958 348.678 6.46958C348.178 6.46958 347.925 6.50889 347.925 6.59407C347.963 6.67924 347.989 6.86925 347.989 7.16409C347.989 7.37376 347.97 7.77998 347.925 8.36966C347.879 8.96589 347.86 9.40488 347.86 9.70627ZM347.925 18.5973C348.931 18.7677 350.859 18.8529 353.716 18.8529C355.437 18.8529 356.294 18.7677 356.294 18.5973C356.294 18.5122 356.209 18.4466 356.04 18.4073C356.04 18.368 355.995 18.119 355.917 17.6801C355.833 17.2345 355.748 16.8676 355.664 16.5662L355.352 15.1051L352.521 15.1706H351.327C349.814 15.1706 348.885 15.2755 348.528 15.4851C348.171 15.6948 347.996 16.1862 347.996 16.9462V17.5818C347.996 18.0077 347.976 18.3418 347.931 18.5973H347.925Z" fill="#005CA1"/>
</g>
<defs>
<clipPath id="clip0_2136_2231">
<rect width="369" height="56" fill="white" transform="translate(0 0.120605)"/>
</clipPath>
</defs>
</svg>
