<svg width="303" height="154" viewBox="0 0 303 154" fill="none" xmlns="http://www.w3.org/2000/svg">
<g clip-path="url(#clip0_2136_2069)">
<path d="M57.4077 31.4763C57.4077 31.4763 81.0926 46.3338 91.1336 51.0222C93.2114 41.522 98.1214 19.343 119.491 17.7845C143.065 16.0637 234.066 17.6838 263.129 18.3332C292.192 18.9826 304.164 88.6236 302.912 112.498C301.634 136.894 280.619 144.336 222.493 142.982C183.786 142.083 143.459 145.544 111.905 135.326C97.7442 130.741 88.347 90.5523 89.6249 74.6006C80.7544 64.0549 69.8029 55.4833 57.4077 31.4763Z" fill="#F5E83A"/>
<path d="M11.6602 80.3766C21.6784 80.3701 33.4233 81.1916 43.7017 80.2955C43.5652 72.2888 44.0334 63.8893 44.0236 58.8567C44.0594 59.7593 15.1492 58.9963 15.1492 58.9963C15.1492 58.9963 12.5511 77.0941 11.6602 80.3734V80.3766Z" fill="#F5E83A"/>
<path d="M32.4155 81.7565C28.829 81.7565 25.2034 81.6688 21.6364 81.5812C18.1409 81.4968 14.8242 81.4318 11.6604 81.4188H10.2231L10.5743 80.1234C11.4393 76.9382 14.0113 59.0417 14.0373 58.8632L14.1706 57.9346L15.1786 57.9605C27.8242 58.295 42.0469 58.4151 43.5036 57.9865C43.2565 58.0612 42.8988 58.3891 42.902 58.8664L45.1424 58.821L45.1619 59.2723L45.1457 59.2917C45.1392 61.1944 45.0741 63.4899 45.0026 66.1198C44.879 70.4868 44.7425 75.4317 44.8238 80.2857L44.84 81.2467L43.806 81.3377C40.1349 81.6558 36.298 81.7597 32.4155 81.7597V81.7565ZM13.0423 79.3409C15.8225 79.3571 18.6871 79.4285 21.6982 79.5C28.6957 79.672 35.9143 79.8474 42.5704 79.3441C42.5183 74.7661 42.6484 70.1589 42.7622 66.0614C42.8272 63.8178 42.8825 61.8178 42.8988 60.1099C40.2194 60.3697 33.5081 60.5158 16.1249 60.0677C15.6339 63.4412 13.956 74.8602 13.0423 79.3441V79.3409Z" fill="#005CA1"/>
<path d="M47.6171 81.3346C47.5781 81.3346 47.5423 81.3346 47.5033 81.3314C47.1033 81.2892 46.8204 80.9547 46.8659 80.5846L48.1471 70.3636C43.5525 70.2759 38.9742 70.0779 34.539 69.8863C26.7514 69.5487 18.7068 69.2012 10.3274 69.4383L9.70631 80.6495C9.6868 81.0229 9.34538 81.3086 8.94217 81.2892C8.54222 81.2697 8.23332 80.9515 8.25283 80.5814L8.90966 68.7499C8.92917 68.4025 9.23157 68.1233 9.60551 68.1103C9.60551 68.1103 9.60551 68.1103 9.60876 68.1103C18.2874 67.8343 26.5823 68.1947 34.604 68.5389C39.2864 68.7402 44.1281 68.9512 48.973 69.0292C49.1779 69.0324 49.373 69.1168 49.5063 69.2597C49.6428 69.4025 49.7046 69.5941 49.6819 69.7824L48.3097 80.7405C48.2674 81.0749 47.9683 81.3249 47.6171 81.3379V81.3346Z" fill="#005CA1"/>
<path d="M17.2045 81.3898C17.2045 81.3898 17.1752 81.3898 17.1622 81.3898C16.7623 81.3833 16.4404 81.0749 16.4469 80.7048C16.4761 79.0456 16.5184 77.5618 16.5574 76.1235C16.629 73.4416 16.694 71.1234 16.6582 68.8116C16.6517 68.4383 16.9801 68.1266 17.3736 68.1266C17.7735 68.1201 18.1052 68.4188 18.1117 68.7922C18.1475 71.1331 18.0857 73.4611 18.0109 76.1592C17.9719 77.5911 17.9329 79.0749 17.9004 80.7275C17.8938 81.0879 17.5849 81.3768 17.2045 81.3898Z" fill="#005CA1"/>
<path d="M24.0297 81.419C24.0005 81.419 23.9712 81.419 23.942 81.419C23.542 81.3898 23.2429 81.0619 23.2754 80.6917C23.6688 76.1981 23.9159 71.8734 24.0525 69.0356C24.0688 68.6623 24.4102 68.3733 24.8101 68.3928C25.2101 68.409 25.5222 68.724 25.5027 69.0973C25.3662 71.948 25.119 76.289 24.7223 80.8021C24.6931 81.1463 24.3907 81.4093 24.0265 81.4223L24.0297 81.419Z" fill="#005CA1"/>
<path d="M30.0385 81.6105C30.0125 81.6105 29.9864 81.6105 29.9604 81.6105C29.5605 81.5878 29.2548 81.2664 29.2808 80.893C29.3914 79.3085 29.4759 77.6299 29.5572 76.0098C29.684 73.5195 29.8011 71.1655 30.0027 69.2109C30.0417 68.8408 30.3994 68.5648 30.7961 68.6038C31.1961 68.6395 31.4887 68.9674 31.4497 69.3408C31.2513 71.2597 31.1343 73.5974 31.0107 76.0747C30.9294 77.7014 30.8449 79.3832 30.7343 80.9806C30.7116 81.3281 30.4059 81.5975 30.0385 81.6105Z" fill="#005CA1"/>
<path d="M37.8393 81.9578C37.8198 81.9578 37.8003 81.9578 37.7775 81.9578C37.3776 81.9416 37.0654 81.6266 37.0817 81.2533C37.2085 78.5422 37.2605 75.7726 37.3125 73.0972C37.3353 71.9349 37.3581 70.8115 37.3841 69.753C37.3938 69.3796 37.7222 69.0809 38.1287 69.0939C38.5286 69.1037 38.8473 69.4121 38.8375 69.7855C38.8115 70.8407 38.7888 71.9609 38.766 73.12C38.714 75.8051 38.662 78.5811 38.5319 81.3117C38.5156 81.6656 38.21 81.9416 37.836 81.9578H37.8393Z" fill="#005CA1"/>
<path d="M44.5801 81.8345C44.5508 81.8345 44.5248 81.8345 44.4955 81.8345C44.0956 81.8052 43.7964 81.4806 43.8257 81.1104C43.9915 79.1136 44.0826 77.0357 44.1736 75.0259C44.2614 73.0648 44.3427 71.2109 44.4858 69.6848C44.5216 69.3147 44.8727 69.0387 45.2727 69.0712C45.6726 69.1037 45.9685 69.4316 45.9328 69.8017C45.7929 71.2953 45.7117 73.1362 45.6239 75.0811C45.5328 77.1038 45.4418 79.1915 45.2727 81.2111C45.2434 81.5552 44.941 81.8215 44.5768 81.8345H44.5801Z" fill="#005CA1"/>
<path d="M38.7823 60.1977C41.2373 60.1977 44.0597 60.0093 45.5327 58.1846C46.8561 56.545 46.5244 54.2592 46.105 52.2462C45.1913 47.8792 43.9849 43.246 40.4731 40.22C36.9516 37.1874 31.5637 36.4212 26.9789 37.7524C22.3973 39.0868 18.6189 42.2979 16.1444 46.1194C13.9106 49.5708 8.7795 58.4866 15.6469 59.3762C23.1972 60.3535 31.1767 60.1912 38.7855 60.1944L38.7823 60.1977Z" fill="#005CA1"/>
<path d="M48.7874 80.263C50.449 116.215 50.2734 117.001 52.2862 153.19H1.26807C3.19954 132.501 8.17128 80.2923 8.17128 80.2923C8.17128 80.2923 38.47 80.2533 48.7874 80.263Z" fill="#005CA1"/>
<path d="M13.855 99.9843C13.855 99.9843 13.855 99.9745 13.855 99.9681C14.3525 97.1044 17.848 86.8963 22.9465 90.4808C25.9771 92.6108 26.299 96.3284 26.0226 99.5849C25.8015 102.189 26.2274 107.225 23.1156 108.494C22.0686 108.92 20.8915 108.955 19.7469 108.984C17.1391 109.049 13.3282 108.78 13.3477 105.588C13.3607 103.712 13.5298 101.838 13.8517 99.9843H13.855Z" fill="white"/>
<path d="M52.2862 135.475C51.9415 129.767 51.1936 121.809 50.7839 116.202C49.3499 116.118 18.3944 116.592 3.84986 115.76C2.99143 122.527 2.19153 129.826 1.26807 137.17C4.45792 136.975 47.1031 135.836 52.2862 135.478V135.475Z" fill="white"/>
<path d="M0 138.29L0.156078 137.05C0.608055 133.449 1.03077 129.861 1.44698 126.342C1.87944 122.679 2.2989 119.092 2.73787 115.64L2.86144 114.663L3.91822 114.725C14.912 115.355 35.3875 115.231 45.2269 115.176C48.8623 115.157 50.4848 115.147 50.8523 115.166L51.831 115.225L51.8993 116.134C52.0619 118.368 52.2797 120.978 52.5041 123.673C52.8423 127.758 53.1934 131.978 53.4015 135.417L53.4633 136.436L52.3675 136.511C49.298 136.725 33.7194 137.193 19.9715 137.605C10.6686 137.884 2.63707 138.125 1.34292 138.206L0 138.287L0 138.29ZM4.84168 116.855C4.44823 119.998 4.06454 123.251 3.67434 126.566C3.30691 129.696 2.92972 132.878 2.53302 136.073C5.46274 135.962 12.2554 135.758 19.9 135.527C31.7912 135.17 46.3357 134.732 51.1026 134.501C50.8913 131.287 50.5791 127.504 50.2735 123.832C50.0784 121.511 49.893 119.248 49.7402 117.235C48.755 117.235 47.1291 117.244 45.2432 117.257C35.6866 117.312 16.1183 117.429 4.83843 116.858L4.84168 116.855Z" fill="#005CA1"/>
<path d="M29.2355 30.0801C28.9721 33.3496 28.6892 37.8595 28.6177 41.1517L29.2355 30.0801Z" fill="#005CA1"/>
<path d="M28.6272 42.2167C28.6272 42.2167 28.6077 42.2167 28.5947 42.2167C28.198 42.194 27.8858 41.7005 27.8988 41.1095C27.9704 37.6809 28.2663 33.0931 28.5199 29.947C28.5654 29.3625 28.9231 28.9469 29.3198 29.0216C29.7132 29.0963 29.9961 29.6288 29.9506 30.2132C29.7035 33.3172 29.4108 37.8302 29.3393 41.194C29.3263 41.7654 29.0109 42.2167 28.6304 42.2199L28.6272 42.2167Z" fill="#005CA1"/>
<path d="M32.0446 41.4829C31.9926 41.4829 31.9406 41.4764 31.8918 41.4602C31.3097 41.2751 31.313 40.4602 31.313 40.0673C31.313 39.8465 31.3162 39.5283 31.3227 39.1355C31.3325 38.3043 31.3488 37.2134 31.3683 36.0672C31.3943 34.6711 31.4626 31.171 31.5504 28.7684C31.5731 28.1807 31.9113 27.7326 32.308 27.7684C32.7047 27.8041 33.0071 28.3106 32.9876 28.8982C32.8478 32.6418 32.7437 39.5056 32.7535 40.3011C32.7665 40.4634 32.7535 40.6323 32.7144 40.7946C32.6104 41.2167 32.3405 41.4829 32.0479 41.4862L32.0446 41.4829Z" fill="#005CA1"/>
<path d="M32.2692 28.8301C32.1228 32.8074 32.009 40.5316 32.0383 40.4147L32.2692 28.8301Z" fill="#005CA1"/>
<path d="M14.6357 21.3041C16.2842 20.0021 18.5214 19.1288 20.0204 18.7878C22.3128 18.2683 24.7027 17.9599 26.7643 16.8332C30.1362 14.9923 31.1377 11.6189 32.3636 8.24865C33.3391 5.55704 34.812 2.71282 37.4946 1.70631C40.8633 0.443292 44.1475 2.20307 45.4449 5.32976C46.4041 7.6415 44.6872 10.8429 43.1004 14.3722C40.5252 20.1028 39.3871 26.6906 33.4496 28.7718C28.9494 30.3498 22.2055 30.34 17.6207 29.0575C15.5364 28.4731 12.9708 28.064 12.5254 25.5153C12.223 23.775 13.3448 22.3236 14.6357 21.3041Z" fill="white"/>
<path d="M25.119 31.1094C22.3942 31.1094 19.6498 30.7879 17.3151 30.1321L16.6875 29.9632C14.6845 29.434 11.9434 28.7035 11.4199 25.7066C11.0882 23.8138 11.9597 21.989 13.9399 20.4273C15.7836 18.9695 18.2321 18.0474 19.7701 17.6967C20.2578 17.5863 20.7456 17.4857 21.2398 17.385C23.0412 17.0149 24.7418 16.6643 26.2246 15.8525C28.9852 14.3428 29.9412 11.6771 31.0467 8.5894L31.3069 7.86861C32.2173 5.36531 33.8041 1.89446 37.098 0.660665C40.8537 -0.741962 44.8857 1.07626 46.4757 4.90426C47.5163 7.41081 46.1213 10.4563 44.6451 13.6804L44.1216 14.833C43.5883 16.0246 43.1038 17.2811 42.6388 18.4987C40.8439 23.1774 38.984 28.0184 33.8204 29.8269C31.3914 30.6775 28.2698 31.1094 25.119 31.1094ZM39.6961 2.42044C39.101 2.42044 38.4897 2.53083 37.8849 2.75811C36.038 3.44968 34.617 5.31661 33.4139 8.63161L33.1571 9.34267C32.0027 12.5668 30.8061 15.898 27.3009 17.8136C25.5255 18.7844 23.5777 19.187 21.6918 19.5734C21.2171 19.6708 20.7391 19.7682 20.2676 19.8754C18.8564 20.1968 16.7818 21.0312 15.3316 22.1774C14.4277 22.8884 13.4001 24.0118 13.631 25.317C13.8879 26.7976 15.1755 27.2424 17.2663 27.7976L17.9264 27.9762C22.4885 29.2554 29.0047 29.1418 33.0823 27.7132C37.2671 26.2456 38.8604 22.0929 40.5513 17.6935C41.0292 16.45 41.5235 15.161 42.0828 13.9142L42.6128 12.7486C43.8809 9.97904 45.0808 7.36535 44.4109 5.75817C43.5363 3.65099 41.7056 2.4172 39.6993 2.4172L39.6961 2.42044Z" fill="#005CA1"/>
<path d="M44.7066 5.67717L43.9814 10.2519C46.8461 10.187 55.8564 10.9598 55.4565 8.87205C55.1085 7.05382 45.178 5.55704 44.7066 5.67717Z" fill="#F5E83A"/>
<path d="M49.4605 11.4532C48.5337 11.4532 47.5095 11.437 46.3682 11.4078C45.4154 11.3818 44.5895 11.3591 44.0042 11.3753L42.6646 11.4045L43.7148 4.77775L44.4302 4.59593C45.3211 4.34917 52.9917 5.66088 55.3882 7.18364C56.0645 7.61547 56.4482 8.09925 56.5555 8.66419C56.6563 9.19992 56.5197 9.72266 56.1621 10.1415C55.3004 11.1578 53.2324 11.4532 49.4572 11.4532H49.4605ZM45.2919 9.14148C45.643 9.14797 46.0235 9.15771 46.4267 9.16745C48.3061 9.21615 52.3707 9.3233 53.9445 8.90121C52.3512 8.05704 47.7371 7.12195 45.6528 6.85896L45.2919 9.13823V9.14148Z" fill="#005CA1"/>
<path d="M25.0798 23.054C24.605 23.5313 24.1628 24.3138 24.6083 24.8203C24.8359 25.08 25.2098 25.1417 25.5545 25.1742C27.6843 25.369 29.8564 25.0248 31.8302 24.2099C32.8804 23.778 36.1028 22.4858 35.511 20.9825C34.8932 19.4176 31.9797 19.6838 30.7669 19.9565C28.6306 20.4306 26.6243 21.502 25.083 23.0572L25.0798 23.054Z" fill="#F5E83A"/>
<path d="M26.7283 25.3657C26.3316 25.3657 25.9349 25.3495 25.5415 25.3105C25.1546 25.2781 24.7579 25.2034 24.5042 24.9112C24.0295 24.369 24.4034 23.5378 24.9822 22.9566C26.5105 21.4176 28.5525 20.3039 30.7343 19.8202C32.1553 19.502 35.007 19.3266 35.6411 20.9306C36.2719 22.5313 33.1276 23.8267 31.9472 24.3138L31.8854 24.3397C30.2401 25.0183 28.481 25.369 26.7316 25.369L26.7283 25.3657ZM32.6788 19.8916C31.9342 19.8916 31.2221 19.9955 30.7961 20.0896C28.6631 20.5637 26.6698 21.6514 25.1806 23.1514C24.8164 23.5183 24.3091 24.2618 24.7123 24.7261C24.9042 24.9436 25.2358 25.0021 25.5643 25.0313C27.6551 25.2229 29.8011 24.8917 31.7749 24.0767L31.8367 24.0508C32.8447 23.6384 35.9077 22.3754 35.3777 21.0312C35.0233 20.1351 33.8136 19.8916 32.6756 19.8916H32.6788Z" fill="#005CA1"/>
<path d="M40.5578 7.76797C41.0423 8.00174 41.6958 7.7842 41.9397 7.30692C42.1836 6.82964 41.9787 6.17053 41.5073 5.91728C40.2911 5.26467 39.3254 7.17055 40.5578 7.76797Z" fill="#005CA1"/>
<path d="M123.331 40.4246C123.331 40.3305 123.341 40.2363 123.36 40.1389C123.493 39.4766 124.602 39.1259 126.693 39.0869C127.662 39.0675 128.384 39.0317 128.859 38.9733C129.428 38.9181 129.902 38.8889 130.283 38.8889C130.585 38.8889 130.823 38.9084 130.995 38.9441C131.431 39.0382 131.762 39.2947 131.99 39.7103C132.162 40.0512 132.237 40.3077 132.218 40.4766C132.179 40.6844 132.029 40.8954 131.762 41.1032C131.476 41.3305 131.229 41.6324 131.021 42.0123C130.813 42.3922 130.576 42.6844 130.309 42.8955C130.12 43.0481 129.863 43.311 129.542 43.6909C129.2 44.0708 129.028 44.2981 129.028 44.3728C129.028 44.4117 129.255 44.5448 129.711 44.7721C130.241 45.0189 130.65 45.2754 130.936 45.5384C131.278 45.8598 131.45 46.1163 131.45 46.3079C131.45 47.1618 131.099 48.2982 130.397 49.7203C129.675 51.1424 129.265 51.8827 129.171 51.9379C129.132 51.9573 129.057 52.1002 128.943 52.3632C128.849 52.6294 128.79 52.8275 128.771 52.9606C128.751 53.0353 128.855 53.084 129.083 53.1035C129.785 53.1619 131.047 53.5126 132.871 54.1554C133.287 54.308 133.895 54.5256 134.692 54.808L140.161 55.4899C140.2 55.4899 141.423 55.6035 143.836 55.8308C144.291 55.8698 144.642 55.886 144.889 55.886H145.032C145.185 55.886 145.354 55.9704 145.546 56.1425L145.887 56.4542L145.546 56.9932C145.432 57.1815 144.957 57.438 144.122 57.7594C143.439 58.0256 142.633 58.1653 141.699 58.1847C141.452 58.1847 141.195 58.1945 140.932 58.214C140.269 58.214 138.909 58.1555 136.861 58.0419C134.315 57.9088 132.731 57.701 132.104 57.4152C130.091 56.5613 128.829 56.0711 128.316 55.9379C128.029 55.8633 127.792 55.8535 127.604 55.9087C127.395 55.9639 127.109 56.1165 126.748 56.3633C126.521 56.5159 126.16 56.5906 125.666 56.5906H125.353C124.973 56.5906 124.726 56.5419 124.612 56.4477C124.498 56.3535 124.475 56.1263 124.54 55.7659C124.606 55.4055 124.736 55.0645 124.924 54.7431C125.113 54.4217 125.236 54.2041 125.295 54.0905C125.428 53.8632 125.789 53.0385 126.378 51.6164C126.644 50.9735 126.872 50.4541 127.061 50.0677C127.249 49.6781 127.347 49.4183 127.347 49.2852C127.347 49.1521 127.386 49.0482 127.46 48.9735C127.516 48.9151 127.639 48.6131 127.831 48.0644C128.003 47.5709 128.098 47.2202 128.117 47.0124C128.117 46.8046 128.095 46.6715 128.046 46.6131C127.997 46.5546 127.805 46.4897 127.46 46.415C127.025 46.3014 126.778 46.1975 126.719 46.1033C126.644 45.9897 126.537 45.9312 126.407 45.9312C126.348 45.9312 126.225 45.8825 126.036 45.7884C125.883 45.7137 125.77 45.6163 125.695 45.5027C125.62 45.4085 125.61 45.3306 125.666 45.2754C125.74 45.2007 125.779 45.0773 125.779 44.9052C125.779 44.7332 125.932 44.4896 126.235 44.165C126.521 43.863 126.748 43.5675 126.917 43.2818C127.525 42.3143 127.828 41.7753 127.828 41.6617C127.828 41.6227 127.402 41.6032 126.547 41.6032H126.261C125.217 41.6032 124.589 41.548 124.381 41.4311C124.154 41.298 123.936 41.1844 123.728 41.0902C123.461 40.9766 123.328 40.7493 123.328 40.4084L123.331 40.4246ZM124.368 35.1518C124.284 34.9537 124.287 34.7946 124.381 34.6842C124.475 34.5706 124.514 34.418 124.495 34.2297C124.475 34.0414 124.537 33.9212 124.68 33.8725C124.823 33.8271 125.074 33.7297 125.435 33.5868C125.796 33.444 126.053 33.3563 126.205 33.3173C126.413 33.2784 126.68 33.2849 127.002 33.3303C127.324 33.379 127.578 33.4537 127.756 33.5576C127.935 33.6615 128.348 34.1031 128.995 34.8791C129.639 35.655 130.029 36.168 130.163 36.4148C130.257 36.6031 130.228 36.7557 130.078 36.8694C129.925 36.983 129.873 37.0772 129.922 37.1551C129.971 37.2298 129.86 37.3434 129.594 37.496C129.405 37.6096 129.168 37.6778 128.881 37.694C128.16 37.694 127.174 37.259 125.919 36.3856C125.331 35.9862 124.95 35.733 124.781 35.6193C124.593 35.5057 124.453 35.3498 124.368 35.1518ZM131.418 52.5385C131.418 52.4249 131.466 52.1229 131.561 51.6294C131.788 50.4541 131.951 49.7138 132.045 49.4118C132.822 46.967 133.213 44.5416 133.213 42.1325C133.213 41.337 133.164 40.5415 133.07 39.7428C132.936 38.548 132.852 37.5544 132.813 36.7557C132.774 35.9602 132.738 35.4602 132.699 35.2622C132.66 35.0641 132.67 34.8401 132.728 34.5933C132.767 34.4407 132.829 34.3368 132.913 34.2816C132.998 34.2264 133.174 34.1777 133.44 34.1388C133.84 34.0836 134.617 34.0544 135.775 34.0544C136.932 34.0544 138.132 33.9992 139.378 33.8823C140.62 33.7686 141.621 33.6842 142.382 33.6258C143.14 33.5673 143.816 33.4927 144.405 33.3985C144.86 33.3238 145.26 33.2946 145.601 33.3141H145.887C146.135 33.3336 146.32 33.3758 146.443 33.4407C146.567 33.5089 146.743 33.6745 146.97 33.9375C147.237 34.2232 147.396 34.431 147.455 34.5641C147.51 34.6972 147.559 35.0089 147.598 35.5024C147.637 35.8823 147.653 36.5252 147.653 37.4375C147.653 38.4246 147.634 39.7038 147.598 41.2753C147.523 44.3468 147.425 46.717 147.312 48.3858C147.273 48.9151 147.256 49.4281 147.256 49.9216C147.256 50.2235 147.266 50.519 147.286 50.8047C147.325 51.5255 147.341 52.282 147.341 53.0807V53.3665C147.341 53.7463 147.331 53.9931 147.312 54.1067C147.292 54.2399 147.227 54.3048 147.113 54.3048C146.96 54.3243 146.817 54.3989 146.687 54.5321C146.554 54.6652 146.317 54.7301 145.975 54.7301C145.92 54.7301 145.852 54.7204 145.777 54.7009C145.341 54.6814 144.857 54.5775 144.323 54.3892L143.042 53.9639C142.568 53.8113 141.969 53.7269 141.247 53.7074C141.134 53.7074 141.03 53.7171 140.935 53.7366C140.747 53.7366 140.597 53.7074 140.493 53.6522C140.389 53.5937 140.366 53.5288 140.421 53.4541C140.477 53.3794 140.594 53.3113 140.763 53.2561C141.049 53.1619 141.221 53.0255 141.29 52.8437C141.355 52.6651 141.673 52.5255 142.242 52.4314C142.811 52.3372 143.221 52.2885 143.468 52.2885H143.839L143.725 51.6067C143.686 51.2852 143.667 50.7722 143.667 50.0709C143.667 49.3112 143.696 48.3274 143.751 47.1131L143.836 45.0936L143.55 45.2656C143.361 45.3793 142.093 45.4507 139.748 45.4799C137.404 45.5091 136.22 45.5416 136.204 45.5806C136.185 45.6195 136.129 45.8566 136.032 46.2916C135.957 46.6715 135.827 47.0546 135.648 47.4443C135.466 47.8339 135.32 48.0644 135.206 48.1423C135.112 48.1975 135.034 48.3404 134.978 48.5677C134.864 49.0807 134.598 49.6196 134.182 50.1878C133.993 50.4541 133.827 50.7138 133.684 50.9703C133.541 51.2268 133.404 51.3794 133.271 51.4249C133.138 51.4736 132.891 51.6911 132.53 52.0775C132.169 52.4671 131.883 52.6716 131.675 52.6879C131.502 52.7074 131.418 52.6586 131.418 52.545V52.5385ZM135.859 48.217C135.859 47.8014 135.918 47.4865 136.032 47.2787C136.146 47.0319 136.341 46.8858 136.617 46.8371C136.893 46.7916 137.085 46.7559 137.202 46.7364C137.391 46.6975 137.84 46.6813 138.542 46.6813H139.566C140.857 46.7007 141.599 46.7364 141.787 46.7949C142.415 46.9832 142.727 47.23 142.727 47.5352C142.727 47.6878 142.672 47.9475 142.555 48.3176C142.441 48.6878 142.359 49.0612 142.314 49.441C142.265 49.8209 142.168 50.0092 142.015 50.0092C141.862 50.0092 141.748 50.1229 141.673 50.3502C141.599 50.5774 141.654 50.795 141.846 51.0028L142.158 51.3437L141.816 51.6294C141.589 51.8372 141.29 51.9801 140.919 52.0547C140.548 52.1294 139.917 52.1684 139.027 52.1684C137.963 52.1684 137.336 52.1067 137.147 51.9833C136.958 51.8599 136.806 51.8177 136.692 51.8567C136.578 51.8956 136.477 51.8632 136.393 51.756C136.308 51.6521 136.282 51.5158 136.321 51.3437C136.341 51.2885 136.35 51.23 136.35 51.1716C136.35 50.9638 136.295 50.6781 136.178 50.3177C136.006 49.73 135.911 49.1423 135.892 48.5547C135.892 48.441 135.882 48.3274 135.863 48.2138L135.859 48.217ZM136.373 38.1518L136.487 42.9571C136.432 43.2039 136.432 43.3662 136.487 43.4409C136.546 43.5156 136.659 43.5091 136.828 43.4117C136.981 43.337 137.332 43.2786 137.882 43.2396C138.431 43.2007 138.718 43.1844 138.737 43.1844C138.757 43.1844 138.747 42.9701 138.708 42.5448C138.669 42.1195 138.653 41.8565 138.653 41.7623C138.653 41.6682 138.357 41.6195 137.768 41.6195H137.115C136.962 41.3922 136.887 41.0415 136.887 40.5675C136.887 40.0934 136.962 39.772 137.115 39.5999C137.134 39.5805 137.391 39.5512 137.882 39.5155L138.51 39.4311V38.0934C138.51 37.6194 138.519 37.3174 138.539 37.1843C138.578 37.0317 138.662 36.9083 138.796 36.8142C138.984 36.6421 139.261 36.5577 139.622 36.5577C139.982 36.5577 140.239 36.6421 140.392 36.8142C140.753 37.2135 140.932 37.8272 140.932 38.6616V39.4019L142.099 39.5999C142.613 39.6941 143 39.7623 143.267 39.798C143.4 39.8921 143.465 40.1779 143.465 40.6519L143.293 41.561C143.046 41.6 142.675 41.6454 142.181 41.7039C141.553 41.7591 141.166 41.7883 141.013 41.7883C140.841 41.8078 140.756 41.8727 140.756 41.9863L140.701 42.5838C140.643 42.9052 140.633 43.087 140.672 43.1227C140.747 43.1974 140.87 43.2364 141.043 43.2364C141.612 43.2753 142.168 43.3598 142.707 43.4929C143.247 43.626 143.585 43.7494 143.719 43.863C143.852 43.9766 143.917 43.9377 143.917 43.7494V38.0057C143.917 37.2655 143.897 36.7265 143.862 36.3856C143.823 36.1193 143.767 35.996 143.689 36.0154H143.631C143.423 36.0154 142.805 36.0641 141.781 36.1583C138.61 36.4408 136.9 36.5836 136.656 36.5836C136.503 36.6031 136.419 36.6681 136.399 36.7817C136.36 37.009 136.35 37.4635 136.37 38.1454L136.373 38.1518ZM138.539 49.4118C138.464 49.7527 138.47 49.9573 138.568 50.0222C138.662 50.0904 138.948 50.1131 139.423 50.0937L140.165 50.0644V48.6423L139.452 48.5871C138.997 48.5677 138.753 48.6099 138.727 48.7138C138.698 48.8177 138.636 49.0514 138.542 49.4118H138.539Z" fill="#005CA1"/>
<path d="M152.635 55.9802C152.635 55.6587 152.791 55.1782 153.103 54.5451C153.415 53.9087 153.705 53.4119 153.971 53.0515C154.199 52.5223 155.395 51.3502 157.561 49.5385C159.727 47.73 160.998 46.5579 161.378 46.0254C161.323 46.0254 161.112 46.0222 160.751 46.0124C160.39 46.0027 160.133 45.9994 159.983 45.9994C159.834 45.9994 159.59 45.9897 159.258 45.9702C158.927 45.9507 158.663 45.928 158.475 45.8988C158.286 45.8696 158.062 45.8338 157.805 45.7851C157.548 45.7364 157.327 45.6715 157.135 45.5871C156.946 45.5027 156.774 45.4118 156.621 45.3176C156.205 45.0319 155.994 44.7494 155.994 44.4637C155.994 44.2364 156.098 44.0481 156.306 43.8955L156.732 43.4702L161.261 43.5254H162.029C162.503 43.5254 162.812 43.4929 162.955 43.4247C163.099 43.3598 163.17 43.2104 163.17 42.9831C163.17 42.9085 163.147 42.6422 163.099 42.1877C163.05 41.7331 163.027 41.3045 163.027 40.9084C163.027 40.4539 163.04 39.9896 163.069 39.5155C163.099 39.0415 163.112 38.785 163.112 38.7493C163.112 38.483 163.007 38.3499 162.799 38.3499C162.725 38.3499 162.497 38.3727 162.117 38.4214C161.736 38.4701 161.375 38.5025 161.034 38.522C159.327 38.5967 158.309 38.6356 157.987 38.6356C157.037 38.6356 156.335 38.5545 155.88 38.3954C155.425 38.233 154.96 37.9181 154.485 37.4441C154.257 37.3109 154.144 37.1876 154.144 37.0739C154.144 36.9408 154.296 36.733 154.599 36.4473L155.083 36.022H156.651C157.011 35.9278 157.61 35.8791 158.445 35.8791C158.673 35.8791 159.024 35.8823 159.499 35.8921C159.974 35.9018 160.325 35.9051 160.552 35.9051C162.357 35.9051 163.258 35.668 163.258 35.194C163.258 35.0999 163.219 34.9862 163.144 34.8531V34.0576H163.287V33.9732C163.307 33.444 163.742 33.1777 164.598 33.1777C165.053 33.1777 165.518 33.2622 165.992 33.4342C166.467 33.6063 166.799 33.8141 166.991 34.0609H167.163L167.192 34.3174L167.222 34.3466H167.192L167.251 34.7459V34.9732C167.251 35.2947 167.303 35.509 167.407 35.6129C167.511 35.7167 167.696 35.7687 167.963 35.7687C168.077 35.7687 168.425 35.746 169.003 35.6973C169.582 35.6518 170.119 35.6258 170.613 35.6258H172.206C173.325 35.6258 174.047 35.681 174.372 35.7979C175.208 36.1583 175.624 36.5837 175.624 37.0772C175.624 37.3044 175.529 37.5122 175.338 37.7038C175.185 37.8921 174.967 38.0058 174.684 38.0447C174.401 38.0837 173.631 38.1291 172.379 38.1876C171.618 38.2265 170.984 38.2558 170.47 38.272C170.376 38.272 170.236 38.2752 170.057 38.285C169.878 38.2947 169.748 38.298 169.673 38.298C169.387 38.298 169.065 38.2882 168.704 38.2688C168.343 38.2493 168.126 38.2395 168.051 38.2395C167.748 38.2395 167.557 38.2915 167.482 38.3954C167.407 38.4993 167.368 38.733 167.368 39.0934V40.7428L167.313 43.074H168.509C169.003 43.0351 169.345 43.0156 169.533 43.0156C170.483 43.0156 171.27 43.139 171.897 43.3857C172.525 43.6325 172.837 43.9247 172.837 44.2689C172.837 44.5351 172.619 44.7916 172.184 45.0351C172.05 45.2234 171.634 45.3436 170.932 45.389C170.229 45.4377 169.569 45.4832 168.951 45.5319C168.334 45.5806 168.025 45.7072 168.025 45.915C168.025 46.0871 168.168 46.2754 168.451 46.4832C169.02 46.9378 169.439 47.2884 169.703 47.5352C169.969 47.7819 170.278 48.1001 170.629 48.4865C170.98 48.8761 171.309 49.2203 171.611 49.5255C173.432 51.3437 174.905 52.6522 176.024 53.4509C176.82 54.0191 177.22 54.4574 177.22 54.7594C177.22 54.9672 177.042 55.1425 176.681 55.2853C176.32 55.4282 175.929 55.4996 175.513 55.4996C174.791 55.4996 174.027 55.3211 173.221 54.9607C172.414 54.6003 171.774 54.2106 171.299 53.7951C171.205 53.7951 170.967 53.6067 170.587 53.2269C170.207 52.847 169.703 52.3632 169.078 51.7755C168.451 51.1879 167.882 50.7041 167.368 50.3242C167.313 50.4378 167.264 50.821 167.225 51.4768C167.186 52.1294 167.15 52.7528 167.111 53.3405C167.072 53.9282 167.007 54.2236 166.913 54.2236C166.893 54.2236 166.874 54.2139 166.857 54.1944C166.802 54.6879 166.617 55.1912 166.301 55.7009C165.989 56.2139 165.632 56.4672 165.235 56.4672C165.007 56.5062 164.854 56.5224 164.78 56.5224C164.285 56.5224 163.895 56.3471 163.612 55.9964C163.326 55.6457 163.138 55.1685 163.043 54.5613C162.949 53.9542 162.89 53.347 162.871 52.7431C162.851 52.1359 162.842 51.4671 162.842 50.7398C162.842 50.0125 162.812 49.4638 162.757 49.1034C162.282 49.4638 161.466 50.1359 160.309 51.1229C159.151 52.11 158.335 52.782 157.86 53.1424C157.594 53.2171 157.19 53.5223 156.651 54.0516C156.111 54.584 155.535 55.0808 154.927 55.5451C154.319 56.0094 153.75 56.2432 153.22 56.2432C153.028 56.2432 152.849 56.2139 152.68 56.1587C152.661 56.1198 152.651 56.0646 152.651 55.9867L152.635 55.9802Z" fill="#005CA1"/>
<path d="M179.916 49.4962C180.297 48.5091 180.97 47.5189 181.939 46.5253C182.908 45.5285 184.052 44.4831 185.369 43.3824C186.689 42.2817 187.632 41.4311 188.201 40.8239C190.328 38.4927 191.391 37.2329 191.391 37.0414L191.362 37.0121C187.717 37.0316 185.164 37.0414 183.701 37.0414H182.761C182.326 37.0414 181.831 36.8693 181.282 36.5284C180.732 36.1874 180.456 35.8563 180.456 35.5316C180.456 35.1907 180.846 34.9731 181.623 34.879C182.895 34.7264 185.733 34.5868 190.139 34.4536C194.545 34.3205 197.439 34.0543 198.824 33.6582C200.382 33.5445 201.273 33.4861 201.501 33.4861C202.128 33.4861 202.577 33.5867 202.853 33.7848C203.13 33.9828 203.37 34.3855 203.578 34.9926C203.504 35.5056 202.879 35.8563 201.712 36.0446C200.545 36.2329 199.283 36.3725 197.924 36.4569C196.568 36.5413 195.726 36.6972 195.404 36.9277C195.423 37.668 194.672 38.9472 193.154 40.7655C192.851 41.1259 192.698 41.4116 192.698 41.6194C192.698 41.9051 192.936 42.1031 193.41 42.2168C193.885 42.3304 194.474 42.4213 195.176 42.4863C195.878 42.5545 196.382 42.6616 196.685 42.8142C198.203 43.5545 200.928 45.7331 204.859 49.3533C205.315 49.6195 205.542 49.8923 205.542 50.178C205.542 50.4637 205.334 50.7072 204.915 50.9183C204.499 51.1261 204.014 51.23 203.461 51.23C202.795 51.23 202.265 51.0676 201.868 50.7462C201.374 50.5741 200.421 49.889 199.007 48.6845C197.592 47.4799 196.769 46.8695 196.542 46.85C196.314 46.7558 196.025 46.5805 195.674 46.324C195.322 46.0675 195.02 45.8305 194.763 45.613C194.506 45.3954 194.36 45.285 194.321 45.285V45.3143C194.509 49.1065 194.607 51.0774 194.607 51.23C194.607 53.3923 194.36 55.1164 193.866 56.4054C193.599 57.032 193.163 57.3437 192.555 57.3437C191.814 57.3437 191.274 56.8989 190.933 56.006C190.666 55.2463 190.451 53.4313 190.292 50.5611C190.13 47.6877 189.869 45.7526 189.508 44.7461C189.453 44.785 188.962 45.1389 188.042 45.811C187.122 46.4831 186.465 46.9571 186.078 47.2331C185.688 47.5091 185.125 47.863 184.384 48.2981C183.643 48.7332 182.999 49.0643 182.446 49.2949C182.16 49.5416 181.64 49.665 180.879 49.665C180.462 49.665 180.137 49.6098 179.91 49.4929L179.916 49.4962Z" fill="#005CA1"/>
<path d="M208.195 46.0286L208.595 45.7721C208.67 45.7332 208.738 45.678 208.794 45.6001C208.852 45.5254 208.898 45.4572 208.937 45.402C208.976 45.3436 209.011 45.3176 209.05 45.3176C209.109 45.3176 209.174 45.4117 209.249 45.6033C209.421 45.5092 209.691 45.4312 210.062 45.376C210.432 45.3208 210.767 45.2819 211.073 45.2624C211.375 45.2429 211.772 45.2202 212.253 45.191C212.738 45.1617 213.056 45.139 213.206 45.1195L214.003 45.0351L214.201 44.0124V43.8143C214.201 43.4929 214.266 42.9474 214.399 42.1779C214.533 41.4117 214.598 40.8759 214.598 40.5707C214.598 39.9441 214.38 39.6324 213.944 39.6324C213.83 39.6324 213.687 39.6616 213.518 39.7168L212.692 39.6876L212.406 40.3402C212.387 40.3954 212.231 40.6357 211.938 41.0513C211.642 41.4701 211.362 41.9474 211.099 42.4864C210.832 43.0253 210.709 43.4864 210.728 43.8663C210.728 43.9409 210.566 44.0546 210.244 44.2072C209.922 44.3598 209.655 44.4345 209.447 44.4345C209.353 44.4345 209.285 44.415 209.249 44.3793L208.937 44.2364V43.2137C208.764 42.9864 208.68 42.6747 208.68 42.2753C208.68 42.1617 208.774 41.4409 208.966 40.1129C209.08 39.2038 209.366 37.8954 209.821 36.1875C210.049 35.3921 210.335 34.8336 210.676 34.5089C211.018 34.1875 211.463 34.0251 212.016 34.0251C212.396 34.0251 212.907 34.0998 213.554 34.2524C213.97 34.5187 214.182 34.8596 214.182 35.2752C214.182 35.4635 214.133 35.7167 214.038 36.0284C213.944 36.3401 213.895 36.5544 213.895 36.6681C213.895 37.0479 214.321 37.2363 215.177 37.2363C215.31 37.2363 215.642 37.2168 216.175 37.1778C216.783 37.2363 217.436 37.2817 218.139 37.3207C218.841 37.3596 219.339 37.3921 219.635 37.4213C219.927 37.4505 220.246 37.5057 220.587 37.5934C220.929 37.6778 221.186 37.8109 221.358 37.9928C221.53 38.1746 221.699 38.4343 221.872 38.7752C221.927 38.9278 221.956 39.0415 221.956 39.1162C221.956 39.4181 221.738 39.6194 221.303 39.7136C220.867 39.8077 220.288 39.8564 219.566 39.8564C218.844 39.8564 218.409 39.8662 218.256 39.8857C218.181 40.1519 218.103 40.6357 218.028 41.337C217.953 42.0383 217.895 42.6877 217.856 43.2851C217.817 43.8825 217.788 44.2007 217.771 44.2364L217.658 44.9182L219.082 44.9767C220.486 45.0319 221.189 45.165 221.189 45.376L221.16 45.4053V45.4345H221.189C221.208 45.415 221.228 45.4053 221.247 45.4053C221.381 45.4053 221.488 45.4864 221.576 45.6455C221.66 45.8079 221.703 45.9929 221.703 46.2007C221.703 46.4865 221.628 46.7137 221.475 46.8826C221.494 46.902 221.504 46.9313 221.504 46.967C221.504 47.1391 221.078 47.2559 220.223 47.3209C219.368 47.3891 218.942 47.5157 218.942 47.704C218.942 47.7787 219.026 47.9021 219.199 48.0741C219.332 48.2819 219.891 49.1261 220.88 50.6034C221.868 52.0807 222.532 53.1262 222.873 53.7301C222.948 53.7691 222.987 53.8048 222.987 53.8437C222.987 53.9184 222.863 54.0321 222.616 54.1847C222.369 54.3373 222.246 54.4412 222.246 54.4964C222.246 54.5158 222.259 54.5353 222.288 54.5516C222.317 54.571 222.33 54.5905 222.33 54.6068C222.33 54.623 222.311 54.636 222.275 54.636C222.122 54.636 221.758 54.5353 221.179 54.3373C220.6 54.1392 220.262 54.0191 220.168 53.9834C219.901 53.795 219.579 53.5061 219.199 53.1165C218.818 52.7268 218.526 52.4119 218.314 52.1651C218.106 51.9184 217.755 51.4866 217.261 50.8697C216.767 50.2528 216.493 49.9086 216.435 49.8307C216.435 49.8502 216.253 50.3534 215.895 51.3372C215.534 52.3242 215.225 53.097 214.968 53.6554C214.712 54.2139 214.5 54.5223 214.328 54.5808C214.234 54.6749 214.1 54.8568 213.928 55.1197C213.756 55.386 213.587 55.5743 213.414 55.6879C213.242 55.8016 213.004 55.8665 212.702 55.886C212.569 55.9607 212.455 55.9996 212.361 55.9996C212.266 55.9996 212.153 55.938 212.019 55.8146C211.886 55.6912 211.772 55.6198 211.678 55.6003C211.639 55.6392 211.593 55.6555 211.535 55.6555C211.44 55.6555 211.392 55.5516 211.392 55.3438C211.392 54.9087 211.557 54.0613 211.889 52.7983C212.221 51.5385 212.539 50.3924 212.842 49.3566C213.144 48.3241 213.278 47.8176 213.242 47.8339C212.445 47.7592 211.866 47.6975 211.505 47.6488C211.145 47.6001 210.667 47.4735 210.068 47.2657C209.47 47.0579 208.992 46.7722 208.631 46.4118L208.205 46.0124L208.195 46.0286ZM222.249 48.2008C222.106 46.7884 222.034 45.2949 222.034 43.7234C222.034 42.1519 222.099 41.1844 222.233 40.824C224.132 40.2363 226.408 39.9409 229.068 39.9409C230.072 39.9409 230.976 40.0155 231.773 40.1681C232.55 40.3402 232.94 41.5156 232.94 43.6942C232.94 43.7689 232.901 44.6033 232.826 46.1975C232.771 46.2722 232.661 46.993 232.498 48.3599C232.335 49.7235 232.209 50.4346 232.114 50.493C232.02 50.5872 231.971 50.7203 231.971 50.8924C231.971 51.045 232.033 51.2917 232.157 51.6327C232.28 51.9736 232.342 52.2106 232.342 52.3437C232.342 52.6457 232.095 52.8275 231.601 52.8827C231.64 53.0353 231.301 53.1522 230.589 53.2366C229.877 53.321 229.038 53.3632 228.069 53.3632C225.962 53.3632 224.795 53.2204 224.567 52.9379C223.92 52.5028 223.566 52.2398 223.501 52.1554C223.432 52.071 223.202 51.506 222.802 50.4638C222.574 50.3696 222.389 49.6164 222.246 48.204L222.249 48.2008ZM225.881 50.1781L225.91 50.7463L227.562 50.6911C227.751 50.6521 227.998 50.6359 228.303 50.6359C228.417 50.6359 228.551 50.6391 228.703 50.6489C228.856 50.6586 228.95 50.6619 228.989 50.6619C229.162 50.6619 229.246 50.5969 229.246 50.4638C229.246 50.3696 229.217 50.2073 229.162 49.98C229.142 49.9054 229.129 49.6618 229.12 49.256C229.11 48.8501 229.087 48.3241 229.048 47.678C229.009 47.0352 228.963 46.4377 228.905 45.8858C228.866 45.3566 228.85 44.9962 228.85 44.8046C228.85 44.4832 228.863 44.1228 228.892 43.7234C228.921 43.324 228.934 43.0805 228.934 42.9831C228.934 42.7169 228.882 42.5318 228.778 42.4279C228.674 42.324 228.469 42.2721 228.167 42.2721C227.9 42.2721 227.406 42.3208 226.687 42.4149L226.203 42.4734L226.174 44.2656C226.174 44.928 226.125 45.7819 226.031 46.8241C225.936 47.8664 225.887 48.7852 225.887 49.5839V50.1813L225.881 50.1781Z" fill="#005CA1"/>
<path d="M237.242 39.3433C237.242 39.1355 237.369 38.9212 237.626 38.7037C237.883 38.4861 238.124 38.366 238.351 38.3465C238.332 38.327 238.602 38.3076 239.164 38.2913C239.723 38.2719 240.413 38.2621 241.229 38.2621C243.772 38.2621 245.046 38.3465 245.046 38.5186C245.027 38.5381 244.997 38.5576 244.962 38.5771C245.303 38.7297 245.475 38.9667 245.475 39.2881C245.475 39.6095 245.238 40.0998 244.763 40.7524C244.289 41.405 244.042 41.7817 244.022 41.8758C243.833 42.1226 243.622 42.3921 243.394 42.6875C243.167 42.983 242.92 43.3044 242.653 43.6551C242.386 44.0057 242.188 44.2752 242.055 44.4668C242.51 44.6941 242.884 44.8986 243.18 45.0772C243.472 45.259 243.759 45.5382 244.035 45.9149C244.311 46.2948 244.448 46.7201 244.448 47.1941C244.448 47.5156 244.373 47.9052 244.22 48.3597C243.973 49.5935 243.612 50.626 243.138 51.4604C243.043 51.613 242.994 51.7072 242.994 51.7462C242.994 51.8208 243.173 51.8598 243.534 51.8598C244.919 51.8793 247.147 52.2851 250.213 53.0839C253.279 53.8793 255.627 54.2787 257.263 54.2787C257.965 54.2787 258.658 54.2235 259.34 54.1066C259.529 54.0676 259.815 54.0482 260.196 54.0482C260.823 54.0482 261.34 54.1488 261.747 54.3469C262.153 54.5449 262.358 54.7884 262.358 55.0709C262.358 55.4118 262.046 55.717 261.418 55.98C260.088 56.5482 258.466 56.8339 256.547 56.8339C255.731 56.8339 254.876 56.7885 253.985 56.6911C253.094 56.5969 252.138 56.4508 251.124 56.2495C250.109 56.0515 249.283 55.8761 248.646 55.7235C248.008 55.5709 247.111 55.3501 245.953 55.0547C244.796 54.7625 244.055 54.5774 243.733 54.4995L242.308 54.3014L241.567 54.6423C241.017 54.8891 240.474 55.0125 239.944 55.0125C239.544 55.0125 239.184 54.9475 238.862 54.8144C238.367 54.7397 238.12 54.5222 238.12 54.1618C238.12 53.8404 238.361 53.3176 238.845 52.5968C239.33 51.876 239.571 51.4312 239.571 51.2591C240.084 50.2559 240.416 49.2396 240.569 48.2169C240.741 47.9312 240.826 47.6292 240.826 47.3078C240.826 46.9668 240.699 46.6681 240.442 46.4116C240.185 46.1551 239.896 45.9571 239.574 45.8142C239.252 45.6714 238.962 45.5058 238.706 45.3175C238.449 45.1291 238.322 44.9278 238.322 44.72C238.322 44.6064 238.361 44.483 238.436 44.3499C238.549 44.1031 238.933 43.5739 239.59 42.759C240.244 41.944 240.64 41.3466 240.77 40.9667L240.826 40.5966L239.743 40.5674H239.457C239.135 40.5674 238.878 40.5252 238.689 40.4407C238.501 40.3563 238.315 40.2459 238.133 40.1128C237.951 39.9797 237.769 39.8758 237.577 39.8011C237.35 39.707 237.236 39.5543 237.236 39.3466L237.242 39.3433ZM237.528 33.4016C237.528 33.2295 237.652 33.1451 237.899 33.1451C238.374 32.7295 238.933 32.5185 239.58 32.5185C240.322 32.5185 241.06 32.7685 241.801 33.2717C242.542 33.775 243.027 34.2815 243.255 34.7945C243.502 35.0413 243.625 35.4309 243.625 35.9601C243.625 36.3595 243.463 36.5575 243.141 36.5575H243.056C242.903 36.5965 242.78 36.616 242.686 36.616C242.266 36.616 241.808 36.4796 241.304 36.2036C240.8 35.9276 240.263 35.5867 239.694 35.1809C239.125 34.775 238.715 34.5023 238.468 34.3692C237.841 34.0477 237.528 33.7263 237.528 33.4016ZM244.988 36.8433C244.988 36.7296 245.082 36.6452 245.274 36.5868C245.462 36.5316 245.567 36.4634 245.586 36.3887C245.547 36.3497 245.531 36.3238 245.531 36.3043C245.531 36.1906 245.843 36.0803 246.47 35.9764C247.098 35.8725 247.755 35.7783 248.451 35.6906C249.143 35.6062 249.527 35.5348 249.605 35.4763C249.605 35.4569 249.325 35.1549 248.766 34.5672C248.207 33.9796 247.927 33.6094 247.927 33.4568C247.927 33.4179 247.937 33.3919 247.956 33.3724C247.937 33.1451 248.041 33.0152 248.269 32.9893C248.496 32.9601 248.639 32.8984 248.695 32.8042C248.942 32.71 249.199 32.6613 249.462 32.6613C250.353 32.6613 251 32.9178 251.4 33.4276C251.647 33.5023 251.94 33.827 252.284 34.3951C252.626 34.9633 252.892 35.2491 253.081 35.2491C253.12 35.2491 253.195 35.2101 253.309 35.1354C253.575 34.301 254.05 33.5055 254.733 32.7458C255.416 31.986 256.147 31.6094 256.924 31.6094C257.454 31.6094 257.958 31.8074 258.433 32.2068C258.547 32.262 258.606 32.3497 258.606 32.4633C258.606 32.7847 258.18 33.3367 257.324 34.1127C256.469 34.8887 256.043 35.288 256.043 35.3075C257.012 35.327 257.971 35.4796 258.921 35.7621C259.87 36.0478 260.345 36.4536 260.345 36.9861C260.345 37.1192 260.316 37.2524 260.261 37.3855C260.28 37.5933 260.056 37.7556 259.591 37.8692C259.126 37.9829 258.56 38.0413 257.897 38.0413C257.1 38.0413 256.463 37.9861 255.988 37.8692C255.929 37.8498 255.855 37.84 255.76 37.84C255.494 37.84 255.175 37.9212 254.808 38.0803C254.437 38.2426 254.125 38.4082 253.868 38.5771C253.611 38.7491 253.273 38.9797 252.857 39.2751C252.437 39.5706 252.184 39.7459 252.089 39.8011C251.975 39.8758 251.917 39.9245 251.917 39.944C251.917 39.9829 251.956 39.9992 252.031 39.9992C252.05 39.9992 252.229 39.9797 252.571 39.944C254.128 39.7719 255.637 39.6777 257.1 39.6582L258.781 39.629L259.236 40.0544C259.558 40.2264 259.766 40.3725 259.864 40.4959C259.958 40.6193 260.007 40.8239 260.007 41.1063C260.007 41.181 259.994 41.5219 259.965 42.1291C259.935 42.7362 259.922 43.3434 259.922 43.9473C259.922 45.7298 259.913 46.7948 259.893 47.1454C259.874 47.4961 259.809 47.8045 259.695 48.0708C259.581 48.3565 259.477 48.639 259.383 48.9247C259.249 49.0578 259.184 49.1909 259.184 49.324C259.184 49.5124 259.422 49.7559 259.896 50.0481C260.371 50.3435 260.609 50.5741 260.609 50.7461C260.609 50.8598 260.54 50.9832 260.41 51.1163C260.391 51.2299 260.368 51.3241 260.339 51.402C260.309 51.4767 260.27 51.5481 260.225 51.6163C260.176 51.6845 260.14 51.7364 260.111 51.7721C260.082 51.8111 260.02 51.8468 259.926 51.8858C259.831 51.9247 259.75 51.9475 259.685 51.9572C259.617 51.967 259.506 51.9864 259.344 52.0157C259.181 52.0449 259.041 52.0644 258.918 52.0708C258.794 52.0806 258.609 52.1001 258.362 52.1293C258.115 52.1585 257.887 52.1812 257.679 52.2007C257.546 52.2007 257.113 52.2397 256.381 52.3144C255.65 52.389 254.882 52.4572 254.076 52.5124C253.27 52.5709 252.525 52.5968 251.839 52.5968C250.246 52.5968 249.153 52.4345 248.565 52.1131C248.356 51.9994 248.194 51.8176 248.08 51.5741C247.966 51.3273 247.852 50.9864 247.739 50.5513C247.625 50.1163 247.521 49.7851 247.426 49.5546C247.426 49.2526 247.374 48.324 247.27 46.7688C247.166 45.2136 247.114 44.0382 247.114 43.2427C247.114 41.5187 247.322 40.6161 247.742 40.5414C248.617 39.4407 249.29 38.655 249.764 38.1809C249.082 38.2556 248.512 38.2946 248.057 38.2946C246.253 38.2946 245.248 37.8595 245.04 36.9861C245.04 36.9666 245.033 36.9439 245.027 36.9147C245.017 36.8855 245.014 36.8627 245.014 36.8433H244.988ZM250.369 50.2364C250.369 50.389 250.444 50.4637 250.597 50.4637C250.672 50.4637 250.919 50.4117 251.338 50.3078C251.754 50.2039 252.096 50.152 252.362 50.152C252.535 50.152 252.665 50.1617 252.762 50.1812C255.003 50.0481 256.209 49.9247 256.378 49.8111C256.339 49.4896 256.268 49.2656 256.164 49.1422C256.06 49.0188 255.903 48.9571 255.695 48.9571C255.601 48.9571 255.331 48.9896 254.882 49.0578C254.437 49.126 254.034 49.1585 253.673 49.1585C253.387 49.1585 253.159 49.1487 252.99 49.1292H250.74L250.568 49.5838C250.434 49.8663 250.369 50.087 250.369 50.2364ZM250.997 47.0513L252.45 47.0805C253.588 47.1194 254.404 47.1746 254.899 47.2526C255.165 47.3857 255.393 47.4506 255.582 47.4506C255.981 47.4506 256.18 47.2136 256.18 46.7396C256.18 46.2655 256.047 45.9441 255.78 45.7168C255.533 45.7915 254.749 45.8629 253.432 45.9311C252.112 45.9993 251.338 46.0512 251.111 46.087C251.055 46.1422 251.026 46.3142 251.026 46.6L250.997 47.0545V47.0513ZM251.081 43.2103L251.111 43.8077L253.559 43.7785C254.964 43.759 255.725 43.7135 255.838 43.6356C255.933 43.5772 255.981 43.4635 255.981 43.2947C255.981 43.2395 255.975 43.1421 255.968 43.009C255.959 42.8759 255.955 42.7622 255.955 42.6681C255.955 42.3077 255.822 42.1291 255.556 42.1291C255.481 42.1291 255.328 42.1486 255.1 42.1843C255.061 42.2232 254.482 42.2882 253.364 42.3823C253.27 42.3823 253.127 42.3921 252.938 42.4116C252.047 42.47 251.514 42.5219 251.345 42.5674C251.172 42.6161 251.088 42.7525 251.088 42.9797V43.207L251.081 43.2103Z" fill="#005CA1"/>
<path d="M152.43 77.9545C152.43 77.8603 152.515 77.698 152.687 77.4707C152.859 77.2824 153.149 76.8733 153.555 76.2466C153.962 75.62 154.166 75.2791 154.166 75.2239C154.166 74.9219 154.381 74.4025 154.807 73.6752C155.233 72.9446 155.448 72.3927 155.448 72.0128C155.448 71.805 155.028 71.6427 154.196 71.529C153.36 71.4154 152.944 71.2725 152.944 71.1037C152.944 70.99 153.149 70.8439 153.555 70.6621C153.962 70.4835 154.319 70.3731 154.622 70.3342C155.304 70.24 155.646 70.0582 155.646 69.7952C155.646 69.74 155.639 69.6524 155.633 69.5387C155.623 69.4251 155.62 69.3309 155.62 69.253C155.62 69.0257 155.675 68.8082 155.792 68.6004C155.867 68.4867 156.072 68.3861 156.404 68.3017C156.735 68.2173 157.064 68.175 157.385 68.175C157.688 68.175 157.906 68.2238 158.039 68.3179C158.475 68.6393 158.732 69.1329 158.806 69.7952C158.845 70.0972 158.898 70.3017 158.963 70.4056C159.028 70.5095 159.158 70.5615 159.346 70.5615H159.675C159.675 70.5615 159.723 70.5582 159.788 70.5485C159.853 70.5387 159.889 70.529 159.889 70.5193C159.889 70.5095 159.912 70.4965 159.961 70.477C160.01 70.4576 160.026 70.4283 160.016 70.3926C160.006 70.3537 160.016 70.318 160.045 70.279C160.075 70.24 160.088 70.1881 160.088 70.1231V69.6264C160.107 69.0971 160.188 68.74 160.328 68.5614C160.471 68.3828 160.787 68.2919 161.281 68.2919C161.32 68.2919 161.395 68.2984 161.509 68.3049C161.622 68.3147 161.707 68.3179 161.765 68.3179C162.487 68.3569 162.877 68.8764 162.933 69.8829L162.962 70.5095H163.729C164.016 70.5095 164.412 70.5387 164.926 70.5939L165.381 70.6491L165.326 69.74C165.306 69.2465 165.401 68.8829 165.612 68.6458C165.82 68.4088 166.087 68.2887 166.409 68.2887C166.844 68.2887 167.257 68.451 167.648 68.7725C168.038 69.0939 168.233 69.4738 168.233 69.9089C168.233 70.3082 168.308 70.5063 168.461 70.5063C168.5 70.5063 168.587 70.4868 168.73 70.4511C168.874 70.4121 169 70.3926 169.114 70.3926C169.303 70.3926 169.4 70.1946 169.4 69.7952C169.4 69.7011 169.394 69.5679 169.387 69.3959C169.378 69.2238 169.374 69.1101 169.374 69.0549C169.374 68.8829 169.404 68.7984 169.459 68.7984C169.573 68.7984 169.725 68.7368 169.914 68.6134C170.103 68.49 170.275 68.4283 170.428 68.4283C170.447 68.4283 170.48 68.4348 170.529 68.4413C170.577 68.451 170.61 68.4543 170.629 68.4543C171.371 68.5874 171.846 68.7855 172.054 69.0517C172.226 69.2595 172.31 69.5355 172.31 69.8764C172.33 70.1783 172.6 70.4965 173.123 70.8277C173.647 71.1589 173.907 71.4381 173.907 71.6654C173.907 71.818 173.868 71.9251 173.793 71.9933C173.718 72.0615 173.559 72.1134 173.325 72.1492C173.088 72.1881 172.941 72.2173 172.883 72.2336L172.398 72.4057L172.457 73.2596C172.512 74.0193 172.684 74.6103 172.971 75.0356C173.257 75.4609 173.748 75.6752 174.45 75.6752C174.678 75.6752 174.795 75.4966 174.804 75.1362C174.814 74.7758 174.961 74.5973 175.247 74.5973C175.38 74.5973 175.517 74.646 175.66 74.7401C175.803 74.8343 175.91 74.9219 175.988 74.9966L176.102 75.1395C176.121 75.12 176.16 75.1103 176.216 75.1103C176.424 75.1103 176.651 75.2758 176.899 75.607C177.146 75.9382 177.269 76.2759 177.269 76.6168C177.269 77.0713 177.012 77.3928 176.502 77.5843C175.988 77.7727 175.419 77.8668 174.791 77.8668C173.822 77.8668 172.889 77.6688 171.985 77.2694C171.085 76.87 170.564 76.4155 170.434 75.9057C170.379 75.6979 170.226 75.3083 169.979 74.7401C169.732 74.1719 169.599 73.7726 169.579 73.5453C169.54 73.0161 169.508 72.7011 169.478 72.607C169.449 72.5128 169.351 72.4641 169.179 72.4641H168.353V74.1979C168.353 76.3213 167.869 77.383 166.9 77.383C166.805 77.383 166.643 77.2791 166.415 77.0713C166.188 76.8635 166.074 76.7109 166.074 76.6168C166.074 76.5226 165.589 76.4739 164.62 76.4739C163.404 76.4739 162.799 76.5291 162.799 76.646C162.799 77.0648 162.504 77.2726 161.915 77.2726C161.515 77.2726 161.222 77.1687 161.031 76.9609C160.936 76.8473 160.826 76.435 160.702 75.7239C160.579 75.0129 160.478 74.3343 160.403 73.6914L160.26 72.6979C160.26 72.5842 160.221 72.5193 160.146 72.4998C160.071 72.4803 159.85 72.4706 159.493 72.4706H158.751L158.608 73.068C158.341 74.0745 157.821 75.0453 157.041 75.9837C156.264 76.922 155.428 77.5616 154.534 77.9025C154.001 78.1103 153.471 78.2142 152.941 78.2142C152.599 78.2142 152.427 78.1298 152.427 77.9577L152.43 77.9545ZM153.77 80.6558L154.082 80.0292C154.27 79.6493 154.423 79.4091 154.537 79.3052C154.651 79.2013 154.908 79.0551 155.304 78.8636C155.854 78.5973 156.514 78.4285 157.285 78.3506C158.052 78.2759 159.444 78.2175 161.457 78.1785C162.539 78.159 163.492 78.1201 164.318 78.0649C165.144 78.0064 165.661 77.9805 165.869 77.9805C166.344 77.9805 167.368 78.0746 168.945 78.2662C170.197 78.4383 171.319 78.5227 172.304 78.5227C172.834 78.5227 173.224 78.4934 173.471 78.4383C173.66 78.3993 173.764 78.3831 173.783 78.3831C173.917 78.3831 174.125 78.4967 174.411 78.724L174.925 79.1233L174.752 79.6623C174.678 79.8701 174.388 80.2565 173.884 80.8149C173.38 81.3734 172.958 81.6526 172.616 81.6526C172.502 81.6526 172.398 81.6039 172.304 81.5097C172.245 81.4513 172.158 81.4059 172.034 81.3669C171.911 81.3279 171.849 81.2533 171.849 81.1396C171.849 81.026 171.872 80.8506 171.92 80.6136C171.969 80.3766 171.992 80.2402 171.992 80.2013C171.992 80.0682 171.95 79.9837 171.865 79.9448C171.78 79.9058 171.595 79.8701 171.309 79.8311C169.163 79.6233 167.482 79.5194 166.269 79.5194C166.061 79.5779 165.947 79.6331 165.928 79.6915C165.928 79.7662 165.957 79.9578 166.012 80.2597C166.067 80.5617 166.097 80.7922 166.097 80.9416V81.8247L166.523 81.7403C167.586 81.6072 168.526 81.5422 169.342 81.5422C169.758 81.5422 170.015 81.5617 170.109 81.5974C170.395 81.6721 170.73 81.7533 171.12 81.8377C171.511 81.9221 171.78 81.9903 171.933 82.0357C172.086 82.0844 172.262 82.1624 172.46 82.276C172.658 82.3896 172.792 82.5455 172.86 82.7435C172.925 82.9416 172.987 83.2111 173.045 83.5552C173.101 83.8962 173.14 84.3312 173.159 84.8637V85.1754C173.159 85.7826 173.127 86.2599 173.058 86.6105C172.99 86.9612 172.958 87.2794 172.958 87.5618C172.958 87.6755 172.961 87.8833 172.971 88.1885C172.98 88.4904 172.984 88.682 172.984 88.7567C172.984 89.0781 172.941 89.2826 172.857 89.3671C172.772 89.4515 172.567 89.5424 172.245 89.6365C172.093 89.6755 171.963 89.695 171.845 89.695C171.446 89.695 170.834 89.5586 170.008 89.2826C169.182 89.0067 168.695 88.8703 168.542 88.8703C168.389 88.8703 168.08 88.7566 167.615 88.5294C167.15 88.3021 166.916 88.1235 166.916 87.9904C166.916 87.8962 167.069 87.8475 167.371 87.8475C167.544 87.8475 167.879 87.7956 168.383 87.6917C168.887 87.5878 169.166 87.5164 169.221 87.4774C169.296 87.4027 169.348 87.1397 169.378 86.6949C169.407 86.2501 169.426 85.7339 169.436 85.1462C169.446 84.5585 169.449 84.2468 169.449 84.2079L169.534 83.2695H168.994C168.672 83.2695 168.161 83.3182 167.469 83.4124C166.776 83.5065 166.402 83.5747 166.344 83.6104C166.23 83.7046 166.139 84.1786 166.074 85.0325C166.006 85.8865 165.96 86.7826 165.931 87.7209C165.902 88.6592 165.882 89.5684 165.876 90.4515C165.866 91.3346 165.862 91.7924 165.862 91.8314C165.862 91.9061 165.68 92.0295 165.323 92.2015C165.056 92.3347 164.773 92.3996 164.468 92.3996C164.032 92.3996 163.612 92.2567 163.216 91.9743C162.78 91.6723 162.523 91.3054 162.448 90.8801C162.373 90.4547 162.334 89.2177 162.334 87.169C162.334 84.7436 162.305 83.4903 162.25 83.4156C162.156 83.302 161.499 83.2436 160.286 83.2436H160L159.545 83.302L159.574 83.8994C159.593 84.4676 159.502 85.2696 159.304 86.3021C159.106 87.3345 158.92 87.8508 158.748 87.8508C158.673 87.8508 158.501 88.0975 158.234 88.5911C157.968 89.0846 157.74 89.3508 157.551 89.3865C157.438 89.406 157.314 89.4807 157.181 89.6138C157.047 89.7469 156.934 89.8119 156.839 89.8119C156.706 89.8119 156.553 89.7372 156.384 89.5846C155.929 89.2047 155.701 87.5846 155.701 84.7209C155.701 83.4903 155.74 82.7793 155.815 82.5877C155.948 82.2468 156.319 82.0747 156.927 82.0747C157.08 82.0747 157.298 82.0844 157.581 82.1039C157.867 82.1234 158.085 82.1331 158.234 82.1331C158.367 82.1331 158.546 82.1137 158.774 82.0779C159.19 81.9838 159.893 81.8994 160.881 81.8214L162.276 81.7662L162.331 80.7695V80.3149C162.331 79.9935 162.292 79.7889 162.217 79.7045C162.143 79.6201 161.98 79.5779 161.733 79.5779C161.658 79.5779 161.437 79.5876 161.079 79.6071C160.718 79.6266 160.387 79.6363 160.081 79.6363H159.883L157.46 79.6071L157.148 79.8928C157.073 79.9675 156.982 80.0909 156.878 80.263C156.774 80.435 156.66 80.5584 156.537 80.6331C156.413 80.7078 156.218 80.776 155.952 80.8312C155.838 80.8506 155.643 80.9156 155.366 81.0292C155.09 81.1429 154.878 81.2013 154.726 81.2013C154.498 81.2013 154.28 81.1071 154.072 80.9156L153.76 80.6591L153.77 80.6558ZM162.825 74.7986C162.825 74.8927 162.835 74.9414 162.855 74.9414C163.008 75.0551 163.729 75.1135 165.02 75.1135H165.219C165.521 75.1135 165.674 75.0486 165.674 74.9154C165.674 74.6492 165.635 74.2044 165.56 73.5778C165.485 72.9511 165.427 72.6102 165.388 72.555C165.368 72.4966 164.962 72.4706 164.162 72.4706H163.024V73.2368C163.024 73.3505 162.991 73.6102 162.923 74.0193C162.855 74.4284 162.822 74.6882 162.822 74.8018L162.825 74.7986Z" fill="#005CA1"/>
<path d="M181.109 88.1334C181.109 87.4711 181.47 86.3509 182.192 84.7795C182.914 83.2048 183.275 82.4093 183.275 82.3898C183.294 82.3314 183.386 82.0879 183.545 81.6495C183.707 81.2145 183.857 80.7729 184 80.3281C184.143 79.8833 184.215 79.5553 184.215 79.3475C184.215 79.2534 184.205 79.1949 184.185 79.1755C184.224 78.8345 184.475 78.5651 184.94 78.3638C185.405 78.1657 185.932 78.065 186.52 78.065C187.736 78.065 188.439 78.3865 188.627 79.0326C188.835 79.354 188.939 79.5911 188.939 79.7437C188.939 79.8768 188.835 80.1982 188.627 80.7112C188.211 81.6593 187.915 82.3184 187.743 82.6885C187.57 83.0587 187.268 83.6756 186.832 84.536C186.397 85.3996 186.016 86.0587 185.694 86.5133C185.372 86.9678 184.953 87.4743 184.442 88.036C183.929 88.5945 183.408 89.0458 182.875 89.3867C182.836 89.3867 182.774 89.3932 182.69 89.3997C182.605 89.4094 182.543 89.4127 182.504 89.4127C181.574 89.4127 181.109 88.9874 181.109 88.1334ZM189.938 70.3636C189.938 70.2499 190.061 70.0421 190.308 69.7369C190.555 69.4155 191.095 69.2532 191.931 69.2532C192.9 69.2532 193.573 69.3863 193.953 69.6525C194.675 69.8051 195.215 70.3668 195.576 71.3441C195.937 72.3214 196.116 73.3864 196.116 74.5422C196.116 74.9026 196.125 75.8085 196.145 77.2566C196.164 78.7079 196.174 79.8508 196.174 80.682C196.174 82.8249 196.119 84.1139 196.002 84.549C195.943 85.6691 195.631 86.9484 195.062 88.3867C194.493 89.8283 194.161 90.916 194.067 91.6562C194.048 91.8835 194.005 92.0459 193.94 92.14C193.872 92.2342 193.778 92.3024 193.654 92.3381C193.531 92.377 193.449 92.4128 193.414 92.4517C193.092 92.5459 192.845 92.5946 192.672 92.5946C192.37 92.5946 192.103 92.5134 191.876 92.3543C191.648 92.192 191.463 91.9517 191.32 91.6303C191.176 91.3088 191.072 91.0134 191.007 90.7471C190.939 90.4809 190.871 90.14 190.793 89.7244C190.773 89.8575 190.744 89.9224 190.708 89.9224C190.594 89.9224 190.52 88.2958 190.481 85.0457C190.442 81.7956 190.406 78.5716 190.367 75.3767C190.328 72.1818 190.253 70.6331 190.139 70.7272C190.006 70.5941 189.941 70.4707 189.941 70.3571L189.938 70.3636ZM196.886 79.9742C196.772 79.8216 196.782 79.7079 196.916 79.6333C197.029 79.5586 197.12 79.4612 197.185 79.3475C197.25 79.2339 197.332 79.1527 197.426 79.1073C197.52 79.0586 197.719 79.0358 198.024 79.0358C198.063 79.0358 198.135 79.0423 198.239 79.0488C198.343 79.0586 198.434 79.0618 198.509 79.0618C198.87 79.0813 199.188 79.1105 199.462 79.1462C199.738 79.1852 199.975 79.2209 200.174 79.2599C200.372 79.2988 200.567 79.3735 200.759 79.4872C200.948 79.6008 201.087 79.682 201.172 79.7274C201.256 79.7761 201.37 79.8898 201.513 80.0683C201.656 80.2502 201.751 80.3703 201.8 80.4385C201.845 80.5067 201.952 80.6657 202.112 80.9222C202.274 81.1787 202.382 81.3541 202.44 81.4482C202.821 82.5846 203.341 83.6301 204.007 84.5749C204.671 85.523 205.136 86.3769 205.402 87.1334C205.441 87.2471 205.458 87.3315 205.458 87.3899C205.458 87.5425 205.396 87.6594 205.272 87.7471C205.149 87.8315 204.944 87.9191 204.661 88.0036C204.375 88.088 204.157 88.1692 204.007 88.2438C203.305 88.1497 202.586 87.7698 201.858 87.1075C201.126 86.4451 200.538 85.7762 200.092 85.1042C199.647 84.4321 199.071 83.5165 198.369 82.3606C197.667 81.2047 197.172 80.4093 196.89 79.9709L196.886 79.9742Z" fill="#005CA1"/>
<path d="M208.56 82.2209C208.56 82.0878 208.599 81.9546 208.673 81.8215C208.862 81.4416 209.633 81.0163 210.979 80.5423C211.301 80.4286 211.509 80.3475 211.606 80.302C211.701 80.2533 211.785 80.1884 211.863 80.104C211.938 80.0195 211.977 79.9091 211.977 79.776C211.977 79.5877 211.925 79.1916 211.821 78.5974C211.717 78 211.626 77.7013 211.551 77.7013C211.457 77.7013 211.408 77.6266 211.408 77.474C211.408 77.2078 211.73 76.2695 212.377 74.659C212.491 74.4318 212.686 74.1103 212.962 73.6915C213.239 73.2759 213.489 72.9155 213.717 72.6103L214.029 72.1265C214.009 72.107 213.365 72.0778 212.091 72.0421C210.989 72.0226 210.273 71.9804 209.942 71.9155C209.61 71.8505 209.376 71.7109 209.242 71.5031C209.203 71.4284 209.129 71.3375 209.015 71.2336C208.901 71.1297 208.842 71.0486 208.842 70.9934C208.842 70.8992 208.956 70.7758 209.184 70.6232C209.47 70.4349 209.857 70.3018 210.351 70.2239C210.845 70.1492 211.814 70.0908 213.255 70.0518C215.115 70.0128 216.139 69.9674 216.331 69.9089C216.503 69.8537 216.711 69.8245 216.959 69.8245C217.489 69.8245 218.002 69.9479 218.497 70.1947C218.991 70.4414 219.238 70.7174 219.238 71.0193C219.238 71.2661 219.127 71.5226 218.909 71.7888C218.692 72.0551 218.249 72.4804 217.586 73.0681C217.037 73.5421 216.503 74.0356 215.993 74.5454C215.482 75.0551 215.095 75.4448 214.838 75.711C214.582 75.9772 214.396 76.1298 214.282 76.1656C214.149 76.2208 214.13 76.2889 214.227 76.3636C214.282 76.4026 214.406 76.4773 214.598 76.5909C215.186 76.9318 215.479 77.5097 215.479 78.3247C215.479 78.7792 215.554 79.0065 215.707 79.0065C215.762 79.0065 215.853 78.9838 215.977 78.9351C216.1 78.8864 216.201 78.8637 216.276 78.8637C216.562 78.8637 216.702 79.0163 216.702 79.3182C216.702 79.565 216.559 79.8312 216.276 80.1137L215.82 80.5682V82.5878C215.82 83.5358 215.843 84.3605 215.892 85.0618C215.941 85.7632 216.006 86.5684 216.09 87.4775C216.175 88.3866 216.237 89.0977 216.276 89.6106C216.35 90.3704 216.419 90.7665 216.474 90.8055C216.533 90.8444 216.559 90.8899 216.559 90.9483C216.559 91.062 216.468 91.2016 216.289 91.3607C216.107 91.523 215.915 91.6789 215.703 91.8282L215.362 92.0555C215.19 92.2438 214.972 92.3412 214.708 92.3412C214.347 92.3412 213.905 92.1886 213.385 91.8867C212.861 91.5847 212.383 91.26 211.948 90.9191C211.512 90.5782 211.265 90.3964 211.206 90.3801C210.94 90.2665 210.806 90.1723 210.806 90.0944C210.806 90.0165 210.907 89.9288 211.106 89.8249C211.304 89.721 211.414 89.6399 211.434 89.5847C211.509 89.51 211.662 89.471 211.889 89.471C212.211 89.471 212.429 89.4386 212.543 89.3704C212.657 89.3055 212.715 89.1399 212.715 88.8736C212.715 88.8184 212.696 88.5976 212.66 88.221C212.621 87.8216 212.556 87.3314 212.462 86.7437C212.367 86.156 212.273 84.9709 212.175 83.1884C212.12 82.4871 212.071 82.1267 212.032 82.1072C211.938 82.1072 211.72 82.1917 211.379 82.3637C210.849 82.63 210.25 82.7631 209.584 82.7631C208.917 82.7631 208.56 82.5845 208.56 82.2241V82.2209ZM218.786 78.6072C218.786 78.5325 218.815 78.4935 218.87 78.4935C218.945 78.4935 219.348 78.0909 220.08 77.2857C220.812 76.4805 221.176 76.0584 221.176 76.0195C221.176 75.9448 221.29 75.7694 221.517 75.4935C221.745 75.2175 221.973 74.9577 222.2 74.711L222.571 74.3408C222.551 74.3019 222.145 74.224 221.345 74.1006C220.548 73.9772 220.103 73.9155 220.005 73.9155C219.947 73.9155 219.859 73.8506 219.735 73.7175C219.612 73.5843 219.501 73.4512 219.407 73.3181L219.235 73.12C219.235 72.8538 219.42 72.6168 219.791 72.409C220.161 72.2012 220.636 72.0453 221.215 71.9414C221.794 71.8375 222.301 71.7629 222.74 71.7142C223.176 71.6655 223.605 71.633 224.021 71.6135C224.115 71.6135 224.164 71.4999 224.164 71.2726C224.164 70.9706 224.089 70.5323 223.937 69.9641C223.784 69.3959 223.67 69.0648 223.595 68.9706C223.537 68.9122 223.511 68.857 223.511 68.7985C223.511 68.5907 223.761 68.3862 224.265 68.1881C224.769 67.9901 225.218 67.8894 225.618 67.8894C226.32 67.8894 226.886 68.0615 227.312 68.4024C227.738 68.7433 227.952 69.2368 227.952 69.8797C227.952 70.0518 227.93 70.2628 227.881 70.5193C227.832 70.7758 227.809 70.9414 227.809 71.0161C227.809 71.2434 227.923 71.3668 228.151 71.3862C228.284 71.4057 228.531 71.4479 228.892 71.5129C229.253 71.581 229.698 71.6135 230.232 71.6135C230.479 71.6135 230.739 71.6103 231.015 71.6005C231.292 71.5908 231.448 71.5875 231.484 71.5875H231.682C231.721 71.5875 231.753 71.594 231.783 71.6005C231.812 71.6103 231.825 71.6233 231.825 71.6427V71.6979C231.825 71.7174 231.828 71.7401 231.838 71.7694C231.848 71.7986 231.867 71.8375 231.893 71.883C231.923 71.9317 231.965 71.9739 232.02 72.0096C232.248 72.2174 232.361 72.435 232.361 72.6622C232.361 72.9285 232.251 73.1655 232.033 73.3733C231.815 73.5811 231.552 73.7045 231.249 73.7434C231.155 73.7629 230.342 73.7921 228.814 73.8278C227.286 73.8668 226.427 73.8863 226.235 73.8863C226.161 73.8863 226.122 73.9707 226.122 74.1428C226.122 74.2175 226.125 74.3246 226.135 74.4545C226.144 74.5876 226.148 74.6818 226.148 74.737C226.148 74.8311 226.138 74.8896 226.118 74.909C225.11 76.0649 224.61 76.6623 224.61 76.7013C224.629 76.7208 224.639 76.7402 224.639 76.7565C224.639 76.8312 224.353 77.1591 223.784 77.737C223.215 78.315 222.929 78.6818 222.929 78.8312C222.929 78.9059 222.994 78.9448 223.127 78.9448C223.28 78.9448 223.488 79.0455 223.754 79.2435C224.021 79.4416 224.229 79.5422 224.382 79.5422C224.515 79.5422 224.629 79.5033 224.723 79.4286C224.743 79.4091 225.013 79.0747 225.536 78.4189C226.06 77.7662 226.375 77.4383 226.489 77.4383C226.548 77.4383 226.661 77.3669 226.83 77.224C227.003 77.0812 227.185 76.9253 227.387 76.7565C227.585 76.5844 227.731 76.4708 227.829 76.4156C228.19 76.2078 228.635 76.1039 229.168 76.1039C229.702 76.1039 230.118 76.237 230.365 76.5032C230.632 76.8052 230.765 77.0357 230.765 77.1851C230.765 77.3929 230.498 77.7727 229.968 78.3214C227.653 80.7306 226.219 82.2566 225.67 82.8995C225.517 83.0878 225.276 83.3345 224.945 83.6397C224.613 83.9417 224.323 84.2079 224.076 84.4352C223.829 84.6625 223.706 84.7956 223.706 84.8346C223.706 85.2696 223.189 85.7729 222.155 86.3411C221.121 86.9093 220.288 87.195 219.664 87.195C219.397 87.195 219.264 87.1398 219.264 87.0229C219.264 86.7567 219.781 85.88 220.815 84.393C221.849 82.906 222.366 82.1235 222.366 82.0456C222.366 82.0066 222.21 81.8832 221.894 81.6754C221.582 81.4676 221.173 81.1981 220.669 80.8637C220.165 80.5325 219.791 80.2793 219.544 80.1104C219.469 80.0715 219.319 79.8539 219.101 79.4578C218.883 79.0585 218.773 78.776 218.773 78.6039L218.786 78.6072ZM220.038 91.1789C220.038 90.6301 220.535 89.799 221.534 88.6918C222.532 87.5814 223.546 86.5586 224.58 85.6203C225.614 84.682 226.141 84.1755 226.161 84.0975C226.463 83.7566 226.762 83.3767 227.058 82.9612C227.351 82.5456 227.582 82.2209 227.741 81.9936C227.904 81.7663 228.021 81.6429 228.095 81.6235C228.284 81.5488 228.469 81.3864 228.651 81.1397C228.83 80.8929 229.042 80.6754 229.279 80.4871C229.516 80.2988 229.825 80.2014 230.206 80.2014C230.3 80.2014 230.498 80.2208 230.804 80.2566C231.659 80.4092 232.085 80.815 232.085 81.4806C232.085 81.6527 232.062 81.828 232.014 82.0066C231.965 82.1884 231.89 82.38 231.786 82.591C231.682 82.7988 231.588 82.9839 231.5 83.1462C231.415 83.3086 231.292 83.5001 231.129 83.7306C230.967 83.9579 230.849 84.1203 230.775 84.2144C230.7 84.3086 230.576 84.4612 230.404 84.669L230.176 84.9807C229.949 85.3021 229.835 85.5684 229.835 85.7762C229.835 86.0229 229.968 86.1463 230.235 86.1463C230.424 86.1463 230.775 86.7307 231.288 87.8963C231.802 89.0619 232.075 89.6626 232.114 89.7016C232.228 89.8152 232.355 90.0555 232.498 90.4256C232.641 90.7957 232.797 91.036 232.97 91.1496C233.044 91.2243 233.054 91.2828 232.999 91.3217C232.94 91.3607 232.872 91.4224 232.784 91.5068C232.696 91.5912 232.667 91.6724 232.683 91.7471V91.7763L232.713 91.8315C232.713 92.0782 232.401 92.2016 231.773 92.2016C231.298 92.2016 230.836 92.1302 230.391 91.9873C229.946 91.8445 229.721 91.6886 229.721 91.5198C228.564 90.6107 227.708 89.8314 227.159 89.1886L226.531 88.4483L226.161 88.7892C225.097 89.7568 224.119 90.4483 223.228 90.8639C223.208 90.8639 223.029 90.9646 222.688 91.1626C222.346 91.3607 222.008 91.5263 221.677 91.6594C221.345 91.7925 221.056 91.8574 220.808 91.8574C220.6 91.8574 220.418 91.7958 220.269 91.6724C220.116 91.549 220.041 91.3834 220.041 91.1756L220.038 91.1789Z" fill="#005CA1"/>
<path d="M132.556 113.277C132.501 113.049 133.629 112.842 135.944 112.65C137.616 112.517 139.261 112.4 140.887 112.293C142.509 112.189 143.426 112.127 143.634 112.108L144.262 112.023L144.347 110.374C144.347 110.127 144.356 109.835 144.376 109.491C144.395 109.15 144.408 108.861 144.418 108.624C144.428 108.387 144.431 108.221 144.431 108.127L144.46 107.53L141.3 107.475C140.197 107.455 139.411 107.426 138.936 107.39C138.461 107.351 138.159 107.319 138.025 107.29C137.892 107.26 137.729 107.179 137.541 107.049C137.349 106.916 137.121 106.793 136.858 106.679C136.783 106.507 136.734 106.195 136.715 105.741C136.904 105.569 137.317 105.452 137.954 105.387C138.591 105.322 139.846 105.27 141.729 105.231L144.72 105.173V104.634C144.454 104.218 144.321 103.78 144.321 103.325C144.321 102.91 144.454 102.569 144.72 102.302C144.987 102.036 145.338 101.903 145.774 101.903C146.382 101.903 147.075 102.179 147.852 102.728C148.099 102.9 148.265 103.147 148.349 103.468C148.434 103.789 148.476 104.078 148.476 104.335C148.476 104.591 148.593 104.819 148.831 105.017C149.068 105.215 149.452 105.315 149.985 105.315C150.173 105.315 150.515 105.293 151.009 105.244C151.503 105.195 151.845 105.173 152.033 105.173C153.477 105.173 154.199 105.533 154.199 106.254C154.199 106.556 154.075 106.871 153.828 107.192C153.848 107.286 153.734 107.348 153.487 107.377C153.24 107.406 152.879 107.419 152.404 107.419H150.925C149.178 107.419 148.304 107.611 148.304 107.988C148.304 108.082 148.343 108.176 148.418 108.273C148.17 109.41 148.001 110.52 147.904 111.601C148.32 111.66 149.1 111.686 150.239 111.686H152.602C155.506 111.686 157.093 111.838 157.36 112.14C158.27 112.329 158.725 112.605 158.725 112.965C158.725 113.251 158.446 113.53 157.886 113.803C157.327 114.079 156.781 114.215 156.248 114.215C155.926 114.215 155.659 114.16 155.451 114.043C155.015 113.949 154.368 113.9 153.513 113.9C152.811 113.9 152.04 113.929 151.207 113.985C150.372 114.043 149.413 114.127 148.33 114.241C147.247 114.355 146.649 114.423 146.535 114.439L145.595 114.523L145.338 115.176C144.711 116.446 143.696 118.011 142.292 119.868C140.887 121.725 139.976 122.988 139.557 123.65C145.517 122.741 149.497 122.248 151.49 122.173C151.435 121.891 151.149 121.345 150.635 120.537C150.121 119.731 149.839 119.205 149.78 118.959C149.666 118.9 149.556 118.793 149.452 118.631C149.348 118.468 149.325 118.342 149.38 118.248C149.208 118.134 149.123 118.03 149.123 117.936C149.123 117.783 149.257 117.657 149.523 117.553C149.79 117.449 150.092 117.397 150.434 117.397C150.795 117.397 151.126 117.472 151.432 117.624C151.734 117.624 152.115 117.751 152.57 118.007C153.025 118.264 153.347 118.42 153.539 118.478C153.939 118.592 154.352 118.868 154.778 119.303C155.204 119.738 155.594 120.199 155.945 120.683C156.296 121.166 156.556 121.465 156.729 121.579C156.729 121.731 157.038 122.257 157.655 123.157C158.273 124.056 158.592 124.631 158.608 124.878C158.742 125.085 158.807 125.313 158.807 125.559C158.807 125.959 158.644 126.322 158.322 126.654C158 126.985 157.629 127.15 157.21 127.15C156.791 127.15 156.072 126.777 154.989 126.027C153.906 125.277 153.155 124.657 152.739 124.163C151.809 124.316 150.414 124.595 148.554 125.001C146.694 125.41 145.013 125.732 143.514 125.969C142.015 126.206 140.627 126.322 139.355 126.322C138.559 126.322 137.778 126.267 137.021 126.15C137.06 126.111 137.04 126.095 136.965 126.095C136.926 126.095 136.871 126.105 136.793 126.124C136.679 126.069 136.383 125.952 135.909 125.783C135.434 125.611 135.096 125.456 134.897 125.316C134.699 125.173 134.598 124.998 134.598 124.79C134.598 124.488 134.836 124.137 135.31 123.738C138.253 119.852 140.36 116.858 141.631 114.751C141.592 114.751 141.518 114.748 141.404 114.738C141.29 114.728 141.196 114.725 141.118 114.725C140.737 114.725 139.941 114.773 138.724 114.868C138.022 114.907 137.082 114.952 135.905 115.011C133.951 115.124 132.829 114.546 132.546 113.277H132.556Z" fill="#005CA1"/>
<path d="M161.775 109.582C161.775 109.296 161.86 109.079 162.032 108.929C161.993 108.683 162.546 108.465 163.684 108.277C164.822 108.088 165.999 107.991 167.215 107.991C168.659 107.991 169.407 108.124 169.465 108.39H169.55C169.778 108.39 169.93 108.874 170.005 109.842C170.08 110.809 170.223 111.293 170.431 111.293C170.526 111.293 170.649 111.218 170.802 111.066C170.896 110.972 171.124 110.91 171.485 110.881C171.846 110.851 172.025 110.725 172.025 110.498C172.025 110.384 171.986 110.222 171.911 110.014L171.54 106.316V105.861H170.714C169.631 105.728 169.092 105.471 169.092 105.095C169.092 104.809 169.443 104.536 170.145 104.27H170.431C170.604 104.27 171.13 104.26 172.012 104.241C172.896 104.221 173.611 104.212 174.161 104.212C176.515 104.212 177.777 104.393 177.949 104.751C178.121 105.072 178.229 105.481 178.277 105.975C178.323 106.468 178.359 107.066 178.378 107.767C178.398 108.468 178.437 109.046 178.492 109.501C178.453 109.803 178.437 110.004 178.437 110.098C178.437 110.686 178.56 110.981 178.807 110.981C178.941 110.981 179.048 110.829 179.136 110.527C179.22 110.225 179.263 109.92 179.263 109.618C179.263 109.277 179.214 108.751 179.12 108.04C179.025 107.329 178.977 106.812 178.977 106.491C178.977 105.864 179.11 105.374 179.376 105.014C179.643 104.653 180.128 104.445 180.83 104.387C181.646 104.312 182.414 104.273 183.135 104.273C185.262 104.273 186.325 104.708 186.325 105.582C186.325 105.848 186.202 106.14 185.955 106.465C185.88 106.618 185.626 107.238 185.2 108.329C184.774 109.42 184.426 110.192 184.16 110.647C183.952 110.988 183.847 111.225 183.847 111.358C183.847 111.433 183.886 111.511 183.961 111.585C184.036 111.66 184.127 111.731 184.231 111.799C184.335 111.868 184.439 112.017 184.543 112.254C184.647 112.491 184.719 112.79 184.758 113.15C184.986 113.699 185.158 114.397 185.272 115.241C185.385 116.085 185.48 117.027 185.555 118.069C185.629 119.111 185.698 119.852 185.753 120.287C185.828 120.42 185.867 120.589 185.867 120.8C185.867 121.407 185.571 121.709 184.982 121.709C184.868 121.709 184.774 121.699 184.696 121.68C184.621 121.719 184.543 121.735 184.469 121.735C184.182 121.735 183.704 121.582 183.031 121.28C182.358 120.978 181.971 120.816 181.877 120.796L181.818 120.767C181.779 120.767 181.763 120.975 181.763 121.394C181.763 121.621 181.773 122.063 181.792 122.715C181.812 123.368 181.822 123.839 181.822 124.121C181.822 124.787 181.792 125.118 181.737 125.118C181.718 125.118 181.688 125.079 181.653 125.004C181.558 125.098 181.425 125.326 181.253 125.686C181.08 126.047 180.941 126.274 180.827 126.368C180.599 126.54 180.417 126.624 180.287 126.624C180.059 126.624 179.906 126.43 179.832 126.04C179.757 125.65 179.711 125.196 179.705 124.676C179.695 124.154 179.653 123.819 179.578 123.667C179.484 123.478 179.435 121.933 179.435 119.03C179.435 118.764 179.438 118.494 179.448 118.218C179.458 117.942 179.461 117.796 179.461 117.777C179.461 117.702 179.441 117.663 179.402 117.663C179.347 117.663 179.24 117.731 179.09 117.861C178.938 117.994 178.853 118.059 178.833 118.059C178.681 118.134 178.583 119.3 178.534 121.556C178.486 123.813 178.329 125.111 178.066 125.452C177.972 125.641 177.734 125.738 177.354 125.738C177.052 125.738 176.736 125.683 176.414 125.566C176.092 125.452 175.91 125.348 175.874 125.254C175.874 125.235 175.878 125.225 175.887 125.225C175.897 125.225 175.9 125.215 175.9 125.196C175.9 125.082 175.54 125.024 174.818 125.024H173.963C173.621 125.024 173.361 125.011 173.179 124.982C172.997 124.952 172.925 124.9 172.964 124.826C172.717 124.579 172.698 124.456 172.909 124.456C173.156 124.115 173.8 123.943 174.847 123.943H175.787V122.491C175.787 122.225 175.816 121.686 175.871 120.871C175.926 120.056 175.956 119.459 175.956 119.079C175.956 118.777 175.946 118.556 175.926 118.426C175.585 118.387 175.279 118.371 175.016 118.371C174.369 118.371 174.047 118.559 174.047 118.939C174.047 119.014 174.057 119.082 174.076 119.137C173.774 120.501 173.14 121.757 172.184 122.904C171.225 124.05 170.109 124.9 168.838 125.449C168.913 125.014 169.345 124.17 170.135 122.92C170.922 121.67 171.345 120.637 171.403 119.819C171.631 119.306 171.745 118.946 171.745 118.738C171.745 118.663 171.735 118.592 171.716 118.524C171.696 118.459 171.654 118.387 171.589 118.309C171.521 118.235 171.468 118.183 171.433 118.154C171.394 118.124 171.309 118.059 171.176 117.955C171.043 117.852 170.948 117.78 170.89 117.741C170.795 117.514 170.86 117.326 171.088 117.173C171.524 116.871 171.771 116.644 171.829 116.491C171.868 116.358 171.904 115.751 171.943 114.673V112.796H171.602C171.449 112.722 171.293 112.624 171.134 112.514C170.971 112.4 170.815 112.283 170.665 112.157C170.513 112.033 170.428 111.962 170.408 111.942C170.295 111.868 170.226 111.894 170.21 112.027V112.397C170.191 114.215 170.022 116.15 169.696 118.199C169.641 118.559 169.573 118.985 169.498 119.478C169.423 119.972 169.384 120.283 169.384 120.417C169.384 120.55 169.332 120.735 169.228 120.972C169.124 121.209 169.053 121.332 169.014 121.342C168.975 121.352 168.841 121.397 168.614 121.485C168.386 121.569 168.188 121.598 168.015 121.569C167.843 121.54 167.534 121.53 167.089 121.54C166.643 121.55 166.22 121.563 165.82 121.582C165.534 121.602 165.147 121.611 164.653 121.611C163.57 121.611 162.865 121.501 162.533 121.283C162.201 121.066 162.036 120.654 162.036 120.046C162.036 119.894 162.045 119.605 162.065 119.18C162.084 118.754 162.094 118.397 162.094 118.115C162.094 117.641 162.084 117.261 162.065 116.978C161.951 115.728 161.889 114.442 161.879 113.124C161.87 111.806 161.857 110.978 161.837 110.637C161.798 109.955 161.779 109.605 161.779 109.585L161.775 109.582ZM164.312 119.504C164.312 119.579 164.321 119.631 164.341 119.66C164.36 119.689 164.39 119.702 164.425 119.702H164.738C166.142 119.702 166.939 119.654 167.131 119.559C167.15 119.559 167.16 119.18 167.16 118.423C167.16 117.589 167.147 116.173 167.118 114.173C167.089 112.173 167.076 111.108 167.076 110.975C167.076 110.481 167.017 110.121 166.903 109.894C166.789 109.666 166.542 109.553 166.162 109.553C165.915 109.553 165.648 109.592 165.365 109.666H165.281C164.978 109.666 164.825 109.894 164.825 110.348C164.825 110.614 164.848 111.082 164.897 111.757C164.946 112.429 164.968 113.033 164.968 113.563C164.968 115.381 164.884 116.426 164.712 116.689C164.712 117.124 164.643 117.679 164.513 118.352C164.38 119.024 164.315 119.41 164.315 119.504H164.312ZM174.278 105.77C174.278 105.809 174.333 105.884 174.45 105.997C174.639 106.205 174.821 107.696 174.99 110.462C175.01 110.595 175.042 110.676 175.091 110.702C175.14 110.731 175.286 110.744 175.533 110.744H176.047V110.231C176.027 110.059 176.018 109.712 176.018 109.179V108.241C176.018 106.933 175.949 106.098 175.819 105.738C175.78 105.738 175.614 105.715 175.322 105.666C175.026 105.618 174.814 105.595 174.681 105.595C174.414 105.595 174.281 105.653 174.281 105.767L174.278 105.77ZM174.733 116.319H175.273C175.653 116.358 175.881 116.339 175.956 116.264V116.121C175.956 115.968 175.975 115.653 176.014 115.17C176.053 114.686 176.07 114.322 176.07 114.076C176.07 113.186 175.852 112.738 175.416 112.738C175.302 112.738 175.159 112.767 174.99 112.822C174.99 113.618 174.905 114.566 174.733 115.666V116.319ZM178.58 116.205L179.035 116.631C179.302 116.897 179.471 117.011 179.549 116.972C179.549 116.858 179.559 116.556 179.578 116.063C179.598 115.569 179.607 115.173 179.607 114.868C179.607 113.277 179.399 112.478 178.98 112.478C178.885 112.478 178.807 112.498 178.752 112.537C178.638 112.556 178.58 112.858 178.58 113.446V116.202V116.205ZM181.425 106.111C181.425 106.131 181.435 106.14 181.454 106.14C181.454 106.368 181.516 107.108 181.64 108.358C181.763 109.608 181.835 110.407 181.854 110.748C182.765 107.997 183.308 106.481 183.477 106.199C183.532 106.179 183.561 106.153 183.561 106.114C183.561 106.04 183.259 106.001 182.651 106.001C181.835 106.001 181.425 106.04 181.425 106.114V106.111ZM181.766 112.511C181.766 112.624 181.796 112.822 181.851 113.108L181.88 113.478C181.88 113.725 181.867 114.423 181.838 115.569C181.809 116.715 181.796 117.566 181.796 118.115C181.796 119.082 181.844 119.566 181.939 119.566L181.968 119.537H182.053C182.147 119.537 182.267 119.498 182.407 119.423C182.55 119.348 182.677 119.309 182.791 119.309H183.275V118.455C183.256 116.881 182.924 115.186 182.28 113.364C182.053 112.722 181.89 112.397 181.796 112.397C181.776 112.397 181.766 112.436 181.766 112.511Z" fill="#005CA1"/>
<path d="M189.056 110.235C189.056 109.933 189.378 109.676 190.025 109.468C190.669 109.261 191.336 109.157 192.019 109.157C192.058 109.157 192.12 109.163 192.204 109.17C192.289 109.179 192.35 109.183 192.389 109.183H193.586L193.329 108.442C193.007 107.514 192.845 106.507 192.845 105.429C192.845 104.709 192.968 104.319 193.215 104.264C193.596 103.884 194.08 103.696 194.669 103.696C195.199 103.696 195.657 103.858 196.034 104.179C196.584 104.595 196.786 104.994 196.633 105.374C196.444 105.848 196.347 106.189 196.347 106.397C196.347 106.436 196.327 106.54 196.291 106.709C196.252 106.881 196.23 106.994 196.22 107.049C196.21 107.105 196.181 107.215 196.135 107.377C196.087 107.54 196.051 107.653 196.021 107.718C195.992 107.786 195.95 107.881 195.895 108.004C195.839 108.127 195.781 108.222 195.722 108.29C195.664 108.358 195.596 108.426 195.508 108.504C195.423 108.579 195.332 108.647 195.238 108.702C195.085 108.796 195.01 108.864 195.01 108.9C195.01 109.014 195.426 109.072 196.262 109.072H197.716C198.285 109.072 198.717 109.092 199.013 109.131C199.306 109.17 199.445 109.244 199.426 109.358C200.034 109.53 200.336 109.822 200.336 110.241C200.336 110.355 200.307 110.478 200.252 110.611C200.177 110.897 200.119 111.076 200.08 111.15C199.966 111.358 199.897 111.501 199.881 111.576C199.823 111.877 199.228 112.608 198.086 113.764C196.948 114.92 196.376 115.725 196.376 116.18C196.376 116.238 196.395 116.322 196.434 116.436C196.454 116.417 196.607 116.309 196.89 116.108C197.176 115.91 197.394 115.764 197.543 115.667C197.696 115.572 197.907 115.443 198.184 115.283C198.46 115.121 198.724 115.007 198.98 114.942C199.237 114.878 199.478 114.842 199.706 114.842C200.008 114.842 200.323 114.933 200.645 115.111C200.967 115.293 201.13 115.543 201.13 115.865C201.13 116.072 201.003 116.267 200.746 116.449C200.489 116.631 200.164 116.829 199.764 117.046C199.364 117.264 199.062 117.498 198.854 117.744L198.541 117.887L199.654 118.826C199.806 118.959 199.985 119.111 200.193 119.28C200.421 119.488 200.577 119.634 200.662 119.722C200.746 119.806 200.85 119.926 200.974 120.076C201.097 120.228 201.182 120.371 201.231 120.501C201.276 120.634 201.302 120.787 201.302 120.956C201.302 121.222 201.253 121.478 201.159 121.722C200.759 122.024 200.258 122.176 199.65 122.176C199.137 122.176 198.75 121.998 198.483 121.637C197.153 120.521 196.431 119.959 196.317 119.959C196.204 119.959 196.145 120.556 196.145 121.751C196.145 122.946 196.093 123.991 195.989 124.894C195.885 125.793 195.641 126.245 195.264 126.245C194.942 126.358 194.666 126.417 194.438 126.417C194.038 126.417 193.713 126.29 193.456 126.034C193.199 125.777 193.004 125.407 192.871 124.923C192.737 124.439 192.643 123.832 192.585 123.105C192.526 122.374 192.474 121.67 192.428 120.985C192.38 120.303 192.328 119.8 192.272 119.478C191.798 120.16 190.933 120.501 189.681 120.501H189.453C189.775 119.631 190.282 118.693 190.978 117.686C191.671 116.683 192.497 115.582 193.456 114.387C194.415 113.192 195.111 112.264 195.55 111.602H193.726C191.333 111.602 190.025 111.384 189.795 110.949C189.3 110.702 189.053 110.465 189.053 110.238L189.056 110.235ZM199.595 125.336C199.595 124.823 200.008 124.469 200.834 124.267C201.66 124.069 202.733 123.939 204.053 123.884C205.373 123.826 206.261 123.741 206.716 123.628C206.622 123.361 206.573 122.842 206.573 122.063C206.573 121.534 206.492 121.124 206.332 120.839C206.17 120.556 205.835 120.413 205.321 120.413H205.094C205.019 120.413 204.807 120.365 204.466 120.271C204.294 120.212 204.144 120.137 204.011 120.043C203.877 119.949 203.783 119.871 203.725 119.816C203.669 119.758 203.572 119.641 203.438 119.459C203.305 119.28 203.191 119.131 203.097 119.017C203.058 118.978 203.042 118.943 203.042 118.904C203.042 118.715 203.289 118.514 203.783 118.306C204.277 118.098 204.798 117.975 205.35 117.936L206.176 117.881L206.147 116.517C206.202 116.365 206.232 116.215 206.232 116.063C206.232 115.608 206.163 115.296 206.033 115.124C205.9 114.952 205.682 114.868 205.38 114.868C205.152 114.868 204.612 114.952 203.757 115.124C203.321 115.313 202.98 115.41 202.733 115.41C202.239 115.41 201.907 114.975 201.735 114.102C201.166 111.222 200.879 109.05 200.879 107.588C200.879 106.793 200.954 106.092 201.107 105.484C201.487 105.351 201.839 105.124 202.161 104.803C202.482 104.481 202.882 104.218 203.357 104.02C203.832 103.822 204.564 103.721 205.549 103.721C205.776 103.721 206.124 103.725 206.589 103.734C207.054 103.744 207.383 103.747 207.571 103.747C208.348 103.747 209.226 103.718 210.205 103.663C211.184 103.608 211.785 103.579 212.013 103.579C212.696 103.579 213.21 103.695 213.551 103.933C213.892 104.17 214.205 104.657 214.491 105.397C214.491 105.832 214.53 106.559 214.605 107.572C214.679 108.585 214.718 109.387 214.718 109.975C214.718 112.952 214.045 114.439 212.696 114.439C212.507 114.439 212.335 114.42 212.182 114.381C212.127 114.361 212.068 114.342 212.01 114.326C211.896 114.326 211.574 114.381 211.041 114.498C210.511 114.611 210.121 114.67 209.873 114.67C209.834 114.67 209.792 114.667 209.747 114.657C209.698 114.647 209.665 114.644 209.646 114.644C209.571 114.699 209.532 115.004 209.532 115.553C209.532 115.628 209.561 116.017 209.617 116.719L209.701 117.77L210.898 117.826H211.184C211.772 117.826 212.237 117.926 212.579 118.124C212.92 118.322 213.093 118.576 213.093 118.878C213.093 119.18 212.93 119.456 212.608 119.702C212.341 119.91 211.945 120.063 211.411 120.157C210.881 120.251 210.442 120.384 210.101 120.556C209.682 120.728 209.512 121.021 209.587 121.436L209.873 123.027C209.873 123.121 209.877 123.199 209.886 123.254C209.896 123.31 209.906 123.365 209.916 123.41C209.925 123.459 209.935 123.495 209.945 123.524C209.955 123.553 209.974 123.582 210 123.608C210.03 123.637 210.059 123.657 210.085 123.663C210.114 123.673 210.15 123.683 210.199 123.693C210.244 123.702 210.299 123.706 210.355 123.706C210.41 123.706 210.621 123.696 210.982 123.676C211.343 123.657 211.685 123.647 212.006 123.647C212.995 123.647 213.714 123.686 214.172 123.761C214.627 123.836 214.943 123.959 215.112 124.131C215.3 124.319 215.388 124.586 215.369 124.926C215.349 125.267 215.027 125.628 214.4 126.008C214.361 126.235 213.974 126.388 213.232 126.462C212.15 126.556 211.333 126.595 210.784 126.576L206.115 126.521C205.926 126.521 205.259 126.576 204.121 126.693C203.078 126.787 202.469 126.836 202.3 126.836C201.865 126.836 201.598 126.797 201.504 126.722C201.331 126.608 201.068 126.446 200.707 126.238C200.044 125.839 199.683 125.612 199.624 125.556C199.605 125.537 199.595 125.462 199.595 125.329V125.336ZM204.437 112.423C204.437 112.556 204.531 112.621 204.723 112.621C204.915 112.621 205.074 112.611 205.207 112.592L205.861 112.563V111.056C205.861 110.715 205.822 110.478 205.747 110.345C205.692 110.251 205.435 110.166 204.98 110.088L204.44 110.004V110.858C204.459 110.972 204.469 111.124 204.469 111.313C204.469 111.767 204.463 112.056 204.456 112.179C204.446 112.303 204.443 112.384 204.443 112.42L204.437 112.423ZM204.466 107.562C204.466 107.884 204.57 108.046 204.778 108.046C204.837 108.046 204.921 108.027 205.035 107.988L205.689 107.933L205.718 106.994C205.737 106.92 205.747 106.816 205.747 106.683C205.747 106.53 205.708 106.426 205.633 106.371C205.559 106.316 205.438 106.277 205.279 106.257C205.116 106.238 204.989 106.199 204.895 106.144H204.866C204.791 106.144 204.703 106.325 204.609 106.683C204.515 107.043 204.466 107.335 204.466 107.566V107.562ZM209.021 107.02L209.077 108.101C209.477 108.101 210.111 108.121 210.985 108.157L210.901 107.361C210.881 106.946 210.849 106.631 210.8 106.423C210.751 106.215 210.625 106.111 210.416 106.111C209.942 106.111 209.591 106.131 209.363 106.166C209.249 106.186 209.174 106.205 209.135 106.222C209.096 106.241 209.067 106.273 209.051 106.322C209.031 106.371 209.021 106.459 209.021 106.592V107.017V107.02ZM209.077 110.718C209.096 110.832 209.152 110.926 209.249 111.001L209.334 112.394L210.189 112.423C210.55 112.442 210.826 112.462 211.015 112.478C211.317 112.498 211.529 112.507 211.642 112.507C211.737 112.507 211.785 112.498 211.785 112.478C211.785 112.176 211.717 111.722 211.587 111.114C211.493 110.66 211.398 110.433 211.301 110.433H211.272C211.177 110.433 210.95 110.403 210.589 110.348C210.228 110.293 209.951 110.264 209.763 110.264C209.308 110.264 209.08 110.416 209.08 110.718H209.077Z" fill="#005CA1"/>
<path d="M218.705 112.196C218.705 110.338 218.877 109.01 219.219 108.215C219.427 107.913 219.846 107.76 220.471 107.76C220.679 107.76 221.01 107.78 221.466 107.816C221.921 107.855 222.252 107.871 222.464 107.871C222.636 107.871 222.834 107.851 223.062 107.816C223.498 107.835 223.934 107.858 224.373 107.887C224.808 107.916 225.156 107.929 225.413 107.929C225.67 107.929 225.93 107.939 226.197 107.958C226.463 107.978 226.658 107.991 226.782 108.001C226.906 108.01 227.032 108.04 227.166 108.085C227.299 108.134 227.383 108.179 227.423 108.228C227.462 108.277 227.507 108.355 227.566 108.468C227.624 108.582 227.66 108.695 227.679 108.809C227.699 108.923 227.718 109.085 227.735 109.293C227.679 109.747 227.644 110.754 227.634 112.306C227.624 113.861 227.572 115.212 227.478 116.358C227.384 117.504 227.211 118.153 226.964 118.306V119.274C226.964 119.975 226.769 120.452 226.379 120.709C225.989 120.965 225.065 121.092 223.602 121.092C223.033 121.092 222.561 121.079 222.191 121.05C221.82 121.02 221.469 120.985 221.137 120.936C220.805 120.891 220.536 120.855 220.324 120.835C219.905 120.796 219.531 119.842 219.199 117.962C218.867 116.085 218.702 114.16 218.702 112.189L218.705 112.196ZM221.778 118.965H223.231C224.2 118.965 224.685 118.907 224.685 118.793V118.764C224.665 118.744 224.655 118.725 224.655 118.705C224.597 118.705 224.545 118.007 224.499 116.614C224.451 115.222 224.395 113.803 224.327 112.364C224.259 110.923 224.207 110.176 224.171 110.118C224.132 110.004 223.914 109.946 223.517 109.946C223.121 109.946 222.88 110.004 222.805 110.118C222.691 110.212 222.548 111.536 222.379 114.085C222.207 116.634 222.009 118.108 221.781 118.507V118.962L221.778 118.965ZM224.711 125.504C224.863 124.878 225.023 124.319 225.195 123.826C225.367 123.332 225.598 122.826 225.894 122.303C226.187 121.783 226.567 121.374 227.032 121.079C227.497 120.787 228.034 120.637 228.642 120.637C228.889 120.637 229.156 120.667 229.439 120.722C229.855 120.988 230.066 121.251 230.066 121.517C230.066 121.764 229.913 122.04 229.611 122.342C229.308 122.644 228.922 122.994 228.457 123.394C227.992 123.793 227.644 124.144 227.416 124.446C226.98 124.767 226.362 125.072 225.566 125.355C225.358 125.527 225.156 125.611 224.968 125.611C224.854 125.611 224.769 125.572 224.711 125.498V125.504ZM228.756 112.056C228.756 110.16 228.817 108.26 228.941 106.355C229.065 104.449 229.201 103.488 229.354 103.468C229.734 103.28 230.086 103.182 230.408 103.182C230.655 103.182 231.11 103.273 231.773 103.452C232.437 103.634 233.035 103.721 233.568 103.721H233.994C234.166 103.702 234.41 103.692 234.735 103.692C235.591 103.692 236.862 103.793 238.553 103.991C240.244 104.189 241.362 104.299 241.912 104.319H241.941C242.094 104.319 242.315 104.432 242.611 104.66C242.904 104.887 243.053 105.095 243.053 105.286C243.053 105.361 243.014 105.429 242.939 105.484C242.786 105.825 242.474 106.095 242 106.296C241.525 106.494 240.985 106.595 240.377 106.595H239.18V107.533C239.086 108.101 239.037 108.416 239.037 108.471C239.037 108.51 239.041 108.543 239.05 108.572C239.06 108.601 239.08 108.624 239.109 108.644C239.138 108.663 239.171 108.676 239.21 108.686C239.249 108.695 239.301 108.705 239.366 108.715C239.431 108.725 239.499 108.728 239.564 108.728C239.629 108.728 239.72 108.734 239.834 108.741C239.948 108.751 240.062 108.764 240.175 108.783C241.427 108.955 242.055 109.306 242.055 109.835C242.055 110.007 241.97 110.205 241.798 110.433C241.817 110.621 241.561 110.734 241.031 110.773C240.497 110.812 239.967 110.868 239.437 110.946C238.904 111.02 238.641 111.192 238.641 111.459C238.641 111.553 238.686 111.676 238.784 111.829V112.199H240.036C240.566 112.218 240.933 112.267 241.131 112.342C241.33 112.416 241.574 112.549 241.857 112.741L242.396 113.111L242.084 113.423C241.912 113.803 241.674 114.053 241.372 114.176C241.07 114.299 240.462 114.41 239.551 114.504C239.037 114.559 238.719 114.624 238.598 114.689C238.475 114.757 238.39 114.887 238.341 115.088C238.293 115.287 238.166 115.481 237.958 115.673V116.098H238.956C241.86 116.173 243.313 116.761 243.313 117.861C243.313 117.994 243.284 118.147 243.229 118.316C243.154 118.524 243.092 119.102 243.043 120.05C242.995 120.998 242.949 122.134 242.9 123.462C242.852 124.79 242.819 125.66 242.799 126.079C242.497 126.514 241.983 126.732 241.261 126.732C240.959 126.732 240.634 126.699 240.292 126.631C239.951 126.566 239.571 126.475 239.154 126.361C238.735 126.248 238.462 126.173 238.329 126.134C238.289 126.134 238.237 126.141 238.172 126.147C238.104 126.157 238.055 126.16 238.016 126.16C237.353 126.16 237.021 126.037 237.021 125.79C237.021 125.582 237.236 125.348 237.662 125.092C238.088 124.835 238.465 124.709 238.787 124.709C239.128 124.67 239.343 124.637 239.428 124.608C239.512 124.579 239.564 124.498 239.584 124.368C239.564 124.082 239.509 123.943 239.411 123.943C239.353 123.943 239.223 123.995 239.011 124.098C238.803 124.202 238.611 124.254 238.442 124.254C238.348 124.254 238.28 124.245 238.244 124.225C238.185 124.283 238.111 124.309 238.016 124.309C237.789 124.309 237.425 124.079 236.921 123.611C236.417 123.147 236.137 122.913 236.082 122.913C236.043 122.913 236.026 122.943 236.026 122.998V123.17C236.026 123.796 235.74 124.345 235.171 124.819C234.885 125.121 234.631 125.274 234.404 125.274C234.176 125.274 234.004 125.098 233.89 124.748C233.776 124.397 233.675 123.933 233.591 123.355C233.506 122.777 233.415 122.365 233.321 122.118C233.207 122.27 233.035 122.592 232.807 123.085C232.58 123.579 232.342 123.982 232.095 124.293C231.848 124.605 231.562 124.79 231.24 124.848C231.165 124.982 230.993 125.118 230.726 125.261C230.46 125.404 230.251 125.475 230.099 125.475C230.024 125.475 229.975 125.465 229.956 125.446C229.822 125.105 229.757 124.66 229.757 124.108C229.757 123.465 229.848 122.79 230.027 122.089C230.206 121.387 230.401 120.865 230.612 120.524C230.593 120.449 230.655 120.381 230.798 120.326C230.941 120.27 231.129 120.222 231.367 120.183C231.604 120.144 231.845 120.128 232.092 120.128C232.85 120.128 233.269 120.241 233.344 120.468C233.532 120.543 233.848 120.582 234.283 120.582H234.739C235.402 120.582 236.01 120.657 236.563 120.809C236.83 120.77 236.999 120.754 237.077 120.754C238.215 120.754 238.985 121.267 239.382 122.29C239.441 122.29 239.467 121.9 239.467 121.124C239.467 119.796 239.418 119.04 239.323 118.848C239.268 118.774 238.904 118.735 238.241 118.735C237.613 118.735 236.299 118.754 234.296 118.793C232.293 118.832 231.237 118.848 231.123 118.848C230.951 118.848 230.804 118.845 230.681 118.835C230.557 118.826 230.447 118.822 230.352 118.822C230.258 118.822 230.17 118.809 230.095 118.78C230.021 118.751 229.959 118.728 229.91 118.709C229.861 118.689 229.806 118.657 229.738 118.608C229.669 118.563 229.624 118.517 229.595 118.481C229.565 118.442 229.51 118.381 229.422 118.296C229.338 118.212 229.266 118.14 229.208 118.082C229.169 118.102 229.133 118.111 229.094 118.111C228.941 118.111 228.866 117.884 228.866 117.429C228.866 117.202 228.889 116.842 228.938 116.348C228.983 115.855 229.009 115.553 229.009 115.439C229.009 115.325 229 115.261 228.98 115.241C228.827 115.241 228.752 114.179 228.752 112.056H228.756ZM231.975 112.397H232.944C233.246 112.358 233.575 112.306 233.926 112.241C234.277 112.176 234.625 112.14 234.966 112.14H235.422V111.601L235.392 111.088H232.033V111.429C232.033 111.657 232.014 111.884 231.978 112.111V112.397H231.975ZM232.089 115.04C232.089 115.722 232.134 116.111 232.232 116.205C232.271 116.244 232.762 116.264 233.711 116.264C234.81 116.264 235.418 116.235 235.532 116.179L235.561 116.209C235.617 116.209 235.646 116.085 235.646 115.838C235.646 115.572 235.607 115.28 235.532 114.955C235.457 114.634 235.379 114.472 235.304 114.472L235.249 114.527C235.155 114.527 234.628 114.556 233.669 114.611C232.71 114.666 232.202 114.705 232.144 114.725C232.105 114.725 232.089 114.829 232.089 115.037V115.04ZM232.202 108.644H235.334V107.364L235.363 106.114H233.285C232.885 106.114 232.632 106.147 232.515 106.215C232.401 106.283 232.342 106.419 232.342 106.627C232.342 106.666 232.346 106.738 232.355 106.842C232.365 106.945 232.368 107.027 232.368 107.082C232.368 107.403 232.31 107.718 232.196 108.02V108.647L232.202 108.644Z" fill="#005CA1"/>
<path d="M252.05 109.553C252.05 108.51 252.694 107.4 253.988 106.225C255.279 105.049 256.381 104.377 257.292 104.205C258.202 104.052 259.048 103.978 259.825 103.978C262.007 103.978 263.811 104.465 265.235 105.442C266.66 106.419 267.372 107.864 267.372 109.78C267.372 110.708 267.125 111.51 266.63 112.182C266.136 112.855 265.57 113.361 264.936 113.705C264.299 114.046 263.564 114.468 262.728 114.972C261.893 115.475 261.249 115.981 260.791 116.494L260.251 117.007L260.394 117.689C260.68 118.144 260.82 118.598 260.82 119.053C260.82 119.66 260.615 120.183 260.208 120.618C259.799 121.053 259.321 121.27 258.771 121.27C258.183 121.27 257.633 121.004 257.119 120.475C256.625 119.66 256.378 118.559 256.378 117.176C256.378 116.436 256.619 115.773 257.103 115.186C257.588 114.598 258.179 114.111 258.882 113.721C259.584 113.332 260.283 112.936 260.976 112.527C261.668 112.121 262.257 111.611 262.741 111.004C263.226 110.397 263.467 109.705 263.467 108.929C263.467 108.475 263.382 107.962 263.21 107.393C262.774 106.617 261.88 106.228 260.534 106.228C259.262 106.228 258.244 106.549 257.487 107.195C256.479 108.049 255.978 108.855 255.978 109.611C255.978 109.819 256.027 110.066 256.121 110.351C256.407 110.637 256.547 110.929 256.547 111.234C256.547 111.52 256.424 111.757 256.176 111.945C255.929 112.134 255.627 112.231 255.266 112.231C254.697 112.231 254.173 112.043 253.699 111.663C252.596 111.169 252.047 110.468 252.047 109.559L252.05 109.553ZM257.916 125.108C257.916 124.822 258.001 124.683 258.173 124.683C258.42 124.683 258.609 124.618 258.742 124.485C259.028 124.163 259.331 124.001 259.652 124.001C260.088 124.001 260.508 124.257 260.904 124.767C261.207 125.222 261.36 125.543 261.36 125.735C261.36 125.774 261.34 125.829 261.304 125.907C261.265 125.907 261.077 126.02 260.735 126.248C260.28 126.589 259.861 126.761 259.483 126.761C259.106 126.761 258.771 126.582 258.43 126.222C258.088 125.861 257.916 125.491 257.916 125.111V125.108Z" fill="#005CA1"/>
</g>
<defs>
<clipPath id="clip0_2136_2069">
<rect width="303" height="153" fill="white" transform="translate(0 0.189941)"/>
</clipPath>
</defs>
</svg>
