<svg width="854" height="307" viewBox="0 0 854 307" fill="none" xmlns="http://www.w3.org/2000/svg">
<g clip-path="url(#clip0_2136_1391)">
<path d="M23.4067 160.563C43.5172 160.55 67.0937 162.193 87.7263 160.401C87.4522 144.388 88.3921 127.589 88.3725 117.523C88.4443 119.329 30.4105 117.803 30.4105 117.803C30.4105 117.803 25.1952 153.998 23.4067 160.557V160.563Z" fill="#F5E83A"/>
<path d="M65.07 163.323C57.8704 163.323 50.5926 163.148 43.4322 162.972C36.4154 162.804 29.7576 162.674 23.4065 162.648H20.5215L21.2264 160.057C22.9627 153.687 28.1257 117.894 28.178 117.536L28.4456 115.679L30.469 115.731C55.8535 116.4 84.4037 116.64 87.3279 115.783C86.8319 115.932 86.1139 116.588 86.1204 117.543L90.6177 117.452L90.6569 118.355L90.6242 118.394C90.6112 122.199 90.4806 126.79 90.337 132.05C90.089 140.784 89.8148 150.673 89.978 160.381L90.0107 162.304L87.935 162.485C80.5657 163.122 72.8636 163.33 65.07 163.33V163.323ZM26.1806 158.492C31.7614 158.524 37.5119 158.667 43.5562 158.81C57.6028 159.154 72.0933 159.505 85.4546 158.498C85.3502 149.342 85.6113 140.128 85.8397 131.933C85.9703 127.446 86.0812 123.446 86.1139 120.03C80.7354 120.549 67.2632 120.842 32.3685 119.946C31.3828 126.692 28.0148 149.531 26.1806 158.498V158.492Z" fill="#005CA1"/>
<path d="M95.5852 162.479C95.5068 162.479 95.435 162.479 95.3567 162.472C94.5539 162.388 93.986 161.719 94.0774 160.979L96.6491 140.537C87.4261 140.361 78.2357 139.965 69.3326 139.582C53.6998 138.907 37.5513 138.212 20.7306 138.686L19.4839 161.109C19.4447 161.855 18.7594 162.427 17.95 162.388C17.1471 162.349 16.527 161.713 16.5662 160.972L17.8847 137.309C17.9239 136.615 18.5309 136.056 19.2816 136.03C19.2816 136.03 19.2815 136.03 19.2881 136.03C36.7093 135.478 53.3604 136.199 69.4631 136.887C78.8623 137.29 88.5814 137.712 98.307 137.868C98.7183 137.874 99.1099 138.043 99.3775 138.329C99.6516 138.615 99.7757 138.998 99.73 139.374L96.9755 161.29C96.8906 161.959 96.2901 162.459 95.5852 162.485V162.479Z" fill="#005CA1"/>
<path d="M34.5357 162.589C34.5357 162.589 34.4769 162.589 34.4508 162.589C33.648 162.576 33.0018 161.959 33.0148 161.219C33.0736 157.901 33.1584 154.933 33.2368 152.057C33.3804 146.693 33.5109 142.056 33.4391 137.433C33.4261 136.686 34.0853 136.063 34.8751 136.063C35.678 136.05 36.3437 136.647 36.3568 137.394C36.4286 142.076 36.3046 146.732 36.1545 152.128C36.0761 154.992 35.9978 157.959 35.9325 161.265C35.9195 161.985 35.2994 162.563 34.5357 162.589Z" fill="#005CA1"/>
<path d="M48.2365 162.648C48.1777 162.648 48.119 162.648 48.0602 162.648C47.2574 162.589 46.6569 161.934 46.7221 161.193C47.5119 152.206 48.008 143.557 48.2822 137.881C48.3148 137.134 49.0002 136.556 49.803 136.595C50.6059 136.628 51.2325 137.258 51.1933 138.004C50.9192 143.706 50.4231 152.388 49.6268 161.414C49.568 162.102 48.961 162.628 48.2299 162.654L48.2365 162.648Z" fill="#005CA1"/>
<path d="M60.2988 163.031C60.2466 163.031 60.1944 163.031 60.1422 163.031C59.3393 162.985 58.7258 162.343 58.778 161.596C58.9999 158.427 59.1696 155.07 59.3328 151.829C59.5874 146.849 59.8224 142.141 60.227 138.232C60.3054 137.491 61.0234 136.939 61.8197 137.017C62.6226 137.089 63.21 137.745 63.1317 138.491C62.7335 142.329 62.4985 147.005 62.2505 151.959C62.0873 155.213 61.9176 158.576 61.6957 161.771C61.65 162.466 61.0364 163.005 60.2988 163.031Z" fill="#005CA1"/>
<path d="M75.9576 163.726C75.9185 163.726 75.8793 163.726 75.8336 163.726C75.0307 163.693 74.4041 163.063 74.4368 162.317C74.6913 156.894 74.7958 151.355 74.9002 146.005C74.9459 143.68 74.9916 141.433 75.0438 139.316C75.0634 138.569 75.7226 137.972 76.5385 137.998C77.3414 138.017 77.9811 138.634 77.9615 139.381C77.9093 141.491 77.8636 143.732 77.8179 146.05C77.7134 151.42 77.609 156.972 77.3479 162.433C77.3153 163.141 76.7017 163.693 75.9511 163.726H75.9576Z" fill="#005CA1"/>
<path d="M89.4885 163.479C89.4298 163.479 89.3775 163.479 89.3188 163.479C88.5159 163.421 87.9154 162.771 87.9742 162.031C88.3071 158.037 88.4898 153.881 88.6726 149.862C88.8488 145.94 89.012 142.232 89.2992 139.18C89.371 138.439 90.076 137.888 90.8788 137.952C91.6817 138.017 92.2756 138.673 92.2038 139.414C91.9232 142.401 91.76 146.083 91.5838 149.972C91.401 154.018 91.2182 158.193 90.8788 162.232C90.8201 162.921 90.213 163.453 89.482 163.479H89.4885Z" fill="#005CA1"/>
<path d="M77.8506 120.205C82.7787 120.205 88.4443 119.829 91.4012 116.179C94.0578 112.9 93.392 108.329 92.55 104.302C90.7158 95.5685 88.2942 86.3021 81.2448 80.25C74.1758 74.1849 63.3601 72.6524 54.1567 75.3148C44.9598 77.9837 37.3751 84.4059 32.4078 92.049C27.9236 98.9517 17.6236 116.783 31.4092 118.562C46.5655 120.517 62.5833 120.192 77.8571 120.199L77.8506 120.205Z" fill="#005CA1"/>
<path d="M97.9352 160.336C101.271 232.24 100.918 233.812 104.959 306.19H2.5459C6.42309 264.812 16.4033 160.395 16.4033 160.395C16.4033 160.395 77.2242 160.317 97.9352 160.336Z" fill="#005CA1"/>
<path d="M27.8128 199.779C27.8128 199.779 27.8128 199.759 27.8128 199.746C28.8115 194.019 35.8283 173.603 46.063 180.772C52.1464 185.032 52.7926 192.467 52.2378 198.98C51.794 204.188 52.649 214.259 46.4025 216.798C44.3007 217.649 41.9378 217.721 39.6402 217.779C34.4054 217.909 26.7554 217.37 26.7946 210.987C26.8207 207.233 27.1601 203.486 27.8063 199.779H27.8128Z" fill="white"/>
<path d="M104.959 270.76C104.267 259.345 102.765 243.429 101.943 232.214C99.0644 232.045 36.9249 232.993 7.72854 231.331C6.00534 244.864 4.39964 259.462 2.5459 274.15C8.94914 273.761 94.5541 271.481 104.959 270.767V270.76Z" fill="white"/>
<path d="M0 276.39L0.313308 273.91C1.2206 266.708 2.06914 259.533 2.90463 252.494C3.77275 245.169 4.61477 237.994 5.49595 231.091L5.74398 229.136L7.86534 229.26C29.934 230.519 71.0361 230.273 90.7876 230.162C98.0851 230.123 101.342 230.104 102.08 230.143L104.044 230.26L104.182 232.078C104.508 236.545 104.945 241.766 105.396 247.156C106.074 255.325 106.779 263.767 107.197 270.644L107.321 272.683L105.121 272.832C98.9597 273.261 67.6876 274.196 40.0904 275.02C21.4159 275.579 5.2936 276.059 2.69576 276.222L0 276.384L0 276.39ZM9.71908 233.519C8.92929 239.805 8.15907 246.312 7.3758 252.942C6.63822 259.202 5.88106 265.566 5.08473 271.955C10.9658 271.735 24.6012 271.325 39.9468 270.864C63.817 270.15 93.0134 269.273 102.582 268.812C102.158 262.384 101.531 254.819 100.918 247.474C100.526 242.831 100.154 238.305 99.8474 234.279C97.8697 234.279 94.606 234.299 90.8202 234.325C71.6366 234.435 32.3556 234.669 9.71256 233.526L9.71908 233.519Z" fill="#005CA1"/>
<path d="M58.6865 59.9702C58.1578 66.5093 57.5899 75.529 57.4463 82.1135L58.6865 59.9702Z" fill="#005CA1"/>
<path d="M57.4658 84.2435C57.4658 84.2435 57.4267 84.2435 57.4005 84.2435C56.6042 84.198 55.9776 83.211 56.0037 82.0291C56.1473 75.1718 56.7413 65.9963 57.2504 59.704C57.3418 58.5351 58.0598 57.7039 58.8561 57.8533C59.6459 58.0026 60.2138 59.0676 60.1224 60.2365C59.6263 66.4444 59.0389 75.4706 58.8953 82.198C58.8692 83.3408 58.236 84.2435 57.4723 84.25L57.4658 84.2435Z" fill="#005CA1"/>
<path d="M64.3261 82.7759C64.2216 82.7759 64.1172 82.7629 64.0193 82.7305C62.8509 82.3603 62.8574 80.7304 62.8574 79.9447C62.8574 79.5031 62.8639 78.8667 62.877 78.081C62.8966 76.4186 62.9292 74.2368 62.9684 71.9445C63.0206 69.1523 63.1577 62.1521 63.3339 57.3468C63.3796 56.1715 64.0584 55.2753 64.8548 55.3468C65.6511 55.4182 66.2581 56.4312 66.219 57.6065C65.9383 65.0937 65.7294 78.8213 65.749 80.4122C65.7751 80.7369 65.749 81.0746 65.6707 81.3993C65.4618 82.2434 64.92 82.7759 64.3326 82.7824L64.3261 82.7759Z" fill="#005CA1"/>
<path d="M64.777 57.4702C64.4829 65.4249 64.2542 80.8733 64.313 80.6395L64.777 57.4702Z" fill="#005CA1"/>
<path d="M29.3791 42.4178C32.6884 39.8139 37.1791 38.0671 40.1882 37.3852C44.7899 36.3463 49.5875 35.7294 53.7257 33.4761C60.4945 29.7942 62.5049 23.0473 64.9657 16.3069C66.9238 10.9236 69.8807 5.23521 75.2657 3.22218C82.0279 0.696154 88.6204 4.21571 91.2248 10.4691C93.1504 15.0926 89.704 21.4953 86.5187 28.5539C81.3491 40.0152 79.0645 53.1908 67.1458 57.3532C58.1121 60.5091 44.5745 60.4896 35.3711 57.9246C31.1871 56.7558 26.0371 55.9376 25.1429 50.8401C24.5359 47.3595 26.7878 44.4568 29.3791 42.4178Z" fill="white"/>
<path d="M50.4231 62.0288C44.9533 62.0288 39.4443 61.3859 34.7577 60.0742L33.498 59.7365C29.4772 58.6781 23.9747 57.217 22.9238 51.2234C22.258 47.4376 24.0073 43.7881 27.9824 40.6647C31.6834 37.749 36.5984 35.9048 39.6858 35.2035C40.6649 34.9827 41.644 34.7814 42.6361 34.5801C46.2522 33.8399 49.666 33.1386 52.6424 31.5151C58.184 28.4956 60.1031 23.1643 62.3223 16.9889L62.8445 15.5473C64.6721 10.5407 67.8574 3.59897 74.4695 1.13139C82.0085 -1.67387 90.1023 1.96257 93.2941 9.61858C95.3829 14.6317 92.5827 20.7227 89.6193 27.1709L88.5684 29.4761C87.4979 31.8593 86.5254 34.3723 85.592 36.8075C81.9889 46.1648 78.2553 55.8468 67.8901 59.4638C63.0142 61.1651 56.748 62.0288 50.4231 62.0288ZM79.6848 4.65094C78.4903 4.65094 77.2632 4.87173 76.0491 5.32628C72.3417 6.70943 69.4892 10.4433 67.0742 17.0733L66.5585 18.4954C64.2413 24.9436 61.8393 31.6061 54.8029 35.4373C51.239 37.3789 47.3292 38.1841 43.5434 38.9569C42.5904 39.1517 41.6309 39.3465 40.6845 39.5608C37.8516 40.2036 33.6872 41.8725 30.7761 44.1648C28.9615 45.5869 26.8989 47.8337 27.3623 50.4441C27.878 53.4052 30.4628 54.2948 34.6598 55.4053L35.9848 55.7624C45.1426 58.3209 58.2232 58.0936 66.4084 55.2364C74.809 52.3013 78.0073 43.9959 81.4015 35.197C82.361 32.71 83.3531 30.132 84.4758 27.6384L85.5398 25.3072C88.0854 19.7681 90.4939 14.5408 89.1493 11.3264C87.3935 7.11203 83.7187 4.64445 79.6913 4.64445L79.6848 4.65094Z" fill="#005CA1"/>
<path d="M89.7432 11.1639L88.2876 20.3135C94.0381 20.1836 112.125 21.7291 111.322 17.5537C110.624 13.9172 90.6896 10.9236 89.7432 11.1639Z" fill="#F5E83A"/>
<path d="M99.286 22.7162C97.4257 22.7162 95.3697 22.6838 93.0786 22.6253C91.1661 22.5734 89.5082 22.5279 88.3333 22.5604L85.644 22.6188L87.7523 9.36531L89.1883 9.00167C90.9768 8.50815 106.375 11.1316 111.185 14.1771C112.543 15.0408 113.313 16.0083 113.528 17.1382C113.731 18.2097 113.457 19.2551 112.739 20.0928C111.009 22.1253 106.858 22.7162 99.2795 22.7162H99.286ZM90.9181 18.0928C91.623 18.1058 92.3867 18.1252 93.1961 18.1447C96.9688 18.2421 105.128 18.4564 108.287 17.6122C105.089 15.9239 95.8266 14.0537 91.6426 13.5277L90.9181 18.0863V18.0928Z" fill="#005CA1"/>
<path d="M50.3446 45.9181C49.3916 46.8726 48.5039 48.4376 49.3981 49.4506C49.855 49.9701 50.6057 50.0935 51.2975 50.1584C55.5729 50.548 59.9331 49.8597 63.8951 48.2298C66.0035 47.3661 72.472 44.7817 71.284 41.7751C70.0438 38.6452 64.1954 39.1777 61.7607 39.7231C57.4723 40.6712 53.445 42.8141 50.3511 45.9246L50.3446 45.9181Z" fill="#F5E83A"/>
<path d="M53.6539 50.5415C52.8576 50.5415 52.0612 50.5091 51.2714 50.4311C50.4947 50.3662 49.6984 50.2168 49.1892 49.6324C48.2363 48.548 48.9869 46.8856 50.1488 45.7232C53.2166 42.6453 57.3157 40.4179 61.6955 39.4504C64.5479 38.814 70.2723 38.4633 71.5451 41.6712C72.8114 44.8726 66.4995 47.4635 64.1301 48.4376L64.0061 48.4895C60.7033 49.8467 57.1721 50.548 53.6604 50.548L53.6539 50.5415ZM65.5988 39.5932C64.104 39.5932 62.6746 39.801 61.8195 39.9894C57.5376 40.9374 53.5364 43.1128 50.5469 46.1129C49.8159 46.8466 48.7976 48.3337 49.607 49.2623C49.9921 49.6974 50.6579 49.8142 51.3171 49.8727C55.5142 50.2558 59.8221 49.5935 63.7842 47.9635L63.9082 47.9116C65.9317 47.0869 72.0803 44.5609 71.0164 41.8725C70.3049 40.0803 67.8768 39.5932 65.5922 39.5932H65.5988Z" fill="#005CA1"/>
<path d="M81.4147 15.346C82.3873 15.8135 83.6992 15.3785 84.1888 14.4239C84.6783 13.4693 84.2671 12.1511 83.3207 11.6446C80.8795 10.3394 78.9409 14.1512 81.4147 15.346Z" fill="#005CA1"/>
<path d="M123.502 75.9707C123.502 75.9707 175.544 109.043 197.606 119.485C202.182 98.3153 212.991 74.5031 259.961 71.0095C311.781 67.1523 475.831 69.1588 531.436 70.3991C587.035 71.6394 721.804 69.0614 785.679 70.4835C849.555 71.9056 856.259 132.004 853.491 185.187C850.658 239.533 842.369 261.065 758.324 271.812C662.569 284.066 613.986 277.306 486.235 274.338C401.165 272.364 297.963 269.202 243.186 257.377C211.163 250.468 191.445 207.538 194.271 172.005C174.781 148.518 150.721 129.433 123.502 75.9707Z" fill="#F5E83A"/>
<path d="M281.978 121.868C281.978 121.66 281.997 121.452 282.043 121.244C282.337 119.79 284.778 119.024 289.366 118.939C291.494 118.9 293.08 118.816 294.125 118.692C295.378 118.569 296.422 118.504 297.251 118.504C297.917 118.504 298.439 118.543 298.818 118.627C299.777 118.835 300.508 119.394 301.011 120.309C301.39 121.056 301.553 121.614 301.514 121.991C301.429 122.452 301.096 122.907 300.515 123.361C299.888 123.861 299.347 124.524 298.89 125.355C298.433 126.186 297.911 126.829 297.323 127.283C296.905 127.615 296.344 128.199 295.633 129.024C294.882 129.855 294.503 130.355 294.503 130.517C294.503 130.602 295.006 130.894 296.005 131.387C297.173 131.926 298.067 132.491 298.694 133.069C299.444 133.777 299.823 134.336 299.823 134.751C299.823 136.621 299.053 139.108 297.506 142.225C295.92 145.336 295.026 146.959 294.817 147.083C294.732 147.122 294.569 147.433 294.314 148.018C294.105 148.602 293.981 149.037 293.935 149.323C293.896 149.492 294.125 149.596 294.621 149.635C296.161 149.758 298.942 150.531 302.943 151.94C303.863 152.271 305.195 152.752 306.951 153.375L318.968 154.868C319.052 154.868 321.742 155.115 327.042 155.615C328.04 155.7 328.817 155.739 329.359 155.739H329.672C330.005 155.739 330.384 155.927 330.801 156.297L331.552 156.979L330.801 158.161C330.553 158.576 329.509 159.135 327.675 159.843C326.174 160.421 324.398 160.732 322.355 160.778C321.813 160.778 321.252 160.797 320.665 160.843C319.202 160.843 316.22 160.719 311.716 160.466C306.122 160.174 302.643 159.719 301.266 159.096C296.84 157.226 294.066 156.148 292.943 155.855C292.317 155.693 291.795 155.667 291.377 155.791C290.92 155.914 290.293 156.245 289.497 156.784C288.994 157.115 288.205 157.284 287.121 157.284H286.436C285.6 157.284 285.058 157.18 284.81 156.972C284.562 156.765 284.51 156.265 284.654 155.479C284.797 154.693 285.085 153.946 285.496 153.239C285.913 152.531 286.181 152.057 286.312 151.803C286.605 151.303 287.395 149.498 288.688 146.388C289.268 144.979 289.771 143.842 290.189 142.992C290.607 142.141 290.815 141.569 290.815 141.277C290.815 140.985 290.9 140.758 291.063 140.595C291.188 140.472 291.462 139.81 291.879 138.602C292.258 137.524 292.46 136.758 292.506 136.297C292.506 135.842 292.454 135.55 292.349 135.426C292.245 135.303 291.814 135.154 291.063 134.991C290.104 134.745 289.562 134.517 289.438 134.31C289.268 134.063 289.04 133.933 288.753 133.933C288.629 133.933 288.355 133.829 287.937 133.621C287.604 133.459 287.349 133.245 287.186 132.998C287.017 132.79 286.997 132.621 287.121 132.498C287.284 132.335 287.369 132.063 287.369 131.686C287.369 131.309 287.702 130.771 288.368 130.069C288.994 129.407 289.497 128.764 289.869 128.141C291.207 126.024 291.873 124.842 291.873 124.595C291.873 124.511 290.933 124.472 289.06 124.472H288.433C286.135 124.472 284.758 124.348 284.301 124.095C283.799 123.803 283.322 123.556 282.859 123.348C282.271 123.102 281.984 122.602 281.984 121.855L281.978 121.868ZM284.262 110.316C284.073 109.88 284.086 109.536 284.295 109.29C284.504 109.043 284.588 108.712 284.543 108.296C284.504 107.88 284.634 107.621 284.947 107.517C285.261 107.413 285.816 107.205 286.605 106.893C287.395 106.582 287.963 106.387 288.296 106.302C288.753 106.218 289.34 106.231 290.045 106.335C290.757 106.439 291.305 106.608 291.703 106.835C292.101 107.062 293.009 108.03 294.425 109.731C295.841 111.432 296.696 112.556 296.99 113.095C297.199 113.51 297.134 113.842 296.801 114.088C296.468 114.335 296.351 114.543 296.455 114.712C296.559 114.881 296.318 115.127 295.737 115.459C295.319 115.705 294.797 115.855 294.17 115.894C292.584 115.894 290.417 114.939 287.663 113.03C286.37 112.16 285.535 111.595 285.156 111.348C284.739 111.101 284.438 110.757 284.249 110.322L284.262 110.316ZM299.751 148.394C299.751 148.148 299.856 147.479 300.065 146.401C300.567 143.829 300.92 142.206 301.129 141.543C302.839 136.186 303.694 130.874 303.694 125.602C303.694 123.855 303.589 122.115 303.38 120.374C303.087 117.757 302.897 115.582 302.819 113.835C302.734 112.088 302.649 111.004 302.571 110.562C302.486 110.127 302.506 109.64 302.636 109.101C302.721 108.77 302.858 108.543 303.041 108.419C303.23 108.296 303.615 108.192 304.196 108.108C305.071 107.984 306.781 107.919 309.327 107.919C311.872 107.919 314.509 107.796 317.244 107.543C319.979 107.296 322.179 107.108 323.85 106.984C325.521 106.861 327.003 106.692 328.295 106.484C329.294 106.322 330.175 106.257 330.925 106.296H331.552C332.094 106.335 332.499 106.432 332.773 106.575C333.047 106.718 333.432 107.082 333.928 107.666C334.509 108.29 334.868 108.744 334.992 109.036C335.116 109.329 335.22 110.01 335.305 111.088C335.39 111.919 335.429 113.329 335.429 115.322C335.429 117.485 335.39 120.283 335.305 123.731C335.136 130.459 334.927 135.647 334.679 139.297C334.594 140.459 334.555 141.582 334.555 142.66C334.555 143.323 334.574 143.966 334.62 144.589C334.705 146.167 334.744 147.829 334.744 149.57V150.193C334.744 151.024 334.724 151.563 334.679 151.81C334.639 152.102 334.489 152.245 334.241 152.245C333.908 152.284 333.595 152.453 333.301 152.745C333.008 153.037 332.485 153.18 331.735 153.18C331.611 153.18 331.461 153.161 331.297 153.115C330.338 153.076 329.274 152.842 328.106 152.433L325.286 151.498C324.242 151.167 322.93 150.979 321.343 150.94C321.095 150.94 320.86 150.959 320.658 151.005C320.24 151.005 319.914 150.94 319.685 150.816C319.457 150.693 319.405 150.544 319.529 150.381C319.653 150.219 319.907 150.07 320.279 149.946C320.906 149.738 321.291 149.44 321.435 149.044C321.578 148.648 322.277 148.349 323.53 148.141C324.783 147.933 325.678 147.829 326.219 147.829H327.035L326.787 146.336C326.702 145.628 326.663 144.511 326.663 142.972C326.663 141.31 326.728 139.154 326.852 136.498L327.042 132.076L326.415 132.452C325.997 132.699 323.21 132.855 318.06 132.92C312.904 132.985 310.306 133.056 310.267 133.141C310.227 133.225 310.097 133.745 309.888 134.699C309.718 135.53 309.438 136.368 309.046 137.219C308.648 138.069 308.328 138.576 308.074 138.745C307.865 138.868 307.695 139.18 307.571 139.68C307.323 140.803 306.735 141.985 305.822 143.232C305.404 143.816 305.038 144.381 304.725 144.946C304.412 145.511 304.111 145.842 303.818 145.94C303.524 146.044 302.982 146.524 302.192 147.375C301.403 148.225 300.776 148.674 300.313 148.712C299.934 148.751 299.751 148.648 299.751 148.401V148.394ZM309.516 138.927C309.516 138.011 309.64 137.329 309.895 136.875C310.143 136.336 310.573 136.011 311.18 135.907C311.788 135.803 312.212 135.732 312.466 135.686C312.884 135.602 313.863 135.563 315.41 135.563H317.662C320.501 135.602 322.127 135.686 322.544 135.81C323.922 136.225 324.607 136.764 324.607 137.427C324.607 137.758 324.483 138.329 324.228 139.141C323.98 139.953 323.798 140.771 323.693 141.602C323.589 142.433 323.367 142.849 323.034 142.849C322.701 142.849 322.447 143.095 322.283 143.595C322.114 144.095 322.244 144.57 322.662 145.031L323.347 145.777L322.597 146.401C322.094 146.855 321.441 147.167 320.625 147.336C319.81 147.505 318.426 147.583 316.461 147.583C314.124 147.583 312.747 147.446 312.329 147.18C311.912 146.907 311.579 146.816 311.331 146.901C311.083 146.985 310.861 146.914 310.671 146.68C310.482 146.453 310.43 146.154 310.515 145.777C310.554 145.654 310.58 145.531 310.58 145.401C310.58 144.946 310.456 144.323 310.201 143.531C309.823 142.245 309.614 140.959 309.575 139.667C309.575 139.42 309.555 139.167 309.509 138.92L309.516 138.927ZM310.645 116.887L310.893 127.413C310.769 127.952 310.769 128.309 310.893 128.472C311.017 128.641 311.272 128.615 311.644 128.407C311.977 128.244 312.747 128.115 313.961 128.03C315.169 127.946 315.795 127.907 315.841 127.907C315.887 127.907 315.861 127.439 315.776 126.504C315.691 125.569 315.652 124.998 315.652 124.79C315.652 124.582 315.005 124.478 313.713 124.478H312.271C311.938 123.978 311.768 123.212 311.768 122.173C311.768 121.134 311.931 120.433 312.271 120.056C312.31 120.017 312.878 119.952 313.961 119.868L315.338 119.679V116.751C315.338 115.712 315.358 115.049 315.404 114.757C315.488 114.426 315.678 114.153 315.965 113.945C316.383 113.569 316.99 113.387 317.78 113.387C318.569 113.387 319.137 113.575 319.47 113.945C320.26 114.816 320.658 116.166 320.658 117.991V119.608L323.223 120.043C324.352 120.251 325.208 120.394 325.788 120.478C326.082 120.686 326.226 121.309 326.226 122.348L325.847 124.342C325.305 124.426 324.49 124.53 323.406 124.654C322.029 124.777 321.174 124.842 320.841 124.842C320.462 124.881 320.279 125.03 320.279 125.277L320.155 126.582C320.031 127.29 320.005 127.68 320.09 127.764C320.253 127.933 320.528 128.011 320.906 128.011C322.159 128.095 323.38 128.283 324.568 128.569C325.756 128.861 326.5 129.128 326.787 129.381C327.081 129.628 327.224 129.55 327.224 129.134V116.556C327.224 114.939 327.185 113.751 327.1 113.004C327.016 112.426 326.892 112.153 326.722 112.192H326.598C326.141 112.192 324.783 112.296 322.531 112.504C315.56 113.127 311.807 113.439 311.265 113.439C310.932 113.478 310.743 113.627 310.704 113.874C310.619 114.374 310.6 115.368 310.639 116.861L310.645 116.887ZM315.397 141.543C315.227 142.29 315.253 142.738 315.462 142.881C315.671 143.024 316.298 143.076 317.342 143.037L318.968 142.972V139.862L317.401 139.738C316.402 139.699 315.867 139.79 315.802 140.017C315.737 140.245 315.606 140.758 315.397 141.543Z" fill="#005CA1"/>
<path d="M346.382 155.927C346.382 155.219 346.728 154.174 347.413 152.784C348.099 151.394 348.738 150.303 349.319 149.518C349.822 148.355 352.446 145.79 357.204 141.829C361.962 137.868 364.756 135.303 365.592 134.141C365.468 134.141 365.004 134.128 364.214 134.108C363.425 134.089 362.857 134.076 362.524 134.076C362.191 134.076 361.656 134.056 360.925 134.011C360.194 133.972 359.619 133.92 359.201 133.855C358.784 133.79 358.294 133.712 357.733 133.608C357.171 133.504 356.682 133.362 356.264 133.173C355.846 132.985 355.474 132.79 355.135 132.582C354.215 131.959 353.758 131.336 353.758 130.712C353.758 130.212 353.986 129.797 354.443 129.465L355.383 128.53L365.337 128.654H367.028C368.072 128.654 368.751 128.582 369.064 128.433C369.377 128.29 369.534 127.965 369.534 127.465C369.534 127.303 369.482 126.719 369.377 125.725C369.273 124.731 369.221 123.796 369.221 122.92C369.221 121.926 369.253 120.907 369.312 119.868C369.377 118.829 369.403 118.27 369.403 118.186C369.403 117.608 369.175 117.316 368.718 117.316C368.548 117.316 368.052 117.368 367.217 117.472C366.381 117.575 365.592 117.647 364.841 117.686C361.088 117.855 358.855 117.933 358.144 117.933C356.055 117.933 354.515 117.757 353.51 117.4C352.504 117.049 351.486 116.355 350.442 115.316C349.939 115.023 349.691 114.757 349.691 114.504C349.691 114.212 350.024 113.757 350.69 113.134L351.754 112.199H355.194C355.983 111.991 357.302 111.887 359.136 111.887C359.639 111.887 360.409 111.9 361.453 111.92C362.498 111.939 363.268 111.952 363.77 111.952C367.733 111.952 369.717 111.432 369.717 110.394C369.717 110.186 369.632 109.939 369.469 109.647V107.9H369.782V107.712C369.821 106.549 370.781 105.965 372.661 105.965C373.659 105.965 374.684 106.153 375.728 106.523C376.773 106.9 377.504 107.354 377.922 107.893H378.3L378.365 108.452L378.431 108.517H378.365L378.489 109.387V109.887C378.489 110.595 378.6 111.062 378.835 111.29C379.064 111.517 379.469 111.634 380.056 111.634C380.304 111.634 381.068 111.582 382.341 111.478C383.613 111.374 384.788 111.322 385.878 111.322H389.383C391.844 111.322 393.43 111.445 394.142 111.699C395.976 112.484 396.896 113.42 396.896 114.504C396.896 115.004 396.687 115.459 396.27 115.874C395.937 116.29 395.454 116.536 394.827 116.621C394.201 116.705 392.51 116.809 389.755 116.933C388.084 117.017 386.688 117.075 385.565 117.121C385.356 117.121 385.056 117.134 384.658 117.153C384.26 117.173 383.979 117.186 383.816 117.186C383.189 117.186 382.478 117.166 381.688 117.121C380.898 117.082 380.415 117.056 380.245 117.056C379.579 117.056 379.162 117.173 378.992 117.4C378.822 117.627 378.744 118.14 378.744 118.926V122.537L378.62 127.641H381.25C382.334 127.556 383.085 127.517 383.502 127.517C385.591 127.517 387.321 127.79 388.698 128.329C390.075 128.868 390.761 129.511 390.761 130.258C390.761 130.842 390.278 131.4 389.318 131.939C389.024 132.355 388.104 132.615 386.564 132.719C385.017 132.823 383.568 132.926 382.216 133.03C380.859 133.134 380.18 133.413 380.18 133.868C380.18 134.245 380.493 134.654 381.12 135.115C382.373 136.108 383.287 136.881 383.874 137.42C384.455 137.959 385.134 138.654 385.911 139.505C386.681 140.355 387.406 141.115 388.071 141.777C392.079 145.764 395.31 148.628 397.771 150.368C399.527 151.615 400.401 152.57 400.401 153.232C400.401 153.687 400.003 154.07 399.213 154.381C398.424 154.693 397.562 154.849 396.648 154.849C395.062 154.849 393.385 154.453 391.609 153.667C389.834 152.881 388.424 152.024 387.386 151.115C387.177 151.115 386.655 150.7 385.82 149.868C384.984 149.037 383.881 147.979 382.504 146.693C381.126 145.407 379.873 144.349 378.751 143.518C378.626 143.764 378.522 144.609 378.437 146.037C378.352 147.472 378.268 148.829 378.189 150.115C378.104 151.401 377.961 152.044 377.752 152.044C377.713 152.044 377.667 152.024 377.628 151.979C377.504 153.057 377.093 154.161 376.407 155.278C375.722 156.401 374.939 156.959 374.057 156.959C373.555 157.044 373.222 157.083 373.059 157.083C371.975 157.083 371.12 156.7 370.494 155.933C369.867 155.167 369.449 154.115 369.24 152.791C369.031 151.466 368.907 150.135 368.862 148.803C368.823 147.472 368.796 146.011 368.796 144.414C368.796 142.816 368.731 141.621 368.607 140.836C367.563 141.628 365.768 143.102 363.222 145.258C360.677 147.414 358.882 148.888 357.837 149.68C357.25 149.849 356.369 150.511 355.174 151.674C353.986 152.836 352.72 153.927 351.388 154.946C350.05 155.966 348.803 156.472 347.635 156.472C347.217 156.472 346.819 156.407 346.447 156.284C346.408 156.2 346.382 156.076 346.382 155.907V155.927Z" fill="#005CA1"/>
<path d="M406.341 141.732C407.177 139.576 408.658 137.407 410.786 135.225C412.914 133.043 415.427 130.751 418.325 128.342C421.223 125.933 423.299 124.069 424.552 122.738C429.226 117.634 431.563 114.874 431.563 114.459L431.497 114.394C423.488 114.433 417.875 114.459 414.664 114.459H412.601C411.641 114.459 410.558 114.082 409.344 113.335C408.136 112.588 407.529 111.861 407.529 111.153C407.529 110.407 408.384 109.933 410.094 109.718C412.888 109.387 419.128 109.075 428.808 108.783C438.488 108.491 444.852 107.913 447.9 107.043C451.321 106.796 453.285 106.666 453.781 106.666C455.159 106.666 456.151 106.881 456.751 107.322C457.358 107.757 457.887 108.64 458.35 109.972C458.181 111.095 456.817 111.861 454.251 112.277C451.686 112.692 448.912 112.991 445.929 113.179C442.946 113.368 441.099 113.712 440.387 114.205C440.427 115.822 438.782 118.628 435.44 122.608C434.774 123.4 434.441 124.017 434.441 124.478C434.441 125.102 434.963 125.537 436.008 125.784C437.052 126.03 438.344 126.232 439.891 126.374C441.432 126.517 442.541 126.758 443.207 127.089C446.543 128.706 452.535 133.485 461.17 141.407C462.169 141.992 462.672 142.589 462.672 143.212C462.672 143.836 462.215 144.375 461.294 144.829C460.374 145.284 459.31 145.511 458.102 145.511C456.64 145.511 455.472 145.161 454.597 144.453C453.514 144.076 451.412 142.576 448.305 139.94C445.198 137.303 443.39 135.966 442.894 135.92C442.391 135.712 441.758 135.329 440.988 134.771C440.218 134.212 439.545 133.693 438.984 133.212C438.423 132.738 438.096 132.498 438.012 132.498V132.563C438.429 140.868 438.638 145.18 438.638 145.518C438.638 150.252 438.096 154.031 437.013 156.849C436.425 158.219 435.466 158.908 434.134 158.908C432.509 158.908 431.321 157.934 430.57 155.979C429.983 154.317 429.513 150.343 429.161 144.057C428.808 137.771 428.234 133.524 427.437 131.323C427.313 131.407 426.236 132.186 424.213 133.66C422.189 135.134 420.747 136.173 419.892 136.771C419.037 137.375 417.797 138.154 416.165 139.109C414.54 140.063 413.117 140.79 411.909 141.29C411.282 141.829 410.134 142.102 408.469 142.102C407.549 142.102 406.844 141.979 406.341 141.725V141.732Z" fill="#005CA1"/>
<path d="M468.494 134.134L469.369 133.576C469.532 133.492 469.682 133.368 469.806 133.199C469.93 133.037 470.034 132.888 470.119 132.764C470.204 132.641 470.283 132.576 470.367 132.576C470.491 132.576 470.642 132.784 470.805 133.199C471.183 132.992 471.777 132.823 472.587 132.699C473.403 132.576 474.14 132.492 474.806 132.453C475.472 132.414 476.34 132.362 477.404 132.297C478.468 132.232 479.166 132.186 479.499 132.141L481.248 131.953L481.686 129.712V129.277C481.686 128.569 481.829 127.381 482.123 125.699C482.417 124.017 482.56 122.849 482.56 122.18C482.56 120.81 482.077 120.128 481.118 120.128C480.87 120.128 480.556 120.193 480.178 120.316L478.363 120.251L477.737 121.686C477.697 121.81 477.352 122.329 476.705 123.245C476.059 124.16 475.446 125.206 474.858 126.388C474.271 127.569 474.003 128.576 474.042 129.407C474.042 129.576 473.69 129.823 472.978 130.154C472.267 130.485 471.686 130.654 471.229 130.654C471.02 130.654 470.877 130.615 470.792 130.53L470.106 130.219V127.978C469.728 127.478 469.545 126.797 469.545 125.926C469.545 125.68 469.754 124.102 470.172 121.193C470.42 119.199 471.046 116.335 472.051 112.602C472.554 110.855 473.181 109.634 473.931 108.926C474.682 108.218 475.661 107.868 476.875 107.868C477.711 107.868 478.833 108.037 480.256 108.368C481.177 108.952 481.633 109.699 481.633 110.608C481.633 111.024 481.529 111.576 481.32 112.257C481.111 112.939 481.007 113.407 481.007 113.66C481.007 114.491 481.947 114.907 483.82 114.907C484.114 114.907 484.845 114.868 486.013 114.783C487.345 114.907 488.787 115.011 490.334 115.095C491.875 115.18 492.971 115.251 493.617 115.316C494.264 115.381 494.962 115.504 495.713 115.693C496.463 115.881 497.025 116.173 497.403 116.563C497.782 116.959 498.154 117.53 498.532 118.277C498.657 118.608 498.722 118.861 498.722 119.024C498.722 119.686 498.239 120.128 497.279 120.329C496.32 120.537 495.047 120.641 493.461 120.641C491.875 120.641 490.915 120.66 490.582 120.706C490.413 121.29 490.249 122.348 490.08 123.881C489.91 125.42 489.786 126.836 489.701 128.147C489.616 129.453 489.558 130.147 489.512 130.232L489.264 131.725L492.39 131.849C495.478 131.972 497.025 132.264 497.025 132.719L496.959 132.784V132.849H497.025C497.064 132.81 497.11 132.784 497.149 132.784C497.442 132.784 497.677 132.959 497.867 133.31C498.056 133.66 498.147 134.07 498.147 134.524C498.147 135.147 497.978 135.647 497.645 136.018C497.684 136.057 497.71 136.122 497.71 136.206C497.71 136.583 496.77 136.842 494.89 136.985C493.01 137.135 492.07 137.414 492.07 137.823C492.07 137.992 492.26 138.258 492.632 138.635C492.926 139.096 494.153 140.94 496.326 144.174C498.493 147.414 499.955 149.693 500.706 151.024C500.869 151.109 500.954 151.193 500.954 151.271C500.954 151.44 500.68 151.687 500.138 152.018C499.596 152.349 499.322 152.576 499.322 152.706C499.322 152.745 499.355 152.791 499.414 152.83C499.479 152.869 499.505 152.914 499.505 152.953C499.505 152.992 499.466 153.018 499.381 153.018C499.048 153.018 498.245 152.797 496.972 152.362C495.7 151.927 494.962 151.667 494.753 151.583C494.166 151.167 493.461 150.537 492.625 149.687C491.79 148.836 491.144 148.141 490.687 147.602C490.23 147.063 489.453 146.115 488.37 144.771C487.286 143.42 486.679 142.667 486.555 142.498C486.555 142.537 486.157 143.641 485.367 145.797C484.577 147.959 483.898 149.648 483.33 150.875C482.769 152.102 482.299 152.771 481.921 152.901C481.712 153.109 481.418 153.505 481.046 154.083C480.667 154.667 480.295 155.076 479.917 155.33C479.538 155.576 479.016 155.726 478.35 155.765C478.056 155.934 477.808 156.012 477.6 156.012C477.391 156.012 477.143 155.875 476.849 155.609C476.555 155.336 476.307 155.187 476.098 155.141C476.013 155.226 475.909 155.265 475.785 155.265C475.576 155.265 475.472 155.037 475.472 154.583C475.472 153.628 475.837 151.771 476.568 149.011C477.299 146.252 477.998 143.739 478.664 141.479C479.329 139.219 479.623 138.109 479.538 138.148C477.789 137.985 476.51 137.849 475.72 137.745C474.923 137.641 473.872 137.362 472.561 136.907C471.249 136.453 470.191 135.829 469.401 135.037L468.461 134.167L468.494 134.134ZM499.381 138.901C499.068 135.81 498.911 132.537 498.911 129.095C498.911 125.654 499.055 123.53 499.348 122.745C503.519 121.459 508.526 120.816 514.368 120.816C516.58 120.816 518.558 120.985 520.314 121.316C522.024 121.693 522.879 124.264 522.879 129.037C522.879 129.206 522.794 131.031 522.631 134.518C522.507 134.686 522.266 136.258 521.913 139.251C521.561 142.239 521.273 143.797 521.071 143.92C520.862 144.128 520.758 144.42 520.758 144.791C520.758 145.122 520.895 145.661 521.162 146.407C521.437 147.154 521.567 147.674 521.567 147.966C521.567 148.628 521.025 149.024 519.942 149.148C520.027 149.479 519.283 149.739 517.723 149.927C516.156 150.115 514.309 150.206 512.181 150.206C507.547 150.206 504.981 149.895 504.485 149.271C503.069 148.317 502.286 147.745 502.136 147.557C501.992 147.369 501.476 146.135 500.602 143.849C500.099 143.641 499.694 141.992 499.381 138.901ZM507.364 143.226L507.429 144.472L511.058 144.349C511.476 144.265 512.018 144.226 512.684 144.226C512.932 144.226 513.225 144.239 513.558 144.258C513.891 144.278 514.1 144.291 514.185 144.291C514.563 144.291 514.746 144.148 514.746 143.855C514.746 143.648 514.681 143.297 514.557 142.797C514.518 142.635 514.485 142.102 514.466 141.206C514.446 140.316 514.394 139.161 514.309 137.751C514.224 136.342 514.12 135.031 513.996 133.829C513.911 132.667 513.872 131.881 513.872 131.466C513.872 130.758 513.904 129.972 513.963 129.102C514.028 128.232 514.054 127.693 514.054 127.485C514.054 126.907 513.937 126.498 513.708 126.271C513.48 126.043 513.03 125.926 512.364 125.926C511.776 125.926 510.693 126.03 509.107 126.238L508.043 126.362L507.977 130.284C507.977 131.738 507.873 133.608 507.664 135.888C507.455 138.174 507.351 140.187 507.351 141.927V143.232L507.364 143.226Z" fill="#005CA1"/>
<path d="M532.337 119.504C532.337 119.05 532.618 118.582 533.179 118.102C533.74 117.627 534.276 117.368 534.778 117.322C534.739 117.283 535.333 117.238 536.56 117.199C537.787 117.16 539.301 117.134 541.096 117.134C546.69 117.134 549.484 117.322 549.484 117.692C549.445 117.731 549.38 117.777 549.295 117.816C550.045 118.147 550.424 118.666 550.424 119.374C550.424 120.082 549.902 121.147 548.857 122.582C547.813 124.017 547.271 124.835 547.232 125.043C546.814 125.582 546.357 126.173 545.855 126.816C545.352 127.459 544.811 128.167 544.23 128.933C543.642 129.699 543.205 130.29 542.918 130.706C543.923 131.206 544.745 131.654 545.391 132.043C546.038 132.439 546.664 133.05 547.271 133.881C547.878 134.712 548.179 135.647 548.179 136.686C548.179 137.394 548.009 138.245 547.676 139.238C547.134 141.94 546.338 144.199 545.3 146.024C545.091 146.355 544.987 146.563 544.987 146.648C544.987 146.816 545.385 146.894 546.175 146.894C549.223 146.933 554.112 147.829 560.854 149.57C567.591 151.31 572.754 152.187 576.344 152.187C577.884 152.187 579.411 152.063 580.913 151.81C581.33 151.726 581.957 151.687 582.793 151.687C584.17 151.687 585.306 151.907 586.206 152.342C587.101 152.778 587.551 153.31 587.551 153.933C587.551 154.68 586.859 155.343 585.482 155.927C582.558 157.174 578.994 157.797 574.777 157.797C572.982 157.797 571.102 157.693 569.144 157.485C567.186 157.278 565.084 156.959 562.852 156.518C560.62 156.083 558.805 155.7 557.408 155.369C556.011 155.037 554.04 154.55 551.494 153.907C548.949 153.265 547.323 152.862 546.612 152.693L543.485 152.258L541.86 153.005C540.653 153.544 539.458 153.817 538.29 153.817C537.415 153.817 536.619 153.674 535.914 153.381C534.83 153.219 534.289 152.739 534.289 151.946C534.289 151.239 534.824 150.102 535.888 148.524C536.952 146.946 537.487 145.972 537.487 145.596C538.616 143.394 539.341 141.173 539.68 138.933C540.059 138.31 540.241 137.647 540.241 136.94C540.241 136.193 539.961 135.537 539.399 134.978C538.838 134.42 538.198 133.985 537.493 133.673C536.782 133.362 536.149 132.998 535.587 132.582C535.026 132.167 534.745 131.732 534.745 131.277C534.745 131.03 534.83 130.758 534.994 130.465C535.242 129.926 536.09 128.764 537.526 126.978C538.969 125.193 539.83 123.887 540.124 123.056L540.248 122.244L537.872 122.18H537.245C536.534 122.18 535.973 122.089 535.555 121.9C535.137 121.712 534.732 121.478 534.334 121.186C533.936 120.894 533.531 120.666 533.114 120.504C532.611 120.296 532.363 119.965 532.363 119.511L532.337 119.504ZM532.964 106.491C532.964 106.114 533.238 105.932 533.779 105.932C534.824 105.017 536.051 104.562 537.474 104.562C539.099 104.562 540.731 105.114 542.356 106.212C543.982 107.309 545.045 108.419 545.548 109.543C546.09 110.082 546.364 110.933 546.364 112.095C546.364 112.965 546.012 113.4 545.3 113.4H545.111C544.778 113.485 544.504 113.523 544.295 113.523C543.375 113.523 542.363 113.225 541.26 112.621C540.157 112.017 538.975 111.27 537.722 110.381C536.469 109.491 535.574 108.894 535.033 108.608C533.655 107.9 532.97 107.199 532.97 106.491H532.964ZM549.36 114.023C549.36 113.777 549.569 113.588 549.987 113.465C550.404 113.342 550.633 113.192 550.672 113.03C550.587 112.946 550.548 112.887 550.548 112.842C550.548 112.595 551.233 112.355 552.611 112.127C553.988 111.9 555.437 111.692 556.958 111.504C558.479 111.316 559.327 111.16 559.49 111.036C559.49 110.997 558.877 110.329 557.643 109.043C556.409 107.757 555.796 106.945 555.796 106.614C555.796 106.53 555.815 106.471 555.861 106.426C555.822 105.926 556.05 105.647 556.547 105.588C557.049 105.523 557.362 105.393 557.486 105.186C558.028 104.978 558.59 104.874 559.177 104.874C561.135 104.874 562.558 105.432 563.433 106.556C563.975 106.725 564.621 107.426 565.371 108.673C566.122 109.92 566.703 110.543 567.121 110.543C567.205 110.543 567.369 110.458 567.623 110.296C568.204 108.471 569.249 106.725 570.75 105.069C572.251 103.406 573.857 102.575 575.567 102.575C576.735 102.575 577.838 103.01 578.883 103.88C579.131 104.004 579.261 104.192 579.261 104.439C579.261 105.147 578.321 106.348 576.448 108.049C574.568 109.751 573.628 110.621 573.628 110.666C575.756 110.705 577.865 111.043 579.947 111.66C582.035 112.283 583.073 113.173 583.073 114.335C583.073 114.627 583.008 114.92 582.884 115.205C582.923 115.66 582.434 116.017 581.415 116.264C580.391 116.511 579.15 116.64 577.688 116.64C575.932 116.64 574.536 116.517 573.498 116.264C573.374 116.225 573.204 116.199 572.995 116.199C572.408 116.199 571.709 116.374 570.9 116.725C570.084 117.076 569.399 117.439 568.837 117.816C568.276 118.192 567.532 118.699 566.618 119.342C565.698 119.985 565.136 120.368 564.927 120.491C564.679 120.66 564.549 120.764 564.549 120.803C564.549 120.887 564.634 120.926 564.797 120.926C564.836 120.926 565.234 120.887 565.985 120.803C569.405 120.426 572.721 120.225 575.939 120.179L579.633 120.115L580.639 121.05C581.35 121.426 581.807 121.744 582.016 122.017C582.225 122.29 582.329 122.731 582.329 123.355C582.329 123.524 582.297 124.27 582.238 125.595C582.173 126.926 582.146 128.251 582.146 129.582C582.146 133.485 582.127 135.823 582.081 136.589C582.042 137.355 581.892 138.03 581.644 138.615C581.396 139.238 581.161 139.862 580.952 140.485C580.658 140.777 580.515 141.07 580.515 141.355C580.515 141.771 581.037 142.303 582.081 142.946C583.125 143.589 583.648 144.096 583.648 144.472C583.648 144.719 583.504 144.992 583.21 145.284C583.171 145.531 583.119 145.738 583.054 145.907C582.988 146.076 582.91 146.232 582.806 146.375C582.701 146.518 582.616 146.635 582.558 146.719C582.492 146.803 582.362 146.888 582.153 146.966C581.944 147.05 581.768 147.102 581.618 147.122C581.474 147.141 581.22 147.187 580.867 147.245C580.515 147.31 580.201 147.349 579.927 147.368C579.653 147.388 579.248 147.433 578.707 147.492C578.165 147.557 577.662 147.609 577.205 147.648C576.912 147.648 575.965 147.732 574.359 147.894C572.754 148.063 571.063 148.206 569.288 148.329C567.512 148.453 565.874 148.518 564.373 148.518C560.868 148.518 558.466 148.167 557.173 147.459C556.716 147.213 556.357 146.816 556.109 146.277C555.861 145.738 555.607 144.992 555.359 144.037C555.111 143.083 554.876 142.355 554.673 141.855C554.673 141.193 554.556 139.16 554.327 135.751C554.099 132.349 553.981 129.771 553.981 128.03C553.981 124.251 554.438 122.283 555.359 122.115C557.278 119.705 558.759 117.985 559.804 116.946C558.302 117.114 557.049 117.192 556.05 117.192C552.088 117.192 549.876 116.238 549.412 114.329C549.412 114.29 549.399 114.238 549.38 114.173C549.36 114.108 549.347 114.056 549.347 114.017L549.36 114.023ZM561.187 143.349C561.187 143.68 561.351 143.849 561.69 143.849C561.853 143.849 562.401 143.738 563.315 143.505C564.236 143.277 564.986 143.16 565.567 143.16C565.946 143.16 566.233 143.18 566.442 143.225C571.363 142.933 574.013 142.667 574.392 142.414C574.307 141.706 574.151 141.219 573.922 140.953C573.694 140.68 573.348 140.55 572.891 140.55C572.682 140.55 572.088 140.621 571.109 140.771C570.13 140.914 569.242 140.992 568.446 140.992C567.819 140.992 567.316 140.972 566.944 140.927H561.997L561.618 141.927C561.324 142.55 561.181 143.024 561.181 143.362L561.187 143.349ZM562.565 136.375L565.756 136.44C568.263 136.524 570.051 136.647 571.141 136.816C571.722 137.108 572.225 137.251 572.643 137.251C573.517 137.251 573.955 136.732 573.955 135.693C573.955 134.654 573.661 133.952 573.08 133.452C572.538 133.621 570.815 133.777 567.917 133.92C565.019 134.063 563.315 134.18 562.813 134.264C562.689 134.388 562.623 134.764 562.623 135.388L562.558 136.381L562.565 136.375ZM562.754 127.972L562.819 129.277L568.204 129.212C571.292 129.173 572.963 129.069 573.211 128.9C573.419 128.777 573.524 128.524 573.524 128.154C573.524 128.03 573.511 127.822 573.491 127.53C573.472 127.238 573.459 126.991 573.459 126.784C573.459 125.998 573.165 125.602 572.584 125.602C572.414 125.602 572.081 125.641 571.585 125.725C571.5 125.809 570.228 125.952 567.767 126.16C567.558 126.16 567.245 126.18 566.827 126.225C564.869 126.348 563.7 126.465 563.322 126.569C562.943 126.673 562.76 126.972 562.76 127.472V127.972H562.754Z" fill="#005CA1"/>
<path d="M596.363 126.725C596.363 126.517 596.552 126.167 596.924 125.667C597.303 125.251 597.936 124.361 598.83 122.991C599.724 121.621 600.175 120.874 600.175 120.751C600.175 120.089 600.645 118.959 601.585 117.355C602.525 115.757 602.994 114.543 602.994 113.712C602.994 113.257 602.074 112.9 600.24 112.653C598.406 112.407 597.485 112.095 597.485 111.718C597.485 111.471 597.936 111.147 598.83 110.751C599.724 110.355 600.508 110.121 601.18 110.036C602.681 109.829 603.432 109.432 603.432 108.855C603.432 108.731 603.419 108.543 603.399 108.296C603.38 108.049 603.367 107.842 603.367 107.673C603.367 107.173 603.491 106.699 603.745 106.238C603.908 105.991 604.359 105.77 605.09 105.582C605.821 105.393 606.539 105.302 607.25 105.302C607.916 105.302 608.399 105.406 608.693 105.614C609.652 106.322 610.214 107.4 610.383 108.855C610.468 109.517 610.579 109.965 610.729 110.192C610.873 110.419 611.16 110.536 611.571 110.536H612.289C612.289 110.536 612.394 110.53 612.537 110.504C612.681 110.484 612.759 110.465 612.759 110.439C612.759 110.419 612.811 110.387 612.916 110.348C613.02 110.309 613.06 110.244 613.04 110.16C613.02 110.075 613.04 109.997 613.105 109.913C613.17 109.829 613.197 109.718 613.197 109.569V108.478C613.236 107.316 613.419 106.536 613.732 106.14C614.045 105.744 614.744 105.549 615.827 105.549C615.912 105.549 616.075 105.562 616.33 105.582C616.578 105.601 616.767 105.614 616.891 105.614C618.477 105.699 619.332 106.841 619.456 109.036L619.521 110.406H621.212C621.839 110.406 622.713 110.471 623.843 110.595L624.841 110.718L624.717 108.725C624.678 107.647 624.88 106.848 625.344 106.328C625.801 105.809 626.388 105.549 627.093 105.549C628.053 105.549 628.96 105.9 629.815 106.608C630.67 107.316 631.101 108.147 631.101 109.101C631.101 109.971 631.264 110.406 631.603 110.406C631.688 110.406 631.884 110.368 632.197 110.283C632.511 110.199 632.791 110.16 633.039 110.16C633.457 110.16 633.666 109.725 633.666 108.855C633.666 108.647 633.653 108.355 633.633 107.984C633.614 107.608 633.601 107.361 633.601 107.238C633.601 106.861 633.666 106.679 633.79 106.679C634.038 106.679 634.371 106.543 634.789 106.277C635.206 106.004 635.579 105.874 635.918 105.874C635.957 105.874 636.035 105.887 636.14 105.906C636.244 105.926 636.316 105.939 636.362 105.939C637.987 106.231 639.031 106.666 639.488 107.244C639.867 107.699 640.05 108.303 640.05 109.049C640.089 109.712 640.683 110.407 641.832 111.134C642.98 111.861 643.555 112.471 643.555 112.971C643.555 113.303 643.47 113.543 643.307 113.686C643.137 113.829 642.798 113.946 642.275 114.03C641.753 114.114 641.433 114.173 641.303 114.218L640.239 114.595L640.363 116.465C640.487 118.127 640.866 119.42 641.492 120.355C642.119 121.29 643.202 121.757 644.749 121.757C645.252 121.757 645.513 121.361 645.533 120.576C645.552 119.79 645.879 119.394 646.505 119.394C646.799 119.394 647.099 119.498 647.412 119.705C647.726 119.913 647.967 120.102 648.13 120.264L648.378 120.576C648.418 120.537 648.502 120.511 648.626 120.511C649.083 120.511 649.586 120.874 650.128 121.602C650.67 122.329 650.944 123.063 650.944 123.809C650.944 124.803 650.382 125.511 649.253 125.926C648.124 126.342 646.877 126.55 645.5 126.55C643.372 126.55 641.316 126.115 639.338 125.244C637.354 124.374 636.218 123.374 635.924 122.257C635.8 121.803 635.468 120.952 634.926 119.705C634.384 118.459 634.09 117.588 634.051 117.088C633.966 115.926 633.894 115.244 633.836 115.036C633.77 114.829 633.555 114.725 633.176 114.725H631.362V118.524C631.362 123.173 630.298 125.498 628.17 125.498C627.961 125.498 627.609 125.27 627.106 124.816C626.604 124.361 626.355 124.03 626.355 123.822C626.355 123.615 625.292 123.511 623.164 123.511C620.494 123.511 619.156 123.634 619.156 123.887C619.156 124.803 618.51 125.257 617.217 125.257C616.343 125.257 615.697 125.03 615.279 124.576C615.07 124.329 614.828 123.426 614.561 121.868C614.287 120.309 614.071 118.829 613.902 117.413L613.588 115.231C613.588 114.985 613.503 114.835 613.34 114.796C613.17 114.757 612.694 114.731 611.898 114.731H610.272L609.959 116.036C609.372 118.238 608.229 120.361 606.519 122.42C604.809 124.472 602.975 125.874 601.01 126.621C599.842 127.076 598.673 127.303 597.505 127.303C596.754 127.303 596.376 127.115 596.376 126.745L596.363 126.725ZM599.307 132.641L599.992 131.271C600.41 130.439 600.743 129.913 600.991 129.68C601.239 129.452 601.807 129.128 602.681 128.712C603.889 128.134 605.344 127.758 607.028 127.589C608.719 127.426 611.774 127.296 616.199 127.212C618.575 127.173 620.677 127.089 622.491 126.965C624.306 126.842 625.442 126.777 625.905 126.777C626.949 126.777 629.201 126.985 632.667 127.4C635.422 127.777 637.883 127.959 640.056 127.959C641.225 127.959 642.08 127.894 642.621 127.771C643.039 127.686 643.268 127.647 643.307 127.647C643.601 127.647 644.057 127.894 644.684 128.394L645.813 129.264L645.435 130.446C645.265 130.907 644.632 131.745 643.529 132.965C642.426 134.193 641.492 134.803 640.742 134.803C640.494 134.803 640.259 134.699 640.056 134.491C639.932 134.368 639.73 134.264 639.462 134.18C639.188 134.095 639.058 133.933 639.058 133.68C639.058 133.426 639.11 133.05 639.214 132.53C639.319 132.011 639.371 131.712 639.371 131.628C639.371 131.336 639.279 131.154 639.09 131.069C638.901 130.985 638.496 130.907 637.87 130.823C633.157 130.368 629.463 130.134 626.793 130.134C626.336 130.258 626.081 130.381 626.042 130.511C626.042 130.68 626.107 131.095 626.231 131.758C626.355 132.42 626.421 132.92 626.421 133.251V135.18L627.361 134.991C629.697 134.699 631.76 134.556 633.555 134.556C634.475 134.556 635.037 134.595 635.246 134.68C635.872 134.849 636.61 135.024 637.465 135.212C638.32 135.401 638.914 135.543 639.247 135.647C639.58 135.751 639.965 135.927 640.402 136.18C640.839 136.433 641.133 136.771 641.277 137.206C641.42 137.641 641.558 138.232 641.682 138.979C641.806 139.725 641.89 140.68 641.93 141.842V142.524C641.93 143.855 641.858 144.901 641.708 145.667C641.564 146.433 641.486 147.128 641.486 147.751C641.486 147.998 641.499 148.459 641.518 149.122C641.538 149.784 641.551 150.2 641.551 150.368C641.551 151.076 641.46 151.518 641.27 151.706C641.081 151.894 640.631 152.089 639.926 152.297C639.593 152.381 639.299 152.42 639.051 152.42C638.176 152.42 636.832 152.122 635.011 151.518C633.196 150.914 632.119 150.615 631.786 150.615C631.453 150.615 630.774 150.368 629.75 149.868C628.725 149.368 628.216 148.979 628.216 148.687C628.216 148.479 628.549 148.375 629.214 148.375C629.593 148.375 630.331 148.264 631.434 148.031C632.537 147.803 633.157 147.648 633.281 147.563C633.444 147.401 633.562 146.829 633.627 145.849C633.692 144.868 633.731 143.745 633.751 142.453C633.77 141.167 633.784 140.479 633.784 140.401L633.973 138.349H632.785C632.073 138.349 630.957 138.453 629.436 138.66C627.916 138.868 627.087 139.011 626.963 139.095C626.715 139.303 626.512 140.342 626.369 142.206C626.225 144.076 626.121 146.037 626.055 148.089C625.99 150.141 625.951 152.135 625.931 154.07C625.912 155.998 625.899 157.005 625.899 157.089C625.899 157.258 625.5 157.524 624.711 157.901C624.123 158.193 623.503 158.336 622.831 158.336C621.871 158.336 620.951 158.024 620.076 157.401C619.117 156.739 618.555 155.94 618.386 155.005C618.216 154.07 618.138 151.362 618.138 146.881C618.138 141.569 618.072 138.829 617.948 138.66C617.74 138.414 616.297 138.284 613.627 138.284H613.001L612.002 138.407L612.067 139.712C612.107 140.959 611.911 142.712 611.473 144.972C611.036 147.238 610.631 148.368 610.253 148.368C610.083 148.368 609.711 148.907 609.124 149.985C608.536 151.063 608.04 151.648 607.622 151.732C607.374 151.771 607.1 151.94 606.806 152.232C606.513 152.524 606.265 152.667 606.056 152.667C605.762 152.667 605.429 152.505 605.057 152.167C604.058 151.336 603.556 147.79 603.556 141.518C603.556 138.823 603.641 137.264 603.804 136.849C604.098 136.102 604.907 135.725 606.245 135.725C606.578 135.725 607.061 135.745 607.688 135.79C608.314 135.829 608.791 135.855 609.13 135.855C609.424 135.855 609.815 135.816 610.318 135.732C611.238 135.524 612.779 135.336 614.952 135.173L618.02 135.05L618.144 132.868V131.874C618.144 131.167 618.059 130.725 617.896 130.537C617.726 130.348 617.374 130.258 616.832 130.258C616.663 130.258 616.186 130.277 615.39 130.323C614.593 130.361 613.869 130.387 613.197 130.387H612.759L607.44 130.323L606.754 130.946C606.584 131.115 606.389 131.381 606.16 131.758C605.932 132.134 605.677 132.4 605.41 132.569C605.135 132.738 604.711 132.881 604.124 133.004C603.876 133.043 603.445 133.193 602.838 133.439C602.231 133.686 601.761 133.816 601.428 133.816C600.925 133.816 600.449 133.608 599.985 133.193L599.3 132.634L599.307 132.641ZM619.208 119.816C619.208 120.024 619.228 120.127 619.273 120.127C619.606 120.374 621.192 120.504 624.032 120.504H624.469C625.135 120.504 625.468 120.361 625.468 120.069C625.468 119.491 625.383 118.511 625.22 117.14C625.05 115.77 624.926 115.023 624.841 114.9C624.802 114.777 623.901 114.712 622.152 114.712H619.652V116.394C619.652 116.64 619.58 117.212 619.43 118.108C619.286 119.004 619.208 119.569 619.208 119.822V119.816Z" fill="#005CA1"/>
<path d="M659.39 149.018C659.39 147.563 660.18 145.115 661.766 141.674C663.352 138.225 664.142 136.485 664.142 136.446C664.181 136.323 664.383 135.784 664.736 134.829C665.088 133.875 665.421 132.907 665.735 131.933C666.048 130.959 666.205 130.245 666.205 129.784C666.205 129.576 666.185 129.453 666.139 129.407C666.224 128.66 666.772 128.069 667.797 127.634C668.822 127.199 669.977 126.978 671.27 126.978C673.939 126.978 675.486 127.686 675.904 129.095C676.361 129.803 676.589 130.323 676.589 130.654C676.589 130.946 676.361 131.647 675.904 132.771C674.984 134.849 674.338 136.29 673.966 137.096C673.587 137.907 672.921 139.251 671.962 141.141C671.002 143.031 670.167 144.472 669.462 145.466C668.75 146.459 667.836 147.576 666.707 148.797C665.578 150.024 664.436 151.005 663.267 151.752C663.182 151.752 663.045 151.765 662.863 151.784C662.673 151.804 662.536 151.817 662.458 151.817C660.415 151.817 659.39 150.882 659.39 149.011V149.018ZM678.796 110.101C678.796 109.855 679.07 109.394 679.612 108.731C680.153 108.024 681.341 107.673 683.175 107.673C685.303 107.673 686.785 107.965 687.62 108.543C689.207 108.874 690.395 110.108 691.191 112.251C691.981 114.387 692.379 116.725 692.379 119.258C692.379 120.043 692.398 122.03 692.444 125.206C692.483 128.381 692.509 130.881 692.509 132.706C692.509 137.394 692.385 140.219 692.131 141.174C692.007 143.622 691.315 146.427 690.062 149.583C688.808 152.739 688.077 155.122 687.869 156.745C687.829 157.245 687.731 157.596 687.588 157.804C687.444 158.012 687.235 158.154 686.961 158.239C686.687 158.323 686.511 158.401 686.426 158.486C685.715 158.693 685.173 158.797 684.801 158.797C684.135 158.797 683.547 158.622 683.051 158.271C682.549 157.921 682.144 157.388 681.831 156.68C681.517 155.973 681.289 155.33 681.145 154.752C681.002 154.174 680.845 153.427 680.675 152.511C680.636 152.804 680.571 152.947 680.486 152.947C680.238 152.947 680.068 149.388 679.984 142.271C679.899 135.154 679.814 128.095 679.736 121.102C679.651 114.108 679.488 110.712 679.233 110.92C678.939 110.627 678.796 110.361 678.796 110.108V110.101ZM694.069 131.147C693.821 130.816 693.841 130.569 694.135 130.401C694.383 130.238 694.585 130.024 694.729 129.777C694.872 129.53 695.049 129.355 695.257 129.251C695.466 129.147 695.904 129.095 696.569 129.095C696.654 129.095 696.811 129.108 697.039 129.128C697.268 129.147 697.464 129.16 697.633 129.16C698.423 129.199 699.122 129.264 699.729 129.349C700.336 129.433 700.858 129.517 701.295 129.595C701.732 129.68 702.163 129.842 702.581 130.095C702.999 130.342 703.299 130.524 703.488 130.628C703.678 130.732 703.926 130.979 704.239 131.375C704.552 131.771 704.761 132.037 704.866 132.186C704.97 132.329 705.198 132.686 705.551 133.245C705.903 133.803 706.145 134.193 706.269 134.394C707.104 136.888 708.253 139.167 709.709 141.245C711.171 143.323 712.189 145.187 712.777 146.849C712.861 147.096 712.901 147.284 712.901 147.407C712.901 147.739 712.763 147.998 712.496 148.187C712.222 148.375 711.778 148.563 711.151 148.745C710.525 148.933 710.048 149.109 709.709 149.278C708.162 149.07 706.589 148.239 704.983 146.784C703.377 145.329 702.085 143.868 701.099 142.394C700.12 140.92 698.854 138.92 697.314 136.388C695.767 133.855 694.683 132.115 694.056 131.16L694.069 131.147Z" fill="#005CA1"/>
<path d="M719.728 136.063C719.728 135.771 719.813 135.485 719.976 135.193C720.394 134.362 722.084 133.427 725.048 132.388C725.759 132.141 726.216 131.966 726.425 131.862C726.634 131.758 726.823 131.615 726.986 131.427C727.15 131.238 727.234 131.005 727.234 130.712C727.234 130.297 727.117 129.433 726.888 128.128C726.66 126.823 726.458 126.167 726.294 126.167C726.086 126.167 725.981 126.004 725.981 125.667C725.981 125.089 726.693 123.03 728.109 119.504C728.357 119.004 728.788 118.303 729.395 117.387C730.002 116.472 730.55 115.686 731.053 115.024L731.738 113.965C731.699 113.926 730.276 113.861 727.482 113.777C725.061 113.738 723.488 113.641 722.757 113.498C722.026 113.355 721.516 113.05 721.223 112.595C721.138 112.433 720.975 112.231 720.72 112.004C720.472 111.777 720.342 111.602 720.342 111.472C720.342 111.264 720.59 110.998 721.092 110.66C721.719 110.244 722.574 109.952 723.657 109.79C724.741 109.628 726.869 109.498 730.041 109.413C734.127 109.329 736.386 109.225 736.803 109.102C737.182 108.978 737.639 108.913 738.181 108.913C739.349 108.913 740.478 109.186 741.562 109.725C742.645 110.264 743.187 110.868 743.187 111.53C743.187 112.069 742.945 112.634 742.469 113.212C741.986 113.796 741.02 114.725 739.558 116.011C738.344 117.05 737.182 118.128 736.053 119.251C734.923 120.374 734.081 121.225 733.52 121.803C732.959 122.388 732.548 122.719 732.3 122.797C732.006 122.92 731.967 123.069 732.175 123.232C732.299 123.316 732.574 123.478 732.991 123.732C734.284 124.478 734.93 125.745 734.93 127.53C734.93 128.531 735.093 129.024 735.433 129.024C735.557 129.024 735.752 128.972 736.027 128.868C736.301 128.764 736.516 128.712 736.686 128.712C737.312 128.712 737.626 129.043 737.626 129.706C737.626 130.245 737.312 130.829 736.686 131.446L735.687 132.446V136.868C735.687 138.946 735.739 140.752 735.844 142.284C735.948 143.823 736.092 145.583 736.281 147.576C736.47 149.57 736.601 151.128 736.686 152.245C736.849 153.908 736.999 154.778 737.123 154.862C737.247 154.947 737.312 155.051 737.312 155.174C737.312 155.421 737.117 155.726 736.718 156.077C736.32 156.427 735.896 156.771 735.433 157.103L734.682 157.603C734.303 158.018 733.827 158.226 733.239 158.226C732.45 158.226 731.477 157.895 730.328 157.226C729.179 156.564 728.129 155.856 727.169 155.109C726.21 154.362 725.668 153.966 725.544 153.927C724.956 153.68 724.669 153.473 724.669 153.304C724.669 153.135 724.891 152.94 725.328 152.713C725.766 152.486 726.007 152.31 726.046 152.18C726.21 152.018 726.549 151.934 727.045 151.934C727.757 151.934 728.233 151.862 728.488 151.719C728.736 151.576 728.866 151.213 728.866 150.628C728.866 150.505 728.827 150.024 728.742 149.193C728.657 148.323 728.514 147.245 728.305 145.953C728.096 144.667 727.887 142.07 727.678 138.167C727.554 136.635 727.45 135.842 727.365 135.803C727.156 135.803 726.68 135.992 725.922 136.362C724.754 136.946 723.442 137.232 721.98 137.232C720.518 137.232 719.728 136.836 719.728 136.05V136.063ZM742.195 128.16C742.195 127.998 742.26 127.914 742.384 127.914C742.547 127.914 743.435 127.03 745.047 125.264C746.653 123.498 747.456 122.576 747.456 122.491C747.456 122.329 747.704 121.939 748.206 121.342C748.709 120.738 749.205 120.173 749.708 119.628L750.524 118.816C750.484 118.732 749.584 118.556 747.834 118.284C746.079 118.011 745.099 117.881 744.891 117.881C744.767 117.881 744.564 117.738 744.297 117.446C744.022 117.154 743.787 116.868 743.579 116.576L743.2 116.141C743.2 115.563 743.605 115.043 744.421 114.582C745.237 114.128 746.274 113.783 747.547 113.556C748.82 113.329 749.936 113.16 750.896 113.056C751.855 112.952 752.795 112.881 753.715 112.835C753.924 112.835 754.029 112.589 754.029 112.089C754.029 111.426 753.859 110.472 753.526 109.225C753.193 107.978 752.939 107.251 752.776 107.043C752.652 106.92 752.586 106.796 752.586 106.666C752.586 106.212 753.141 105.764 754.244 105.329C755.347 104.894 756.339 104.673 757.214 104.673C758.754 104.673 760.001 105.049 760.941 105.796C761.881 106.543 762.351 107.621 762.351 109.037C762.351 109.413 762.299 109.874 762.194 110.439C762.09 110.998 762.038 111.361 762.038 111.53C762.038 112.03 762.286 112.296 762.788 112.342C763.082 112.381 763.624 112.478 764.414 112.621C765.203 112.764 766.189 112.835 767.357 112.835C767.899 112.835 768.474 112.829 769.081 112.803C769.688 112.783 770.027 112.77 770.112 112.77H770.549C770.634 112.77 770.706 112.783 770.771 112.803C770.836 112.822 770.863 112.855 770.863 112.894V113.017C770.863 113.056 770.869 113.108 770.895 113.173C770.915 113.238 770.96 113.322 771.019 113.42C771.084 113.524 771.176 113.615 771.3 113.699C771.802 114.154 772.051 114.634 772.051 115.134C772.051 115.719 771.809 116.232 771.332 116.693C770.849 117.147 770.275 117.42 769.609 117.504C769.4 117.543 767.618 117.608 764.257 117.693C760.895 117.777 759.009 117.816 758.591 117.816C758.422 117.816 758.343 118.004 758.343 118.374C758.343 118.543 758.35 118.771 758.376 119.063C758.395 119.355 758.409 119.563 758.409 119.686C758.409 119.894 758.389 120.017 758.343 120.063C756.131 122.595 755.027 123.901 755.027 123.985C755.067 124.024 755.093 124.069 755.093 124.108C755.093 124.277 754.466 124.991 753.213 126.258C751.96 127.524 751.333 128.323 751.333 128.654C751.333 128.823 751.477 128.901 751.77 128.901C752.103 128.901 752.56 129.115 753.148 129.557C753.728 129.992 754.192 130.212 754.525 130.212C754.819 130.212 755.067 130.128 755.275 129.966C755.315 129.927 755.909 129.186 757.057 127.758C758.206 126.323 758.905 125.608 759.153 125.608C759.277 125.608 759.531 125.453 759.903 125.141C760.282 124.829 760.687 124.485 761.124 124.115C761.561 123.738 761.888 123.491 762.096 123.368C762.886 122.914 763.872 122.686 765.04 122.686C766.209 122.686 767.129 122.978 767.671 123.556C768.252 124.219 768.545 124.719 768.545 125.05C768.545 125.504 767.958 126.336 766.796 127.537C761.705 132.81 758.552 136.154 757.345 137.563C757.012 137.979 756.476 138.518 755.745 139.18C755.014 139.842 754.381 140.427 753.839 140.92C753.298 141.42 753.024 141.713 753.024 141.791C753.024 142.745 751.888 143.843 749.61 145.089C747.338 146.336 745.511 146.959 744.133 146.959C743.546 146.959 743.259 146.836 743.259 146.583C743.259 146.005 744.395 144.083 746.673 140.823C748.944 137.563 750.086 135.855 750.086 135.687C750.086 135.602 749.74 135.336 749.055 134.875C748.37 134.42 747.469 133.829 746.366 133.102C745.263 132.375 744.434 131.823 743.892 131.453C743.722 131.368 743.402 130.894 742.919 130.018C742.436 129.147 742.201 128.524 742.201 128.147L742.195 128.16ZM744.949 155.68C744.949 154.479 746.046 152.661 748.232 150.232C750.419 147.804 752.658 145.563 754.929 143.505C757.201 141.453 758.363 140.342 758.402 140.174C759.068 139.427 759.727 138.596 760.373 137.687C761.019 136.771 761.522 136.07 761.874 135.57C762.227 135.07 762.488 134.803 762.658 134.758C763.076 134.596 763.48 134.238 763.878 133.699C764.277 133.16 764.733 132.68 765.256 132.264C765.778 131.849 766.457 131.641 767.292 131.641C767.501 131.641 767.938 131.68 768.604 131.764C770.484 132.096 771.424 132.992 771.424 134.44C771.424 134.816 771.372 135.199 771.267 135.589C771.163 135.985 770.993 136.407 770.765 136.868C770.536 137.323 770.327 137.732 770.138 138.083C769.949 138.433 769.681 138.862 769.322 139.362C768.97 139.862 768.709 140.213 768.539 140.42C768.369 140.628 768.102 140.959 767.723 141.414L767.22 142.096C766.718 142.804 766.47 143.381 766.47 143.836C766.47 144.375 766.763 144.648 767.344 144.648C767.762 144.648 768.532 145.927 769.662 148.479C770.791 151.031 771.391 152.349 771.476 152.434C771.724 152.68 772.005 153.213 772.318 154.025C772.631 154.836 772.977 155.362 773.349 155.615C773.513 155.784 773.539 155.908 773.415 155.992C773.291 156.077 773.134 156.206 772.945 156.395C772.755 156.583 772.684 156.758 772.729 156.927V156.992L772.795 157.116C772.795 157.654 772.109 157.927 770.732 157.927C769.688 157.927 768.676 157.771 767.697 157.46C766.718 157.148 766.228 156.804 766.228 156.434C763.683 154.44 761.803 152.739 760.595 151.33L759.218 149.713L758.402 150.46C756.065 152.576 753.918 154.089 751.953 155.005C751.914 155.005 751.516 155.219 750.765 155.661C750.014 156.096 749.27 156.46 748.546 156.752C747.815 157.044 747.182 157.187 746.64 157.187C746.183 157.187 745.785 157.051 745.452 156.784C745.119 156.512 744.949 156.154 744.949 155.693V155.68Z" fill="#005CA1"/>
<path d="M374.86 203.311C374.736 202.811 377.217 202.357 382.308 201.941C385.976 201.649 389.599 201.389 393.169 201.162C396.74 200.935 398.75 200.798 399.207 200.759L400.584 200.571L400.774 196.96C400.774 196.421 400.793 195.779 400.839 195.032C400.878 194.285 400.911 193.655 400.93 193.136C400.95 192.616 400.963 192.253 400.963 192.045L401.028 190.739L394.083 190.616C391.662 190.577 389.932 190.512 388.887 190.428C387.843 190.343 387.177 190.272 386.884 190.214C386.59 190.149 386.237 189.973 385.82 189.681C385.402 189.389 384.899 189.123 384.318 188.869C384.149 188.493 384.044 187.811 384.005 186.817C384.423 186.441 385.33 186.187 386.727 186.038C388.124 185.895 390.891 185.778 395.023 185.694L401.596 185.571V184.389C401.009 183.473 400.721 182.519 400.721 181.525C400.721 180.609 401.015 179.863 401.596 179.285C402.177 178.707 402.954 178.415 403.913 178.415C405.245 178.415 406.772 179.018 408.482 180.22C409.024 180.596 409.39 181.135 409.579 181.837C409.768 182.545 409.86 183.174 409.86 183.733C409.86 184.291 410.121 184.791 410.643 185.226C411.165 185.661 412.007 185.882 413.175 185.882C413.593 185.882 414.344 185.83 415.427 185.726C416.511 185.623 417.261 185.571 417.679 185.571C420.851 185.571 422.438 186.363 422.438 187.934C422.438 188.597 422.163 189.285 421.622 189.986C421.661 190.194 421.413 190.33 420.871 190.389C420.329 190.454 419.533 190.48 418.495 190.48H415.238C411.4 190.48 409.481 190.895 409.481 191.727C409.481 191.934 409.566 192.142 409.729 192.35C409.187 194.843 408.809 197.272 408.6 199.636C409.52 199.759 411.23 199.824 413.73 199.824H418.926C425.31 199.824 428.795 200.155 429.376 200.818C431.38 201.233 432.379 201.837 432.379 202.623C432.379 203.246 431.765 203.857 430.531 204.461C429.298 205.064 428.103 205.363 426.935 205.363C426.223 205.363 425.642 205.24 425.186 204.987C424.226 204.779 422.81 204.675 420.93 204.675C419.383 204.675 417.692 204.74 415.858 204.863C414.024 204.987 411.916 205.175 409.54 205.422C407.164 205.668 405.845 205.818 405.597 205.857L403.535 206.045L402.973 207.48C401.596 210.259 399.364 213.688 396.276 217.753C393.189 221.825 391.185 224.584 390.265 226.032C403.365 224.039 412.111 222.961 416.491 222.792C416.367 222.169 415.741 220.98 414.611 219.214C413.482 217.448 412.862 216.298 412.732 215.76C412.483 215.636 412.242 215.396 412.014 215.045C411.785 214.695 411.733 214.415 411.857 214.208C411.478 213.961 411.296 213.733 411.296 213.526C411.296 213.195 411.589 212.915 412.17 212.688C412.751 212.461 413.423 212.344 414.174 212.344C414.964 212.344 415.695 212.513 416.367 212.844C417.033 212.844 417.868 213.123 418.867 213.682C419.866 214.24 420.577 214.584 420.995 214.708C421.87 214.954 422.777 215.558 423.717 216.513C424.657 217.467 425.512 218.474 426.282 219.532C427.052 220.591 427.627 221.247 428.005 221.493C428.005 221.825 428.684 222.98 430.042 224.948C431.399 226.922 432.098 228.175 432.137 228.714C432.431 229.169 432.574 229.669 432.574 230.208C432.574 231.078 432.222 231.877 431.51 232.604C430.799 233.331 429.99 233.695 429.069 233.695C428.149 233.695 426.569 232.877 424.187 231.234C421.811 229.597 420.16 228.234 419.239 227.156C417.196 227.487 414.128 228.104 410.036 228.994C405.943 229.89 402.255 230.591 398.959 231.11C395.663 231.63 392.615 231.89 389.821 231.89C388.065 231.89 386.355 231.766 384.69 231.513C384.775 231.429 384.73 231.39 384.566 231.39C384.482 231.39 384.358 231.409 384.188 231.455C383.94 231.331 383.287 231.078 382.249 230.708C381.205 230.331 380.467 229.994 380.03 229.682C379.593 229.37 379.371 228.987 379.371 228.533C379.371 227.87 379.893 227.097 380.937 226.227C387.406 217.721 392.034 211.156 394.834 206.552C394.749 206.552 394.586 206.539 394.331 206.519C394.083 206.5 393.868 206.487 393.705 206.487C392.869 206.487 391.12 206.59 388.45 206.798C386.903 206.883 384.841 206.987 382.256 207.11C377.961 207.357 375.494 206.09 374.867 203.311H374.86Z" fill="#005CA1"/>
<path d="M439.076 195.22C439.076 194.597 439.265 194.122 439.637 193.785C439.552 193.246 440.766 192.765 443.266 192.35C445.773 191.934 448.357 191.726 451.027 191.726C454.199 191.726 455.844 192.019 455.975 192.596H456.164C456.667 192.596 457 193.655 457.163 195.772C457.326 197.889 457.639 198.947 458.103 198.947C458.312 198.947 458.579 198.785 458.919 198.447C459.127 198.239 459.63 198.103 460.42 198.045C461.21 197.98 461.608 197.7 461.608 197.207C461.608 196.96 461.523 196.603 461.36 196.148L460.544 188.051V187.057H458.729C456.353 186.765 455.159 186.207 455.159 185.376C455.159 184.752 455.929 184.155 457.476 183.57H458.103C458.481 183.57 459.637 183.551 461.575 183.505C463.514 183.466 465.087 183.44 466.301 183.44C471.477 183.44 474.251 183.837 474.623 184.622C475.002 185.33 475.237 186.22 475.341 187.298C475.446 188.376 475.517 189.687 475.557 191.22C475.596 192.759 475.681 194.019 475.805 195.019C475.72 195.681 475.681 196.123 475.681 196.324C475.681 197.61 475.955 198.252 476.496 198.252C476.79 198.252 477.032 197.921 477.214 197.259C477.404 196.597 477.495 195.934 477.495 195.265C477.495 194.519 477.391 193.369 477.182 191.811C476.973 190.252 476.869 189.122 476.869 188.415C476.869 187.044 477.162 185.966 477.743 185.174C478.324 184.388 479.388 183.927 480.935 183.804C482.73 183.642 484.421 183.557 486.007 183.557C490.68 183.557 493.017 184.512 493.017 186.421C493.017 187.005 492.743 187.648 492.201 188.35C492.031 188.681 491.483 190.044 490.543 192.428C489.603 194.817 488.84 196.506 488.259 197.506C487.802 198.252 487.573 198.772 487.573 199.064C487.573 199.233 487.658 199.395 487.821 199.564C487.984 199.733 488.187 199.889 488.415 200.032C488.644 200.175 488.872 200.512 489.101 201.025C489.329 201.545 489.486 202.201 489.571 202.986C490.073 204.188 490.445 205.714 490.7 207.564C490.948 209.409 491.157 211.48 491.326 213.759C491.49 216.045 491.64 217.662 491.764 218.616C491.927 218.909 492.012 219.279 492.012 219.74C492.012 221.071 491.366 221.733 490.073 221.733C489.825 221.733 489.616 221.714 489.446 221.669C489.277 221.753 489.114 221.792 488.944 221.792C488.317 221.792 487.266 221.461 485.785 220.798C484.303 220.136 483.461 219.779 483.252 219.74L483.128 219.675C483.043 219.675 483.004 220.13 483.004 221.045C483.004 221.545 483.024 222.506 483.069 223.941C483.109 225.376 483.135 226.402 483.135 227.026C483.135 228.48 483.069 229.208 482.945 229.208C482.906 229.208 482.841 229.123 482.756 228.961C482.547 229.169 482.253 229.669 481.881 230.454C481.503 231.24 481.196 231.74 480.942 231.948C480.439 232.325 480.041 232.506 479.754 232.506C479.251 232.506 478.918 232.084 478.755 231.227C478.585 230.376 478.494 229.383 478.474 228.24C478.455 227.097 478.357 226.363 478.194 226.032C477.985 225.617 477.88 222.233 477.88 215.883C477.88 215.305 477.893 214.714 477.913 214.11C477.932 213.506 477.945 213.188 477.945 213.142C477.945 212.98 477.906 212.896 477.821 212.896C477.697 212.896 477.469 213.038 477.136 213.331C476.803 213.623 476.614 213.766 476.575 213.766C476.242 213.935 476.02 216.487 475.916 221.422C475.811 226.363 475.465 229.208 474.884 229.954C474.675 230.37 474.153 230.578 473.318 230.578C472.652 230.578 471.96 230.454 471.249 230.201C470.537 229.954 470.145 229.727 470.061 229.519C470.061 229.48 470.067 229.454 470.093 229.454C470.113 229.454 470.126 229.435 470.126 229.389C470.126 229.143 469.336 229.013 467.75 229.013H465.87C465.119 229.013 464.545 228.98 464.147 228.922C463.749 228.857 463.592 228.747 463.677 228.578C463.135 228.039 463.089 227.766 463.553 227.766C464.095 227.019 465.511 226.643 467.809 226.643H469.871V223.467C469.871 222.889 469.937 221.701 470.061 219.915C470.185 218.129 470.25 216.824 470.25 215.993C470.25 215.331 470.23 214.85 470.185 214.558C469.434 214.474 468.768 214.435 468.181 214.435C466.764 214.435 466.053 214.85 466.053 215.681C466.053 215.85 466.072 215.993 466.118 216.116C465.452 219.104 464.062 221.857 461.954 224.37C459.845 226.883 457.391 228.74 454.598 229.941C454.761 228.987 455.714 227.143 457.443 224.402C459.173 221.662 460.107 219.402 460.231 217.616C460.733 216.493 460.981 215.707 460.981 215.253C460.981 215.09 460.962 214.935 460.916 214.785C460.877 214.642 460.779 214.487 460.635 214.318C460.492 214.155 460.374 214.038 460.289 213.974C460.204 213.909 460.015 213.766 459.728 213.538C459.434 213.311 459.225 213.155 459.101 213.071C458.892 212.571 459.036 212.155 459.539 211.824C460.498 211.162 461.04 210.662 461.164 210.331C461.249 210.038 461.327 208.714 461.412 206.344V202.233H460.661C460.328 202.071 459.982 201.856 459.63 201.61C459.278 201.363 458.932 201.103 458.599 200.83C458.266 200.558 458.077 200.408 458.037 200.363C457.789 200.201 457.639 200.259 457.6 200.551V201.363C457.561 205.35 457.182 209.584 456.471 214.064C456.347 214.85 456.197 215.785 456.033 216.863C455.864 217.941 455.785 218.629 455.785 218.922C455.785 219.214 455.668 219.617 455.44 220.136C455.211 220.655 455.054 220.928 454.97 220.948C454.885 220.967 454.591 221.071 454.095 221.259C453.592 221.448 453.155 221.506 452.783 221.448C452.404 221.383 451.726 221.363 450.746 221.383C449.767 221.402 448.84 221.435 447.959 221.474C447.333 221.513 446.478 221.539 445.394 221.539C443.018 221.539 441.458 221.298 440.734 220.824C440.003 220.35 439.637 219.448 439.637 218.116C439.637 217.785 439.657 217.149 439.702 216.22C439.741 215.285 439.768 214.506 439.768 213.883C439.768 212.844 439.748 212.012 439.702 211.396C439.454 208.655 439.317 205.844 439.298 202.96C439.278 200.077 439.245 198.259 439.206 197.512C439.121 196.019 439.082 195.252 439.082 195.207L439.076 195.22ZM444.65 216.948C444.65 217.116 444.67 217.227 444.715 217.292C444.754 217.357 444.82 217.383 444.905 217.383H445.59C448.677 217.383 450.433 217.279 450.844 217.071C450.884 217.071 450.91 216.24 450.91 214.577C450.91 212.753 450.877 209.649 450.818 205.272C450.753 200.895 450.727 198.558 450.727 198.265C450.727 197.187 450.603 196.395 450.348 195.902C450.1 195.402 449.552 195.155 448.723 195.155C448.181 195.155 447.594 195.239 446.967 195.402H446.778C446.112 195.402 445.779 195.902 445.779 196.895C445.779 197.48 445.831 198.506 445.936 199.98C446.04 201.454 446.092 202.772 446.092 203.934C446.092 207.921 445.903 210.201 445.531 210.785C445.531 211.74 445.388 212.954 445.094 214.428C444.8 215.902 444.656 216.74 444.656 216.948H444.65ZM466.555 186.876C466.555 186.96 466.679 187.122 466.934 187.376C467.352 187.83 467.75 191.09 468.122 197.149C468.161 197.441 468.233 197.616 468.337 197.674C468.442 197.739 468.768 197.765 469.31 197.765H470.439V196.642C470.4 196.265 470.374 195.499 470.374 194.337V192.285C470.374 189.421 470.224 187.596 469.937 186.804C469.852 186.804 469.486 186.752 468.84 186.648C468.194 186.544 467.724 186.492 467.43 186.492C466.843 186.492 466.555 186.616 466.555 186.869V186.876ZM467.554 209.973H468.742C469.578 210.058 470.074 210.012 470.243 209.85V209.538C470.243 209.207 470.282 208.512 470.367 207.454C470.452 206.395 470.491 205.597 470.491 205.058C470.491 203.11 470.008 202.129 469.049 202.129C468.801 202.129 468.487 202.194 468.109 202.317C468.109 204.058 467.92 206.136 467.548 208.545V209.98L467.554 209.973ZM476.007 209.727L477.006 210.662C477.586 211.246 477.965 211.493 478.135 211.409C478.135 211.162 478.154 210.493 478.2 209.415C478.239 208.337 478.265 207.467 478.265 206.798C478.265 203.311 477.808 201.571 476.888 201.571C476.679 201.571 476.51 201.61 476.385 201.694C476.137 201.733 476.007 202.402 476.007 203.688V209.727ZM482.267 187.622C482.267 187.661 482.286 187.687 482.332 187.687C482.332 188.187 482.469 189.804 482.737 192.545C483.011 195.285 483.167 197.025 483.206 197.772C485.21 191.752 486.398 188.434 486.777 187.811C486.901 187.772 486.966 187.707 486.966 187.622C486.966 187.46 486.3 187.376 484.962 187.376C483.167 187.376 482.273 187.46 482.273 187.622H482.267ZM483.017 201.636C483.017 201.882 483.082 202.317 483.206 202.941L483.272 203.753C483.272 204.292 483.239 205.818 483.18 208.331C483.115 210.844 483.089 212.701 483.089 213.902C483.089 216.019 483.193 217.077 483.402 217.077L483.468 217.013H483.657C483.866 217.013 484.127 216.928 484.44 216.766C484.753 216.603 485.034 216.519 485.282 216.519H486.346V214.649C486.307 211.207 485.576 207.486 484.153 203.506C483.65 202.097 483.298 201.389 483.089 201.389C483.05 201.389 483.024 201.473 483.024 201.636H483.017Z" fill="#005CA1"/>
<path d="M499.035 196.649C499.035 195.986 499.746 195.428 501.163 194.967C502.579 194.512 504.041 194.285 505.543 194.285C505.627 194.285 505.765 194.298 505.947 194.318C506.137 194.337 506.274 194.35 506.352 194.35H508.982L508.421 192.733C507.71 190.701 507.357 188.499 507.357 186.136C507.357 184.558 507.631 183.707 508.173 183.584C509.009 182.752 510.072 182.337 511.365 182.337C512.533 182.337 513.532 182.687 514.367 183.395C515.575 184.311 516.012 185.181 515.679 186.012C515.262 187.051 515.053 187.798 515.053 188.252C515.053 188.337 515.014 188.564 514.929 188.934C514.844 189.311 514.792 189.558 514.772 189.681C514.753 189.804 514.687 190.045 514.583 190.395C514.478 190.746 514.394 190.999 514.335 191.142C514.27 191.291 514.178 191.493 514.054 191.766C513.93 192.038 513.806 192.246 513.676 192.389C513.551 192.532 513.395 192.688 513.206 192.856C513.016 193.025 512.82 193.168 512.612 193.292C512.279 193.499 512.109 193.642 512.109 193.727C512.109 193.973 513.029 194.103 514.863 194.103H518.055C519.309 194.103 520.255 194.142 520.901 194.227C521.547 194.311 521.848 194.473 521.808 194.727C523.14 195.103 523.812 195.746 523.812 196.655C523.812 196.902 523.747 197.175 523.623 197.467C523.453 198.09 523.329 198.486 523.244 198.649C522.996 199.11 522.846 199.415 522.807 199.584C522.683 200.246 521.365 201.85 518.865 204.376C516.358 206.909 515.112 208.675 515.112 209.669C515.112 209.792 515.151 209.98 515.236 210.227C515.275 210.188 515.614 209.948 516.234 209.513C516.861 209.078 517.337 208.753 517.677 208.545C518.01 208.337 518.48 208.058 519.087 207.707C519.694 207.357 520.275 207.104 520.842 206.961C521.404 206.818 521.939 206.74 522.435 206.74C523.101 206.74 523.793 206.935 524.504 207.331C525.216 207.727 525.568 208.279 525.568 208.98C525.568 209.435 525.288 209.863 524.726 210.259C524.165 210.656 523.447 211.091 522.566 211.565C521.691 212.045 521.019 212.552 520.562 213.091L519.876 213.402L522.318 215.454C522.651 215.747 523.049 216.078 523.506 216.448C524.008 216.902 524.348 217.227 524.537 217.415C524.726 217.604 524.955 217.863 525.222 218.195C525.496 218.526 525.679 218.838 525.784 219.13C525.888 219.422 525.94 219.753 525.94 220.123C525.94 220.708 525.836 221.266 525.627 221.805C524.752 222.467 523.643 222.799 522.311 222.799C521.182 222.799 520.327 222.403 519.746 221.617C516.828 219.169 515.242 217.941 514.987 217.941C514.733 217.941 514.609 219.247 514.609 221.864C514.609 224.481 514.491 226.773 514.263 228.747C514.035 230.721 513.499 231.701 512.664 231.701C511.952 231.948 511.352 232.078 510.849 232.078C509.975 232.078 509.25 231.799 508.689 231.24C508.127 230.682 507.697 229.87 507.403 228.812C507.109 227.753 506.9 226.422 506.776 224.825C506.652 223.227 506.535 221.682 506.43 220.188C506.326 218.695 506.208 217.597 506.084 216.889C505.04 218.383 503.141 219.13 500.386 219.13H499.883C500.595 217.221 501.711 215.169 503.232 212.967C504.753 210.766 506.567 208.357 508.676 205.746C510.784 203.129 512.318 201.097 513.277 199.642H509.27C504.015 199.642 501.137 199.168 500.634 198.207C499.551 197.668 499.009 197.149 499.009 196.649H499.035ZM522.194 229.714C522.194 228.591 523.101 227.818 524.915 227.377C526.73 226.942 529.086 226.662 531.991 226.539C534.889 226.416 536.841 226.227 537.839 225.981C537.631 225.403 537.526 224.26 537.526 222.558C537.526 221.396 537.35 220.5 536.997 219.883C536.645 219.26 535.901 218.948 534.778 218.948H534.276C534.106 218.948 533.649 218.844 532.898 218.636C532.52 218.513 532.187 218.344 531.9 218.136C531.606 217.928 531.397 217.76 531.273 217.636C531.149 217.513 530.94 217.253 530.646 216.857C530.353 216.461 530.105 216.143 529.896 215.889C529.811 215.805 529.772 215.727 529.772 215.643C529.772 215.227 530.314 214.792 531.397 214.337C532.481 213.883 533.629 213.61 534.837 213.526L536.651 213.402L536.586 210.415C536.71 210.084 536.775 209.753 536.775 209.422C536.775 208.428 536.632 207.74 536.338 207.37C536.044 206.993 535.568 206.811 534.896 206.811C534.393 206.811 533.205 207 531.332 207.37C530.372 207.785 529.622 207.993 529.08 207.993C527.996 207.993 527.265 207.039 526.887 205.129C525.633 198.818 525.007 194.064 525.007 190.869C525.007 189.123 525.17 187.59 525.509 186.259C526.345 185.967 527.115 185.473 527.827 184.765C528.538 184.058 529.413 183.486 530.457 183.051C531.501 182.616 533.107 182.395 535.274 182.395C535.777 182.395 536.534 182.408 537.559 182.428C538.584 182.447 539.302 182.46 539.719 182.46C541.429 182.46 543.361 182.395 545.509 182.272C547.656 182.148 548.981 182.083 549.484 182.083C550.985 182.083 552.115 182.343 552.865 182.863C553.616 183.382 554.308 184.454 554.934 186.071C554.934 187.025 555.019 188.616 555.182 190.83C555.346 193.051 555.43 194.805 555.43 196.09C555.43 202.61 553.949 205.863 550.985 205.863C550.568 205.863 550.196 205.824 549.856 205.74C549.732 205.701 549.608 205.655 549.478 205.616C549.229 205.616 548.518 205.74 547.35 205.993C546.181 206.24 545.326 206.37 544.784 206.37C544.7 206.37 544.608 206.363 544.504 206.337C544.399 206.318 544.328 206.305 544.282 206.305C544.112 206.428 544.034 207.091 544.034 208.298C544.034 208.467 544.099 209.318 544.223 210.85L544.412 213.156L547.043 213.279H547.669C548.962 213.279 549.987 213.5 550.737 213.935C551.488 214.37 551.866 214.922 551.866 215.584C551.866 216.247 551.514 216.85 550.803 217.389C550.215 217.844 549.34 218.175 548.172 218.383C547.004 218.591 546.044 218.883 545.294 219.253C544.373 219.63 544.001 220.273 544.164 221.182L544.791 224.669C544.791 224.877 544.797 225.045 544.824 225.169C544.843 225.292 544.863 225.409 544.889 225.513C544.908 225.617 544.928 225.701 544.954 225.76C544.974 225.825 545.019 225.883 545.078 225.948C545.143 226.013 545.202 226.052 545.267 226.071C545.333 226.091 545.411 226.11 545.515 226.136C545.62 226.156 545.731 226.169 545.861 226.169C545.992 226.169 546.442 226.149 547.239 226.104C548.028 226.065 548.779 226.039 549.491 226.039C551.658 226.039 553.244 226.123 554.249 226.286C555.248 226.455 555.94 226.721 556.318 227.097C556.736 227.513 556.925 228.091 556.879 228.838C556.84 229.585 556.129 230.377 554.752 231.201C554.667 231.701 553.812 232.033 552.186 232.195C549.81 232.403 548.015 232.487 546.801 232.442L536.534 232.318C536.116 232.318 534.654 232.442 532.154 232.695C529.857 232.903 528.525 233.007 528.146 233.007C527.187 233.007 526.6 232.922 526.397 232.76C526.019 232.513 525.438 232.156 524.641 231.701C523.179 230.831 522.389 230.331 522.265 230.208C522.226 230.169 522.2 230 522.2 229.708L522.194 229.714ZM532.833 201.448C532.833 201.74 533.042 201.883 533.46 201.883C533.877 201.883 534.23 201.863 534.524 201.818L535.966 201.753V198.454C535.966 197.707 535.881 197.188 535.718 196.896C535.594 196.688 535.033 196.499 534.028 196.337L532.84 196.149V198.019C532.879 198.266 532.905 198.603 532.905 199.012C532.905 200.006 532.892 200.642 532.872 200.909C532.853 201.181 532.84 201.357 532.84 201.441L532.833 201.448ZM532.898 190.798C532.898 191.506 533.127 191.856 533.584 191.856C533.708 191.856 533.897 191.817 534.145 191.733L535.588 191.61L535.653 189.558C535.692 189.395 535.718 189.162 535.718 188.869C535.718 188.538 535.633 188.311 535.47 188.188C535.3 188.064 535.039 187.98 534.687 187.941C534.334 187.902 534.047 187.817 533.845 187.694H533.779C533.61 187.694 533.427 188.09 533.218 188.876C533.009 189.668 532.905 190.311 532.905 190.804L532.898 190.798ZM542.911 189.616L543.035 191.98C543.91 191.98 545.307 192.019 547.226 192.103L547.036 190.363C546.997 189.447 546.919 188.765 546.821 188.311C546.717 187.856 546.436 187.629 545.979 187.629C544.935 187.629 544.164 187.668 543.662 187.752C543.414 187.791 543.244 187.837 543.159 187.876C543.074 187.915 543.016 187.993 542.97 188.097C542.931 188.201 542.905 188.395 542.905 188.688V189.623L542.911 189.616ZM543.035 197.707C543.074 197.954 543.198 198.162 543.414 198.331L543.603 201.383L545.483 201.448C546.273 201.487 546.88 201.532 547.297 201.571C547.963 201.61 548.427 201.636 548.675 201.636C548.884 201.636 548.988 201.616 548.988 201.571C548.988 200.909 548.844 199.909 548.551 198.584C548.342 197.59 548.133 197.09 547.924 197.09H547.859C547.65 197.09 547.147 197.025 546.357 196.902C545.568 196.779 544.961 196.714 544.543 196.714C543.544 196.714 543.042 197.045 543.042 197.714L543.035 197.707Z" fill="#005CA1"/>
<path d="M564.19 200.947C564.19 196.882 564.569 193.973 565.319 192.233C565.776 191.571 566.697 191.239 568.074 191.239C568.531 191.239 569.262 191.278 570.267 191.363C571.272 191.447 571.997 191.486 572.46 191.486C572.839 191.486 573.276 191.447 573.772 191.363C574.732 191.402 575.691 191.454 576.651 191.519C577.61 191.584 578.374 191.61 578.935 191.61C579.497 191.61 580.071 191.629 580.658 191.675C581.239 191.714 581.67 191.746 581.944 191.765C582.218 191.785 582.499 191.85 582.786 191.954C583.08 192.058 583.263 192.162 583.348 192.265C583.432 192.369 583.537 192.545 583.661 192.791C583.785 193.038 583.87 193.291 583.909 193.538C583.948 193.785 583.994 194.142 584.033 194.597C583.909 195.59 583.837 197.792 583.818 201.194C583.798 204.597 583.681 207.558 583.472 210.065C583.263 212.578 582.884 214 582.342 214.331V216.448C582.342 217.987 581.912 219.032 581.057 219.591C580.202 220.149 578.165 220.428 574.954 220.428C573.7 220.428 572.669 220.396 571.853 220.337C571.037 220.273 570.267 220.195 569.536 220.091C568.805 219.987 568.211 219.915 567.754 219.87C566.834 219.786 566.011 217.688 565.28 213.584C564.549 209.474 564.184 205.259 564.184 200.941L564.19 200.947ZM570.952 215.766H574.144C576.272 215.766 577.336 215.643 577.336 215.389V215.324C577.297 215.285 577.271 215.24 577.271 215.201C577.147 215.201 577.029 213.675 576.925 210.623C576.82 207.571 576.696 204.467 576.546 201.318C576.403 198.162 576.285 196.525 576.2 196.395C576.115 196.149 575.639 196.019 574.758 196.019C573.877 196.019 573.361 196.142 573.191 196.395C572.943 196.603 572.63 199.499 572.251 205.084C571.873 210.668 571.435 213.896 570.939 214.766V215.759L570.952 215.766ZM577.401 230.091C577.734 228.721 578.087 227.493 578.465 226.416C578.844 225.338 579.353 224.227 579.999 223.084C580.645 221.941 581.481 221.052 582.506 220.409C583.53 219.766 584.705 219.441 586.043 219.441C586.585 219.441 587.173 219.506 587.793 219.63C588.713 220.214 589.17 220.792 589.17 221.37C589.17 221.909 588.837 222.513 588.171 223.175C587.505 223.838 586.657 224.61 585.639 225.48C584.614 226.351 583.857 227.123 583.354 227.786C582.395 228.493 581.037 229.156 579.288 229.779C578.831 230.156 578.387 230.338 577.976 230.338C577.728 230.338 577.538 230.253 577.414 230.091H577.401ZM586.285 200.636C586.285 196.486 586.422 192.324 586.69 188.148C586.964 183.98 587.264 181.869 587.597 181.83C588.432 181.415 589.203 181.207 589.914 181.207C590.456 181.207 591.454 181.402 592.917 181.798C594.379 182.194 595.691 182.389 596.859 182.389H597.799C598.178 182.35 598.719 182.324 599.424 182.324C601.304 182.324 604.098 182.544 607.812 182.98C611.526 183.415 613.987 183.655 615.194 183.694H615.259C615.592 183.694 616.082 183.941 616.728 184.441C617.374 184.941 617.701 185.395 617.701 185.811C617.701 185.98 617.616 186.122 617.453 186.246C617.12 186.993 616.428 187.584 615.39 188.019C614.346 188.454 613.158 188.674 611.82 188.674H609.189V190.726C608.98 191.973 608.876 192.655 608.876 192.778C608.876 192.863 608.889 192.934 608.908 192.999C608.928 193.064 608.974 193.116 609.032 193.155C609.098 193.194 609.169 193.227 609.248 193.246C609.333 193.265 609.444 193.285 609.594 193.311C609.737 193.33 609.887 193.343 610.031 193.343C610.175 193.343 610.377 193.356 610.625 193.376C610.873 193.395 611.128 193.428 611.376 193.467C614.13 193.843 615.507 194.61 615.507 195.772C615.507 196.149 615.318 196.584 614.946 197.077C614.985 197.493 614.424 197.74 613.256 197.824C612.087 197.908 610.919 198.032 609.75 198.201C608.582 198.369 608.001 198.74 608.001 199.324C608.001 199.532 608.106 199.805 608.314 200.136V200.947H611.069C612.237 200.986 613.04 201.097 613.477 201.259C613.915 201.428 614.45 201.72 615.077 202.129L616.265 202.941L615.579 203.623C615.201 204.454 614.678 205.006 614.013 205.272C613.347 205.545 612.009 205.779 610.005 205.987C608.876 206.11 608.177 206.246 607.91 206.389C607.636 206.532 607.453 206.824 607.348 207.259C607.244 207.694 606.963 208.123 606.506 208.539V209.474H608.699C615.083 209.642 618.275 210.928 618.275 213.331C618.275 213.623 618.21 213.954 618.086 214.324C617.916 214.785 617.785 216.045 617.681 218.123C617.577 220.201 617.472 222.688 617.368 225.597C617.263 228.506 617.191 230.416 617.146 231.325C616.48 232.279 615.351 232.76 613.765 232.76C613.099 232.76 612.387 232.688 611.637 232.539C610.886 232.396 610.051 232.195 609.13 231.948C608.21 231.701 607.609 231.533 607.316 231.448C607.231 231.448 607.12 231.461 606.97 231.481C606.826 231.5 606.709 231.513 606.624 231.513C605.162 231.513 604.431 231.24 604.431 230.701C604.431 230.247 604.901 229.734 605.841 229.175C606.78 228.617 607.603 228.338 608.314 228.338C609.065 228.253 609.535 228.182 609.724 228.123C609.914 228.058 610.025 227.883 610.07 227.591C610.031 226.967 609.901 226.656 609.692 226.656C609.568 226.656 609.274 226.773 608.817 227C608.36 227.227 607.942 227.344 607.564 227.344C607.355 227.344 607.211 227.325 607.126 227.279C607.002 227.403 606.833 227.468 606.624 227.468C606.121 227.468 605.318 226.961 604.215 225.941C603.112 224.922 602.492 224.415 602.368 224.415C602.283 224.415 602.244 224.48 602.244 224.604V224.98C602.244 226.351 601.617 227.552 600.364 228.591C599.738 229.253 599.176 229.584 598.674 229.584C598.171 229.584 597.799 229.201 597.544 228.435C597.296 227.669 597.074 226.649 596.885 225.383C596.696 224.117 596.5 223.214 596.291 222.675C596.043 223.006 595.665 223.714 595.162 224.792C594.659 225.87 594.137 226.753 593.595 227.442C593.054 228.123 592.427 228.532 591.716 228.656C591.546 228.948 591.174 229.247 590.586 229.558C589.999 229.87 589.542 230.026 589.209 230.026C589.039 230.026 588.935 230.007 588.896 229.961C588.602 229.214 588.458 228.24 588.458 227.032C588.458 225.623 588.654 224.149 589.052 222.61C589.451 221.078 589.875 219.935 590.338 219.188C590.299 219.026 590.43 218.876 590.743 218.753C591.056 218.63 591.474 218.526 591.996 218.441C592.518 218.357 593.047 218.318 593.595 218.318C595.266 218.318 596.18 218.565 596.35 219.065C596.768 219.234 597.453 219.311 598.413 219.311H599.411C600.873 219.311 602.205 219.48 603.419 219.811C604 219.727 604.378 219.688 604.548 219.688C607.055 219.688 608.739 220.812 609.62 223.052C609.744 223.052 609.809 222.201 609.809 220.5C609.809 217.597 609.705 215.935 609.496 215.519C609.372 215.357 608.575 215.272 607.12 215.272C605.743 215.272 602.851 215.311 598.452 215.396C594.046 215.48 591.722 215.519 591.474 215.519C591.095 215.519 590.776 215.513 590.501 215.487C590.227 215.467 589.992 215.454 589.784 215.454C589.575 215.454 589.385 215.422 589.222 215.363C589.052 215.298 588.922 215.246 588.817 215.207C588.713 215.169 588.589 215.097 588.439 214.987C588.295 214.883 588.191 214.792 588.126 214.707C588.06 214.623 587.936 214.487 587.747 214.305C587.558 214.117 587.401 213.961 587.277 213.837C587.192 213.876 587.107 213.902 587.029 213.902C586.696 213.902 586.526 213.402 586.526 212.409C586.526 211.909 586.579 211.123 586.683 210.045C586.787 208.967 586.84 208.305 586.84 208.052C586.84 207.798 586.82 207.655 586.774 207.616C586.442 207.616 586.272 205.292 586.272 200.642L586.285 200.636ZM593.36 201.383H595.488C596.154 201.298 596.872 201.188 597.649 201.038C598.419 200.896 599.183 200.818 599.933 200.818H600.932V199.636L600.867 198.512H593.478V199.259C593.478 199.759 593.439 200.253 593.354 200.753V201.376L593.36 201.383ZM593.608 207.175C593.608 208.668 593.713 209.519 593.922 209.727C594.007 209.811 595.09 209.85 597.179 209.85C599.601 209.85 600.932 209.785 601.187 209.662L601.252 209.727C601.376 209.727 601.441 209.454 601.441 208.915C601.441 208.337 601.356 207.694 601.193 206.987C601.023 206.279 600.86 205.928 600.691 205.928L600.567 206.051C600.358 206.051 599.202 206.116 597.094 206.24C594.986 206.363 593.87 206.448 593.746 206.487C593.661 206.487 593.622 206.714 593.622 207.175H593.608ZM593.863 193.162H600.749V190.356L600.815 187.616H596.245C595.371 187.616 594.803 187.687 594.555 187.83C594.307 187.973 594.176 188.278 594.176 188.733C594.176 188.817 594.189 188.973 594.209 189.2C594.229 189.428 594.242 189.603 594.242 189.726C594.242 190.434 594.118 191.116 593.863 191.778V193.149V193.162Z" fill="#005CA1"/>
<path d="M637.484 195.155C637.484 192.869 638.901 190.447 641.74 187.869C644.579 185.298 646.995 183.824 648.998 183.447C651.002 183.116 652.856 182.947 654.566 182.947C659.364 182.947 663.326 184.018 666.459 186.155C669.585 188.291 671.152 191.46 671.152 195.649C671.152 197.681 670.61 199.434 669.527 200.908C668.443 202.383 667.203 203.493 665.8 204.24C664.403 204.986 662.784 205.909 660.95 207.012C659.116 208.11 657.693 209.22 656.694 210.344L655.506 211.467L655.819 212.961C656.446 213.954 656.759 214.954 656.759 215.948C656.759 217.279 656.309 218.415 655.415 219.37C654.514 220.324 653.463 220.805 652.256 220.805C650.963 220.805 649.749 220.227 648.626 219.065C647.543 217.279 647.001 214.87 647.001 211.844C647.001 210.227 647.53 208.772 648.594 207.487C649.658 206.201 650.963 205.129 652.504 204.279C654.044 203.428 655.578 202.558 657.105 201.662C658.626 200.772 659.925 199.662 660.989 198.33C662.053 197.006 662.588 195.486 662.588 193.785C662.588 192.785 662.399 191.668 662.027 190.421C661.067 188.72 659.109 187.869 656.146 187.869C653.352 187.869 651.12 188.577 649.449 189.986C647.236 191.856 646.133 193.616 646.133 195.278C646.133 195.733 646.237 196.272 646.446 196.895C647.073 197.519 647.386 198.162 647.386 198.824C647.386 199.447 647.112 199.967 646.57 200.382C646.029 200.798 645.363 201.006 644.566 201.006C643.313 201.006 642.164 200.59 641.127 199.759C638.705 198.681 637.497 197.142 637.497 195.149L637.484 195.155ZM650.376 229.214C650.376 228.591 650.565 228.279 650.937 228.279C651.479 228.279 651.897 228.136 652.19 227.844C652.817 227.136 653.483 226.786 654.194 226.786C655.154 226.786 656.074 227.344 656.949 228.467C657.614 229.461 657.947 230.169 657.947 230.584C657.947 230.669 657.908 230.792 657.823 230.961C657.738 230.961 657.321 231.208 656.57 231.708C655.571 232.455 654.651 232.831 653.816 232.831C652.98 232.831 652.249 232.435 651.498 231.649C650.748 230.864 650.369 230.052 650.369 229.221L650.376 229.214Z" fill="#005CA1"/>
</g>
<defs>
<clipPath id="clip0_2136_1391">
<rect width="854" height="306" fill="white" transform="translate(0 0.189941)"/>
</clipPath>
</defs>
</svg>
