<svg width="547" height="118" viewBox="0 0 547 118" fill="none" xmlns="http://www.w3.org/2000/svg">
<g clip-path="url(#clip0_2186_1108)">
<path d="M235.376 85.8215H215.814C215.279 85.8215 214.843 85.3845 214.843 84.8487C214.843 84.313 215.279 83.876 215.814 83.876H235.376C235.91 83.876 236.347 84.313 236.347 84.8487C236.347 85.3845 235.91 85.8215 235.376 85.8215Z" fill="#005CA1"/>
<path d="M233.785 92.4053C233.56 92.4053 233.334 92.3348 233.152 92.1798C232.743 91.8273 232.701 91.2211 233.039 90.8122C237.134 86.0048 232.983 78.5892 232.94 78.5046C232.673 78.0394 232.842 77.4473 233.292 77.1794C233.757 76.9115 234.348 77.0666 234.615 77.5319C234.812 77.8843 239.499 86.2022 234.517 92.0529C234.32 92.2785 234.052 92.3912 233.785 92.3912V92.4053Z" fill="#005CA1"/>
<path d="M214.744 99.8491C214.744 99.8491 221.049 54.3123 203.738 38.7903L58.7275 36.1821L48.7354 56.5962C48.7354 56.5962 29.0469 57.2024 25.7538 58.9928C22.4606 60.7974 11.0613 92.0246 12.8627 96.8321C14.664 101.64 26.3449 102.542 33.5504 102.838C40.7418 103.134 207.412 105.545 214.758 99.835L214.744 99.8491Z" fill="#F5E83A" stroke="#005CA1" stroke-width="2" stroke-miterlimit="10"/>
<path d="M81.3156 36.5912L78.8105 17.2769H94.3897L86.5931 36.6899L81.3156 36.5912Z" fill="#005CA1"/>
<path d="M91.7715 4.67314C93.6714 2.7558 96.4156 1.82533 99.1036 1.64205C101.862 1.44468 104.733 1.9945 107.027 3.54529C109.321 5.08198 110.981 7.69013 111.024 10.4675C114.781 7.57735 119.228 5.29346 123.971 5.15247C128.714 5.01149 133.724 7.40817 135.666 11.7363C138.973 9.25502 143.04 7.80291 147.178 7.64784C149.261 7.57735 151.442 7.85931 153.173 9.02945C154.89 10.2137 155.988 12.4835 155.298 14.4572C157.48 13.7664 159.745 13.0615 161.997 13.3999C164.249 13.7382 166.486 15.43 166.641 17.7139C166.796 20.0542 164.629 22.0843 162.307 22.3944C159.985 22.7046 157.677 21.6754 155.819 20.2515C149.683 23.7056 141.38 22.7751 136.144 18.0381C133.513 19.8991 130.811 21.7318 127.799 22.8879C124.787 24.0439 121.396 24.4668 118.328 23.4518C115.26 22.4367 112.628 19.8145 112.192 16.6142C109.405 17.9958 105.915 17.7844 103.312 16.0926C101.538 14.9365 100.004 13.0897 97.8933 12.9628C96.4579 12.8782 95.1209 13.6254 93.6995 13.8933C88.0983 14.9365 89.3227 7.1544 91.7715 4.67314Z" fill="white" stroke="#005CA1" stroke-width="2" stroke-miterlimit="10"/>
<path d="M14.1159 88.303H2.77281C2.23803 88.303 1.80176 87.8659 1.80176 87.3302C1.80176 86.7945 2.23803 86.3574 2.77281 86.3574H14.1159C14.6507 86.3574 15.0869 86.7945 15.0869 87.3302C15.0869 87.8659 14.6507 88.303 14.1159 88.303Z" fill="#005CA1"/>
<path d="M0.971056 92.6167C0.436272 92.6167 0 92.1797 0 91.644C0 85.7933 3.6309 80.6757 3.78571 80.4642C4.09532 80.0272 4.70047 79.9285 5.13675 80.2386C5.57302 80.5488 5.67153 81.155 5.36192 81.592C5.36192 81.592 1.94211 86.4277 1.94211 91.6299C1.94211 92.1656 1.50584 92.6026 0.971056 92.6026V92.6167Z" fill="#005CA1"/>
<path d="M62.1198 39.9888L56.9268 56.3989L77.1078 57.3999C77.1078 57.3999 76.3057 44.7821 62.1198 39.9888Z" fill="#005CA1"/>
<path d="M56.9261 57.3857C56.6305 57.3857 56.335 57.2447 56.152 56.991C55.8284 56.568 55.9269 55.9477 56.3491 55.6375L64.1457 49.8291C64.5679 49.5049 65.1871 49.6036 65.4967 50.0265C65.8204 50.4495 65.7219 51.0698 65.2997 51.3799L57.5031 57.1883C57.3342 57.3152 57.1231 57.3857 56.9261 57.3857Z" fill="white"/>
<path d="M67.017 53.8754C66.637 53.8754 66.2852 53.6639 66.1304 53.2974C64.4979 49.5332 62.6261 49.66 62.5417 49.6741C62.0069 49.7587 61.5284 49.3922 61.458 48.8565C61.3736 48.3207 61.7536 47.8273 62.2884 47.7427C62.4291 47.7145 65.6519 47.2916 67.9177 52.522C68.1288 53.0154 67.9177 53.5793 67.411 53.8049C67.2844 53.8613 67.1577 53.8895 67.0311 53.8895L67.017 53.8754Z" fill="white"/>
<path d="M21.0531 67.0994C21.4331 68.2695 22.3338 69.3551 23.5441 69.5806C27.7098 70.3701 29.7786 63.9837 26.9498 61.446C23.4878 58.3445 19.9836 63.8286 21.0531 67.0994Z" fill="#005CA1"/>
<path d="M15.1566 76.4745C14.3404 77.7715 13.89 79.3364 14.087 80.859C14.2841 82.3816 15.1707 83.8337 16.5358 84.5386C17.9009 85.2435 19.7023 85.0602 20.8 83.9888C21.574 83.2134 21.9118 82.1137 22.1792 81.0564C22.6858 78.9981 23.2487 75.403 21.0111 74.0778C18.8719 72.809 16.2684 74.7122 15.1566 76.4886V76.4745Z" fill="#005CA1"/>
<path d="M24.4874 92.4197C24.4874 92.4197 24.4311 92.4197 24.4171 92.4197C23.8823 92.3774 23.4882 91.9121 23.5304 91.3764C24.2623 81.8461 27.1613 72.4427 31.9322 64.1671C32.1996 63.7019 32.7907 63.5468 33.2551 63.8147C33.7195 64.0825 33.8743 64.6746 33.6069 65.1399C28.9909 73.1617 26.1621 82.2972 25.4585 91.5315C25.4163 92.039 24.9941 92.4338 24.5015 92.4338L24.4874 92.4197Z" fill="#005CA1"/>
<path d="M30.5955 89.8961C30.5955 89.8961 30.5111 89.8961 30.4689 89.8961C29.9341 89.8257 29.5682 89.3322 29.6385 88.8106C30.68 80.8875 33.1709 73.3168 37.0411 66.31C37.2944 65.8448 37.8855 65.6756 38.3499 65.9294C38.8143 66.1832 38.9832 66.7753 38.7299 67.2405C35.0286 73.923 32.5517 81.4655 31.5525 89.0503C31.4821 89.5437 31.074 89.8961 30.5955 89.8961Z" fill="#005CA1"/>
<path d="M53.3473 110.915C54.1454 107.528 52.0512 104.134 48.6699 103.334C45.2885 102.535 41.9004 104.633 41.1023 108.02C40.3042 111.407 42.3984 114.801 45.7798 115.601C49.1611 116.4 52.5493 114.303 53.3473 110.915Z" fill="white" stroke="#005CA1" stroke-width="2" stroke-miterlimit="10"/>
<path d="M87.9997 115.766C91.474 115.766 94.2905 112.944 94.2905 109.464C94.2905 105.984 91.474 103.162 87.9997 103.162C84.5254 103.162 81.709 105.984 81.709 109.464C81.709 112.944 84.5254 115.766 87.9997 115.766Z" fill="white" stroke="#005CA1" stroke-width="2" stroke-miterlimit="10"/>
<path d="M136.881 110.897C137.679 107.51 135.584 104.116 132.203 103.316C128.822 102.517 125.434 104.615 124.635 108.002C123.837 111.389 125.932 114.783 129.313 115.583C132.694 116.382 136.082 114.284 136.881 110.897Z" fill="white" stroke="#005CA1" stroke-width="2" stroke-miterlimit="10"/>
<path d="M166.937 115.766C170.412 115.766 173.228 112.944 173.228 109.464C173.228 105.984 170.412 103.162 166.937 103.162C163.463 103.162 160.646 105.984 160.646 109.464C160.646 112.944 163.463 115.766 166.937 115.766Z" fill="white" stroke="#005CA1" stroke-width="2" stroke-miterlimit="10"/>
<path d="M198.504 115.766C201.978 115.766 204.794 112.944 204.794 109.464C204.794 105.984 201.978 103.162 198.504 103.162C195.029 103.162 192.213 105.984 192.213 109.464C192.213 112.944 195.029 115.766 198.504 115.766Z" fill="white" stroke="#005CA1" stroke-width="2" stroke-miterlimit="10"/>
<path d="M215.701 74.6139L94.3896 73.6553V79.3086L215.701 80.8312V74.6139Z" fill="#005CA1"/>
<path d="M78.8099 64.6606L75.3057 95.042H86.5924L89.7026 65.0977L78.8099 64.6606Z" fill="#005CA1"/>
<path d="M84.6507 84.9052C84.116 84.9052 83.6797 84.4681 83.6797 83.9324V79.3082C83.6797 78.7725 84.116 78.3354 84.6507 78.3354C85.1855 78.3354 85.6218 78.7725 85.6218 79.3082V83.9324C85.6218 84.4681 85.1855 84.9052 84.6507 84.9052Z" fill="white"/>
<path d="M114.458 56.4132L115.513 43.4007L96.4299 42.7944L95.4307 56.4132H114.458Z" fill="#005CA1"/>
<path d="M141.169 57.4142L142.21 44.4016L123.141 43.7954L122.128 57.4142H141.169Z" fill="#005CA1"/>
<path d="M169.625 57.6114L170.68 44.5989L151.611 43.9927L150.598 57.6114H169.625Z" fill="#005CA1"/>
<path d="M196.449 57.6114L197.504 44.5989L178.421 43.9927L177.422 57.6114H196.449Z" fill="#005CA1"/>
<path d="M107.126 85.8921L105.93 95.0417H120.481L121.227 85.8921H107.126Z" fill="#005CA1"/>
<path d="M141.76 85.8921L140.55 95.0417H155.102L155.847 85.8921H141.76Z" fill="#005CA1"/>
<path d="M176.38 85.8921L175.17 95.0417H189.722L190.468 85.8921H176.38Z" fill="#005CA1"/>
<path d="M77.1072 58.3729C77.1072 58.3729 77.0791 58.3729 77.065 58.3729L56.8839 57.3719C56.5884 57.3578 56.3069 57.2028 56.138 56.9631C55.9691 56.7093 55.9129 56.3992 56.0114 56.1172L61.2044 39.707C61.2888 39.4533 61.4577 39.2559 61.6829 39.129C61.9081 39.0162 62.1895 38.988 62.4288 39.0726C77.065 44.0351 78.0642 57.2169 78.0783 57.3437C78.0923 57.6257 77.9938 57.8936 77.7968 58.0909C77.6138 58.2742 77.3605 58.3729 77.1072 58.3729ZM58.2209 55.4969L75.9954 56.371C75.4606 53.3963 73.0823 45.163 62.7384 41.2296L58.2209 55.4828V55.4969Z" fill="white"/>
<path d="M114.458 57.3859H95.4168C95.1494 57.3859 94.8961 57.2732 94.7131 57.0758C94.5302 56.8784 94.4317 56.6105 94.4598 56.3427L95.4731 42.7239C95.5153 42.2023 95.9516 41.8076 96.4723 41.8217L115.542 42.4279C115.809 42.4279 116.062 42.5548 116.231 42.7521C116.414 42.9495 116.499 43.2174 116.47 43.4711L115.415 56.4837C115.373 56.9912 114.951 57.3718 114.444 57.3718L114.458 57.3859ZM96.4723 55.4404H113.571L114.472 44.3311L97.3448 43.7954L96.4864 55.4404H96.4723Z" fill="white"/>
<path d="M141.169 58.3728H122.128C121.86 58.3728 121.607 58.26 121.424 58.0626C121.241 57.8652 121.143 57.5974 121.171 57.3295L122.184 43.7108C122.226 43.1891 122.648 42.7944 123.183 42.8085L142.253 43.4147C142.52 43.4147 142.773 43.5416 142.942 43.7389C143.125 43.9363 143.21 44.2042 143.181 44.4579L142.126 57.4705C142.084 57.978 141.661 58.3587 141.155 58.3587L141.169 58.3728ZM123.169 56.4413H140.268L141.169 45.332L124.042 44.7963L123.183 56.4413H123.169Z" fill="white"/>
<path d="M169.625 58.57H150.584C150.316 58.57 150.063 58.4572 149.88 58.2599C149.697 58.0625 149.599 57.7946 149.627 57.5268L150.64 43.908C150.682 43.3864 151.119 42.9916 151.639 43.0057L170.709 43.612C170.976 43.612 171.229 43.7388 171.398 43.9362C171.581 44.1336 171.666 44.4014 171.637 44.6552L170.582 57.6677C170.54 58.1753 170.118 58.5559 169.611 58.5559L169.625 58.57ZM151.639 56.6386H168.738L169.639 45.5293L152.512 44.9936L151.653 56.6386H151.639Z" fill="white"/>
<path d="M196.449 58.57H177.408C177.141 58.57 176.887 58.4572 176.704 58.2599C176.521 58.0625 176.423 57.7946 176.451 57.5268L177.464 43.908C177.507 43.3864 177.943 42.9916 178.464 43.0057L197.533 43.612C197.8 43.612 198.054 43.7388 198.222 43.9362C198.405 44.1336 198.49 44.4014 198.462 44.6552L197.406 57.6677C197.364 58.1753 196.942 58.5559 196.435 58.5559L196.449 58.57ZM178.464 56.6386H195.563L196.463 45.5293L179.336 44.9936L178.478 56.6386H178.464Z" fill="white"/>
<path d="M120.481 96.0146H105.93C105.648 96.0146 105.381 95.8877 105.198 95.6904C105.015 95.4789 104.93 95.1969 104.973 94.9291L106.169 85.7653C106.225 85.286 106.647 84.9194 107.126 84.9194H121.213C121.481 84.9194 121.748 85.0322 121.931 85.2296C122.114 85.427 122.212 85.6948 122.184 85.9627L121.452 95.1264C121.41 95.634 120.988 96.0146 120.481 96.0146ZM107.041 94.0691H119.595L120.172 86.8509H107.984L107.041 94.0691Z" fill="white"/>
<path d="M155.101 96.0146H140.55C140.268 96.0146 140.001 95.8877 139.818 95.6904C139.635 95.4789 139.551 95.1969 139.593 94.9291L140.789 85.7653C140.845 85.286 141.267 84.9194 141.746 84.9194H155.833C156.101 84.9194 156.368 85.0322 156.551 85.2296C156.734 85.427 156.832 85.6948 156.804 85.9627L156.073 95.1264C156.03 95.634 155.608 96.0146 155.101 96.0146ZM141.661 94.0691H154.215L154.792 86.8509H142.604L141.661 94.0691Z" fill="white"/>
<path d="M189.722 96.0146H175.17C174.888 96.0146 174.621 95.8877 174.438 95.6904C174.255 95.4789 174.171 95.1969 174.213 94.9291L175.409 85.7653C175.465 85.286 175.888 84.9194 176.366 84.9194H190.453C190.721 84.9194 190.988 85.0322 191.171 85.2296C191.354 85.427 191.453 85.6948 191.424 85.9627L190.693 95.1264C190.65 95.634 190.228 96.0146 189.722 96.0146ZM176.282 94.0691H188.835L189.412 86.8509H177.225L176.282 94.0691Z" fill="white"/>
<path d="M391.968 89.2474L372.407 89.3742C371.872 89.3742 371.436 88.9513 371.436 88.4156C371.436 87.8798 371.858 87.4428 372.393 87.4428L391.954 87.3159C392.489 87.3159 392.925 87.7389 392.925 88.2746C392.925 88.8103 392.503 89.2474 391.968 89.2474Z" fill="#005CA1"/>
<path d="M390.406 95.8453C390.181 95.8453 389.956 95.7748 389.773 95.6197C389.365 95.2814 389.309 94.661 389.66 94.2522C393.728 89.4166 389.52 82.0292 389.478 81.9446C389.21 81.4793 389.365 80.8872 389.829 80.6193C390.294 80.3515 390.885 80.5066 391.152 80.9718C391.349 81.3243 396.092 89.6139 391.152 95.4928C390.955 95.7184 390.688 95.8312 390.42 95.8453H390.406Z" fill="#005CA1"/>
<path d="M371.422 101.95C371.422 101.95 377.445 56.3708 360.022 40.9616C360.022 40.9616 235.798 25.8626 232.35 45.7832C230.872 54.2984 226.664 105.192 226.664 105.192C226.664 105.192 364.104 107.702 371.422 101.95Z" fill="#F5E83A" stroke="#005CA1" stroke-width="2" stroke-miterlimit="10"/>
<path d="M244.72 115.766C248.195 115.766 251.011 112.944 251.011 109.464C251.011 105.984 248.195 103.162 244.72 103.162C241.246 103.162 238.43 105.984 238.43 109.464C238.43 112.944 241.246 115.766 244.72 115.766Z" fill="white" stroke="#005CA1" stroke-width="2" stroke-miterlimit="10"/>
<path d="M293.638 110.891C294.415 107.498 292.3 104.117 288.913 103.339C285.527 102.561 282.152 104.68 281.375 108.073C280.598 111.465 282.714 114.846 286.1 115.624C289.487 116.402 292.861 114.283 293.638 110.891Z" fill="white" stroke="#005CA1" stroke-width="2" stroke-miterlimit="10"/>
<path d="M323.657 115.766C327.131 115.766 329.948 112.944 329.948 109.464C329.948 105.984 327.131 103.162 323.657 103.162C320.183 103.162 317.366 105.984 317.366 109.464C317.366 112.944 320.183 115.766 323.657 115.766Z" fill="white" stroke="#005CA1" stroke-width="2" stroke-miterlimit="10"/>
<path d="M355.223 115.766C358.698 115.766 361.514 112.944 361.514 109.464C361.514 105.984 358.698 103.162 355.223 103.162C351.749 103.162 348.933 105.984 348.933 109.464C348.933 112.944 351.749 115.766 355.223 115.766Z" fill="white" stroke="#005CA1" stroke-width="2" stroke-miterlimit="10"/>
<path d="M372.224 76.7004L250.912 76.5312L250.94 82.1705L372.266 82.9318L372.224 76.7004Z" fill="#005CA1"/>
<path d="M235.263 67.6211L231.956 98.0448L243.243 97.9602L246.17 68.0017L235.263 67.6211Z" fill="#005CA1"/>
<path d="M241.23 87.8378C240.695 87.8378 240.259 87.4149 240.259 86.8792L240.23 82.255C240.23 81.7193 240.653 81.2822 241.187 81.2822C241.722 81.2822 242.159 81.7052 242.159 82.2409L242.187 86.8651C242.187 87.4008 241.764 87.8378 241.23 87.8378Z" fill="white"/>
<path d="M270.868 59.1481L271.825 46.1356L252.756 45.6562L251.827 59.275L270.868 59.1481Z" fill="#005CA1"/>
<path d="M297.579 59.9801L298.536 46.9676L279.467 46.4883L278.538 60.107L297.579 59.9801Z" fill="#005CA1"/>
<path d="M326.036 59.9938L327.007 46.9813L307.924 46.502L307.009 60.1207L326.036 59.9938Z" fill="#005CA1"/>
<path d="M352.859 59.8248L353.83 46.7982L334.747 46.3188L333.832 59.9376L352.859 59.8248Z" fill="#005CA1"/>
<path d="M263.719 88.6695L262.579 97.8474L277.131 97.7487L277.806 88.585L263.719 88.6695Z" fill="#005CA1"/>
<path d="M298.339 88.4581L297.199 97.6218L311.751 97.5231L312.427 88.3594L298.339 88.4581Z" fill="#005CA1"/>
<path d="M332.959 88.2325L331.819 97.3963L346.371 97.3117L347.061 88.1479L332.959 88.2325Z" fill="#005CA1"/>
<path d="M270.868 60.1209L251.841 60.2478C251.574 60.2478 251.32 60.135 251.123 59.9376C250.926 59.7402 250.842 59.4724 250.856 59.2045L251.785 45.5858C251.827 45.0641 252.249 44.6694 252.77 44.6835L271.853 45.1628C272.121 45.1628 272.374 45.2897 272.543 45.4871C272.726 45.6844 272.81 45.9382 272.796 46.2061L271.825 59.2186C271.783 59.7261 271.375 60.1068 270.868 60.1209ZM252.868 58.3022L269.968 58.1894L270.798 47.0801L253.671 46.6572L252.883 58.3022H252.868Z" fill="white"/>
<path d="M297.579 60.9529L278.552 61.0798C278.284 61.0798 278.031 60.967 277.834 60.7696C277.651 60.5723 277.553 60.3044 277.567 60.0365L278.496 46.4178C278.538 45.8962 278.96 45.5014 279.481 45.5155L298.564 45.9948C298.831 45.9948 299.085 46.1217 299.254 46.3191C299.437 46.5165 299.521 46.7702 299.507 47.0381L298.536 60.0506C298.494 60.5582 298.086 60.9388 297.579 60.9529ZM279.579 59.1202L296.678 59.0074L297.509 47.8981L280.381 47.4751L279.593 59.1202H279.579Z" fill="white"/>
<path d="M326.05 60.9666L307.009 61.0935C306.742 61.0935 306.488 60.9807 306.291 60.7833C306.108 60.586 306.01 60.3181 306.024 60.0502L306.953 46.4315C306.995 45.9099 307.431 45.501 307.938 45.5292L327.021 46.0085C327.289 46.0085 327.542 46.1354 327.711 46.3328C327.894 46.5302 327.978 46.7839 327.964 47.0518L326.993 60.0643C326.951 60.5719 326.543 60.9525 326.036 60.9666H326.05ZM308.05 59.1339L325.149 59.0211L325.98 47.9118L308.853 47.4888L308.064 59.1339H308.05Z" fill="white"/>
<path d="M352.873 60.7977L333.832 60.9245C333.565 60.9245 333.311 60.8118 333.114 60.6144C332.931 60.417 332.833 60.1492 332.847 59.8813L333.776 46.2625C333.818 45.7409 334.254 45.3321 334.761 45.3603L353.844 45.8396C354.112 45.8396 354.365 45.9665 354.534 46.1639C354.717 46.3612 354.801 46.615 354.787 46.8829L353.816 59.8954C353.774 60.4029 353.366 60.7836 352.859 60.7977H352.873ZM334.86 58.9649L351.959 58.8521L352.789 47.7428L335.662 47.3199L334.874 58.9649H334.86Z" fill="white"/>
<path d="M277.145 98.7212L262.594 98.8199C262.312 98.8199 262.045 98.7071 261.862 98.4957C261.679 98.2842 261.594 98.0022 261.622 97.7344L262.762 88.5706C262.819 88.0913 263.227 87.7247 263.719 87.7247L277.807 87.6401C278.074 87.6401 278.342 87.7529 278.525 87.9503C278.707 88.1477 278.806 88.4155 278.778 88.6834L278.102 97.8471C278.06 98.3547 277.652 98.7353 277.145 98.7494V98.7212ZM263.677 96.8603L276.231 96.7757L276.765 89.5575L264.578 89.6421L263.677 96.8603Z" fill="white"/>
<path d="M311.765 98.4957L297.214 98.5943C296.932 98.5943 296.665 98.4815 296.482 98.2701C296.299 98.0586 296.214 97.7766 296.243 97.5088L297.383 88.345C297.439 87.8657 297.847 87.4991 298.34 87.4991L312.427 87.4146C312.694 87.4146 312.962 87.5273 313.145 87.7247C313.328 87.9221 313.426 88.1899 313.398 88.4578L312.722 97.6216C312.68 98.1291 312.272 98.5097 311.765 98.5238V98.4957ZM298.297 96.6488L310.851 96.5642L311.385 89.346L299.198 89.4306L298.297 96.6488Z" fill="white"/>
<path d="M346.386 98.2705L331.834 98.3692C331.552 98.3692 331.285 98.2565 331.102 98.045C330.919 97.8335 330.835 97.5516 330.863 97.2837L332.003 88.1199C332.059 87.6406 332.467 87.274 332.96 87.274L347.047 87.1895C347.314 87.1895 347.582 87.3022 347.765 87.4996C347.948 87.697 348.046 87.9649 348.018 88.2327L347.343 97.3965C347.3 97.904 346.892 98.2846 346.386 98.2987V98.2705ZM332.917 96.4237L345.471 96.3391L346.006 89.1209L333.818 89.2055L332.917 96.4237Z" fill="white"/>
<path d="M545.579 84.8205L526.031 85.3281C525.496 85.3281 525.046 84.9192 525.032 84.3835C525.018 83.8478 525.44 83.3966 525.974 83.3825L545.522 82.875C546.057 82.875 546.507 83.2838 546.521 83.8196C546.536 84.3553 546.113 84.8064 545.579 84.8205Z" fill="#005CA1"/>
<path d="M544.157 91.4608C543.932 91.4608 543.707 91.3903 543.524 91.2493C543.101 90.9109 543.045 90.3047 543.383 89.8818C547.352 84.9615 543.003 77.6587 542.961 77.5883C542.679 77.1371 542.834 76.5309 543.284 76.263C543.735 75.9811 544.34 76.1221 544.607 76.5873C544.818 76.9397 549.716 85.1307 544.889 91.1083C544.706 91.3339 544.438 91.4608 544.157 91.4749V91.4608Z" fill="#005CA1"/>
<path d="M525.328 99.3841C525.328 99.3841 530.45 53.6922 512.732 38.6354C512.732 38.6354 388.226 25.9894 385.172 45.9805C383.863 54.5099 380.654 105.489 380.654 105.489C380.654 105.489 518.122 105.277 525.313 99.3841H525.328Z" fill="#F5E83A" stroke="#005CA1" stroke-width="2" stroke-miterlimit="10"/>
<path d="M398.795 115.766C402.269 115.766 405.085 112.944 405.085 109.464C405.085 105.984 402.269 103.162 398.795 103.162C395.32 103.162 392.504 105.984 392.504 109.464C392.504 112.944 395.32 115.766 398.795 115.766Z" fill="white" stroke="#005CA1" stroke-width="2" stroke-miterlimit="10"/>
<path d="M447.724 110.761C448.433 107.354 446.252 104.015 442.851 103.304C439.45 102.593 436.117 104.779 435.407 108.186C434.698 111.593 436.879 114.931 440.28 115.642C443.681 116.353 447.014 114.168 447.724 110.761Z" fill="white" stroke="#005CA1" stroke-width="2" stroke-miterlimit="10"/>
<path d="M477.703 115.766C481.177 115.766 483.994 112.944 483.994 109.464C483.994 105.984 481.177 103.162 477.703 103.162C474.229 103.162 471.412 105.984 471.412 109.464C471.412 112.944 474.229 115.766 477.703 115.766Z" fill="white" stroke="#005CA1" stroke-width="2" stroke-miterlimit="10"/>
<path d="M509.269 115.766C512.744 115.766 515.56 112.944 515.56 109.464C515.56 105.984 512.744 103.162 509.269 103.162C505.795 103.162 502.979 105.984 502.979 109.464C502.979 112.944 505.795 115.766 509.269 115.766Z" fill="white" stroke="#005CA1" stroke-width="2" stroke-miterlimit="10"/>
<path d="M525.623 74.1343L404.325 76.3477L404.48 82.001L525.792 80.3515L525.623 74.1343Z" fill="#005CA1"/>
<path d="M388.507 67.7622L385.805 98.2282L397.091 97.9321L399.428 67.9173L388.507 67.7622Z" fill="#005CA1"/>
<path d="M394.882 87.8518C394.347 87.8518 393.897 87.4429 393.883 86.9072L393.756 82.283C393.756 81.7473 394.164 81.2962 394.699 81.2821C395.234 81.268 395.684 81.6909 395.698 82.2266L395.825 86.8508C395.825 87.3866 395.416 87.8377 394.882 87.8518Z" fill="white"/>
<path d="M423.943 58.5842L424.647 45.5576L405.563 45.4448L404.916 59.0777L423.943 58.5842Z" fill="#005CA1"/>
<path d="M450.669 58.8943L451.372 45.8536L432.289 45.7549L431.642 59.3877L450.669 58.8943Z" fill="#005CA1"/>
<path d="M479.125 58.3445L479.828 45.3038L460.745 45.2051L460.098 58.8379L479.125 58.3445Z" fill="#005CA1"/>
<path d="M505.934 57.6394L506.652 44.5987L487.569 44.5L486.907 58.1328L505.934 57.6394Z" fill="#005CA1"/>
<path d="M417.385 88.2464L416.428 97.4384L430.965 97.0577L431.472 87.8799L417.385 88.2464Z" fill="#005CA1"/>
<path d="M451.991 87.3441L451.034 96.5219L465.572 96.1413L466.079 86.9775L451.991 87.3441Z" fill="#005CA1"/>
<path d="M486.598 86.4422L485.641 95.62L500.192 95.2394L500.685 86.0615L486.598 86.4422Z" fill="#005CA1"/>
<path d="M423.972 59.5572L404.945 60.0506C404.677 60.0506 404.41 59.9519 404.227 59.7546C404.044 59.5572 403.945 59.3034 403.945 59.0356L404.607 45.4027C404.635 44.8811 405.057 44.4863 405.578 44.4863L424.661 44.585C424.929 44.585 425.182 44.6978 425.365 44.8952C425.548 45.0925 425.646 45.3463 425.632 45.6142L424.929 58.6549C424.9 59.1624 424.492 59.5572 423.986 59.5713L423.972 59.5572ZM405.93 58.091L423.029 57.6398L423.634 46.5165L406.493 46.4319L405.93 58.091Z" fill="white"/>
<path d="M450.682 59.8529L431.655 60.3464C431.388 60.3464 431.121 60.2477 430.938 60.0503C430.755 59.8529 430.656 59.5992 430.656 59.3313L431.318 45.6985C431.346 45.1768 431.768 44.768 432.289 44.7821L451.372 44.8808C451.64 44.8808 451.893 44.9936 452.076 45.1909C452.259 45.3883 452.357 45.6421 452.343 45.9099L451.64 58.9507C451.611 59.4582 451.203 59.8529 450.697 59.867L450.682 59.8529ZM432.655 58.3867L449.754 57.9356L450.359 46.8122L433.218 46.7276L432.655 58.3867Z" fill="white"/>
<path d="M479.153 59.3031L460.126 59.7966C459.859 59.7966 459.591 59.6979 459.408 59.5005C459.225 59.3031 459.127 59.0494 459.127 58.7815L459.788 45.1487C459.817 44.627 460.253 44.2182 460.759 44.2323L479.843 44.331C480.11 44.331 480.364 44.4438 480.546 44.6411C480.729 44.8385 480.828 45.0923 480.814 45.3601L480.11 58.4009C480.082 58.9084 479.674 59.3031 479.167 59.3172L479.153 59.3031ZM461.111 57.8369L478.21 57.3858L478.815 46.2624L461.674 46.1778L461.111 57.8369Z" fill="white"/>
<path d="M505.963 58.6122L486.936 59.1057C486.668 59.1057 486.401 59.007 486.218 58.8096C486.035 58.6122 485.937 58.3585 485.937 58.0906L486.598 44.4577C486.626 43.9361 487.048 43.5273 487.569 43.5414L506.652 43.6401C506.92 43.6401 507.173 43.7528 507.356 43.9502C507.539 44.1476 507.638 44.4014 507.623 44.6692L506.92 57.7099C506.892 58.2175 506.483 58.6122 505.977 58.6263L505.963 58.6122ZM487.921 57.146L505.02 56.6949L505.625 45.5715L488.484 45.4869L487.921 57.146Z" fill="white"/>
<path d="M430.994 98.0165L416.442 98.3971C416.161 98.3971 415.893 98.2843 415.71 98.0869C415.527 97.8755 415.429 97.6076 415.457 97.3257L416.414 88.1337C416.47 87.6544 416.864 87.2737 417.357 87.2596L431.444 86.8931C431.712 86.8931 431.979 86.9918 432.162 87.1891C432.345 87.3865 432.443 87.6403 432.429 87.9222L431.937 97.1001C431.909 97.6076 431.5 98.0024 430.994 98.0165ZM417.498 96.4375L430.051 96.1132L430.445 88.8809L418.258 89.2052L417.498 96.4516V96.4375Z" fill="white"/>
<path d="M465.6 97.1141L451.048 97.4948C450.767 97.4948 450.5 97.382 450.317 97.1846C450.134 96.9731 450.035 96.7053 450.063 96.4233L451.02 87.2314C451.077 86.752 451.471 86.3714 451.963 86.3573L466.051 85.9907C466.318 85.9907 466.585 86.0894 466.768 86.2868C466.951 86.4842 467.05 86.7379 467.036 87.0199L466.543 96.1977C466.515 96.7053 466.107 97.1 465.6 97.1141ZM452.104 95.5351L464.657 95.2109L465.051 87.9786L452.864 88.3028L452.104 95.5492V95.5351Z" fill="white"/>
<path d="M500.22 96.2118L485.669 96.5924C485.387 96.5924 485.12 96.4796 484.937 96.2823C484.754 96.0708 484.655 95.8029 484.683 95.521L485.64 86.329C485.697 85.8497 486.091 85.469 486.583 85.4549L500.671 85.0884C500.938 85.0884 501.205 85.1871 501.388 85.3844C501.571 85.5818 501.67 85.8356 501.656 86.1175L501.163 95.2954C501.135 95.8029 500.727 96.1977 500.22 96.2118ZM486.724 94.6187L499.277 94.2944L499.671 87.0621L487.484 87.3864L486.724 94.6328V94.6187Z" fill="white"/>
</g>
<defs>
<clipPath id="clip0_2186_1108">
<rect width="547" height="117" fill="white" transform="translate(0 0.189941)"/>
</clipPath>
</defs>
</svg>
