<svg width="172" height="169" viewBox="0 0 172 169" fill="none" xmlns="http://www.w3.org/2000/svg">
<g clip-path="url(#clip0_2186_926)">
<path d="M165.533 159.469L1.51069 158.159C1.51069 158.159 0.891222 105.653 12.4496 90.1995C12.4496 90.1995 134.938 84.958 166.077 91.4196C166.077 91.4196 169.386 132.177 165.533 159.469Z" fill="#F5E83A"/>
<path d="M0.0298531 159.65V158.174C-0.0154737 156.005 -0.468742 104.976 11.2558 89.2962L11.6788 88.7239L12.389 88.6937C17.39 88.4829 135.421 83.5125 166.379 89.9439L167.482 90.1698L167.573 91.2994C167.603 91.7061 170.851 132.539 167.014 159.68L166.832 160.991L0.0298531 159.65ZM13.2653 91.676C3.59556 105.744 3.03653 148.188 3.03653 156.668L164.234 157.948C167.407 133.714 165.155 99.3274 164.672 92.6701C133.683 86.9014 23.3883 91.2542 13.2653 91.6609V91.676Z" fill="#005CA1"/>
<path d="M36.6089 159.695C36.6089 159.695 36.5485 159.695 36.5334 159.695C35.8383 159.65 35.3246 159.047 35.37 158.354L40.3106 89.1C40.3559 88.4072 40.9603 87.8951 41.6553 87.9403C42.3503 87.9855 42.864 88.5879 42.8187 89.2808L37.8781 158.535C37.8327 159.198 37.2737 159.71 36.6089 159.695Z" fill="#005CA1"/>
<path d="M31.4106 125.339C31.4106 125.339 36.049 97.6404 27.2254 97.053C18.3867 96.4655 10.4394 115.323 8.80762 125.158L31.4257 125.339H31.4106Z" fill="#005CA1"/>
<path d="M8.79311 126.408C8.4305 126.408 8.08299 126.258 7.84125 125.956C7.38798 125.429 7.46353 124.631 8.00745 124.194L19.9435 114.253C20.4723 113.802 21.2731 113.877 21.7112 114.419C22.1645 114.946 22.089 115.745 21.545 116.181L9.60899 126.122C9.36725 126.318 9.08018 126.423 8.79311 126.408Z" fill="white"/>
<path d="M23.4488 121.498C22.8444 121.498 22.3156 121.061 22.225 120.444C21.2278 114.479 16.967 112.22 16.9217 112.19C16.3023 111.874 16.0605 111.121 16.3778 110.503C16.6951 109.886 17.4505 109.645 18.07 109.961C18.2966 110.081 23.4941 112.838 24.7028 120.022C24.8237 120.7 24.3553 121.348 23.6754 121.468C23.5999 121.468 23.5243 121.483 23.4488 121.483V121.498Z" fill="white"/>
<path d="M12.4644 138.051C13.5372 136.274 13.3559 133.698 11.7241 132.403C10.9384 131.786 9.94126 131.515 8.94407 131.409C6.7986 131.198 4.54737 131.786 2.85517 133.111C0.649267 134.858 -1.79838 140.055 2.02418 141.26C5.30282 142.284 10.6363 141.064 12.4644 138.036V138.051Z" fill="#005CA1"/>
<path d="M169.205 91.7057C169.205 91.7057 163.554 82.3372 123.561 79.1592C83.5523 75.9962 24.6879 79.1592 15.0786 82.4427C5.48445 85.7412 6.73849 91.3442 11.1503 92.2028C15.5621 93.0613 115.432 87.639 169.205 91.7057Z" fill="#F5E83A"/>
<path d="M11.7998 93.7693C11.3617 93.7542 11.0444 93.7241 10.848 93.6789C8.24922 93.1668 6.46636 91.3744 6.30016 89.1001C6.1944 87.5638 6.78365 83.6778 14.5799 81.0119C24.7633 77.5175 83.6881 74.475 123.666 77.6531C140.422 78.9785 153.31 81.524 161.967 85.2292C168.63 88.0759 170.323 90.6364 170.489 90.9226L171.985 93.4228L169.069 93.212C131.236 90.3653 69.531 92.2329 36.382 93.2421C22.0134 93.6789 14.4892 93.9048 11.7847 93.7693H11.7998ZM110.748 79.8822C71.1326 78.0748 23.4035 81.1775 15.5619 83.8736C10.8177 85.5003 9.2313 87.609 9.32195 88.9043C9.38238 89.7779 10.2134 90.5008 11.4372 90.7268C12.6761 90.9527 23.6301 90.6063 36.3065 90.2297C68.141 89.2658 126.295 87.5186 164.491 89.8682C159.595 87.0215 148.264 82.6235 123.425 80.6654C119.33 80.3491 115.084 80.078 110.733 79.8822H110.748Z" fill="#005CA1"/>
<path d="M90.6377 83L76.2087 82.8795C75.831 82.8795 75.4684 82.6988 75.2266 82.3975C74.9849 82.0963 74.9093 81.7047 75 81.3281C75.0906 80.9666 83.9747 44.9387 91.4838 27.6175C96.0165 17.1495 103.737 4.03066 114.812 0.882728C120.946 -0.849386 127.428 0.611614 134.091 5.25067C140.089 9.4228 142.567 13.61 141.464 17.6767C139.228 25.9306 123.016 29.9069 117.683 30.3437C110.068 30.9763 94.0977 51.5207 91.8918 81.8402C91.8464 82.503 91.2874 83.0151 90.6226 83H90.6377ZM77.8253 80.3943L89.4743 80.4847C91.9824 51.0086 107.801 28.6417 117.471 27.8435C123.938 27.3163 137.4 23.0086 139.016 17.029C139.817 14.092 137.657 10.8236 132.625 7.31414C126.612 3.12695 120.856 1.78644 115.477 3.30769C105.354 6.16944 98.0864 18.6557 93.7653 28.6116C87.2231 43.7187 79.5931 73.3152 77.7951 80.3792L77.8253 80.3943Z" fill="#005CA1"/>
<path d="M77.8251 80.3946L89.4741 80.4849C91.9822 51.0089 107.801 28.642 117.471 27.8437C123.938 27.3166 137.4 23.0089 139.016 17.0293C139.817 14.0922 137.656 10.8238 132.625 7.31441C126.612 3.12721 120.855 1.7867 115.477 3.30795C105.354 6.16971 98.0862 18.656 93.7651 28.6119C87.2229 43.7189 79.5929 73.3155 77.7949 80.3795L77.8251 80.3946Z" fill="white"/>
<path d="M124.467 29.0183C124.225 29.0183 123.999 28.943 123.787 28.8074L100.716 13.6552C100.142 13.2786 99.9755 12.4954 100.353 11.9231C100.731 11.3507 101.517 11.185 102.091 11.5616L125.162 26.7138C125.736 27.0904 125.902 27.8736 125.525 28.4459C125.283 28.8074 124.875 29.0183 124.467 29.0032V29.0183Z" fill="#005CA1"/>
<path d="M97.89 53.1477C97.7238 53.1477 97.5576 53.1175 97.3914 53.0422L85.4856 47.8007C84.851 47.5145 84.5639 46.7765 84.8359 46.1439C85.123 45.5113 85.8633 45.2251 86.4979 45.4962L98.4037 50.7378C99.0383 51.0239 99.3254 51.762 99.0534 52.3946C98.8419 52.8615 98.3735 53.1477 97.89 53.1477Z" fill="#005CA1"/>
<path d="M55.4798 100.517L54.0596 131.725L78.2339 131.921L79.6541 100.713L55.4798 100.517Z" fill="#005CA1"/>
<path d="M78.732 121.95L54.5578 121.754C53.8627 121.754 53.3037 121.182 53.3037 120.489C53.3037 119.796 53.8779 119.239 54.5729 119.239L78.7471 119.435C79.4422 119.435 80.0012 120.007 80.0012 120.7C80.0012 121.393 79.427 121.95 78.732 121.95Z" fill="white"/>
<path d="M93.4027 100.171L91.9824 131.379L116.157 131.575L117.577 100.367L93.4027 100.171Z" fill="#005CA1"/>
<path d="M116.656 121.604L92.4816 121.408C91.7866 121.408 91.2275 120.836 91.2275 120.143C91.2275 119.45 91.8017 118.893 92.4967 118.893L116.671 119.088C117.366 119.088 117.925 119.661 117.925 120.354C117.925 121.046 117.351 121.604 116.656 121.604Z" fill="white"/>
<path d="M131.764 100.472L130.344 131.695L154.518 131.876L155.938 100.667L131.764 100.472Z" fill="#005CA1"/>
<path d="M155.017 121.905L130.843 121.709C130.148 121.709 129.589 121.137 129.589 120.444C129.589 119.751 130.163 119.194 130.858 119.194L155.032 119.39C155.727 119.39 156.286 119.962 156.286 120.655C156.286 121.348 155.712 121.905 155.017 121.905Z" fill="white"/>
<path d="M31.4108 126.589L8.79273 126.408C8.43012 126.408 8.08262 126.243 7.84087 125.956C7.59913 125.67 7.50848 125.309 7.56891 124.947C9.32155 114.434 17.6466 95.1851 27.3163 95.8026C28.8272 95.908 30.1114 96.6009 31.1237 97.8811C36.0795 104.132 33.0426 123.366 32.6648 125.55C32.5591 126.152 32.0303 126.604 31.4108 126.604V126.589ZM10.3187 123.908L30.3381 124.074C31.2748 117.793 32.544 103.74 29.1293 99.4325C28.5552 98.7095 27.9206 98.3631 27.135 98.3029C27.0443 98.3029 26.9386 98.3029 26.8479 98.3029C19.5956 98.2426 12.3887 114.027 10.3187 123.923V123.908Z" fill="white"/>
<path d="M78.2333 133.171L54.059 132.975C53.7115 132.975 53.3942 132.825 53.1525 132.584C52.9107 132.343 52.7899 131.996 52.805 131.665L54.2252 100.457C54.2554 99.7791 54.8145 99.252 55.4944 99.252L79.6686 99.4478C80.0161 99.4478 80.3334 99.5984 80.5752 99.8394C80.8169 100.08 80.9378 100.427 80.9227 100.758L79.5024 131.966C79.4722 132.644 78.9132 133.171 78.2333 133.171ZM55.3735 130.49L77.0246 130.656L78.3239 101.948L56.6729 101.782L55.3735 130.49Z" fill="white"/>
<path d="M116.142 132.84L91.9672 132.644C91.6197 132.644 91.3024 132.493 91.0607 132.252C90.8189 132.011 90.6981 131.665 90.7132 131.334L92.1334 100.125C92.1636 99.4476 92.7227 98.9204 93.4026 98.9204L117.577 99.1162C117.924 99.1162 118.242 99.2668 118.483 99.5078C118.725 99.7488 118.846 100.095 118.831 100.427L117.411 131.635C117.38 132.313 116.821 132.84 116.142 132.84ZM93.2968 130.144L114.948 130.309L116.247 101.601L94.5962 101.436L93.2968 130.144Z" fill="white"/>
<path d="M154.504 133.141L130.33 132.945C129.982 132.945 129.665 132.795 129.423 132.554C129.181 132.313 129.06 131.966 129.075 131.635L130.496 100.427C130.526 99.7488 131.085 99.2217 131.765 99.2217L155.939 99.4175C156.287 99.4175 156.604 99.5681 156.846 99.8091C157.087 100.05 157.208 100.397 157.193 100.728L155.773 131.936C155.743 132.614 155.184 133.141 154.504 133.141ZM131.659 130.445L153.31 130.611L154.61 101.903L132.958 101.737L131.659 130.445Z" fill="white"/>
<path d="M21.5448 168.19C25.0995 168.19 27.9812 165.317 27.9812 161.774C27.9812 158.23 25.0995 155.357 21.5448 155.357C17.9901 155.357 15.1084 158.23 15.1084 161.774C15.1084 165.317 17.9901 168.19 21.5448 168.19Z" fill="#005CA1"/>
<path d="M21.5453 164.47C23.039 164.47 24.2498 163.263 24.2498 161.774C24.2498 160.285 23.039 159.078 21.5453 159.078C20.0517 159.078 18.8408 160.285 18.8408 161.774C18.8408 163.263 20.0517 164.47 21.5453 164.47Z" fill="white"/>
<path d="M63.2753 168.19C66.83 168.19 69.7117 165.317 69.7117 161.774C69.7117 158.23 66.83 155.357 63.2753 155.357C59.7205 155.357 56.8389 158.23 56.8389 161.774C56.8389 165.317 59.7205 168.19 63.2753 168.19Z" fill="#005CA1"/>
<path d="M63.2758 164.47C64.7694 164.47 65.9803 163.263 65.9803 161.774C65.9803 160.285 64.7694 159.078 63.2758 159.078C61.7821 159.078 60.5713 160.285 60.5713 161.774C60.5713 163.263 61.7821 164.47 63.2758 164.47Z" fill="white"/>
<path d="M118.944 161.831C118.972 158.287 116.114 155.392 112.559 155.363C109.004 155.335 106.1 158.184 106.071 161.728C106.043 165.271 108.901 168.167 112.456 168.196C116.01 168.224 118.915 165.374 118.944 161.831Z" fill="#005CA1"/>
<path d="M112.516 164.47C114.01 164.47 115.221 163.263 115.221 161.774C115.221 160.285 114.01 159.078 112.516 159.078C111.022 159.078 109.812 160.285 109.812 161.774C109.812 163.263 111.022 164.47 112.516 164.47Z" fill="white"/>
<path d="M150.515 168.19C154.069 168.19 156.951 165.317 156.951 161.774C156.951 158.23 154.069 155.357 150.515 155.357C146.96 155.357 144.078 158.23 144.078 161.774C144.078 165.317 146.96 168.19 150.515 168.19Z" fill="#005CA1"/>
<path d="M150.515 164.47C152.009 164.47 153.22 163.263 153.22 161.774C153.22 160.285 152.009 159.078 150.515 159.078C149.021 159.078 147.811 160.285 147.811 161.774C147.811 163.263 149.021 164.47 150.515 164.47Z" fill="white"/>
</g>
<defs>
<clipPath id="clip0_2186_926">
<rect width="172" height="168" fill="white" transform="translate(0 0.189941)"/>
</clipPath>
</defs>
</svg>
