<svg width="269" height="103" viewBox="0 0 269 103" fill="none" xmlns="http://www.w3.org/2000/svg">
<g clip-path="url(#clip0_2186_1021)">
<path d="M30.1719 85.0468C28.3783 85.0745 26.5847 85.1576 24.805 85.1853C19.5771 85.0607 14.2936 84.9222 9.13524 84.0083C14.099 82.5404 18.9097 80.6849 23.7344 78.8432C25.4307 78.2062 27.0853 77.5 28.7815 76.863C29.3099 76.6553 29.5602 76.0183 29.3377 75.506C28.5174 73.872 25.6671 76.1429 24.3462 76.3783C22.5943 77.0707 20.8146 77.7077 19.0627 78.3724C15.5311 79.8956 11.8048 80.9064 8.17587 82.1666C7.85608 80.8372 6.93842 79.6048 5.54802 79.2863C0.000337058 77.6661 -2.29382 85.4761 2.90627 87.4147C4.69988 87.8994 6.50739 87.1239 7.50848 85.753C11.2765 86.8608 18.7707 86.9854 19.9386 87.0962C22.636 87.2901 25.3612 87.2762 28.0585 87.1655C29.2404 86.9162 31.5762 87.7748 31.7848 86.0715C31.7848 85.1991 30.8949 84.9222 30.158 85.0468H30.1719Z" fill="#005CA1"/>
<path d="M183.255 58.2106C183.199 57.1305 182.198 56.0227 181.113 56.7428C180.488 56.812 180.237 57.4352 180.14 57.9752C180.057 58.3768 179.918 59.1246 179.792 60.0385C178.569 60.0246 177.318 60.1493 176.094 60.1908C175.454 60.2462 174.801 60.3016 174.161 60.3708C173.452 60.4539 173.035 61.2847 173.383 61.894C172.59 62.3648 172.896 63.6942 173.814 63.7773C174.3 63.8327 174.801 63.805 175.288 63.7911C176.664 63.7496 178.041 63.8881 179.417 63.9434C179.348 66.0206 179.542 67.89 180.376 68.2084C182.309 68.7346 182.532 65.6882 182.893 64.4143C183.352 62.3787 183.463 60.2739 183.241 58.1968L183.255 58.2106Z" fill="#005CA1"/>
<path d="M172.868 64.2341C172.868 63.7356 172.882 63.2371 172.896 62.7386C172.896 62.0463 172.91 61.3539 172.924 60.6615C172.952 55.718 172.757 50.7745 171.881 45.8863C171.784 45.4432 171.686 45.0001 171.575 44.557C171.394 43.7954 171.2 43.0338 171.005 42.2722C169.392 36.2485 167.07 30.3357 164.109 24.8798C163.4 23.6889 162.649 22.5396 161.856 21.4595C161.37 20.7948 160.869 20.144 160.355 19.5209C141.793 -2.89808 105.114 1.20075 78.6272 3.16708C70.3683 4.33026 61.8173 5.10572 54.1841 8.70604C48.0663 11.8633 43.1304 16.6129 39.3763 22.2211C38.9036 22.9135 38.4587 23.6197 38.0416 24.3398C35.4276 28.7294 33.495 33.5621 32.2436 38.5057C31.8821 39.5304 31.5206 40.5689 31.173 41.6213C30.9227 42.3691 30.6864 43.1169 30.45 43.8646C28.4061 50.4975 26.9601 57.3381 26.835 64.2895C26.835 64.9819 26.835 65.6881 26.835 66.3943C26.835 66.422 26.835 66.4497 26.835 66.4774C27.0018 72.5564 27.4884 78.8432 30.0885 84.4237C35.8169 93.9368 48.9006 94.0338 58.828 94.4215C65.4463 94.6292 71.9255 93.3552 78.5577 93.4245C96.5216 93.2583 114.499 93.3276 132.436 92.3444C142.141 91.2504 152.026 90.9458 161.606 88.9795C171.353 85.4899 173.216 73.2904 172.854 64.2203L172.868 64.2341Z" fill="#F5E83A"/>
<path d="M60.301 95.8341C59.8005 95.8341 59.2999 95.8341 58.7994 95.8064L57.5898 95.7648C47.4399 95.391 34.8012 94.9063 28.9059 85.1439L28.8364 85.0193C26.0278 78.9818 25.6245 72.3073 25.4577 66.533C25.4438 65.716 25.4438 64.9959 25.4577 64.2758C25.5689 57.9337 26.7647 51.1208 29.1283 43.4632C29.3647 42.7016 29.6011 41.9538 29.8513 41.1922C30.1989 40.1398 30.5604 39.0874 30.9359 38.0489C32.2289 32.953 34.2311 28.0649 36.8589 23.6475C37.3039 22.8998 37.7627 22.1797 38.2493 21.4597C42.3649 15.2976 47.5233 10.6033 53.5715 7.48762C60.4679 4.23348 67.9899 3.22262 75.2756 2.23945C76.3323 2.10098 77.4029 1.94866 78.4596 1.79634L82.6725 1.47785C108.284 -0.488485 143.377 -3.18873 161.425 18.6486C161.953 19.2995 162.481 19.9641 162.982 20.6427C163.802 21.7505 164.581 22.9413 165.318 24.1737C168.335 29.7266 170.699 35.6809 172.367 41.9123C172.576 42.6877 172.77 43.4632 172.951 44.2386C173.062 44.6956 173.16 45.1387 173.257 45.5957C174.258 51.0931 174.355 56.5351 174.341 60.6755C174.341 61.3817 174.341 62.0741 174.314 62.7665L174.286 64.2205C174.536 70.701 173.827 86.1132 162.106 90.2951L161.911 90.3505C155.321 91.6937 148.536 92.2891 141.959 92.843C138.886 93.1061 135.716 93.3831 132.616 93.7293C117.919 94.5324 103.07 94.6294 88.6929 94.7401C85.3282 94.7678 81.9634 94.7817 78.5986 94.8232C75.4563 94.7678 72.3141 95.0586 69.2691 95.3217C66.3493 95.571 63.346 95.8341 60.3149 95.8341H60.301ZM31.3252 83.773C36.4557 92.1922 48.2185 92.6353 57.6871 92.9954L58.8967 93.0369C62.2615 93.1338 65.6958 92.843 69.0188 92.5522C72.1333 92.2753 75.3451 91.9845 78.5986 92.0399C81.9356 92.0122 85.3004 91.9845 88.679 91.9568C103.014 91.8599 117.85 91.7491 132.393 90.9598C135.438 90.6136 138.636 90.3367 141.723 90.0736C148.174 89.5197 154.862 88.9519 161.258 87.6503C171.185 84.0222 171.727 70.1056 171.505 64.2758V64.1928L171.533 62.7111C171.533 62.0187 171.547 61.3263 171.561 60.634C171.574 56.6182 171.477 51.3424 170.532 46.1219C170.448 45.7342 170.351 45.291 170.24 44.8479C170.059 44.1002 169.878 43.3524 169.67 42.6046C168.057 36.581 165.776 30.8344 162.884 25.5169C162.231 24.4092 161.494 23.3014 160.729 22.2628C160.257 21.612 159.77 20.9888 159.269 20.3934C142.126 -0.308467 109.271 2.21176 82.8672 4.23348L78.7377 4.55197C77.7644 4.69045 76.6938 4.84277 75.6232 4.98124C68.5461 5.93671 61.2326 6.91988 54.7812 9.96631C49.2057 12.8466 44.3949 17.2362 40.5296 22.9967C40.0708 23.6752 39.6397 24.3538 39.2226 25.06C36.7338 29.2419 34.829 33.8946 33.5637 38.852C33.1605 40.0013 32.8129 41.026 32.4653 42.0507C32.2289 42.7847 31.9926 43.5324 31.7562 44.2663C29.4759 51.6747 28.308 58.2245 28.2107 64.3035C28.2107 64.9821 28.2107 65.6606 28.2107 66.3391C28.3636 71.9058 28.739 78.2202 31.2974 83.7591L31.3252 83.773Z" fill="#005CA1"/>
<path d="M56.4504 17.4022C55.1851 17.3192 54.5038 15.8098 55.5884 14.9928C56.7007 14.2589 60.0932 13.5527 61.1221 14.5635C61.5392 14.6882 61.9147 15.0343 61.9842 15.4775C62.1927 17.5407 57.8547 17.5684 56.4504 17.4161V17.4022Z" fill="#005CA1"/>
<path d="M68.866 11.1846C67.0863 10.8661 67.2948 8.81673 68.8938 8.35977C69.9644 7.97204 72.9815 7.15504 73.6906 8.31823C74.511 8.49824 74.9837 9.52295 74.4137 10.2015C73.6072 11.3093 70.1729 11.3093 68.866 11.1846Z" fill="#005CA1"/>
<path d="M82.1448 13.6634C81.0881 13.1926 81.2688 11.6278 82.395 11.3924C83.8967 11.0047 86.7609 10.1323 88.0957 11.0601C89.1802 10.8385 89.778 12.2648 88.9438 12.9433C87.6785 13.6357 83.41 14.4111 82.1448 13.6634Z" fill="#005CA1"/>
<path d="M99.1356 10.4369C97.2586 9.92456 97.0917 7.8336 99.0383 7.2797C100.192 6.93352 103.585 6.4904 104.35 7.55665C105.587 7.75051 106.769 9.25988 105.406 10.1461C103.488 10.9493 101.152 10.9908 99.1495 10.4369H99.1356Z" fill="#005CA1"/>
<path d="M110.439 16.4052C109.049 16.2667 106.852 16.4606 105.879 15.339C105.059 14.0096 106.741 13.3449 107.839 13.3726C109.216 13.3311 112.428 12.6526 113.04 14.245C113.443 14.5497 113.568 15.0897 113.345 15.5605C112.789 16.5437 111.413 16.3637 110.439 16.4052Z" fill="#005CA1"/>
<path d="M117.071 9.41207C116.181 9.31514 115.083 9.34284 114.43 8.63662C113.873 8.05503 114.11 7.01647 114.888 6.75337C116.056 6.44873 120.38 5.7979 120.881 7.15495C121.771 7.29342 122.035 8.59508 121.242 9.05204C119.949 9.59209 118.462 9.41207 117.085 9.41207H117.071Z" fill="#005CA1"/>
<path d="M124.524 14.5775C123.62 14.5359 122.355 14.4805 121.98 13.4835C121.799 12.9296 122.091 12.348 122.605 12.0988C124.51 11.5587 126.665 11.448 128.612 11.808C129.432 12.0572 129.543 13.2897 128.792 13.6774C128.125 14.7852 125.706 14.4944 124.538 14.5636L124.524 14.5775Z" fill="#005CA1"/>
<path d="M133.756 10.2431C133.116 10.1739 132.421 10.1462 131.865 9.78614C131.128 9.30148 131.281 8.166 132.087 7.84751C133.339 7.44593 134.701 7.50132 135.994 7.48747C136.411 7.45978 136.801 7.65364 136.995 8.01367C137.885 8.09676 138.233 9.28764 137.551 9.84153C136.592 10.4924 134.91 10.2293 133.756 10.257V10.2431Z" fill="#005CA1"/>
<path d="M145.158 15.2699C144.435 15.2284 143.601 15.173 143.086 14.6053C142.516 13.9683 143.017 12.9436 143.837 12.8605C144.88 12.7497 147.855 11.9327 148.425 12.9436C149.343 12.819 149.969 14.0237 149.301 14.6745C148.536 15.45 146.27 15.1869 145.172 15.2561L145.158 15.2699Z" fill="#005CA1"/>
<path d="M37.666 26.1538C38.7922 28.1755 41.4479 30.5019 44.0062 30.5849C47.7881 31.1388 51.3753 28.8679 53.7112 26.0707C56.339 30.8757 62.9156 30.3218 66.5306 26.9846C66.9478 26.5553 67.643 26.0014 68.1713 25.3922C68.9499 27.1092 70.8826 28.5355 72.6206 28.7986C75.7351 29.3248 78.7383 27.6493 80.9769 25.6276C83.8272 30.1141 91.5856 29.8095 94.4637 25.5306C95.9097 27.2616 98.621 28.397 100.581 28.314C103.613 28.4247 106.24 26.6107 108.256 24.5198C111.121 28.5355 116.863 28.4801 120.548 25.6137C120.617 25.5722 120.687 25.5445 120.756 25.5029C121.785 27.0677 123.453 28.5078 124.83 28.494C127.708 28.9925 130.461 27.4416 132.352 25.3783C135.3 28.7848 141.07 27.9678 144.004 24.8244C145.269 26.0984 147.257 26.9292 148.8 27.2062C151.887 27.6631 155.405 26.86 157.588 24.5336C158.172 23.952 158.922 23.0243 158.839 22.2073C159.84 22.1242 160.841 22.0549 161.842 21.9718C161.217 21.1133 160.577 20.2963 159.91 19.4932C146.826 20.4348 133.742 21.0579 120.617 20.5733C110.314 20.9333 99.9836 20.8364 89.6807 20.5733C82.5063 20.4763 75.3458 21.2656 68.1713 21.141C58.1048 21.0718 49.4844 21.7641 39.3901 22.2073L37.6799 26.1261L37.666 26.1538ZM40.8083 26.0568C40.2939 25.6276 40.0992 24.9629 39.835 24.3675C43.8811 24.2013 47.9271 24.0905 51.9732 23.9936C49.3036 27.4554 44.2287 29.8372 40.7944 26.0568H40.8083ZM64.9178 24.866C62.8461 26.6246 59.7455 27.8432 57.2706 26.1676C56.5754 25.766 56.0888 24.7829 55.5465 23.9243C59.0086 23.8689 62.4707 23.8274 65.9328 23.7997C65.5991 24.2013 65.2793 24.6167 64.9178 24.866ZM77.5565 24.9213C75.4292 26.5553 71.3414 27.0262 70.5072 23.8274C73.4409 23.7997 76.3886 23.6612 79.3223 23.5228C78.78 24.0351 78.1822 24.4921 77.5565 24.9213ZM92.6284 23.3289C91.8081 25.5306 89.0968 26.2922 86.9417 26.1953C84.0357 25.9322 83.4101 24.5198 82.8956 23.3704C85.0229 23.2874 87.1363 23.232 89.2636 23.2458C90.3898 23.2735 91.5022 23.3012 92.6284 23.3289ZM96.3407 23.3981C99.4274 23.4535 102.514 23.4674 105.601 23.4674C103.029 25.9322 98.1483 26.7492 96.3407 23.3981ZM113.971 25.0321C112.775 25.1152 111.816 24.3121 110.94 23.4535C113.679 23.4258 116.418 23.3843 119.157 23.315C117.711 24.4921 115.834 25.1568 113.957 25.0321H113.971ZM123.078 24.2982C122.814 24.0074 122.689 23.6335 122.591 23.2597C125.247 23.3012 127.917 23.3566 130.586 23.3843C128.723 25.6553 124.983 27.2754 123.092 24.2982H123.078ZM134.132 23.412C136.704 23.412 139.276 23.3566 141.848 23.232C139.791 25.1568 135.939 25.7383 134.132 23.412ZM155.127 23.2597C153.347 24.4782 151.067 24.9629 148.939 24.5336C147.883 24.2844 146.868 23.7859 146.061 23.0519C149.343 22.9135 152.61 22.6919 155.878 22.4427C155.641 22.7473 155.405 23.0519 155.127 23.2597Z" fill="#005CA1"/>
<path d="M103.097 58.6674C103.042 53.1561 102.569 47.6172 100.998 42.3136C99.9134 39.0456 97.8557 35.473 94.338 34.476C91.6128 33.7421 88.54 34.0329 86.1346 35.5561C82.4501 38.1594 80.5313 42.549 79.1687 46.731C76.3601 55.6487 77.3612 65.1618 76.9719 74.3565C76.7077 79.4662 76.6243 84.5898 76.5965 89.7133C76.7077 90.6134 76.1099 92.1227 76.7355 92.829C76.7355 93.2028 76.9441 93.5767 77.4029 93.7429C78.5709 93.9368 79.7944 93.646 80.9762 93.646C83.8822 93.5352 86.7742 93.4936 89.6801 93.5352C93.5593 93.466 97.4663 93.7152 101.332 93.2582C101.346 93.2582 101.359 93.2582 101.373 93.2582C101.916 93.3136 102.486 92.8982 102.513 92.3305C102.569 90.4057 102.653 88.4947 102.792 86.5699C103.167 82.5403 103.292 78.5938 103.389 74.5365C103.515 69.3438 103.264 63.9017 103.125 58.6674H103.097Z" fill="#005CA1"/>
<path d="M85.1478 62.3927C82.798 62.365 83.9381 58.7785 83.8408 57.2692C84.0772 53.6827 84.7307 50.1239 85.8152 46.6898C86.2879 45.2496 87.0387 43.7403 88.3596 42.9094C89.7639 42.3001 91.6131 42.1893 92.8784 43.1587C95.4506 45.3466 96.1875 48.8361 96.3266 52.0625C96.3961 53.7796 96.3127 55.4967 96.2571 57.2276C96.118 58.5154 96.4934 61.9357 94.6581 61.9496C91.488 62.185 88.304 62.4343 85.1339 62.4066L85.1478 62.3927Z" fill="white"/>
<path d="M85.1341 70.0778C84.0218 69.884 81.5886 70.6594 81.5469 68.9562C81.7137 67.3637 84.1191 68.153 85.2314 68.0007C86.594 68.07 86.4828 70.1194 85.1341 70.0778Z" fill="white"/>
<path d="M114.276 92.7184C111.982 92.5384 110.745 90.2813 110.258 88.2734C109.646 85.6285 111.371 81.4605 112.969 79.328C118.225 73.7751 123.564 71.4349 131.267 72.5981C133.019 72.9997 134.882 73.2213 136.495 74.0521C138.455 75.0076 140.527 75.9492 142.043 77.5555C144.198 79.9511 147.145 83.5653 147.132 86.9025C147.104 89.0627 145.672 91.2644 143.461 91.6937C141.667 92.0122 139.874 91.7075 138.15 91.2367C136.578 90.9044 134.966 90.7521 133.367 90.5997C129.362 90.2259 125.316 89.6166 121.298 90.1982C120.644 90.3228 119.963 90.4336 119.337 90.6413C117.586 91.5552 116.557 93.1477 114.263 92.7599L114.276 92.7184Z" fill="white"/>
<path d="M68.7556 94.1444C67.0732 94.0751 65.4742 93.2858 64.2368 92.1919C63.5555 92.4688 62.8047 91.998 62.0817 92.0119C60.3437 91.9149 58.6613 91.4303 56.9372 91.2641C55.5607 91.1672 54.1842 91.3472 52.8216 91.4857C50.9168 91.5272 49.0676 91.9565 47.2322 92.4273C45.9948 92.9674 44.8268 93.7982 43.4086 93.729C41.0867 93.729 39.3626 91.5411 39.0289 89.4086C38.2086 86.3206 39.5155 83.0942 41.1006 80.4631C44.0482 75.8381 49.5542 73.1794 54.8933 72.5286C58.6474 72.1824 61.887 73.0132 65.2101 74.7026C68.3245 76.4612 71.1331 78.8984 72.8433 82.0833C74.3589 84.5897 74.8177 87.0545 73.8027 89.8655C72.9824 91.998 71.3278 94.3798 68.7695 94.1582L68.7556 94.1444ZM64.5983 92.0396C64.5983 92.0396 64.64 92.0396 64.6539 92.0396C64.5983 92.0396 64.5288 92.0396 64.4731 92.0396C64.5149 92.0396 64.5566 92.0396 64.5983 92.0396Z" fill="white"/>
<path d="M65.7243 55.192C63.2911 55.0951 60.844 55.0951 58.3969 55.0674C56.0055 54.9428 53.3776 54.8458 51.0417 54.9289C50.3187 54.9566 49.5818 54.9012 48.8588 54.9289C47.677 54.8735 45.7443 55.372 45.2299 53.9596C44.8962 49.8054 45.4245 45.6096 45.4802 41.4415C45.5219 40.6522 45.647 39.4475 46.7037 39.4752C47.7882 39.3229 48.9283 39.5998 50.0407 39.5444C53.8782 39.5444 57.7017 39.3644 61.5392 39.5029C63.1521 39.489 66.3083 39.1567 67.657 39.9183C68.3661 40.5138 67.9907 42.0924 68.1714 42.9924C68.2409 44.7788 68.3244 46.4681 68.2688 48.2268C68.2688 49.8054 68.2827 51.3978 68.0741 52.9764C68.0046 54.6104 67.4762 55.3582 65.7382 55.2059L65.7243 55.192Z" fill="#005CA1"/>
<path d="M62.2482 53.9039C57.0203 53.5855 51.709 53.8901 46.5089 53.1977C45.7442 52.8654 45.7025 51.7161 46.4672 51.3422C46.7313 51.1899 47.0233 51.2037 47.3014 51.2729C49.095 51.4391 50.9025 51.5083 52.6961 51.5499C57.0759 51.6468 61.4695 51.8822 65.8493 51.8684C67.1563 51.813 67.2953 53.807 65.9883 53.9316C64.737 53.9316 63.4856 53.9593 62.2343 53.9178L62.2482 53.9039Z" fill="white"/>
<path d="M135.773 53.7103C133.186 53.738 130.614 53.3779 128.028 53.4887C127.138 53.4887 126.248 53.4749 125.345 53.4333C124.232 53.4749 123.12 53.281 123.273 51.8963C123.245 48.7114 123.19 45.5126 123.315 42.3277C123.509 41.1368 122.758 38.3396 124.663 38.4781C124.969 38.2012 125.386 38.2012 125.776 38.2704C127.472 38.2012 129.182 38.1181 130.878 38.215C134.952 38.4504 139.054 38.8382 143.128 38.3258C144.31 38.1319 145.144 38.6304 144.977 39.9044C144.977 41.3722 144.977 42.8401 145.005 44.294C145.06 46.9527 144.977 49.6114 144.56 52.2424C144.629 54.2365 142.294 53.7103 140.973 53.7518C139.221 53.7518 137.483 53.7657 135.745 53.7103H135.773Z" fill="#005CA1"/>
<path d="M123.926 51.6333C123.898 49.9024 126.401 50.5393 127.527 50.4286C128.431 50.4286 129.335 50.4563 130.225 50.4286C134.326 50.3316 138.428 50.4701 142.53 50.5947C143.892 50.4978 144.101 52.4918 142.738 52.658C140.388 52.6995 138.039 52.4503 135.689 52.478C133.089 52.478 130.489 52.5334 127.889 52.5057C127.207 52.5057 126.526 52.478 125.859 52.5057C125.038 52.6026 124.079 52.7134 123.912 51.6471L123.926 51.6333Z" fill="white"/>
<path d="M66.6415 46.7864C65.0564 46.8833 63.4436 46.8279 61.8585 46.7587C60.4542 46.7171 59.036 46.7033 57.6317 46.6894C57.6317 44.7231 57.6317 42.7568 57.7846 40.8043C57.8542 39.9181 56.6723 39.3919 56.0327 40.015C55.4349 40.6658 55.6851 41.7182 55.6017 42.5629C55.6017 43.9338 55.5322 45.3186 55.5461 46.6894C54.3226 46.6894 53.0851 46.6894 51.8616 46.7171C50.4712 46.731 49.0669 46.7864 47.6765 46.911C46.7449 46.9664 45.2711 47.0356 45.5213 48.3373C45.6604 48.9327 46.2861 49.2512 46.8561 49.0989C47.9823 48.9466 49.1225 48.8912 50.2626 48.8358C54.7953 48.725 59.328 48.7666 63.8468 48.9327C64.8618 48.9466 65.8489 48.9327 66.85 48.8773C68.2126 48.7112 67.9902 46.7033 66.6415 46.8141V46.7864Z" fill="white"/>
<path d="M143.948 45.7756C143.586 45.4571 143.1 45.5402 142.655 45.5817C141.654 45.554 140.653 45.471 139.651 45.4987C138.15 45.4987 136.662 45.4987 135.16 45.4987C135.105 43.6708 135.091 41.7045 135.216 39.7381C135.299 39.1981 134.896 38.6719 134.354 38.5888C133.464 38.4365 133.019 39.3366 133.103 40.0982C133.061 41.0398 133.033 41.9814 133.033 42.923C133.033 43.7816 133.047 44.6401 133.075 45.5125C131.392 45.5125 129.724 45.4986 128.042 45.4848C127.124 45.4571 126.206 45.4571 125.289 45.4987C124.496 45.4571 123.384 45.5263 123.453 46.6618C123.509 47.2434 124.093 47.7004 124.663 47.5758C125.9 47.5342 126.943 47.5065 128.25 47.5619C132.074 47.5758 135.897 47.6173 139.721 47.5896C140.944 47.5619 142.154 47.7419 143.364 47.6311C144.254 47.5896 144.629 46.3433 143.934 45.8033L143.948 45.7756Z" fill="white"/>
<path d="M69.645 86.3623C69.492 85.7669 69.2835 85.1853 69.0332 84.6175C69.0054 84.5483 68.9776 84.4791 68.9359 84.4237C67.2396 80.6987 63.4021 78.5939 59.8288 76.9322C59.7037 76.8907 59.5646 76.8353 59.4256 76.7938C58.7721 76.586 58.063 76.4614 57.3678 76.4614C56.8812 76.4614 56.4084 76.5168 55.9496 76.6691C52.7378 76.8076 49.7206 78.2339 47.3986 80.4079C47.0093 80.768 46.6339 81.1557 46.2863 81.5711C46.1751 81.6957 46.0778 81.8065 45.9804 81.9311C42.6574 85.9054 42.421 90.6966 44.2703 94.6154C44.5622 95.2385 44.9098 95.8478 45.3131 96.4155C47.3986 99.4343 50.8329 101.65 55.0319 102.079C55.4908 102.135 55.9496 102.176 56.4084 102.19C57.1036 102.218 57.7988 102.218 58.5079 102.176C60.524 102.038 62.5123 101.498 64.1668 100.348C65.2235 99.642 66.1551 98.7696 66.9615 97.7726C67.3925 97.2325 67.7958 96.6648 68.1434 96.0693C69.8535 93.1614 70.4931 89.6303 69.645 86.3762V86.3623Z" fill="#005CA1"/>
<path d="M60.2462 90.5306C62.8462 92.4277 65.5158 94.2001 68.1436 96.0557C67.796 96.6511 67.3928 97.2189 66.9618 97.7589C64.3617 95.9172 61.7061 94.1309 59.1338 92.2753C58.7862 92.0122 58.4386 91.7491 58.105 91.486C57.8686 91.6661 57.6183 91.8184 57.3541 91.943C57.4932 95.1002 57.9242 98.2574 58.3969 101.387C58.4386 101.636 58.4665 101.885 58.5082 102.135C58.5082 102.135 58.5082 102.162 58.5082 102.176C57.813 102.218 57.1039 102.232 56.4087 102.19C56.2974 101.401 56.1862 100.611 56.075 99.8222C55.7135 97.3435 55.4076 94.8233 55.2964 92.3169C55.1156 92.303 54.9209 92.2753 54.7402 92.2199C54.2396 92.0953 53.8086 91.8599 53.4332 91.5414C52.3209 92.2476 51.1947 92.94 50.0824 93.6462C48.5112 94.5879 46.9262 95.5295 45.3133 96.4157C44.9101 95.848 44.5625 95.2387 44.2705 94.6156C44.8962 94.2971 45.4941 93.9509 46.0919 93.5908C48.2053 92.3861 50.2631 91.0983 52.307 89.7967C52.0011 88.7719 52.0845 87.6088 52.6407 86.6948C52.2514 86.4456 51.876 86.1963 51.5006 85.9194C49.6931 84.6039 47.8994 83.2884 46.078 82.0006C46.0502 81.9729 46.0085 81.9452 45.9807 81.9175C46.078 81.7929 46.1754 81.6821 46.2866 81.5574C46.6342 81.1559 47.0096 80.7681 47.3989 80.3943C47.7604 80.6158 48.0941 80.9482 48.4556 81.142C50.277 82.4021 51.9872 83.8146 53.8642 85.0055C54.0311 85.1024 54.1979 85.2132 54.3648 85.3239C54.907 85.1301 55.491 85.0055 56.075 84.9778C56.2418 83.8007 56.4226 82.6098 56.5477 81.419C56.7563 79.7434 57.0482 78.0956 57.368 76.4478C58.0632 76.4478 58.7723 76.5862 59.4258 76.7801C58.967 79.1065 58.6194 81.3082 58.383 83.6069C58.3135 84.2438 58.2162 84.867 58.1189 85.504C58.2301 85.5732 58.3274 85.6563 58.4247 85.7532C58.9114 86.1548 59.2451 86.5979 59.4536 87.0687C59.5232 87.0549 59.5927 87.0272 59.6622 87.0133C62.735 86.0855 65.8356 85.2409 68.9361 84.4239C68.964 84.4931 68.9918 84.5623 69.0335 84.6177C69.2976 85.1855 69.4923 85.7671 69.6452 86.3625C68.6442 86.6256 67.6431 86.8887 66.6559 87.1795C64.5147 87.7611 62.3735 88.3288 60.2462 88.9797C60.0654 89.0351 59.8569 89.0904 59.6344 89.1597C59.5788 89.3951 59.4954 89.6305 59.398 89.852C59.7039 90.0874 59.9959 90.309 60.2462 90.5167V90.5306Z" fill="white"/>
<path d="M53.8362 91.098C51.1249 89.9625 51.6116 86.0991 53.7528 84.6313C54.7121 83.8974 57.4373 84.0912 58.3828 84.839C62.4567 87.8024 57.8823 93.1475 53.8362 91.098Z" fill="#F5E83A"/>
<path d="M142.07 86.6529C142.001 86.1544 141.889 85.6421 141.75 85.1574C141.75 85.1436 141.75 85.1159 141.737 85.102C141.083 82.4572 139.359 80.3108 137.287 78.6076C137.051 78.4137 136.801 78.2476 136.55 78.0814C135.952 77.7075 135.313 77.4167 134.659 77.1675C133.297 76.669 131.851 76.3782 130.447 76.1012C128.959 75.8243 127.513 75.7827 126.122 75.935C125.427 76.0181 124.746 76.1428 124.079 76.3366C121.437 77.0844 119.101 78.663 117.321 81.0724C117.266 81.1417 117.21 81.2109 117.154 81.294C116.793 81.7787 116.473 82.291 116.195 82.8172C113.97 86.9022 114.04 91.7626 116.362 95.6122C116.723 96.2077 117.127 96.7754 117.585 97.3016C118.086 97.897 118.656 98.4509 119.282 98.9494C121.186 100.362 123.342 101.733 125.733 102.065C125.983 102.093 126.22 102.12 126.47 102.134C126.915 102.176 127.36 102.19 127.805 102.204C130.975 102.231 134.201 101.4 136.801 99.6141C137.371 99.2264 137.913 98.7833 138.427 98.2986C138.566 98.1601 138.719 98.0217 138.858 97.8832C141.556 94.8229 142.682 90.6548 142.07 86.6668V86.6529Z" fill="#005CA1"/>
<path d="M141.751 85.1578C141.473 84.9916 141.111 84.9639 140.805 85.0885C138.122 86.0579 135.313 86.6672 132.546 87.2903C132.004 87.4426 131.184 87.4288 130.614 87.6642C131.267 86.5564 132.06 85.504 132.685 84.3685C133.909 82.2221 135.202 80.1173 136.551 78.0541C135.953 77.6802 135.313 77.3894 134.66 77.1401C132.95 79.7573 131.42 82.4852 129.779 85.1439C129.501 85.6424 129.07 86.1133 128.792 86.6256C128.083 83.7592 127.277 80.9066 126.595 78.0264C126.443 77.3201 126.29 76.6139 126.123 75.9077C125.428 75.9908 124.746 76.1154 124.079 76.3093C124.176 76.7663 124.287 77.2094 124.385 77.6663C125.08 80.8928 126.012 84.0638 126.804 87.2626C123.787 84.9916 120.38 83.2607 117.322 81.0451C117.266 81.1143 117.21 81.1836 117.155 81.2667C116.793 81.7513 116.473 82.2637 116.195 82.7899C119.087 84.9362 122.369 86.5702 125.275 88.7166C124.802 89.1181 124.315 89.5059 123.842 89.9074C121.354 91.7907 118.865 93.6878 116.376 95.5849C116.738 96.1803 117.141 96.7481 117.6 97.2743C118.642 96.4988 119.671 95.6957 120.686 94.8787C122.855 93.2447 125.052 91.6245 127.138 89.8797C127.207 89.852 127.263 89.8244 127.318 89.7828C126.846 91.5691 126.874 93.4385 126.651 95.2525C126.415 97.0804 126.206 98.9083 125.928 100.736C125.872 101.179 125.817 101.608 125.747 102.052C125.998 102.079 126.234 102.107 126.484 102.121C126.929 102.162 127.374 102.176 127.819 102.19C127.847 101.899 127.875 101.609 127.944 101.387C128.528 97.9943 128.695 94.5463 129.182 91.1399C129.418 91.4445 129.682 91.7215 129.919 92.0261C132.171 94.6017 134.493 97.1081 136.829 99.6006C137.399 99.2129 137.941 98.7698 138.456 98.2851C135.842 95.4326 133.144 92.6769 130.697 89.672C130.683 89.6443 130.655 89.6028 130.642 89.5751C130.794 89.6305 130.975 89.6582 131.156 89.6305C132.963 89.3812 134.743 88.9243 136.523 88.495C138.261 88.0796 139.999 87.6226 141.667 86.9856C141.848 86.9164 141.987 86.7918 142.098 86.6395C142.029 86.1409 141.918 85.6286 141.779 85.1439L141.751 85.1578ZM129.015 89.4228C128.737 89.1458 128.292 89.0351 127.916 89.1597C127.972 89.0628 128 88.952 128.014 88.8412C128.389 88.8273 128.765 88.6196 128.931 88.2734C129.223 88.4812 129.627 88.5365 129.96 88.4119C129.932 88.5227 129.932 88.6473 129.946 88.7858C129.974 88.9381 130.016 89.0766 130.099 89.1874C129.724 89.0627 129.307 89.1735 129.015 89.4366V89.4228Z" fill="white"/>
<path d="M126.512 91.8876C123.801 90.7521 124.287 86.8887 126.429 85.4208C127.388 84.6869 130.113 84.8808 131.059 85.6286C135.132 88.5919 130.558 93.937 126.512 91.8876Z" fill="#F5E83A"/>
<path d="M67.3785 41.7044C62.0672 41.5936 56.7559 41.372 51.4446 41.289C49.9151 41.3443 48.3996 41.3582 46.8702 41.3028C45.9386 41.2751 44.6316 41.372 44.284 40.2781C44.0755 39.5303 43.6723 38.381 44.5482 37.9102C44.8819 37.2178 45.7301 37.1486 46.4252 37.204C47.6766 37.2317 48.9141 37.2317 50.1654 37.2871C53.697 37.4671 57.2147 37.6055 60.7463 37.6194C62.5538 37.6609 64.3614 37.6886 66.155 37.7025C67.2256 37.7302 68.4074 37.6332 69.3668 38.1594C70.1732 38.6579 69.9508 39.6827 69.8117 40.4581C69.6449 41.649 68.3796 41.8013 67.3785 41.6767V41.7044Z" fill="white"/>
<path d="M142.821 40.7492C136.175 40.6523 129.515 40.5138 122.869 40.403C122.007 40.4861 121.409 39.8491 121.34 39.0321C120.895 38.1459 120.658 36.5396 121.965 36.3042C124.677 36.2904 127.388 36.4288 130.085 36.3181C133.881 36.3734 137.663 36.5673 141.459 36.5812C142.516 36.6089 143.572 36.6365 144.629 36.6227C145.477 36.6227 146.423 36.3181 146.77 37.2735C147.159 41.0816 146.144 40.8739 142.808 40.7492H142.821ZM144.073 38.6998C144.295 38.6998 144.518 38.6998 144.74 38.6998C144.74 38.6998 144.74 38.686 144.74 38.6721C144.712 38.6721 144.671 38.6721 144.643 38.6721C144.323 38.6721 144.017 38.6721 143.697 38.6721C143.822 38.6721 143.948 38.6721 144.073 38.6721V38.6998ZM141.292 38.6721C141.403 38.6721 141.514 38.6721 141.626 38.6721C141.82 38.6721 142.029 38.6721 142.224 38.6721C141.918 38.6721 141.612 38.6583 141.292 38.6444C141.292 38.6444 141.292 38.6583 141.292 38.6721Z" fill="white"/>
<path d="M76.0824 101.318C75.8322 100.307 75.8739 99.2544 75.7209 98.2436C75.3316 96.6927 77.6397 96.2911 77.7648 97.8697C77.9456 98.9221 77.89 99.9883 78.1402 101.013C78.3071 102.356 76.3188 102.661 76.0824 101.304V101.318Z" fill="#005CA1"/>
<path d="M99.5668 101.221C99.5111 100.044 99.3721 98.8666 99.4833 97.6896C99.6363 96.3325 101.638 96.5125 101.555 97.8696C101.472 98.9497 101.597 100.044 101.638 101.124C101.666 102.481 99.6502 102.578 99.5529 101.221H99.5668Z" fill="#005CA1"/>
<path d="M77.2785 98.4235C76.1106 98.4235 75.4154 97.6342 75.8881 96.4987C76.1801 95.294 76.4443 94.0892 76.8058 92.9122C76.8475 92.566 77.1256 92.3583 77.2924 92.0814C77.6818 91.569 78.363 91.6521 78.9192 91.7213C79.7952 91.7213 80.6711 91.7213 81.5471 91.7629C83.4797 91.7075 85.4124 91.6244 87.345 91.8321C89.1108 91.9291 90.8627 91.8321 92.6285 91.8044C95.159 91.7629 97.6896 91.5552 100.22 91.5275C101.152 91.5275 102.695 91.3059 102.751 92.6076C101.374 98.742 102.667 98.4373 96.1323 98.3958C92.5312 98.3958 88.9301 98.3404 85.3428 98.3958C82.6455 98.2573 79.962 98.6312 77.2785 98.4373V98.4235Z" fill="#F5E83A"/>
<path d="M78.9883 99.8637C78.4044 99.8637 77.8065 99.8498 77.2225 99.8083C76.1658 99.7944 75.276 99.3513 74.7754 98.6036C74.2888 97.8835 74.2193 96.9973 74.5669 96.0833L74.692 95.5571C74.9284 94.5878 75.1508 93.5908 75.4567 92.6076C75.554 92.0537 75.8599 91.6937 76.0407 91.4721L76.1936 91.2644C77.0418 90.1566 78.3348 90.2674 79.03 90.3505C79.8921 90.3505 80.7541 90.3505 81.6162 90.392H82.1167C83.8686 90.3228 85.69 90.2674 87.5254 90.4613C88.6933 90.5167 89.9168 90.489 91.2099 90.4613C91.6826 90.4613 92.1693 90.4336 92.642 90.4336C93.8517 90.4197 95.0613 90.3644 96.2849 90.2951C97.6057 90.2259 98.9266 90.1705 100.247 90.1566H100.526C102.889 90.0597 104.113 90.8767 104.182 92.5661V92.7461L104.154 92.9261C103.946 93.8816 103.793 94.6709 103.668 95.3356C102.875 99.5729 102.055 99.8221 97.0913 99.8083L93.2538 99.7806C90.6398 99.7667 88.0259 99.7529 85.412 99.7806C84.105 99.7113 82.8953 99.7667 81.6162 99.8221C80.768 99.8498 79.906 99.8914 79.03 99.8914L78.9883 99.8637ZM77.1669 97.0388C77.1669 97.0388 77.2364 97.0388 77.2781 97.0388H77.3755C78.7102 97.1357 80.045 97.0803 81.4632 97.0388C82.7424 96.9834 84.0772 96.9419 85.4259 96.9973C87.9703 96.9557 90.5981 96.9834 93.226 96.9973L97.0774 97.025C98.6346 97.025 100.108 97.0526 100.387 96.8588C100.553 96.6788 100.734 95.6956 100.901 94.8232C100.998 94.2832 101.123 93.6462 101.276 92.9123C101.054 92.9123 100.776 92.9123 100.595 92.9123H100.261C98.9683 92.94 97.6892 92.9954 96.3961 93.0646C95.1586 93.12 93.9073 93.1892 92.6698 93.2031C92.211 93.2031 91.7383 93.2169 91.2655 93.2308C89.9725 93.2585 88.6238 93.3 87.289 93.2308C85.5788 93.0508 83.9242 93.1061 82.1862 93.1477H81.6023C80.6568 93.1477 79.7947 93.1338 78.9466 93.1338H78.7659C78.6546 93.1061 78.46 93.0784 78.3209 93.0784C78.2792 93.12 78.2375 93.1754 78.1958 93.2308C78.1819 93.2446 78.168 93.2585 78.168 93.2723L78.1402 93.3415C77.8482 94.2693 77.6257 95.2109 77.3894 96.208L77.1669 97.0388Z" fill="#005CA1"/>
<path d="M213.44 64.8573C214.079 65.3973 214.9 65.7019 215.97 65.7019C224.355 65.6743 232.739 65.1619 241.067 64.151C243.222 63.8879 245.628 63.431 246.823 61.6308C247.56 60.523 247.671 59.1106 247.658 57.7674C247.616 44.2523 238.245 31.2496 225.383 26.9015C222.046 25.766 218.418 25.1844 214.983 25.9737C214.121 26.1676 213.245 26.4722 212.675 27.1369C211.98 27.9401 211.869 29.0756 211.799 30.128C211.257 38.4918 211.062 46.8833 211.215 55.2748C211.271 58.072 211.104 62.9048 213.426 64.8434L213.44 64.8573ZM186.327 79.7294C186.369 79.8955 186.411 80.0756 186.466 80.2279C186.522 80.394 186.591 80.5464 186.689 80.6987C186.786 80.8372 186.897 80.9618 187.036 81.0449C187.161 81.1141 187.314 81.1557 187.453 81.1557C187.745 81.1418 188.037 81.031 188.26 80.8372C188.524 80.6018 188.719 80.2971 188.886 79.9786C189.038 79.6601 189.15 79.3416 189.233 78.9955C189.386 78.2892 189.428 77.583 189.372 76.863C189.33 76.3921 189.247 75.9213 189.136 75.4505C189.025 74.9936 188.886 74.5227 188.677 74.0935C188.594 73.9135 188.482 73.7473 188.343 73.595C188.218 73.4426 188.065 73.3042 187.898 73.2211C187.801 73.1795 187.718 73.138 187.62 73.1103C187.44 73.0549 187.245 73.0688 187.05 73.1103C186.856 73.1657 186.689 73.2903 186.55 73.415C186.411 73.5396 186.299 73.6919 186.202 73.8581C186.105 74.0242 186.021 74.1904 185.952 74.3704C185.813 74.7443 185.729 75.1182 185.702 75.5059C185.646 76.226 185.702 76.946 185.799 77.6661C185.841 78.0261 185.896 78.3723 185.966 78.7185C185.993 78.8847 186.035 79.0508 186.077 79.217C186.091 79.3001 186.119 79.3832 186.146 79.4663C186.146 79.4524 186.146 79.4247 186.146 79.4109C186.16 79.5494 186.244 79.6601 186.341 79.7294H186.327ZM259.698 67.9868C259.518 68.0145 259.351 68.056 259.198 68.1391C259.031 68.2222 258.864 68.3191 258.711 68.4437C258.433 68.6791 258.225 68.9838 258.044 69.3023C257.863 69.6208 257.724 69.9392 257.613 70.2854C257.488 70.6455 257.404 71.0055 257.335 71.3794C257.265 71.7256 257.21 72.0856 257.182 72.4318C257.126 73.1518 257.182 73.8719 257.237 74.592C257.237 74.6335 257.237 74.6751 257.237 74.7166C257.265 75.0905 257.307 75.4644 257.39 75.8244C257.474 76.1983 257.571 76.5722 257.696 76.9322C257.821 77.2922 257.96 77.6384 258.127 77.9846C258.211 78.1646 258.308 78.3446 258.405 78.5246C258.503 78.677 258.6 78.8293 258.697 78.9816C258.697 78.9816 258.697 78.9955 258.711 79.0093C258.809 79.1478 258.92 79.2724 259.031 79.4109C259.156 79.5494 259.267 79.6878 259.406 79.7986C259.685 80.034 259.976 80.2417 260.31 80.394C260.491 80.4771 260.672 80.5325 260.866 80.5602C261.033 80.5879 261.2 80.6156 261.381 80.6018C261.409 80.6018 261.436 80.6018 261.478 80.6018C261.728 80.5741 261.965 80.5187 262.187 80.394C262.354 80.2971 262.507 80.1863 262.646 80.0479C262.882 79.7848 263.021 79.4524 263.119 79.1062C263.216 78.7601 263.258 78.3862 263.286 78.0261C263.286 78.0261 263.286 78.04 263.286 78.0538C263.313 77.6384 263.313 77.223 263.3 76.8076C263.272 76.0598 263.216 75.312 263.133 74.5643C263.049 73.8304 262.896 73.1103 262.743 72.3902C262.743 72.3625 262.743 72.3349 262.729 72.321C262.729 72.321 262.729 72.3349 262.729 72.3487C262.729 72.3349 262.729 72.3072 262.729 72.2933C262.729 72.2518 262.716 72.2102 262.702 72.1687C262.59 71.6563 262.465 71.1301 262.312 70.6316C262.271 70.507 262.229 70.3685 262.187 70.2439C262.132 70.0916 262.076 69.9393 261.951 69.8562C261.909 69.8285 261.867 69.8008 261.826 69.7869C261.784 69.7038 261.742 69.6208 261.687 69.5515C261.562 69.33 261.423 69.1223 261.27 68.9145C261.131 68.7207 260.964 68.5268 260.783 68.3606C260.519 68.1252 260.171 67.9868 259.81 68.0006C259.768 68.0006 259.726 68.0006 259.685 68.0006L259.698 67.9868ZM251.398 94.2691C250.967 94.2968 250.536 94.3107 250.105 94.3245C249.451 94.3522 248.728 94.3384 248.242 93.9091C247.741 93.466 247.658 92.7321 247.56 92.0674C247.171 89.3672 245.53 86.3346 242.791 86.2238C239.677 86.0992 237.855 89.7549 237.577 92.8567C237.535 93.3414 237.494 93.8676 237.146 94.2138C236.785 94.5738 236.201 94.5876 235.686 94.5876C211.799 94.4353 238.106 94.2691 214.219 94.1168C213.607 94.1168 212.939 94.0891 212.481 93.6737C211.98 93.2167 211.938 92.4551 211.841 91.7905C211.605 90.1426 210.798 88.4809 209.338 87.6639C207.878 86.8469 205.751 87.1516 204.903 88.5917C204.083 89.9764 204.458 92.1228 203.054 92.9121C202.664 93.1198 202.219 93.1891 201.788 93.2306C198.159 93.6045 194.475 93.4383 190.888 92.7459C186.814 91.9566 185.562 91.5551 184.325 87.6639C181.92 80.0894 181.322 72.0856 180.891 64.1926C180.265 52.6577 180.001 41.0951 180.07 29.5325C180.084 27.2338 180.154 24.7967 181.363 22.8304C183.129 19.964 186.772 18.9531 190.095 18.33C196.505 17.1391 199.383 15.6436 215.206 17.2637C226.579 18.4269 237.925 22.8719 246.198 30.7372C252.538 36.7609 256.542 44.7924 259.893 52.8515C263.814 62.2955 267.04 72.1687 267.554 82.3604C267.707 85.4068 267.471 88.8133 265.274 90.9319C263.689 92.4551 261.423 92.9813 259.253 93.3552C256.653 93.7983 254.026 94.0891 251.384 94.2414L251.398 94.2691Z" fill="#F5E83A"/>
<path d="M235.798 95.9724H235.686C228.498 95.9309 225.509 95.9032 224.257 95.6124C222.839 95.5708 219.474 95.5293 214.219 95.5016C213.551 95.5016 212.425 95.5016 211.563 94.6984C210.743 93.9507 210.604 92.926 210.506 92.1921L210.479 91.9844C210.284 90.5581 209.603 89.3949 208.671 88.8687C207.795 88.384 206.544 88.5917 206.127 89.298C205.918 89.6441 205.807 90.1842 205.696 90.7381C205.459 91.8874 205.167 93.3276 203.749 94.1169C203.151 94.4492 202.526 94.5461 201.942 94.6015C198.174 94.9892 194.378 94.8231 190.638 94.103C186.411 93.286 184.492 92.7321 183.018 88.0794C180.557 80.3248 179.945 72.0579 179.514 64.2618C178.889 52.7547 178.611 41.0674 178.694 29.5326C178.708 27.4001 178.736 24.4921 180.196 22.1103C182.254 18.787 186.23 17.6515 189.859 16.973C190.818 16.7929 191.708 16.6129 192.57 16.4329C197.492 15.3944 201.733 14.5081 215.373 15.8929C227.831 17.1668 239.121 22.0826 247.185 29.7403C253.928 36.1378 258.058 44.7509 261.2 52.3392C264.523 60.3292 268.403 70.9501 268.973 82.3189C269.112 85.1991 269 89.3256 266.275 91.9567C264.454 93.7153 261.951 94.3384 259.518 94.7538C256.876 95.197 254.179 95.5016 251.495 95.6539C251.05 95.6816 250.619 95.6955 250.174 95.7093C249.507 95.737 248.283 95.7785 247.338 94.9477C246.476 94.1861 246.323 93.1198 246.212 92.3444C245.878 90.018 244.585 87.6917 242.75 87.6224C242.722 87.6224 242.68 87.6224 242.652 87.6224C240.456 87.6224 239.176 90.7381 238.982 92.9952C238.926 93.6045 238.843 94.5184 238.147 95.2108C237.397 95.9447 236.409 95.9863 235.826 95.9863L235.798 95.9724ZM225.662 93.0783C227.08 93.1198 230.445 93.1614 235.7 93.1891C235.895 93.1891 236.048 93.1891 236.145 93.1752C236.173 93.0506 236.187 92.8567 236.201 92.7321C236.562 88.6887 238.954 84.7006 242.847 84.8391C246.365 84.9776 248.464 88.5779 248.937 91.8736C248.993 92.2336 249.062 92.7598 249.159 92.8706C249.215 92.9121 249.438 92.9675 250.049 92.9398C250.466 92.926 250.897 92.8983 251.315 92.8844C253.901 92.7321 256.501 92.4413 259.031 92.012C261.325 91.6243 263.105 91.1258 264.315 89.9626C266.234 88.1209 266.289 84.7975 266.178 82.4573C265.622 71.5179 261.854 61.1877 258.614 53.4055C255.583 46.0941 251.62 37.8133 245.239 31.762C237.619 24.5336 226.899 19.8809 215.053 18.6623C201.858 17.3053 197.812 18.1638 193.113 19.147C192.237 19.327 191.319 19.5209 190.332 19.7009C187.315 20.2548 184.019 21.1549 182.532 23.5643C181.558 25.1429 181.461 27.2062 181.447 29.5464C181.364 41.0259 181.642 52.6577 182.254 64.1095C182.657 71.7256 183.269 79.7848 185.632 87.2347C186.647 90.4196 187.301 90.6273 191.138 91.3751C194.614 92.0397 198.132 92.2059 201.622 91.832C201.858 91.8043 202.206 91.7766 202.359 91.6797C202.637 91.5274 202.762 90.9735 202.943 90.1565C203.096 89.4364 203.262 88.6056 203.707 87.8578C204.903 85.8361 207.795 85.1714 210.02 86.4315C211.73 87.4009 212.898 89.2703 213.218 91.5689L213.245 91.8043C213.287 92.0674 213.343 92.5244 213.426 92.6352C213.537 92.7044 214.052 92.7044 214.219 92.7044C221.407 92.746 224.396 92.7737 225.648 93.0644L225.662 93.0783ZM263.286 81.308C263.147 81.4049 263.008 81.5019 262.855 81.5849C262.479 81.7927 262.048 81.9173 261.603 81.9588H261.451C261.172 81.9727 260.908 81.9588 260.63 81.9034C260.31 81.848 260.018 81.7511 259.74 81.6265C259.309 81.4326 258.878 81.1557 258.489 80.8095C258.308 80.6433 258.141 80.4633 257.975 80.2833C257.835 80.131 257.71 79.9648 257.585 79.7986C257.432 79.5771 257.307 79.3832 257.196 79.1893C257.071 78.9816 256.973 78.7601 256.862 78.5385C256.681 78.1508 256.515 77.7631 256.376 77.3615C256.223 76.9322 256.111 76.5168 256.014 76.0737C255.931 75.6583 255.889 75.2428 255.847 74.8136V74.6751C255.778 73.9827 255.722 73.1519 255.792 72.321C255.819 71.9056 255.889 71.504 255.958 71.0886C256.042 70.6593 256.139 70.2439 256.278 69.8285C256.431 69.3854 256.612 68.9838 256.821 68.5961C257.001 68.2637 257.321 67.7791 257.794 67.3637C258.016 67.1698 258.28 67.0036 258.586 66.8652C258.878 66.7267 259.184 66.6436 259.49 66.6021H259.754C260.436 66.5467 261.145 66.8098 261.687 67.2806C261.923 67.4883 262.16 67.7514 262.382 68.0699C262.549 68.2914 262.702 68.5268 262.855 68.7761C263.258 69.1084 263.411 69.5377 263.481 69.7593C263.536 69.9116 263.578 70.0639 263.62 70.2024C263.773 70.7147 263.898 71.2271 264.009 71.7533L264.078 72.0441C264.245 72.7642 264.398 73.5535 264.496 74.3705C264.579 75.1044 264.635 75.866 264.662 76.7245C264.676 77.1815 264.662 77.6384 264.648 78.0954C264.621 78.6216 264.551 79.0509 264.44 79.4525C264.37 79.7017 264.259 80.034 264.064 80.3802L263.272 81.2942L263.286 81.308ZM259.879 69.3577C259.879 69.3577 259.824 69.3715 259.782 69.3854C259.685 69.4269 259.629 69.4685 259.615 69.4823C259.504 69.5792 259.393 69.7316 259.268 69.967C259.142 70.1885 259.031 70.4378 258.948 70.7009C258.851 71.0055 258.781 71.3102 258.711 71.6287C258.656 71.9195 258.614 72.2103 258.586 72.5149C258.545 73.1657 258.586 73.8304 258.642 74.4674C258.684 74.8967 258.711 75.2151 258.781 75.5336C258.85 75.8521 258.934 76.1568 259.045 76.4614C259.156 76.7661 259.282 77.0845 259.421 77.3753C259.49 77.5277 259.56 77.68 259.643 77.8185C259.713 77.9431 259.796 78.0539 259.865 78.1646C259.949 78.2893 260.032 78.3862 260.116 78.4831C260.199 78.5801 260.283 78.6631 260.366 78.7462C260.547 78.9124 260.741 79.037 260.922 79.1201C260.992 79.1478 261.061 79.1755 261.159 79.1893C261.256 79.2032 261.325 79.217 261.381 79.217C261.492 79.217 261.534 79.1893 261.562 79.1755C261.687 79.0647 261.756 78.9678 261.826 78.7185C261.882 78.5247 261.923 78.3031 261.937 77.9985V77.9154C261.965 77.5692 261.965 77.2092 261.951 76.863C261.923 76.1429 261.882 75.4367 261.798 74.7305C261.729 74.1212 261.603 73.5119 261.492 72.9996L261.381 72.4734C261.27 71.9887 261.159 71.504 261.02 71.0332C261.02 71.0055 261.02 70.9917 261.006 70.964L260.894 70.9224L260.519 70.2162C260.422 70.0501 260.31 69.8839 260.185 69.7177C260.074 69.5654 259.991 69.4546 259.907 69.3854H259.921L259.879 69.3577ZM187.454 82.5404C187.05 82.5404 186.647 82.4296 186.327 82.2358C186.008 82.0419 185.743 81.7788 185.521 81.4465C185.354 81.1972 185.243 80.9341 185.159 80.6987C185.118 80.6018 185.09 80.5048 185.062 80.3941C184.923 80.2002 184.826 79.9925 184.77 79.7571L184.715 79.5355C184.673 79.3555 184.631 79.1617 184.589 78.9816C184.506 78.5939 184.45 78.2062 184.409 77.8185C184.325 77.0984 184.228 76.2398 184.297 75.3813C184.339 74.869 184.45 74.3705 184.631 73.8858C184.728 73.6227 184.854 73.3734 184.979 73.138C185.146 72.8472 185.34 72.598 185.563 72.3903C185.91 72.0718 186.258 71.8641 186.633 71.7533C187.092 71.6148 187.551 71.6148 187.968 71.7394C188.163 71.7948 188.343 71.8641 188.524 71.961C188.816 72.1133 189.108 72.3487 189.372 72.6534C189.567 72.8888 189.748 73.1519 189.901 73.4288C190.193 74.0243 190.36 74.6197 190.471 75.0905C190.596 75.6029 190.679 76.0737 190.721 76.5445V76.7245C190.804 77.6246 190.749 78.4831 190.568 79.2724C190.471 79.7017 190.318 80.131 190.123 80.5464C189.859 81.0726 189.553 81.5019 189.178 81.8342C188.719 82.2358 188.135 82.485 187.523 82.5127C187.495 82.5127 187.468 82.5127 187.44 82.5127L187.454 82.5404ZM187.398 78.7739L187.551 78.8709L187.662 79.3278C187.76 79.1201 187.829 78.8986 187.885 78.677C187.996 78.2062 188.038 77.68 187.996 77.1261V77.0845L187.982 76.8491C187.954 76.586 187.885 76.1983 187.787 75.769C187.704 75.4506 187.593 75.0351 187.44 74.7028C187.426 74.6751 187.398 74.6336 187.384 74.6059C187.342 74.6889 187.301 74.772 187.259 74.8551C187.176 75.1044 187.106 75.3675 187.092 75.6306C187.037 76.2399 187.106 76.8907 187.189 77.5138C187.231 77.8323 187.273 78.1508 187.342 78.4554C187.37 78.5662 187.384 78.6631 187.412 78.7739H187.398ZM215.957 67.0867C214.622 67.0867 213.482 66.6851 212.55 65.9097C209.936 63.7218 209.881 59.1106 209.853 56.0503V55.3026C209.686 46.911 209.881 38.4087 210.423 30.0311C210.493 28.9925 210.59 27.4139 211.633 26.223C212.522 25.2122 213.802 24.8244 214.692 24.6167C217.973 23.869 221.741 24.2013 225.856 25.586C239.274 30.1141 249.034 43.6431 249.062 57.7536C249.062 59.2352 248.937 60.9523 247.992 62.3786C246.532 64.5803 243.876 65.1896 241.234 65.5081C232.878 66.5328 224.383 67.059 215.971 67.0729H215.957V67.0867ZM218.293 26.9985C217.25 26.9985 216.249 27.1093 215.303 27.317C214.789 27.4277 214.08 27.6355 213.732 28.037C213.343 28.4802 213.259 29.3248 213.204 30.2111C212.662 38.5057 212.467 46.9249 212.62 55.2472V56.0226C212.662 58.4182 212.703 62.4201 214.344 63.791C214.761 64.1372 215.289 64.3172 215.957 64.3172C224.257 64.2895 232.642 63.7772 240.887 62.7663C242.861 62.5309 244.821 62.1293 245.656 60.8554C246.198 60.0384 246.267 58.8891 246.267 57.7674C246.24 44.8062 237.272 32.3713 224.939 28.217C222.547 27.4139 220.323 26.9985 218.279 26.9985H218.293Z" fill="#005CA1"/>
<path d="M245.878 60.2462C245.878 60.2462 245.92 60.1908 245.934 60.1631C245.92 60.2046 245.892 60.2323 245.878 60.2739C245.878 60.2739 245.878 60.26 245.878 60.2462Z" fill="#005CA1"/>
<path d="M189.372 76.863C189.427 77.5831 189.399 78.2893 189.232 78.9955C189.149 79.3417 189.038 79.6602 188.885 79.9787C188.732 80.2972 188.537 80.6018 188.259 80.8372C188.037 81.0311 187.759 81.1419 187.453 81.1557C187.314 81.1557 187.147 81.128 187.036 81.0449C186.883 80.9618 186.771 80.8372 186.688 80.6987C186.591 80.5603 186.535 80.3941 186.466 80.2279C186.41 80.0618 186.368 79.8956 186.327 79.7294C186.215 79.6602 186.146 79.5494 186.132 79.4109C186.132 79.4248 186.132 79.4525 186.132 79.4663C186.118 79.3832 186.09 79.3001 186.062 79.2171C186.021 79.0509 185.979 78.8847 185.951 78.7186C185.882 78.3724 185.826 78.0123 185.784 77.6662C185.701 76.9461 185.631 76.226 185.687 75.506C185.715 75.1182 185.798 74.7305 185.937 74.3705C186.007 74.1905 186.09 74.0243 186.188 73.8581C186.285 73.6919 186.396 73.5396 186.535 73.415C186.674 73.2765 186.855 73.1657 187.036 73.1104C187.216 73.055 187.411 73.0411 187.606 73.1104C187.703 73.138 187.8 73.1796 187.884 73.2211C188.051 73.3181 188.204 73.4565 188.329 73.595C188.454 73.7473 188.565 73.9135 188.662 74.0935C188.871 74.5228 189.01 74.9936 189.121 75.4506C189.232 75.9214 189.316 76.3922 189.358 76.863H189.372Z" fill="#005CA1"/>
<path d="M258.711 78.9814C258.711 78.9814 258.711 78.9814 258.711 78.9956C258.711 78.9956 258.711 78.9956 258.697 78.9814H258.711Z" fill="#F5E83A"/>
<path d="M258.697 78.9541C258.697 78.9541 258.697 78.9682 258.711 78.9823C258.711 78.9823 258.711 78.9682 258.697 78.9541Z" fill="#F5E83A"/>
<path d="M263.3 76.7938C263.314 77.2092 263.3 77.6247 263.286 78.0401C263.286 78.0401 263.286 78.0262 263.286 78.0124C263.272 78.3724 263.23 78.7463 263.119 79.0925C263.022 79.4387 262.883 79.771 262.646 80.0341C262.521 80.1726 262.354 80.2972 262.187 80.3803C261.965 80.5049 261.729 80.5742 261.478 80.588C261.45 80.588 261.423 80.588 261.381 80.588C261.214 80.588 261.033 80.588 260.867 80.5465C260.672 80.5049 260.491 80.4495 260.31 80.3803C259.977 80.228 259.671 80.0203 259.407 79.7849C259.268 79.6602 259.142 79.5218 259.031 79.3971C258.92 79.2725 258.809 79.134 258.711 78.9956C258.711 78.9956 258.711 78.9817 258.698 78.9679C258.586 78.8155 258.489 78.6632 258.406 78.5109C258.308 78.3309 258.211 78.1509 258.127 77.9708C257.961 77.6247 257.822 77.2785 257.696 76.9184C257.571 76.5584 257.46 76.1845 257.391 75.8106C257.321 75.4506 257.279 75.0767 257.238 74.7029C257.238 74.6613 257.238 74.6198 257.238 74.5782C257.182 73.8582 257.14 73.1381 257.182 72.418C257.21 72.058 257.265 71.7118 257.335 71.3656C257.404 70.9918 257.488 70.6317 257.613 70.2717C257.724 69.9255 257.863 69.607 258.044 69.2885C258.225 68.97 258.433 68.6654 258.711 68.43C258.85 68.3054 259.017 68.2084 259.198 68.1253C259.365 68.0561 259.532 68.0007 259.699 67.973C260.088 67.9176 260.491 68.0561 260.783 68.3192C260.964 68.4854 261.131 68.6792 261.27 68.8731C261.423 69.0808 261.562 69.2885 261.687 69.5101C261.729 69.5932 261.77 69.6762 261.826 69.7455C261.868 69.7593 261.909 69.787 261.951 69.8147C262.09 69.9117 262.132 70.064 262.187 70.2024C262.229 70.3271 262.271 70.4517 262.313 70.5902C262.465 71.1025 262.591 71.6149 262.702 72.1272C262.702 72.1688 262.716 72.2103 262.73 72.2519C262.73 72.2657 262.73 72.2934 262.73 72.3073C262.73 72.3073 262.73 72.2934 262.73 72.2796C262.73 72.3073 262.73 72.3349 262.744 72.3488C262.897 73.0689 263.049 73.7889 263.133 74.5228C263.216 75.2706 263.272 76.0184 263.3 76.7661V76.7938Z" fill="#005CA1"/>
<path d="M209.672 89.8378C210.562 91.4026 210.673 93.3135 210.381 95.0583C210.409 96.9 209.561 101.982 206.78 100.57C204.639 98.8663 204.889 92.5519 206.029 90.2671C206.766 88.5916 208.657 88.0931 209.672 89.8378Z" fill="white"/>
<path d="M207.697 102.19C207.197 102.19 206.668 102.066 206.154 101.802L205.918 101.65C203.137 99.4345 203.443 92.3447 204.777 89.6583C205.361 88.3428 206.543 87.4427 207.85 87.3734C209.088 87.3181 210.172 87.955 210.867 89.1598C212.049 91.2369 212.008 93.5632 211.757 95.1834C211.743 96.0281 211.535 100.321 209.213 101.761C208.74 102.052 208.226 102.204 207.683 102.204L207.697 102.19ZM207.544 99.393C207.683 99.4484 207.725 99.4207 207.753 99.393C208.42 98.9776 209.018 96.6097 208.99 95.0726V94.948L209.004 94.8233C209.282 93.1478 209.088 91.6246 208.462 90.5168C208.393 90.3922 208.212 90.1152 208.017 90.1152C207.85 90.1152 207.517 90.323 207.308 90.8076C206.265 92.9124 206.279 98.0913 207.558 99.3791L207.544 99.393Z" fill="#005CA1"/>
<path d="M242.666 88.6331C244.557 90.0594 244.932 94.4767 244.904 96.7338C244.71 98.257 243.834 101.013 241.887 100.805C239.801 100.403 239.19 95.7091 239.037 93.9228C238.828 91.8734 239.676 87.0268 242.666 88.6469V88.6331Z" fill="white"/>
<path d="M242.124 102.19C241.999 102.19 241.873 102.19 241.734 102.162C238.87 101.608 237.953 97.4265 237.647 94.02C237.48 92.4691 237.814 88.7857 239.871 87.4148C240.455 87.0271 241.679 86.5147 243.319 87.4148L243.5 87.5256C246.253 89.6027 246.309 95.5709 246.295 96.748V96.9003C245.947 99.6005 244.529 102.19 242.124 102.19ZM241.554 89.6996C241.484 89.6996 241.442 89.7273 241.429 89.7412C240.747 90.1981 240.288 92.3999 240.427 93.7708C240.761 97.6065 241.721 99.3513 242.165 99.4344C242.165 99.4344 242.179 99.4344 242.193 99.4344C242.694 99.4344 243.333 97.9665 243.528 96.6233C243.556 93.9646 243 90.7382 241.915 89.7966C241.748 89.7135 241.637 89.6996 241.568 89.6996H241.554Z" fill="#005CA1"/>
</g>
<defs>
<clipPath id="clip0_2186_1021">
<rect width="269" height="102" fill="white" transform="translate(0 0.189941)"/>
</clipPath>
</defs>
</svg>
