<svg width="180" height="129" viewBox="0 0 180 129" fill="none" xmlns="http://www.w3.org/2000/svg">
<g clip-path="url(#clip0_2087_2603)">
<g clip-path="url(#clip1_2087_2603)">
<path d="M46.8775 66.4877C48.3782 65.1026 50.6087 66.1292 50.9942 67.8158C51.3796 69.5023 49.5181 71.246 47.8533 70.7734C46.1804 70.3008 45.3849 67.8891 46.8939 66.4714L46.8775 66.4877Z" fill="#005CA1"/>
<path d="M76.137 50.9826C76.4978 49.2227 76.8997 47.3569 77.9576 46.0858C79.2615 44.5052 121.355 46.5014 122.708 49.0027C123.873 51.1455 119.034 80.7868 116.123 92.3565C107.849 92.0795 99.5826 91.6965 91.3163 91.1995C87.2652 90.9551 83.2223 90.6862 79.1712 90.3929C75.6614 90.1403 70.8394 90.7514 67.6002 89.2767C71.8481 77.5359 73.5702 63.587 76.1452 50.9744L76.137 50.9826Z" fill="#FCFCFC"/>
<path d="M116.115 94.369C116.115 94.369 116.091 94.369 116.074 94.369C107.824 94.092 99.4679 93.6928 91.2345 93.1876C87.208 92.9432 83.1159 92.6662 79.073 92.3647C78.0807 92.2914 76.9737 92.2914 75.7928 92.2914C72.898 92.2914 69.6095 92.2914 67.0837 91.1263C66.5015 90.8574 66.2227 90.1893 66.4359 89.5782C69.4947 80.9742 71.2578 71.0748 72.9554 61.5013C73.5786 57.9652 74.2346 54.3151 74.9317 50.8278C75.2843 49.0679 75.719 46.8844 77.0065 45.3119C77.4411 44.7823 78.0315 44.049 90.1766 44.3586C97.139 44.5378 105.323 45.0267 111.523 45.6378C114.828 45.9637 117.485 46.314 119.428 46.6725C122.577 47.2592 123.406 47.7725 123.783 48.4813C124.062 49.0109 124.808 50.4123 122.151 67.6935C120.642 77.4707 118.698 87.8102 117.304 93.4239C117.165 93.9779 116.673 94.3609 116.115 94.3609V94.369ZM69.1503 89.2604C71.0692 89.8145 73.472 89.8145 75.801 89.8145C77.0229 89.8145 78.1791 89.8145 79.2616 89.896C83.2881 90.1974 87.3638 90.4744 91.3903 90.7189C99.2711 91.1996 107.267 91.5825 115.172 91.8595C116.501 86.2702 118.264 76.8189 119.658 67.832C121.519 55.855 121.782 50.9827 121.634 49.7849C120.101 49.0517 112.49 47.9843 100.263 47.2755C88.7907 46.6155 80.3769 46.6644 78.7614 47.0881C77.9741 48.1961 77.6297 49.9235 77.3427 51.333C76.6456 54.7876 76.006 58.4296 75.3745 61.9494C73.7344 71.2052 72.0369 80.7543 69.1503 89.2686V89.2604Z" fill="#005CA1"/>
<path d="M85.8878 55.5208C88.5694 53.0439 92.5877 54.8853 93.2683 57.8999C93.9572 60.9146 90.6278 64.0514 87.6263 63.204C84.6331 62.3567 83.198 58.0303 85.9042 55.4882L85.8796 55.5208H85.8878Z" fill="#005CA1"/>
<path d="M82.8946 70.6673C85.5762 68.1904 89.5945 70.0318 90.2752 73.0464C90.964 76.061 87.6346 79.1979 84.6332 78.3505C81.6399 77.5032 80.2048 73.1768 82.911 70.6347L82.8864 70.6673H82.8946Z" fill="#005CA1"/>
<path d="M50.2642 89.5945C49.6328 89.5945 49.0998 89.1219 49.0424 88.4946L48.2059 78.7174C48.1485 78.0574 48.6487 77.4789 49.3212 77.4219C49.9936 77.373 50.5841 77.8537 50.6415 78.5137L51.4779 88.2909C51.5353 88.9508 51.0351 89.5293 50.3627 89.5864C50.3298 89.5864 50.297 89.5864 50.256 89.5864L50.2642 89.5945Z" fill="#005CA1"/>
<path d="M48.1238 79.8254C45.803 79.8254 43.5151 79.2388 41.5715 78.1062C38.2339 76.1508 36.0443 72.6473 35.8475 68.9564C35.6015 64.3041 38.3651 59.8473 43.0476 57.3378C47.599 54.9017 52.7079 55.0565 56.3818 57.7371C61.2038 61.265 62.6553 68.5327 59.5391 73.6169C57.9727 76.1752 55.3321 78.1959 52.3061 79.1654C50.9448 79.5973 49.5261 79.8091 48.1238 79.8091V79.8254ZM49.6737 58.0548C47.886 58.0548 46.008 58.5274 44.2203 59.4888C41.2107 61.102 38.0699 64.4019 38.2995 68.8342C38.4471 71.6696 40.2184 74.4887 42.818 76.0123C45.3356 77.487 48.6076 77.8048 51.5599 76.8596C54.0365 76.0693 56.185 74.4316 57.4561 72.3621C59.8917 68.3779 58.719 62.4627 54.9385 59.7088C53.4296 58.6089 51.6009 58.0548 49.6737 58.0548Z" fill="#005CA1"/>
<path d="M45.4506 79.3853C45.3686 79.3853 45.2784 79.369 45.1964 79.3364C44.8273 79.1979 44.6469 78.7823 44.7863 78.4238C46.0328 75.1892 46.9103 71.8079 47.4105 68.3859C47.4679 67.9948 47.8288 67.7341 48.2224 67.783C48.616 67.84 48.8866 68.1985 48.8292 68.5896C48.3126 72.1175 47.4023 75.5966 46.123 78.929C46.0164 79.2142 45.7458 79.3853 45.4588 79.3853H45.4506Z" fill="#005CA1"/>
<path d="M39.9067 75.3603C39.6935 75.3603 39.4884 75.2707 39.349 75.0914C39.103 74.7818 39.1522 74.3418 39.4638 74.0974C41.8912 72.1664 44.4252 70.3087 46.992 68.5733C47.32 68.3533 47.7629 68.4348 47.9843 68.7607C48.2057 69.0866 48.1237 69.5266 47.7957 69.7465C45.2535 71.4657 42.7523 73.3071 40.3577 75.2136C40.2265 75.3196 40.0707 75.3684 39.9149 75.3684L39.9067 75.3603Z" fill="#005CA1"/>
<path d="M47.3118 68.6629C47.2544 68.6629 47.1888 68.6629 47.1313 68.6385C43.9987 67.8237 40.7759 67.4408 37.5366 67.4978C37.143 67.5141 36.815 67.1963 36.8068 66.8053C36.8068 66.4142 37.1102 66.0883 37.5038 66.0801C40.8743 66.0149 44.2283 66.4142 47.4922 67.2615C47.8776 67.3593 48.099 67.7504 48.0006 68.1252C47.9186 68.4429 47.6234 68.6548 47.3118 68.6548V68.6629Z" fill="#005CA1"/>
<path d="M48.7222 68.6304C48.509 68.6304 48.3122 68.5408 48.1728 68.3697C45.9586 65.6973 43.7937 62.9108 41.7435 60.0998C41.5139 59.782 41.5795 59.3421 41.8993 59.1058C42.2192 58.8777 42.662 58.9428 42.8998 59.2606C44.7778 61.8434 46.7623 64.4018 48.7879 66.8705C48.8289 66.8705 48.8781 66.8705 48.9273 66.8868C49.3127 66.9602 49.5669 67.3349 49.4931 67.7179L49.4275 68.0438C49.3783 68.3127 49.1733 68.5245 48.9027 68.5978C48.8453 68.6141 48.7879 68.6223 48.7305 68.6223L48.7222 68.6304Z" fill="#005CA1"/>
<path d="M48.8372 69.1273C48.4436 69.1273 48.1238 68.8177 48.1238 68.4266L48.009 56.6125C48.009 56.2214 48.3206 55.8955 48.7142 55.8955C49.1078 55.8955 49.4277 56.2051 49.4277 56.5962L49.5425 68.4103C49.5425 68.8014 49.2309 69.1192 48.8372 69.1273Z" fill="#005CA1"/>
<path d="M48.6077 69.3473C48.4437 69.3473 48.2797 69.2903 48.1485 69.1762C47.845 68.9236 47.8122 68.4755 48.0665 68.1741L55.7668 59.1709C56.021 58.8694 56.4721 58.8368 56.7755 59.0894C57.0789 59.342 57.1117 59.7901 56.8575 60.0916L49.1571 69.0947C49.0177 69.2577 48.8127 69.3473 48.6159 69.3473H48.6077Z" fill="#005CA1"/>
<path d="M49.8869 69.1436C49.6327 69.1436 49.3867 69.0051 49.2555 68.7688C49.0669 68.4185 49.2063 67.9948 49.5507 67.8074C52.6259 66.186 55.8816 64.915 59.2438 64.0106C59.6293 63.9047 60.0147 64.1328 60.1213 64.5076C60.2279 64.8824 59.9983 65.2735 59.6211 65.3794C56.3654 66.2512 53.2082 67.4897 50.2314 69.0622C50.1248 69.1192 50.0099 69.1436 49.8951 69.1436H49.8869Z" fill="#005CA1"/>
<path d="M52.577 77.7151C52.3227 77.7151 52.0849 77.5847 51.9537 77.3484C50.4038 74.5945 49.1081 71.6939 48.083 68.7037C47.9928 68.4348 48.0666 68.1415 48.2716 67.9541C48.4767 67.7667 48.7801 67.7097 49.0343 67.8238C50.6334 68.5 52.3227 69.0867 53.9629 69.657C55.6194 70.2355 57.3333 70.8303 58.9734 71.5228C59.3343 71.6776 59.5065 72.0932 59.3507 72.4517C59.1949 72.8102 58.7766 72.9813 58.4158 72.8265C56.8167 72.1502 55.1274 71.5636 53.4872 70.9932C52.3227 70.5858 51.1337 70.1703 49.961 69.7222C50.863 72.1095 51.9455 74.4315 53.192 76.6477C53.3806 76.9899 53.2576 77.4217 52.9132 77.6173C52.8066 77.6825 52.6836 77.7069 52.5688 77.7069L52.577 77.7151Z" fill="#005CA1"/>
<path d="M102.756 34.891C102.756 34.891 114.696 36.1376 119.042 36.9197C118.698 40.2847 118.14 43.6334 117.361 46.9251C114.59 46.6236 111.81 46.371 109.038 46.151C106.963 45.9881 99.238 45.1733 99.238 45.1733L102.764 34.8828L102.756 34.891Z" fill="#005CA1"/>
<path d="M105.749 63.8722C106.815 64.8255 108.365 65.0618 109.792 64.9395C111.334 64.801 112.991 64.1655 113.638 62.7723C114.278 61.4034 113.745 59.7821 113.032 58.454C109.046 50.9989 101.313 59.9206 105.749 63.8803V63.8722Z" fill="#005CA1"/>
<path d="M102.65 79.0431C103.281 79.8578 104.331 80.2326 105.348 80.4119C106.668 80.64 108.095 80.583 109.276 79.9475C110.891 79.0757 111.81 77.1447 111.629 75.3277C111.334 72.4027 107.8 69.054 104.774 70.8384C102.609 72.1176 101.067 77.0062 102.65 79.0431Z" fill="#005CA1"/>
<path d="M138.954 92.5112C141.184 92.5356 142.808 94.6622 142.176 96.7887C139.109 107.185 130.63 115.773 120.691 120.474C103.855 128.442 82.4924 128.622 64.9185 123.252C44.8352 117.117 34.7403 99.4367 30.8778 91.1831C29.9675 89.2277 31.4928 87.0197 33.6496 87.15C52.0681 88.2663 119.658 92.3075 138.945 92.5112H138.954Z" fill="#F5E83A"/>
<path d="M89.8321 128.19C101.067 128.19 111.965 125.966 121.232 121.574C132.09 116.433 140.364 107.299 143.366 97.1309C143.767 95.754 143.505 94.3118 142.644 93.1549C141.775 91.9816 140.43 91.3053 138.97 91.289C119.904 91.0935 53.6018 87.1337 33.7399 85.9279C32.2638 85.8301 30.9271 86.4982 30.107 87.6959C29.287 88.8855 29.1639 90.3847 29.779 91.6964C34.2811 101.319 44.7861 118.372 64.5742 124.418C72.824 126.935 81.4264 128.182 89.8321 128.182V128.19ZM138.946 93.7334C139.634 93.7334 140.258 94.0593 140.668 94.6052C141.069 95.1429 141.192 95.811 141.004 96.4384C138.199 105.947 130.409 114.518 120.174 119.366C104.749 126.666 83.7144 127.709 65.2958 122.079C46.418 116.311 36.3395 99.9174 32.0096 90.6617C31.7635 90.1321 31.8127 89.5536 32.1408 89.0647C32.477 88.5759 33.0018 88.3233 33.5923 88.3559C53.4706 89.5617 119.822 93.5215 138.946 93.7171V93.7334Z" fill="#005CA1"/>
<path d="M36.9627 105.678C36.3067 105.678 35.7572 105.156 35.7408 104.496C35.7244 103.828 36.2575 103.266 36.9299 103.242C71.6185 102.24 106.807 102.085 141.512 102.769C142.185 102.785 142.726 103.339 142.71 104.008C142.693 104.668 142.152 105.197 141.488 105.197C141.48 105.197 141.471 105.197 141.463 105.197C106.799 104.505 71.6595 104.668 37.0037 105.67C36.9955 105.67 36.9791 105.67 36.9709 105.67L36.9627 105.678Z" fill="#005CA1"/>
<path d="M39.2096 112.408C38.5372 112.408 37.996 111.87 37.9878 111.202C37.9878 110.534 38.5208 109.98 39.2015 109.972C79.6305 109.532 92.0216 109.63 128.81 109.907L135.993 109.964C136.666 109.964 137.215 110.518 137.207 111.186C137.207 111.854 136.641 112.4 135.977 112.392L128.793 112.335C92.0216 112.058 79.6387 111.968 39.2343 112.4H39.2179L39.2096 112.408Z" fill="#005CA1"/>
<path d="M146.228 8.78567C147.917 7.13984 149.655 4.59776 148.302 2.66677C147.138 1.01279 144.629 1.26537 142.685 1.86015C129.687 5.81992 119.313 17.2593 116.689 30.5074C126.169 23.4433 135.649 16.3793 145.137 9.32342C146.006 8.67975 146.9 7.99535 147.384 7.03392C147.868 6.07249 147.802 4.74442 146.941 4.09261C145.924 3.32673 144.473 3.84003 143.341 4.41852C133.107 9.68192 125.259 18.4814 117.649 27.0772C126.669 21.0235 135.682 14.9698 144.702 8.91603C136.034 9.85302 128.145 15.9719 125.119 24.0952C130.261 20.5346 135.403 16.9741 140.545 13.4136C137.1 15.7927 122.684 17.577 125.111 24.6003C132.754 21.8301 140.463 14.3831 146.219 8.78567H146.228Z" fill="#FCFCFC"/>
<path d="M116.689 31.7294C116.459 31.7294 116.238 31.6643 116.041 31.542C115.615 31.2732 115.393 30.768 115.492 30.2792C116.82 23.5655 120.076 17.2021 124.898 11.8898C129.712 6.57756 135.739 2.70742 142.324 0.69494C145.555 -0.282782 148.032 0.165341 149.303 1.97412C150.746 4.02734 149.918 6.89532 147.089 9.65738C141.365 15.2304 133.525 22.8566 125.546 25.749C125.382 25.8061 125.209 25.8305 125.037 25.8224L117.427 31.4932C117.214 31.6561 116.951 31.7376 116.689 31.7376V31.7294ZM144.161 2.7563C143.685 2.84593 143.275 2.95185 143.038 3.02518C133.82 5.83612 125.915 12.615 121.372 21.0886C127.489 14.3912 134.394 7.64491 142.783 3.33479C143.267 3.09036 143.726 2.89481 144.161 2.7563ZM137.494 12.2891C136.026 13.0142 134.64 13.8942 133.353 14.9126C133.517 14.8556 133.672 14.7986 133.836 14.7415L137.494 12.2891ZM145.703 4.91544C145.268 4.91544 144.653 5.11098 143.907 5.49392C141.471 6.74866 139.15 8.22339 136.944 9.85293C139.347 8.7367 141.922 7.98711 144.571 7.70194C144.768 7.6775 144.956 7.70194 145.137 7.77527C145.621 7.38418 146.047 6.96865 146.293 6.47979C146.556 5.96649 146.515 5.28208 146.203 5.05395C146.08 4.96432 145.916 4.91544 145.703 4.91544Z" fill="#005CA1"/>
</g>
</g>
<defs>
<clipPath id="clip0_2087_2603">
<rect width="180" height="128" fill="white" transform="translate(0 0.189941)"/>
</clipPath>
<clipPath id="clip1_2087_2603">
<rect width="121" height="128" fill="white" transform="matrix(-1 0 0 1 150 0.189941)"/>
</clipPath>
</defs>
</svg>
