<?xml version="1.0" encoding="utf-8"?>
<!-- Generator: Adobe Illustrator 25.0.0, SVG Export Plug-In . SVG Version: 6.00 Build 0)  -->
<svg version="1.1" id="圖層_1" xmlns="http://www.w3.org/2000/svg" xmlns:xlink="http://www.w3.org/1999/xlink" x="0px" y="0px"
	 viewBox="0 0 388.4 208.1" style="enable-background:new 0 0 388.4 208.1;" xml:space="preserve">
<style type="text/css">
	.st0{fill-rule:evenodd;clip-rule:evenodd;fill:#F5E83A;}
	.st1{fill:#005CA1;}
	.st2{fill-rule:evenodd;clip-rule:evenodd;fill:#005CA1;}
	.st3{fill:#F5E83A;}
</style>
<g>
	<path class="st0" d="M379.9,47.5c-6-5.9-16-9.1-22.4-13.5c-6.4-4.3-9.1-9.7-7.8-13.5c1.3-3.8,6.5-6.1,11.4-7.3
		c4.8-1.3,9.3-1.6,10.9-3.8c1.6-2.2,0.4-6.2-4.4-7.4c-4.8-1.2-13.2,0.5-19.2,4.5c-6,3.9-9.5,10.1-9.1,16.4
		c0.4,6.3,4.6,12.8,11.5,17.6c6.9,4.8,16.5,8,21.2,13.9c4.8,5.9,4.7,14.4-1.3,19.7c-4.4,3.9-12.1,6-18.2,7.4c-0.2-0.3-0.5-0.7-0.7-1
		c-8-10.9-21-11.3-38.9-7.6c-17.9,3.7-40.5,11.4-54.4,14.5c-8.4,1.9-13.6,2.1-17.3,2c5.4-6.7,5.8-15.6,5-26.4c-1-13.9-4-31-7-39.5
		c-3-8.5-6.2-8.4-9.5-5.8c-3.3,2.6-6.9,7.7-8.8,10.4c-1.8,2.6-1.9,2.8-2,2.9c-0.1,0.1-0.1,0.1-5.6,0.8c-5.5,0.7-16.4,2-21.8,2.7
		c-3.6,0.4-5.5,0.6-5.6,0.6c-0.2-0.1-0.5-0.2-3.1-2.1c-2.6-1.9-7.5-5.7-11.3-6.5c-3.8-0.8-6.5,1.4-6.9,11.8
		c-0.3,10.4,1.7,28.9,5.1,42c3,11.5,7.1,18.9,16.7,22c0,1.9,0.1,4.3,0.3,7.2c0.5,12.4,1.1,34.6,1.8,50.4c0.7,15.8,1.6,25.1,4.4,29.9
		c2.8,4.8,7.6,5.1,9.8-0.7c2.2-5.7,1.8-17.5,2.4-27.2c0.6-9.7,2.1-17.5,4.1-20.5c2-3.1,4.6-1.4,5.7,4.8c1.2,6.2,0.9,17,1.2,25.8
		c0.3,8.7,1.2,15.4,4.2,17.3c3.1,2,8.3-0.7,10.4-7.6c2.1-6.9,0.9-17.9,0.3-25.5c-0.7-7.6-0.8-11.6-0.9-13.7c-0.1-2.1,0-2.2,0.1-2.2
		c0.1,0,0.3,0.3,6.1,3.2c5.7,3,17,8.8,30.2,9.1c13.3,0.4,28.5-4.6,37.6-8.6c9.1-4,12-7.2,13.5-8.7c1.5-1.5,1.4-1.5,1.7,4.8
		c0.2,6.3,0.7,28.7,2.1,36.3c1.3,7.6,3.5,10.3,6.8,11c3.3,0.7,7.8-0.5,9.6-7.3c1.9-6.8,1.1-29.1,1-37.1c-0.1-8,0.3-11.7,1.7-12.4
		c1.4-0.7,3.7,1.5,4.7,7.2c1,5.7,0.8,24.8,0.8,32c0,7.2,0.1,12.5,2,14.9c1.9,2.4,5.5,1.8,8.1,0c2.6-1.8,4.3-4.9,5.7-11.8
		c1.4-6.9,2.6-27.6,1.7-43.7c-0.6-12-2.4-27-6.5-38.4c5.2-0.9,11-2.4,15.6-4.5c8.1-3.8,12.6-9.8,13.9-17
		C387.7,61.8,385.9,53.3,379.9,47.5L379.9,47.5z"/>
	<path class="st1" d="M197.9,194.7c-2.3-0.1-4.6-1.7-6.2-4.4c-3-5-3.9-14.3-4.6-30.7c-0.5-10-0.9-22.6-1.2-33.8
		c-0.2-6.4-0.4-12.2-0.6-16.7l-0.1-2.1c-0.1-1.5-0.1-2.8-0.1-4c-9.8-3.6-13.8-11.7-16.7-22.7c-3.7-14-5.5-32.6-5.2-42.5
		c0.2-6.6,1.4-10.5,3.7-12.3c1.4-1.1,3.1-1.4,5.1-1c4,0.8,8.7,4.4,11.6,6.5l0.4,0.3c1.6,1.2,2.3,1.7,2.5,1.8c0.6-0.1,2.1-0.2,5-0.6
		l22.1-2.7c2.5-0.3,3.9-0.5,4.6-0.6c0,0,0-0.1,0.1-0.1l1.6-2.3c1.8-2.6,5.5-7.9,9.1-10.7c0.8-0.6,3.2-2.5,5.9-1.7
		c2.4,0.7,4.4,3.3,6.1,8.2c3,8.4,6,25.6,7.1,39.9c0.7,10.1,0.4,18.3-3.5,24.9c3.3-0.1,7.7-0.6,13.9-2c6-1.4,13.7-3.6,21.9-6
		c10.5-3,22.3-6.5,32.5-8.5c15.6-3.2,31.3-4.4,40.5,8.2c0,0,0.1,0.1,0.1,0.1c5.4-1.2,12.5-3.3,16.5-6.8c5.1-4.5,5.6-12,1.1-17.4
		c-2.8-3.4-7.4-5.9-12.4-8.6c-2.9-1.6-5.9-3.2-8.5-5c-7.3-5.1-11.8-12-12.2-18.9c-0.4-6.9,3.3-13.5,9.8-17.9c6.1-4,14.9-6,20.4-4.7
		c2.9,0.7,5.1,2.5,5.9,4.8c0.6,1.8,0.4,3.7-0.6,5.1c-1.5,2.1-4.6,2.8-8.2,3.5c-1.1,0.2-2.4,0.5-3.6,0.8c-5.8,1.5-9.4,3.8-10.3,6.3
		c-0.9,2.8,0.9,7.4,7.2,11.7c2.4,1.6,5.3,3.1,8.4,4.6c5.1,2.6,10.4,5.2,14.2,9c5.8,5.7,8.5,14.5,7,22.9c-1.4,8-6.6,14.3-14.8,18.1
		c-3.7,1.7-8.5,3.2-14.1,4.3c4,11.8,5.5,26.6,6,37.1c0.7,13.5,0.1,34.9-1.7,44.1c-1.4,7.1-3.2,10.7-6.3,12.8
		c-3.2,2.2-7.8,2.8-10.3-0.3c-2.2-2.8-2.4-8.4-2.4-15.9l0-2.9c0.1-6.6,0.1-24-0.7-28.8c-0.7-4-2-5.5-2.5-5.9
		c-0.4,0.6-0.9,2.9-0.8,10.8c0,1.3,0.1,2.8,0.1,4.3c0.2,7.8,0.5,27.3-1.1,33.2c-2.1,7.6-7.3,9.3-11.5,8.4c-4.3-1-6.6-4.5-8-12.3
		c-1.4-7.9-1.9-30.9-2.1-36.5l0-0.3c0-0.8-0.1-1.6-0.1-2.3c-1.9,1.8-5.4,4.6-12.8,7.9c-10.1,4.5-25.4,9.1-38.3,8.8
		c-13.8-0.4-25.4-6.4-30.9-9.3c-1.5-0.8-2.8-1.5-3.8-2c0.1,3.5,0.4,7.8,0.9,13.1l0.1,1.3c0.7,7.6,1.6,18-0.5,24.8
		c-1.3,4.4-4,7.7-7.3,8.9c-2,0.7-3.9,0.6-5.5-0.4c-3.7-2.4-4.6-9.2-5-18.6c-0.1-2.5-0.1-5.2-0.2-7.9c-0.1-6.5-0.2-13.3-1-17.6
		c-0.7-3.9-1.8-4.9-2.1-5c-0.1,0-0.4,0.2-0.8,0.8c-1.8,2.7-3.3,10.3-3.8,19.7c-0.1,2.6-0.2,5.3-0.3,8c-0.2,7.8-0.4,15.2-2.2,19.7
		c-1.7,4.3-4.4,5.2-5.8,5.3C198.4,194.7,198.1,194.7,197.9,194.7L197.9,194.7z M170.5,27.7c-0.9,0-1.4,0.2-1.7,0.5
		c-1,0.8-2.3,3.2-2.5,9.9c-0.3,9.6,1.5,27.8,5.1,41.5c2.8,10.7,6.4,17.9,15.7,20.8l1.1,0.3l0,1.1c0,1.4,0.1,3.1,0.2,5l0.1,2.1
		c0.2,4.5,0.4,10.4,0.6,16.7c0.4,11.1,0.8,23.7,1.2,33.7c0.7,15.5,1.6,24.8,4.2,29.2c1.1,1.9,2.6,2.9,3.9,2.8
		c1.2-0.1,2.4-1.3,3.1-3.3c1.5-4,1.7-11.4,1.9-18.6c0.1-2.7,0.2-5.5,0.3-8.1c0.6-10.3,2.2-18,4.4-21.3c1.5-2.3,3.2-2.3,4.1-2.2
		c2.2,0.4,3.7,3.1,4.6,7.5c0.8,4.6,1,11.5,1.1,18.2c0,2.7,0.1,5.3,0.2,7.8c0.2,6.6,0.8,14.3,3.5,16c0.7,0.5,1.6,0.5,2.7,0.1
		c1.8-0.7,4.1-2.8,5.3-6.8c1.9-6.2,1-16.3,0.3-23.6l-0.1-1.3c-0.5-5.7-0.8-10.2-0.9-13.8c-0.1-2.4-0.1-3,0.7-3.5l0.7-0.5l0.9,0.3
		c0,0,0.1,0.1,0.3,0.2c0.9,0.5,2.9,1.6,5.9,3.1c5.3,2.7,16.1,8.4,28.9,8.9c0.2,0,0.4,0,0.6,0c12.3,0.4,27.2-4.1,36.9-8.5
		c8.8-3.9,11.6-6.9,12.9-8.3c0.8-0.8,1.6-1.7,2.8-1.2c1.4,0.5,1.4,1.5,1.6,6.8l0,0.3c0.2,5.5,0.7,28.4,2,36.1
		c1.4,7.8,3.5,9.3,5.6,9.7c1.7,0.4,5.9,0.6,7.8-6.1c1.5-5.4,1.2-24.7,1-32.3c0-1.5-0.1-3-0.1-4.4c-0.2-9.4,0.5-12.8,2.6-13.9
		c0.8-0.4,1.8-0.4,2.7,0c2,1,3.6,4,4.3,8.3c0.9,5.1,0.9,22.6,0.8,29.4l0,2.9c0,6.2,0.1,11.9,1.7,13.9c1.3,1.6,4,1,6-0.3
		c2-1.4,3.6-3.7,5-10.8c1.8-8.9,2.4-30.1,1.7-43.3c-0.6-10.8-2.1-26.2-6.4-37.9l-0.7-1.8l1.9-0.3c6.2-1.1,11.4-2.6,15.2-4.4
		c7.3-3.4,11.7-8.7,13-15.8c1.3-7.4-1-15.1-6.1-20.1c-3.5-3.4-8.5-6-13.4-8.4c-3.2-1.6-6.2-3.1-8.7-4.8c-6.7-4.6-10-10.6-8.4-15.4
		c1.2-3.7,5.5-6.5,12.5-8.4c1.3-0.3,2.6-0.6,3.7-0.9c2.8-0.6,5.4-1.2,6.3-2.3c0.4-0.5,0.5-1.3,0.2-2.1c-0.5-1.3-1.8-2.4-3.7-2.8
		c-4-1-12,0.3-17.9,4.2c-5.6,3.7-8.7,9.3-8.4,15c0.3,5.9,4.3,11.8,10.8,16.4c2.5,1.7,5.4,3.3,8.2,4.8c5,2.7,10.1,5.4,13.3,9.4
		c5.6,6.8,4.9,16.3-1.5,21.9c-4.8,4.2-13.1,6.4-18.9,7.7l-1.1,0.2l-0.6-0.9c-0.2-0.3-0.4-0.6-0.7-0.9c-7.7-10.6-20.5-10.4-37.3-7
		c-10,2.1-21.8,5.5-32.2,8.5c-8.2,2.4-16,4.6-22.1,6c-8.8,2-14.1,2.1-17.7,2.1l-3.3-0.1l2.1-2.5c5-6.2,5.5-14.3,4.7-25.3
		c-1-14.1-4-30.9-6.9-39.1c-1.8-4.9-3.3-6-4-6.2c-0.7-0.2-1.7,0.2-3,1.2c-3.2,2.5-6.7,7.6-8.4,10l-1.6,2.3c-0.5,0.7-0.5,0.8-0.6,0.8
		c-0.3,0.3-2.4,0.7-6.3,1.2l-22.1,2.7c-3.9,0.5-6,0.6-6.4,0.5c-0.3-0.1-0.7-0.3-3.4-2.3l-0.4-0.3c-2.4-1.8-7-5.3-10.3-5.9
		C171,27.7,170.8,27.7,170.5,27.7L170.5,27.7z"/>
	<path class="st2" d="M182.9,53.2c0,3.1-1.5,5.7-4.8,5.5c-2.9-0.2-3.8-2.7-4.2-5.2c-0.1-0.6-0.5-0.9-1.1-0.9
		c-0.5,0.1-0.9,0.6-0.9,1.1c0.7,3.9,2.6,7.5,7.3,6.9c4.1-0.5,5.8-3.8,5.7-7.7c-0.1-0.6-0.5-0.9-1.1-0.9
		C183.2,52.2,182.8,52.7,182.9,53.2L182.9,53.2z"/>
	<path class="st2" d="M232.9,48c0,3.2-1.6,5.9-5,5.7c-3-0.2-3.9-2.8-4.3-5.4c-0.1-0.6-0.6-1-1.1-0.9c-0.6,0.1-1,0.6-0.9,1.1
		c0.7,4.1,2.7,7.8,7.5,7.2c4.3-0.5,6-3.9,5.9-7.9c-0.1-0.6-0.6-1-1.1-0.9C233.2,46.9,232.8,47.4,232.9,48L232.9,48z"/>
	<path class="st2" d="M207.9,67.9c-0.4,1.4-1.5,3.6-2.5,4.5c-1.1,0.9-2.1,0.5-3.1-0.5c-1-0.9-1.9-2.3-2.4-3.4s-0.6-1.7,0-2.2
		c0.6-0.5,1.9-0.8,3.4-1c1.5-0.2,3.1-0.3,4,0C208.2,65.7,208.4,66.4,207.9,67.9z"/>
	<path class="st2" d="M209.5,80.1c0.1,2.5-0.8,4.7-2.9,5.5l-1.4-14l-2.1,0.2l1.4,14.1c-2.6-0.3-3.4-2.7-3.9-5
		c-0.1-0.6-0.6-0.9-1.1-0.9c-0.5,0.1-0.9,0.6-0.8,1.1c0.9,3.9,2.9,7.4,7.5,6.7c4.1-0.7,5.6-4,5.4-7.9c-0.1-0.6-0.6-0.9-1.1-0.9
		C209.8,79.1,209.5,79.6,209.5,80.1L209.5,80.1z"/>
	<path class="st2" d="M298.2,76.4c0,0.4,0,0.8,0,1.1c-0.1,2.4-0.6,6.2-0.9,8.7c-0.1,1.5-0.3,2.9-0.4,4.4c-0.2,3,0,6.2-0.1,9.3v7.1
		c0.1,1.9-2.5,2-2.5,0.1c0-0.8,0-1.7,0-2.5l0.1-6.1c0-0.4,0-0.9,0-1.2c-0.2-6.3,0.5-10.4,1.1-16.5c0.1-1.1,0.2-2.4,0.3-3.7
		C296.6,76.8,297.4,76.6,298.2,76.4L298.2,76.4z"/>
	<path class="st2" d="M291.6,78.2c0.1,5.4-0.3,9.1-0.6,14.9c-0.2,2.9-0.3,5.7-0.3,8.7l0.1,4.6c0,0.7,0,1.5,0,2.3
		c0.1,1.9-2.6,1.8-2.5,0.1c0-0.4,0-0.8,0-1.2c0-0.3,0-0.9,0-1.2c0-0.5,0-0.8-0.1-1.2l-0.1-6c0-2.4,0.2-4.5,0.3-6.9
		c0.1-1.5,0.3-3,0.4-4.4c0.2-3,0.4-5.9,0.4-8.9C290,78.7,290.8,78.4,291.6,78.2L291.6,78.2z"/>
	<path class="st2" d="M270.6,93.2l0.6,4.3l1.1,5.8c0,0.2,0,0.5,0.1,0.7c0,0.3,0.1,0.3,0.1,0.7l0.5,5.3c0.1,0.6-0.5,1.2-1,1.3
		c-0.7,0.1-1.3-0.3-1.4-0.9c-0.2-1.1-0.3-3.9-0.5-4.8c-0.2-0.7-0.2-1.6-0.3-2.3c-0.1-0.3-0.1-0.8-0.2-1.1c-0.2-1-0.4-2.3-0.7-3.3
		c-0.2-0.7-0.3-1.5-0.4-2.2c-0.1-0.4-0.1-0.8-0.1-1.1c-0.3-1.3-0.5-7.5-0.6-9c0-0.2,0-0.2,0-0.5l-0.1-1c0.8-0.2,1.6-0.5,2.5-0.7
		L270.6,93.2L270.6,93.2z"/>
	<path class="st2" d="M259.3,87.2c0.2,1.5,0.4,2.6,0.8,4.6c1.4,6.4,3.5,12.2,3.1,18.9c-0.1,1.8,0,0.6,0,2.1c0.1,1.2-1.5,1.7-2.2,0.9
		c-0.5-0.6-0.4-2.1-0.4-2.8c0-0.6,0-1.1,0-1.6c0.1-2.7-0.6-6.8-1.2-9.3c-0.4-1.9-0.9-3.7-1.3-5.5c-0.3-1.2-0.7-3-0.9-4.2
		c-0.1-0.4-0.2-1.1-0.3-1.5l-0.1-1c0.6-0.1,1.1-0.2,1.7-0.4C258.8,87.2,259.1,87.2,259.3,87.2L259.3,87.2z"/>
	<path class="st2" d="M304.9,74.6c0.2,2.6,0.3,4.8,0.2,7.3c-0.1,2.3-0.4,4.6-0.6,7c-0.2,2.7-0.6,3.7-0.6,7c0,1.2-0.1,4.5-0.2,5.4
		c-0.2,1.5-2.3,1.3-2.5,0.1l0.1-3.7c0.1-3.1,0-4.2,0.5-7.3c0.2-1.2,0.2-2.4,0.3-3.7c0.1-1.2,0.2-2.4,0.3-3.6
		c0.1-1.2,0.1-2.4,0.2-3.7l-0.2-4.2C303.3,75,304.1,74.8,304.9,74.6z"/>
	<path class="st2" d="M325.6,70.9c0.1,2.5,0,4.6-0.3,7.6c-0.1,1.2-0.2,2.4-0.3,3.7c-0.1,2.4-0.6,3.9-0.6,7.2c0,0.6-0.1,4.9-0.2,5.6
		c-0.3,1.5-2.3,1.3-2.4,0c0-0.4,0.1-3,0.1-3.7c0-2.3,0.1-5.1,0.5-7.3c0.2-1.3,0.2-2.4,0.3-3.6L323,75c0-0.6,0.1-1.3,0.1-1.9
		c0-0.6,0-1.3-0.1-1.9C323.9,71,324.7,71,325.6,70.9z"/>
	<path class="st2" d="M333.2,94.5c-0.7,0.1-1.3-0.4-1.4-1.1l0.1-1.8c0.1-1.7,0-4.1,0.1-5.7c0.1-1.2,0.2-2.4,0.4-3.5
		c0.2-1.2,0.2-2.4,0.3-3.6l0.4-5.4c0.1-1,0.1-1.8,0.1-2.5c0.8,0.1,1.7,0.1,2.5,0.3v0.7c0,2.8-0.4,5.2-0.5,7.8
		c-0.1,1.4-0.2,2.5-0.3,3.8c-0.5,3.7-0.2,6.6-0.5,9.9c0,0.3-0.1,0.6-0.3,0.8C333.9,94.2,333.5,94.4,333.2,94.5L333.2,94.5z"/>
	<path class="st2" d="M314,98.1c-0.6,0.1-1.2-0.3-1.3-0.7c-0.2-0.6-0.1-1.2,0-1.8c0.5-3.6,1-9.2,1-12.8c0-1.3,0-2.6-0.1-3.9
		l-0.2-4.1c0-0.4,0-0.6,0-1c0-0.3-0.1-0.7-0.1-1c0.8-0.2,1.7-0.3,2.5-0.5c0.1,0.9,0.1,1.9,0.1,2.1c0,0.6,0.1,1.4,0.1,2
		c0,1.8,0.2,4.1,0.1,5.9c-0.1,1.9,0,3.7-0.1,5.8c-0.1,1.3-0.1,2.5-0.3,3.7c-0.1,1.2-0.4,3.2-0.6,4.3c-0.2,0.8,0,0.5-0.1,0.9
		C315,97.5,314.5,98.1,314,98.1L314,98.1z"/>
	<path class="st2" d="M251,88.7c0.1,2.3-0.1,4.6-0.2,6.8l-0.4,5.5c-0.1,1.7-0.3,3.8-0.3,5.6c0,5.7,0.8,5.9,0.8,6.5
		c0.1,0.8-0.4,1.3-1.2,1.4c-1.6,0.2-1.8-3.4-1.9-4.5c-0.1-1-0.1-2.1-0.1-3c0-1,0-1.9,0.1-2.9c0.1-3.6,0.5-7.6,0.7-11.3
		c0.1-1,0.1-2.5,0.1-3.7C249.3,89,250.1,88.9,251,88.7z"/>
	<path class="st2" d="M281.8,89.7c0.4,3.7,0.3,6.3,0.1,9.8c0,0.3,0,0.6,0,0.9c-0.1,1.2,0.8,3.6-1,3.8c-0.5,0-0.9-0.2-1.1-0.5
		c-0.3-0.4-0.3-0.9-0.3-1.4c0-0.2-0.1-0.6-0.1-0.8c-0.1-0.9,0.1-4.3,0.2-5.3l-0.2-5.9l-1.2-8.1c0.8-0.2,1.6-0.5,2.4-0.7
		c0,0.1,0,0.3,0.1,0.4l0.9,5.5c0,0.3,0,0.6,0.1,0.8L281.8,89.7L281.8,89.7z"/>
	<path class="st2" d="M245.9,62.1c-3,0.1-8.7,0.6-12.3,1.5c-3.6,0.9-5,2.3-5.3,3.7c-0.4,1.4,0.3,2.7,2.2,3.5c2,0.8,5.2,1,8.7,0.8
		c2.6-0.2,5.4-0.7,7.4-1.1c0-2.4-0.1-4.9-0.3-7.6c0-0.3,0-0.5-0.1-0.8C246.1,62.1,246,62.1,245.9,62.1L245.9,62.1z"/>
	<path class="st2" d="M246.4,74.9c-3.1,0.1-8.4,0.6-11.8,1.5c-3.6,0.9-5,2.3-5.3,3.7c-0.4,1.4,0.3,2.7,2.2,3.5c2,0.8,5.2,1,8.7,0.8
		c1.4-0.1,2.9-0.3,4.3-0.5C245.6,81.1,246.2,78.1,246.4,74.9L246.4,74.9z"/>
	<path class="st2" d="M167.2,67.2c3.1-0.5,7.6-0.9,10.7-0.8c3.7,0.2,5.3,1.2,6,2.5c0.6,1.2,0.3,2.7-1.5,3.9
		c-1.8,1.2-4.9,2.1-8.4,2.5c-1.7,0.2-3.6,0.4-5.2,0.4C168.3,73,167.7,70.1,167.2,67.2L167.2,67.2z"/>
	<path class="st2" d="M169.8,79.7c3-0.4,6.9-0.8,9.7-0.6c3.7,0.2,5.3,1.2,6,2.5c0.6,1.2,0.3,2.7-1.5,3.9c-1.8,1.2-4.9,2.1-8.4,2.5
		c-1,0.1-2,0.2-3.1,0.3c-1-2.5-1.9-5.2-2.7-8.3C169.9,79.9,169.9,79.8,169.8,79.7L169.8,79.7z"/>
	<path class="st2" d="M226.2,192.5c-0.5,0.1-1.3,0.2-1.5-1l2-7.2c0.3-0.8,1.4-0.9,1.9-0.1c0.3,0.4,0.1,0.8,0,1.2
		c-0.2,0.9-0.3,1.7-0.6,2.6c-0.2,0.9-0.5,1.6-0.8,2.4C227.1,190.9,226.8,192.4,226.2,192.5L226.2,192.5z"/>
	<path class="st2" d="M346.3,187.3c-2.3,0.2-0.9-2.3-0.8-4.9c0.1-2.8-0.6-3.8,1-4c1.2-0.1,1.1,1.4,1.1,1.7c0,0.9,0.1,1.5,0,2.8
		c-0.1,0.9-0.2,1.6-0.4,2.4C347.2,186.1,347.2,187.2,346.3,187.3L346.3,187.3z"/>
	<path class="st2" d="M334.4,189.3c-0.8,0.1-1.2-0.3-1.3-1l1-2.9c0.4-1.1,1-4.2,1-4.2c0.4-0.9,1.6-0.9,2-0.1c0.2,0.4,0,0.9-0.1,1.3
		c-0.2,0.9-0.3,1.7-0.5,2.6c-0.2,0.8-0.5,1.6-0.8,2.3C335.3,188.2,335.2,189.2,334.4,189.3z"/>
	<path class="st2" d="M329.7,183.6c0.1,0.6-1.3,4.7-1.8,5.8c-0.5,1.1-0.4,1.5-1.2,1.6c-0.6,0.1-1.1-0.4-1.2-1c0-0.5,0.2-0.5,0.4-0.9
		c0.2-0.4,1.3-4.2,1.4-4.8c0.3-1.1,0.2-1.5,1.3-1.6c0.3,0,0.5,0.1,0.7,0.2C329.4,183,329.7,183.5,329.7,183.6L329.7,183.6z"/>
	<path class="st2" d="M333.6,183.5c0.2,1.6-1.7,5.9-2.4,6.7c-0.7,0.7-2.5,0.1-1.5-1.6c1.3-2.1,1.9-5.3,1.9-5.3
		C332.1,182.4,333.5,182.9,333.6,183.5z"/>
	<path class="st2" d="M221.6,185.7c0,0.3-0.8,1.9-1,2.4c-0.1,0.3-0.2,0.5-0.4,0.8c-0.2,0.6-1,2.9-1.6,3c-2.5,0.3-1-2.3-0.7-3
		c0.1-0.4,0.2-0.6,0.4-1c0.2-0.4,0.3-0.6,0.5-1c0.2-0.4,0.3-0.6,0.5-0.9c0.3-0.6,0.7-1.5,1.7-1.1C221.2,185,221.6,185.4,221.6,185.7
		L221.6,185.7z"/>
	<path class="st2" d="M349.9,188.2c-0.6,0.1-1.2-0.4-1.3-0.9c0-0.4,0.7-2.9,0.8-3.5c0.1-0.5,0.3-1.2,0.4-1.7
		c0.3-1.2,0.4-1.3,1.3-1.4c0.2,0,1.2,0.3,0.8,1.6l-1.4,5.2C350.6,187.8,350.2,188.1,349.9,188.2z"/>
	<path class="st2" d="M200.8,194.9c-0.5,0.1-1.5-0.4-1-1.7c0.3-0.6,0.4-2,0.4-2.7c0.1-1.6-0.1-3,1.2-3.1c0.8-0.1,1.2,0.6,1.1,1.4
		c0,0.8,0,1.6-0.1,2.4C202.4,192.5,202,194.8,200.8,194.9z"/>
	<path class="st2" d="M352.9,188.7c-0.5,0.1-1.1-0.4-1.2-1c0-0.3,0.2-0.7,0.4-1.7c0.1-0.7,0.5-4.2,0.8-4.5c0.4-0.5,1.2-0.7,1.7,0
		c0.3,0.4,0.2,0.6,0.2,1.1c-0.3,2.4-0.3,3.2-1.1,5.5C353.6,188.5,353.2,188.7,352.9,188.7L352.9,188.7z"/>
	<path class="st2" d="M199.4,188.9c0.1,1.1-0.8,4-1.2,5.2c-0.3,0.8-0.3,1.2-1.2,1.2c-0.7,0.1-1-0.5-1.1-1.2c0-0.3,0.3-1.3,0.4-1.6
		l0.8-3.3c0.3-1.7,1.6-1.3,1.9-1C199.3,188.4,199.4,188.7,199.4,188.9L199.4,188.9z"/>
	<path class="st2" d="M193.9,194.8c-0.4,0-1.4-0.5-1.1-1.4l0.6-2c0.2-0.7,0.4-1.2,0.7-1.9c0.4-1.1,0.3-1.5,1.3-1.6
		c0.8-0.1,1.2,0.8,0.9,1.5l-0.6,1.9c-0.2,0.7-0.4,1.3-0.6,2C194.8,193.9,194.8,194.7,193.9,194.8z"/>
	<path class="st2" d="M224.5,187c0.1,0.6-0.9,3.5-1.2,4.3c-0.6,1.6-2.1,1.1-2.2,0c0-0.4,0.7-2.2,0.8-2.8c0.2-0.5,0.3-0.9,0.4-1.4
		C222.7,185.5,224.4,185.9,224.5,187z"/>
	<path class="st2" d="M172.9,30c1.6,0.2,3.3,1.6,3.8,3.1c0.5,1.4-0.2,2.8-1.6,3.3c-1.4,0.5-3.7-0.1-5-1c-1.3-0.9-1.6-2.2-1-3.4
		C169.8,30.8,171.3,29.8,172.9,30z"/>
	<path class="st2" d="M231.2,24c-1.5,0.5-2.9,2.3-3.1,3.8c-0.2,1.5,0.7,2.7,2.2,2.9c1.5,0.1,3.6-0.8,4.7-2c1.1-1.2,1.1-2.5,0.3-3.5
		C234.5,24.1,232.7,23.4,231.2,24L231.2,24z"/>
	<path class="st3" d="M76.2,80c7.3-9.3,23.2-13.6,23-27.5c0-2.8-0.4-5.8,2.1-7.7c2.3-1.8,7.6,0.7,9.2,2.6c6.7,8.2,0.4,19-6.2,24.9
		c-5,4.7-11,7.9-15.8,12.9c-6.1,6.4-7.5,14.2-7.1,22.5c7.1-11.3,23-12.8,35.6-8.6c2.9,1,19.9,8.8,24.9,14.4
		c0.5-3.7,1.3-7.4,2.7-10.9c0.4-1,1.6-1,2.2-0.5c4.4,3.4,9,6.5,13.3,10.2c3.7-4.7,8.7-6.5,14.7-7.2c3.4-0.4,7-0.2,10.5-0.4
		c1.5,0,3.7,0.6,4-1.3c0.6-3.2,1.1-6.4,1.3-9.6c0.1-1.3,2-1.5,2.6-0.5c11.6,14.7,11.2,45.3-2.8,58.1c0,8,1.3,15.7,3.1,23.5
		c1.2,5.6,1.8,11.7,3.8,17.1c2.1,5.8,8.1,0.4,10.1,4.8c1.5,3.1,1.2,5.3-1.5,7.2c-4.9,3.8-14.9,1.2-17.5-4.3
		c-6.1-13.3-5.9-28.7-9.4-42.7c-2.7,0.4-5.6,0.4-8.8-0.1c-1.3-0.1-2.7-0.4-4.2-0.9c-1.3-0.5-2.6-1-3.7-1.6
		c1.2,7.4,0.6,15.4,1.5,22.7c0.6,5.2,1.2,16.3,7.5,18.3c2,0.6,4.3,3.1,5,4.9c1.8,5-3.2,6.6-7.3,6.4c-8.4-0.6-10.3-7-12.5-14.1
		c-3.4-10.8-1.8-22.8-7.8-32.8c-5.4-9-16.9-12.5-26.5-13.8c-5.6-0.7-15.5-1-22.4,1.8c0,0.1,0.1,0.2,0,0.4
		c-0.2,6.6,2.3,13.5,4.2,19.9c0.7,2.7,1.5,5.3,2.1,8c0.7,3.1,3.4,5.9,4.6,8.8c3.5,8.2-7.2,6.8-12.5,5.3c0.1,0.1,0.2,0.1,0.2,0.2
		c0.9,0.7,2.2,2.1,3.2,2.2c0.6,0.1,1.1,0.7,1.2,1.3c0.6,8.2-8.6,7.7-13.6,3.8c-3.4-2.6-3.8-5.4-4.3-9.5c-0.9-8.8-3.2-17.6-5.4-26
		c-2-7.6-3.8-14.9-4.2-22.7c-0.5-9.2-0.2-17.7-3.2-26.6C68.6,101.3,68.2,90.1,76.2,80L76.2,80z"/>
	<path class="st1" d="M169.7,208.1c-0.4,0-0.6,0-0.9,0c-9.4-0.7-11.6-7.9-13.8-14.9l-0.1-0.3c-1.4-4.4-2-9-2.6-13.5
		c-0.9-6.8-1.7-13.2-5.1-18.9c-5.2-8.7-16.7-11.9-25.3-13c-5.8-0.8-14.4-0.8-20.6,1.4c0,5,1.6,10.2,3.1,15.3c0.4,1.2,0.7,2.3,1,3.4
		l0.4,1.4c0.6,2.3,1.2,4.4,1.7,6.6c0.4,1.5,1.3,3,2.4,4.6c0.8,1.3,1.6,2.6,2.2,3.9c1.2,2.8,1.1,5-0.3,6.6c-1.6,1.9-4.8,2.2-7.7,2
		c0.1,0.2,0.2,0.5,0.3,0.8c0,0.1,0,0.1,0,0.2c0.3,4.6-2,6.6-3.4,7.3c-3.8,2.1-9.4,0.4-12.7-2.1c-4-3-4.4-6.5-4.9-10.5
		c-0.8-8.4-3-16.8-5.1-24.9l-0.2-0.9c-1.9-7.3-3.8-14.9-4.2-23c-0.1-1.7-0.2-3.3-0.2-5c-0.3-7.3-0.6-14.1-2.9-21.2
		c-4.5-14.1-3.2-25,4.2-34.3c2.7-3.4,6.4-6.1,10-8.8c6.6-4.9,12.8-9.5,12.7-17.7v-1c0-2.6-0.1-5.8,2.7-8c3.3-2.6,9.5,0.6,11.4,2.8
		c7,8.5,1.6,20.1-6.4,27.2c-2.3,2.1-4.8,4-7.2,5.7c-3.1,2.3-5.9,4.4-8.5,7.1c-4.2,4.4-6.3,9.7-6.7,16.8c8.6-8.8,23.3-9.2,34.5-5.5
		c2.5,0.8,16.5,7.2,23.3,12.7c0.5-2.9,1.3-5.7,2.3-8.3c0.3-0.9,1-1.5,1.9-1.7c1-0.3,2-0.1,2.8,0.6c1.7,1.3,3.4,2.5,5.1,3.8
		c2.3,1.7,4.8,3.5,7.1,5.4c3.4-3.7,8-5.8,14.7-6.6c2.4-0.3,4.8-0.3,7.1-0.3c1.2,0,2.3,0,3.5-0.1c0.3,0,0.7,0,1,0
		c0.4,0,1.3,0.1,1.5,0c0.7-3.6,1.1-6.7,1.3-9.5c0.1-1.3,1-2.2,2.2-2.5c1.3-0.3,2.6,0.2,3.3,1.2c11.4,14.5,12.1,45.7-2.5,59.7
		c0.1,8.1,1.6,15.9,3,22.4c0.4,1.8,0.7,3.7,1.1,5.5c0.7,3.8,1.4,7.8,2.7,11.3c0.7,1.9,1.6,1.9,3.9,1.8c2-0.1,4.8-0.2,6.2,2.8
		c1.8,3.9,1.2,6.9-2,9.2c-2.6,2-6.7,2.7-10.8,1.6c-4.2-1-7.6-3.5-9-6.6c-3.9-8.5-5.3-17.9-6.6-27c-0.7-4.9-1.4-9.9-2.6-14.7
		c-2.5,0.2-5.2,0.1-7.8-0.3c-1.5-0.1-2.9-0.4-4.4-0.9c-0.4-0.1-0.8-0.3-1.2-0.5c0.4,3.3,0.4,6.6,0.5,9.9c0.1,3.3,0.2,6.7,0.6,9.9
		c0.1,0.5,0.1,1,0.2,1.5c0.5,4.9,1.5,14,6.2,15.4c2.5,0.8,5.1,3.7,6,5.8c1,2.8,0.3,4.6-0.5,5.7C175.4,207.8,171.7,208.1,169.7,208.1
		L169.7,208.1z M114.2,143.7c3.9,0,7,0.4,8.1,0.5c9.4,1.2,21.8,4.7,27.7,14.5c3.8,6.3,4.7,13.3,5.5,20.2c0.5,4.3,1.1,8.8,2.4,13
		l0.1,0.4c2.1,6.8,3.7,12.1,10.9,12.7c2.5,0.1,4.8-0.5,5.6-1.6c0.2-0.2,0.7-0.9,0.1-2.6c-0.5-1.4-2.5-3.5-4-3.9
		c-6.7-2.1-7.8-12.1-8.4-18.1c-0.1-0.5-0.1-1-0.2-1.5c-0.4-3.4-0.5-6.9-0.6-10.2c-0.1-4.1-0.2-8.4-0.9-12.4
		c-0.1-0.6,0.1-1.2,0.7-1.6c0.5-0.4,1.2-0.4,1.7-0.1c1.1,0.6,2.3,1.1,3.4,1.5c1.2,0.4,2.4,0.6,3.8,0.8c3,0.5,5.8,0.5,8.4,0.1
		c0.8-0.1,1.6,0.4,1.8,1.2c1.3,5.3,2.2,10.9,3,16.3c1.3,8.9,2.6,18,6.4,26.1c1,2.2,3.6,4,6.9,4.8c3.2,0.8,6.3,0.4,8.2-1.1
		c2-1.4,2.2-2.8,1-5.3c-0.5-1-1.1-1.1-3.2-1c-2.2,0.1-5.5,0.2-7-3.9c-1.4-3.8-2.1-7.9-2.8-11.9c-0.3-1.8-0.6-3.6-1-5.4
		c-1.5-6.9-3.1-15.1-3.1-23.8c0-0.5,0.2-0.9,0.5-1.2c11.8-10.7,15.2-39.5,2.9-55.6c-0.2,2.7-0.7,5.7-1.3,9.1c-0.6,3-3.5,2.8-4.8,2.7
		c-0.3,0-0.5,0-0.8,0c-1.1,0-2.3,0.1-3.5,0.1c-2.4,0-4.6,0.1-6.8,0.3c-6.4,0.8-10.6,2.8-13.6,6.6c-0.3,0.3-0.7,0.6-1.1,0.6
		c-0.4,0-0.9-0.1-1.2-0.4c-2.6-2.2-5.4-4.3-8.1-6.3c-1.7-1.2-3.4-2.5-5-3.8c-1.2,3.2-2,6.6-2.5,10.2c-0.1,0.6-0.5,1.1-1.1,1.3
		c-0.6,0.2-1.2,0-1.7-0.5c-4.8-5.3-21.6-13.1-24.3-13.9c-11.4-3.8-26.9-2.9-33.7,7.9c-0.4,0.6-1.1,0.9-1.8,0.7
		c-0.7-0.2-1.2-0.8-1.2-1.5c-0.5-10.3,1.9-17.8,7.5-23.7c2.7-2.9,5.9-5.2,8.9-7.4c2.3-1.7,4.8-3.5,6.9-5.5
		c4.9-4.4,12.5-14.8,6.1-22.7c-1.3-1.5-5.6-3.4-6.9-2.3c-1.5,1.2-1.5,2.8-1.5,5.5v1c0.2,9.9-7,15.2-14,20.3
		c-3.6,2.6-6.9,5.1-9.3,8.2c-6.6,8.4-7.8,18.3-3.6,31.3c2.5,7.5,2.7,14.6,3,22.1c0.1,1.6,0.1,3.3,0.2,5c0.4,7.8,2.3,15.2,4.1,22.4
		l0.2,0.9c2.1,8.2,4.3,16.7,5.2,25.4c0.5,3.8,0.7,6.1,3.6,8.3c2.9,2.2,7,3.1,9.3,1.9c1.3-0.7,1.9-2.1,1.8-4.1c0,0,0,0,0-0.1
		c-1.1-0.2-2.2-1.1-3.4-2.2l-0.4-0.4c-0.1-0.1-0.1-0.1-0.2-0.2c0,0-0.1-0.1-0.1-0.1c-0.5-0.5-0.6-1.3-0.3-1.9
		c0.4-0.6,1.1-0.9,1.8-0.7c5,1.4,9.7,1.5,10.8,0.1c0.6-0.7,0.2-2.1-0.3-3.2c-0.5-1.1-1.2-2.3-2-3.5c-1.1-1.8-2.3-3.6-2.8-5.6
		c-0.5-2.2-1.1-4.3-1.7-6.5l-0.4-1.4c-0.3-1.1-0.7-2.2-1-3.4c-1.7-5.5-3.4-11.3-3.2-17c0,0,0-0.1,0-0.1c0-0.1,0-0.1,0-0.2
		c0-0.6,0.4-1.2,1-1.5C103.9,144.2,109.6,143.7,114.2,143.7L114.2,143.7z"/>
	<path class="st1" d="M191.4,103.3c0.7-1.5,1-3.1,1.5-4.7c0.4-1,1.7-1.3,2.2-0.2c0.9,1.5,1.1,3.2,1.7,4.8c0.5,1.1-0.9,1.7-1.7,1.3
		c-0.9,0.1-1.6,0.4-2.3,0.6C191.7,105.6,190.9,104.3,191.4,103.3L191.4,103.3z"/>
	<path class="st1" d="M147.8,106.7c2.9,1.1,5.6,2.7,8.2,4.4c0.4,0.2,0.5,0.5,0.6,0.9c1,0.4,1.2,2,0,2.3c-2,0.6-3.5,1.6-5.3,2.7
		c-0.5,0.4-1.5,0.1-1.7-0.5c-1.2-2.8-2.3-5.6-3.4-8.5C146,107.4,146.9,106.4,147.8,106.7z"/>
	<path class="st1" d="M185.8,120.2c1.2,2,4.2-0.1,4.6-1.7c0.5-1.5,2.8-0.9,2.3,0.6c-1.2,3.8-6.7,6.3-9.2,2.3
		C182.8,120,184.9,118.8,185.8,120.2L185.8,120.2z"/>
	<path class="st1" d="M162.2,125c0.4,1.6,3.8,0.5,3.7-1.1c-0.1-1.6,2.3-1.6,2.4,0c0.4,4.3-7.6,6.3-8.6,1.7
		C159.6,124.1,162,123.4,162.2,125z"/>
	<path class="st1" d="M177.8,134.2c-1-0.6-1.7-1.5-2.6-2.2c-0.5-0.5-0.5-1.3,0-1.7c1.6-1.3,3.4-1.7,5.5-1.3c0.7,0.1,1.2,1.2,0.7,1.8
		c-0.1,0.1-0.2,0.2-0.2,0.4v0.1c-0.1,0.9-0.2,1.5-0.6,2c0.2,1.2,0.5,2.3,1,3.4c0.4,0.7,1.5,2,2.1,1.5c-1.5-0.5-0.9-2.8,0.6-2.3
		c0.4,0.1,0.9,0.2,1.2,0.4c0.5,0.1,1,0.6,0.9,1.2c-0.4,3.3-3.1,4.2-5.6,2.2c-0.6,1.7-2.6,2.2-4.3,1.8c-1.6-0.4-0.9-2.7,0.6-2.3
		c1.2,0.2,1.5-0.2,1.5-1.5C178.6,136.5,178.2,135.3,177.8,134.2L177.8,134.2z"/>
	<path class="st1" d="M190.2,135.9c1.7-1,2.9-2.5,4.3-3.9c1.1-1.2,2.8,0.5,1.7,1.7c-1,1.1-1.8,2.1-2.9,2.9c0.5,0.1,1,0.4,1.6,0.5
		c1.5,0.5,0.9,2.8-0.6,2.3c-1.3-0.5-2.7-0.9-3.9-1.6C189.3,137.6,189.5,136.4,190.2,135.9L190.2,135.9z"/>
	<path class="st1" d="M167.9,139c-0.6-0.2-1.2-0.5-1.8-0.6c-0.6-0.1-1-0.9-0.9-1.5c0.2-0.7,0.9-1,1.5-0.9c1.2,0.2,2.3,0.9,3.4,1.2
		c0.4,0.1,0.5,0.4,0.6,0.5c0.7,0.5,1,1.6,0,2.1c-1.3,0.7-2.4,1.7-3.2,3.1c-0.9,1.3-2.9,0.1-2.1-1.2C166.1,140.6,167,139.7,167.9,139
		z"/>
	<path class="st1" d="M95,162.2c1.2,8.2,0,17.7,4.5,24.9c0.9,1.3-1.2,2.6-2.1,1.2c-4.8-7.5-3.5-17.1-4.8-25.4
		C92.4,161.3,94.8,160.7,95,162.2L95,162.2z"/>
	<path class="st1" d="M177.8,105.4c1,1.5,2,3.1,2,4.9c0,1.6-2.4,1.6-2.4,0c0-1.3-1-2.6-1.7-3.7C174.8,105.3,177,104.1,177.8,105.4
		L177.8,105.4z"/>
	<path class="st1" d="M172.1,105.8c2,1.2,2.3,3.4,2.7,5.5c0.1,0.6-0.6,1.2-1.2,1.2c-0.7,0-1.1-0.6-1.2-1.2c-0.1-1.1-0.4-2.8-1.5-3.4
		C169.5,107,170.8,104.9,172.1,105.8z"/>
	<path class="st1" d="M127.3,112.8c1.1-1.2,2.8,0.6,1.7,1.7c-2.1,2.3-1.5,6.3-0.7,9.1c0.4,1.5-2,2.2-2.3,0.6
		C124.9,120.4,124.5,115.9,127.3,112.8z"/>
	<path class="st1" d="M116.4,103.3c0.9-1.3,3.1-0.1,2.1,1.2c-2.4,3.6-4.3,7.7-2.7,11.9c0.5,1.5-1.8,2.1-2.3,0.6
		C111.6,112.4,113.7,107.4,116.4,103.3L116.4,103.3z"/>
	<path class="st1" d="M98.9,102.5c1-1.2,2.7,0.5,1.7,1.7c-2.8,3.4-4.3,8.5-2.2,12.6c0.7,1.3-1.3,2.7-2.1,1.2
		C93.7,112.9,95.4,106.8,98.9,102.5z"/>
</g>
</svg>
