<svg width="114" height="306" viewBox="0 0 114 306" fill="none" xmlns="http://www.w3.org/2000/svg">
<path d="M23.4067 160.373C43.5172 160.361 67.0937 162.003 87.7263 160.211C87.4522 144.198 88.3921 127.399 88.3725 117.334C88.4443 119.139 30.4105 117.613 30.4105 117.613C30.4105 117.613 25.1952 153.808 23.4067 160.367V160.373Z" fill="#F5E83A"/>
<path d="M65.5703 162.633V162.64C73.1846 162.631 80.6994 162.419 87.8916 161.798C87.8918 161.798 87.892 161.798 87.8922 161.798L89.5031 161.656L89.4783 160.2C89.3149 150.479 89.5894 140.579 89.8374 131.846C89.8374 131.846 89.8375 131.846 89.8375 131.846L90.3373 131.86C90.3447 131.588 90.3521 131.317 90.3594 131.049C90.4941 126.127 90.6121 121.812 90.6245 118.204L65.5703 162.633ZM65.5703 162.633H65.0703C57.8778 162.633 50.6059 162.458 43.4446 162.283L43.4444 162.283C36.4266 162.114 29.7648 161.984 23.4088 161.958H23.4068H21.1759L21.7091 159.999C21.7091 159.998 21.7091 159.998 21.7091 159.998C22.5868 156.778 24.3165 146.2 25.8281 136.428C27.2697 127.109 28.5205 118.471 28.6604 117.506C28.6674 117.457 28.6717 117.428 28.6729 117.419L28.6731 117.418L28.8773 116.001L30.4561 116.041C30.4562 116.041 30.4563 116.041 30.4564 116.041C43.1513 116.376 56.6388 116.603 67.3196 116.64C72.6596 116.658 77.3012 116.629 80.7926 116.541C82.5378 116.497 83.9999 116.438 85.12 116.364C85.3834 116.346 85.6309 116.327 85.8609 116.307M65.5703 162.633L85.8609 116.307M85.8609 116.307C85.7124 116.61 85.618 116.963 85.6207 117.357L85.6241 117.863L86.1308 117.853L90.1396 117.772L90.1492 117.993L85.8609 116.307ZM26.1805 158.359L25.6809 158.309V158.302V157.799L25.7737 157.8C27.6212 148.583 30.9019 126.337 31.8739 119.684L31.9381 119.245L32.3815 119.256C67.2831 120.152 80.7236 119.859 86.066 119.343L86.6194 119.289L86.6141 119.845C86.5814 123.266 86.4703 127.271 86.3398 131.757C86.3398 131.757 86.3398 131.757 86.3398 131.758M26.1805 158.359L85.4549 158.309C85.3516 149.257 85.6056 140.149 85.8321 132.025L85.84 131.743L86.3398 131.758M26.1805 158.359L26.178 158.802C31.4111 158.833 36.794 158.96 42.4345 159.094C42.8033 159.103 43.1732 159.111 43.5442 159.12C57.5855 159.464 72.1018 159.816 85.4924 158.807L85.9602 158.772L85.9548 158.303C85.8517 149.262 86.1054 140.162 86.332 132.035L86.3398 131.758M26.1805 158.359L86.3398 131.758M42.4451 158.594C42.8144 158.603 43.1849 158.612 43.5564 158.62L26.6918 158.305C31.7689 158.341 36.989 158.465 42.4451 158.594Z" fill="#005CA1" stroke="#005CA1"/>
<path d="M95.4035 161.785C94.8482 161.724 94.5209 161.279 94.5736 160.851C94.5736 160.851 94.5736 160.85 94.5736 160.85L97.1452 140.41L97.2146 139.858L96.6586 139.847C87.4676 139.672 78.3081 139.278 69.4266 138.896L69.3541 138.893C69.3541 138.893 69.3541 138.893 69.354 138.893C53.7235 138.218 37.5578 137.522 20.7165 137.997L20.2569 138.01L20.2314 138.469L18.9847 160.891L18.9846 160.893C18.9618 161.328 18.5468 161.726 17.974 161.699C17.4109 161.671 17.0432 161.237 17.0655 160.81C17.0655 160.809 17.0655 160.809 17.0655 160.809L18.3839 137.148C18.3839 137.148 18.3839 137.148 18.3839 137.148C18.4069 136.742 18.7733 136.362 19.291 136.341H19.296L19.3039 136.34C36.5869 135.793 53.1132 136.499 69.1175 137.183L69.4417 137.197L69.4417 137.197L70.0436 137.223C79.2545 137.618 88.7732 138.025 98.299 138.178L98.2991 138.178C98.5823 138.183 98.8426 138.3 99.0126 138.481L99.0167 138.485C99.1869 138.663 99.2612 138.897 99.2336 139.124C99.2336 139.124 99.2336 139.124 99.2336 139.125L96.4795 161.038C96.4323 161.41 96.1024 161.736 95.6548 161.789H95.5852C95.507 161.789 95.4561 161.789 95.4035 161.785Z" fill="#005CA1" stroke="#005CA1"/>
<path d="M33.7366 151.88L33.7366 151.88C33.7286 152.173 33.7206 152.466 33.7125 152.76C33.6413 155.364 33.5675 158.06 33.5148 161.038L33.7366 151.88ZM33.7366 151.88C33.7411 151.713 33.7455 151.546 33.75 151.38C33.8881 146.229 34.0088 141.727 33.9391 137.235L33.939 137.234M33.7366 151.88L33.939 137.234M33.939 137.234C33.9314 136.799 34.3324 136.373 34.8751 136.373V136.373M33.939 137.234L34.8751 136.373M34.8751 136.373L34.8832 136.373M34.8751 136.373L34.8832 136.373M34.8832 136.373C35.4453 136.364 35.849 136.776 35.8569 137.213C35.9285 141.882 35.8048 146.527 35.6546 151.924L35.6546 151.925M34.8832 136.373L35.6546 151.925M35.6546 151.925C35.5763 154.789 35.4979 157.758 35.4326 161.065L35.4326 161.066M35.6546 151.925L35.4326 161.066M35.4326 161.066C35.425 161.485 35.0549 161.878 34.5264 161.9H34.5264H34.5262H34.5261H34.526M35.4326 161.066L34.526 161.9M34.526 161.9H34.5258M34.526 161.9H34.5258M34.5258 161.9H34.5257M34.5258 161.9H34.5257M34.5257 161.9H34.5255M34.5257 161.9H34.5255M34.5255 161.9H34.5254M34.5255 161.9H34.5254M34.5254 161.9H34.5253M34.5254 161.9H34.5253M34.5253 161.9H34.5251M34.5253 161.9H34.5251M34.5251 161.9H34.525M34.5251 161.9H34.525M34.525 161.9H34.5248M34.525 161.9H34.5248M34.5248 161.9H34.5247M34.5248 161.9H34.5247M34.5247 161.9H34.5245M34.5247 161.9H34.5245M34.5245 161.9H34.5244M34.5245 161.9H34.5244M34.5244 161.9H34.5242M34.5244 161.9H34.5242M34.5242 161.9H34.5241M34.5242 161.9H34.5241M34.5241 161.9H34.5239M34.5241 161.9H34.5239M34.5239 161.9H34.5238M34.5239 161.9H34.5238M34.5238 161.9H34.5236M34.5238 161.9H34.5236M34.5236 161.9H34.5235M34.5236 161.9H34.5235M34.5235 161.9H34.5233M34.5235 161.9H34.5233M34.5233 161.9H34.5232M34.5233 161.9H34.5232M34.5232 161.9H34.523M34.5232 161.9H34.523M34.523 161.9H34.5229M34.523 161.9H34.5229M34.5229 161.9H34.5227M34.5229 161.9H34.5227M34.5227 161.9H34.5226M34.5227 161.9H34.5226M34.5226 161.9H34.5224M34.5226 161.9H34.5224M34.5224 161.9H34.5222M34.5224 161.9H34.5222M34.5222 161.9H34.5221M34.5222 161.9H34.5221M34.5221 161.9H34.5219M34.5221 161.9H34.5219M34.5219 161.9H34.5218M34.5219 161.9H34.5218M34.5218 161.9H34.5216M34.5218 161.9H34.5216M34.5216 161.9H34.5214M34.5216 161.9H34.5214M34.5214 161.9H34.5213M34.5214 161.9H34.5213M34.5213 161.9H34.5211M34.5213 161.9H34.5211M34.5211 161.9H34.5209M34.5211 161.9H34.5209M34.5209 161.9H34.5208M34.5209 161.9H34.5208M34.5208 161.9H34.5206M34.5208 161.9H34.5206M34.5206 161.9H34.5204M34.5206 161.9H34.5204M34.5204 161.9H34.5203M34.5204 161.9H34.5203M34.5203 161.9H34.5201M34.5203 161.9H34.5201M34.5201 161.9H34.5199M34.5201 161.9H34.5199M34.5199 161.9H34.5198M34.5199 161.9H34.5198M34.5198 161.9H34.5196M34.5198 161.9H34.5196M34.5196 161.9H34.5194M34.5196 161.9H34.5194M34.5194 161.9H34.5193M34.5194 161.9H34.5193M34.5193 161.9H34.5191M34.5193 161.9H34.5191M34.5191 161.9H34.5189M34.5191 161.9H34.5189M34.5189 161.9H34.5188M34.5189 161.9H34.5188M34.5188 161.9H34.5186M34.5188 161.9H34.5186M34.5186 161.9H34.5184M34.5186 161.9H34.5184M34.5184 161.9H34.5182M34.5184 161.9H34.5182M34.5182 161.9H34.5181M34.5182 161.9H34.5181M34.5181 161.9H34.5179M34.5181 161.9H34.5179M34.5179 161.9H34.5177M34.5179 161.9H34.5177M34.5177 161.9H34.5175M34.5177 161.9H34.5175M34.5175 161.9H34.5174M34.5175 161.9H34.5174M34.5174 161.9H34.5172M34.5174 161.9H34.5172M34.5172 161.9H34.517M34.5172 161.9H34.517M34.517 161.9H34.5168M34.517 161.9H34.5168M34.5168 161.9H34.5166M34.5168 161.9H34.5166M34.5166 161.9H34.5165M34.5166 161.9H34.5165M34.5165 161.9H34.5163M34.5165 161.9H34.5163M34.5163 161.9H34.5161M34.5163 161.9H34.5161M34.5161 161.9H34.5159M34.5161 161.9H34.5159M34.5159 161.9H34.5157M34.5159 161.9H34.5157M34.5157 161.9H34.5155M34.5157 161.9H34.5155M34.5155 161.9H34.5154M34.5155 161.9H34.5154M34.5154 161.9H34.5152M34.5154 161.9H34.5152M34.5152 161.9H34.515M34.5152 161.9H34.515M34.515 161.9H34.5148M34.515 161.9H34.5148M34.5148 161.9H34.5146M34.5148 161.9H34.5146M34.5146 161.9H34.5144M34.5146 161.9H34.5144M34.5144 161.9H34.5142M34.5144 161.9H34.5142M34.5142 161.9H34.5141M34.5142 161.9H34.5141M34.5141 161.9H34.5139M34.5141 161.9H34.5139M34.5139 161.9H34.5137M34.5139 161.9H34.5137M34.5137 161.9H34.5135M34.5137 161.9H34.5135M34.5135 161.9H34.5133M34.5135 161.9H34.5133M34.5133 161.9H34.5131M34.5133 161.9H34.5131M34.5131 161.9H34.5129M34.5131 161.9H34.5129M34.5129 161.9H34.5127M34.5129 161.9H34.5127M34.5127 161.9H34.5125M34.5127 161.9H34.5125M34.5125 161.9H34.5123M34.5125 161.9H34.5123M34.5123 161.9H34.5122M34.5123 161.9H34.5122M34.5122 161.9H34.512M34.5122 161.9H34.512M34.512 161.9H34.5118M34.512 161.9H34.5118M34.5118 161.9H34.5116M34.5118 161.9H34.5116M34.5116 161.9H34.5114M34.5116 161.9H34.5114M34.5114 161.9H34.5112M34.5114 161.9H34.5112M34.5112 161.9H34.511M34.5112 161.9H34.511M34.511 161.9H34.5108M34.511 161.9H34.5108M34.5108 161.9H34.5106M34.5108 161.9H34.5106M34.5106 161.9H34.5104M34.5106 161.9H34.5104M34.5104 161.9H34.5102M34.5104 161.9H34.5102M34.5102 161.9H34.51M34.5102 161.9H34.51M34.51 161.9H34.5098M34.51 161.9H34.5098M34.5098 161.9H34.5096M34.5098 161.9H34.5096M34.5096 161.9H34.5094M34.5096 161.9H34.5094M34.5094 161.9H34.5092M34.5094 161.9H34.5092M34.5092 161.9H34.509M34.5092 161.9H34.509M34.509 161.9H34.5088M34.509 161.9H34.5088M34.5088 161.9H34.5086M34.5088 161.9H34.5086M34.5086 161.9H34.5084M34.5086 161.9H34.5084M34.5084 161.9H34.5082M34.5084 161.9H34.5082M34.5082 161.9H34.508M34.5082 161.9H34.508M34.508 161.9H34.5078M34.508 161.9H34.5078M34.5078 161.9H34.5076M34.5078 161.9H34.5076M34.5076 161.9H34.5074M34.5076 161.9H34.5074M34.5074 161.9H34.5072M34.5074 161.9H34.5072M34.5072 161.9H34.507M34.5072 161.9H34.507M34.507 161.9H34.5068M34.507 161.9H34.5068M34.5068 161.9H34.5066M34.5068 161.9H34.5066M34.5066 161.9H34.5064M34.5066 161.9H34.5064M34.5064 161.9H34.5062M34.5064 161.9H34.5062M34.5062 161.9H34.506M34.5062 161.9H34.506M34.506 161.9H34.5058M34.506 161.9H34.5058M34.5058 161.9H34.5056M34.5058 161.9H34.5056M34.5056 161.9H34.5054M34.5056 161.9H34.5054M34.5054 161.9H34.5051M34.5054 161.9H34.5051M34.5051 161.9H34.5049M34.5051 161.9H34.5049M34.5049 161.9H34.5047M34.5049 161.9H34.5047M34.5047 161.9H34.5045M34.5047 161.9H34.5045M34.5045 161.9H34.5043M34.5045 161.9H34.5043M34.5043 161.9H34.5041M34.5043 161.9H34.5041M34.5041 161.9H34.5039M34.5041 161.9H34.5039M34.5039 161.9H34.5037M34.5039 161.9H34.5037M34.5037 161.9H34.5035M34.5037 161.9H34.5035M34.5035 161.9H34.5033M34.5035 161.9H34.5033M34.5033 161.9H34.5031M34.5033 161.9H34.5031M34.5031 161.9H34.5028M34.5031 161.9H34.5028M34.5028 161.9H34.5026M34.5028 161.9H34.5026M34.5026 161.9H34.5024M34.5026 161.9H34.5024M34.5024 161.9H34.5022M34.5024 161.9H34.5022M34.5022 161.9H34.502M34.5022 161.9H34.502M34.502 161.9H34.5018M34.502 161.9H34.5018M34.5018 161.9H34.5016M34.5018 161.9H34.5016M34.5016 161.9H34.5014M34.5016 161.9H34.5014M34.5014 161.9H34.5012M34.5014 161.9H34.5012M34.5012 161.9H34.5009M34.5012 161.9H34.5009M34.5009 161.9H34.5007M34.5009 161.9H34.5007M34.5007 161.9H34.5005M34.5007 161.9H34.5005M34.5005 161.9H34.5003M34.5005 161.9H34.5003M34.5003 161.9H34.5001M34.5003 161.9H34.5001M34.5001 161.9H34.4999M34.5001 161.9H34.4999M34.4999 161.9H34.4997M34.4999 161.9H34.4997M34.4997 161.9H34.4994M34.4997 161.9H34.4994M34.4994 161.9H34.4992M34.4994 161.9H34.4992M34.4992 161.9H34.499M34.4992 161.9H34.499M34.499 161.9H34.4988M34.499 161.9H34.4988M34.4988 161.9H34.4986M34.4988 161.9H34.4986M34.4986 161.9H34.4984M34.4986 161.9H34.4984M34.4984 161.9H34.4981M34.4984 161.9H34.4981M34.4981 161.9H34.4979M34.4981 161.9H34.4979M34.4979 161.9H34.4977M34.4979 161.9H34.4977M34.4977 161.9H34.4975M34.4977 161.9H34.4975M34.4975 161.9H34.4973M34.4975 161.9H34.4973M34.4973 161.9H34.4971M34.4973 161.9H34.4971M34.4971 161.9H34.4968M34.4971 161.9H34.4968M34.4968 161.9H34.4966M34.4968 161.9H34.4966M34.4966 161.9H34.4964M34.4966 161.9H34.4964M34.4964 161.9H34.4962M34.4964 161.9H34.4962M34.4962 161.9H34.496M34.4962 161.9H34.496M34.496 161.9H34.4958M34.496 161.9H34.4958M34.4958 161.9H34.4955M34.4958 161.9H34.4955M34.4955 161.9H34.4953M34.4955 161.9H34.4953M34.4953 161.9H34.4951M34.4953 161.9H34.4951M34.4951 161.9H34.4949M34.4951 161.9H34.4949M34.4949 161.9H34.4947M34.4949 161.9H34.4947M34.4947 161.9H34.4944M34.4947 161.9H34.4944M34.4944 161.9H34.4942M34.4944 161.9H34.4942M34.4942 161.9H34.494M34.4942 161.9H34.494M34.494 161.9H34.4938M34.494 161.9H34.4938M34.4938 161.9H34.4936M34.4938 161.9H34.4936M34.4936 161.9H34.4933M34.4936 161.9H34.4933M34.4933 161.9H34.4931M34.4933 161.9H34.4931M34.4931 161.9H34.4929M34.4931 161.9H34.4929M34.4929 161.9H34.4927M34.4929 161.9H34.4927M34.4927 161.9H34.4925M34.4927 161.9H34.4925M34.4925 161.9H34.4922M34.4925 161.9H34.4922M34.4922 161.9H34.492M34.4922 161.9H34.492M34.492 161.9H34.4918M34.492 161.9H34.4918M34.4918 161.9H34.4916M34.4918 161.9H34.4916M34.4916 161.9H34.4914M34.4916 161.9H34.4914M34.4914 161.9H34.4911M34.4914 161.9H34.4911M34.4911 161.9H34.4909M34.4911 161.9H34.4909M34.4909 161.9H34.4907M34.4909 161.9H34.4907M34.4907 161.9H34.4905M34.4907 161.9H34.4905M34.4905 161.9H34.4903M34.4905 161.9H34.4903M34.4903 161.9H34.49M34.4903 161.9H34.49M34.49 161.9H34.4898M34.49 161.9H34.4898M34.4898 161.9H34.4896M34.4898 161.9H34.4896M34.4896 161.9H34.4894M34.4896 161.9H34.4894M34.4894 161.9H34.4892M34.4894 161.9H34.4892M34.4892 161.9H34.4889M34.4892 161.9H34.4889M34.4889 161.9H34.4887M34.4889 161.9H34.4887M34.4887 161.9H34.4885M34.4887 161.9H34.4885M34.4885 161.9H34.4883M34.4885 161.9H34.4883M34.4883 161.9H34.4881M34.4883 161.9H34.4881M34.4881 161.9H34.4878M34.4881 161.9H34.4878M34.4878 161.9H34.4876M34.4878 161.9H34.4876M34.4876 161.9H34.4874M34.4876 161.9H34.4874M34.4874 161.9H34.4872M34.4874 161.9H34.4872M34.4872 161.9H34.4869M34.4872 161.9H34.4869M34.4869 161.9H34.4867M34.4869 161.9H34.4867M34.4867 161.9H34.4865M34.4867 161.9H34.4865M34.4865 161.9H34.4863M34.4865 161.9H34.4863M34.4863 161.9H34.4861M34.4863 161.9H34.4861M34.4861 161.9H34.4858M34.4861 161.9H34.4858M34.4858 161.9H34.4856M34.4858 161.9H34.4856M34.4856 161.9H34.4854M34.4856 161.9H34.4854M34.4854 161.9H34.4852M34.4854 161.9H34.4852M34.4852 161.9H34.485M34.4852 161.9H34.485M34.485 161.9H34.4847M34.485 161.9H34.4847M34.4847 161.9H34.4845M34.4847 161.9H34.4845M34.4845 161.9H34.4843M34.4845 161.9H34.4843M34.4843 161.9H34.4841M34.4843 161.9H34.4841M34.4841 161.9H34.4839M34.4841 161.9H34.4839M34.4839 161.9H34.4836M34.4839 161.9H34.4836M34.4836 161.9H34.4834M34.4836 161.9H34.4834M34.4834 161.9H34.4832M34.4834 161.9H34.4832M34.4832 161.9H34.483M34.4832 161.9H34.483M34.483 161.9H34.4827M34.483 161.9H34.4827M34.4827 161.9H34.4825M34.4827 161.9H34.4825M34.4825 161.9H34.4823M34.4825 161.9H34.4823M34.4823 161.9H34.4821M34.4823 161.9H34.4821M34.4821 161.9H34.4819M34.4821 161.9H34.4819M34.4819 161.9H34.4816M34.4819 161.9H34.4816M34.4816 161.9H34.4814M34.4816 161.9H34.4814M34.4814 161.9H34.4812M34.4814 161.9H34.4812M34.4812 161.9H34.481M34.4812 161.9H34.481M34.481 161.9H34.4808M34.481 161.9H34.4808M34.4808 161.9H34.4805M34.4808 161.9H34.4805M34.4805 161.9H34.4803M34.4805 161.9H34.4803M34.4803 161.9H34.4801M34.4803 161.9H34.4801M34.4801 161.9H34.4799M34.4801 161.9H34.4799M34.4799 161.9H34.4797M34.4799 161.9H34.4797M34.4797 161.9H34.4795M34.4797 161.9H34.4795M34.4795 161.9H34.4792M34.4795 161.9H34.4792M34.4792 161.9H34.479M34.4792 161.9H34.479M34.479 161.9H34.4788M34.479 161.9H34.4788M34.4788 161.9H34.4786M34.4788 161.9H34.4786M34.4786 161.9H34.4784M34.4786 161.9H34.4784M34.4784 161.9H34.4781M34.4784 161.9H34.4781M34.4781 161.9H34.4779M34.4781 161.9H34.4779M34.4779 161.9H34.4777M34.4779 161.9H34.4777M34.4777 161.9H34.4775M34.4777 161.9H34.4775M34.4775 161.9H34.4773M34.4775 161.9H34.4773M34.4773 161.9H34.4771M34.4773 161.9H34.4771M34.4771 161.9H34.4768M34.4771 161.9H34.4768M34.4768 161.9H34.4766M34.4768 161.9H34.4766M34.4766 161.9H34.4764M34.4766 161.9H34.4764M34.4764 161.9H34.4762M34.4764 161.9H34.4762M34.4762 161.9H34.476M34.4762 161.9H34.476M34.476 161.9H34.4758M34.476 161.9H34.4758M34.4758 161.9H34.4755M34.4758 161.9H34.4755M34.4755 161.9H34.4753M34.4755 161.9H34.4753M34.4753 161.9H34.4751M34.4753 161.9H34.4751M34.4751 161.9H34.4749M34.4751 161.9H34.4749M34.4749 161.9H34.4747M34.4749 161.9H34.4747M34.4747 161.9H34.4745M34.4747 161.9H34.4745M34.4745 161.9H34.4743M34.4745 161.9H34.4743M34.4743 161.9H34.474M34.4743 161.9H34.474M34.474 161.9H34.4738M34.474 161.9H34.4738M34.4738 161.9H34.4736M34.4738 161.9H34.4736M34.4736 161.9H34.4734M34.4736 161.9H34.4734M34.4734 161.9H34.4732M34.4734 161.9H34.4732M34.4732 161.9H34.473M34.4732 161.9H34.473M34.473 161.9H34.4728M34.473 161.9H34.4728M34.4728 161.9H34.4725M34.4728 161.9H34.4725M34.4725 161.9H34.4723M34.4725 161.9H34.4723M34.4723 161.9H34.4721M34.4723 161.9H34.4721M34.4721 161.9H34.4719M34.4721 161.9H34.4719M34.4719 161.9H34.4717M34.4719 161.9H34.4717M34.4717 161.9H34.4715M34.4717 161.9H34.4715M34.4715 161.9H34.4713M34.4715 161.9H34.4713M34.4713 161.9H34.4711M34.4713 161.9H34.4711M34.4711 161.9H34.4709M34.4711 161.9H34.4709M34.4709 161.9H34.4706M34.4709 161.9H34.4706M34.4706 161.9H34.4704M34.4706 161.9H34.4704M34.4704 161.9H34.4702M34.4704 161.9H34.4702M34.4702 161.9H34.47M34.4702 161.9H34.47M34.47 161.9H34.4698M34.47 161.9H34.4698M34.4698 161.9H34.4696M34.4698 161.9H34.4696M34.4696 161.9H34.4694M34.4696 161.9H34.4694M34.4694 161.9H34.4692M34.4694 161.9H34.4692M34.4692 161.9H34.469M34.4692 161.9H34.469M34.469 161.9H34.4688M34.469 161.9H34.4688M34.4688 161.9H34.4686M34.4688 161.9H34.4686M34.4686 161.9H34.4684M34.4686 161.9H34.4684M34.4684 161.9H34.4682M34.4684 161.9H34.4682M34.4682 161.9H34.468M34.4682 161.9H34.468M34.468 161.9H34.4677M34.468 161.9H34.4677M34.4677 161.9H34.4675M34.4677 161.9H34.4675M34.4675 161.9H34.4673M34.4675 161.9H34.4673M34.4673 161.9H34.4671M34.4673 161.9H34.4671M34.4671 161.9H34.4669M34.4671 161.9H34.4669M34.4669 161.9H34.4667M34.4669 161.9H34.4667M34.4667 161.9H34.4665M34.4667 161.9H34.4665M34.4665 161.9H34.4663M34.4665 161.9H34.4663M34.4663 161.9H34.4661M34.4663 161.9H34.4661M34.4661 161.9H34.4659M34.4661 161.9H34.4659M34.4659 161.9H34.4657M34.4659 161.9H34.4657M34.4657 161.9H34.4655M34.4657 161.9H34.4655M34.4655 161.9H34.4653M34.4655 161.9H34.4653M34.4653 161.9H34.4651M34.4653 161.9H34.4651M34.4651 161.9H34.4649M34.4651 161.9H34.4649M34.4649 161.9H34.4647M34.4649 161.9H34.4647M34.4647 161.9H34.4645M34.4647 161.9H34.4645M34.4645 161.9H34.4643M34.4645 161.9H34.4643M34.4643 161.9H34.4641M34.4643 161.9H34.4641M34.4641 161.9H34.4639M34.4641 161.9H34.4639M34.4639 161.9H34.4637M34.4639 161.9H34.4637M34.4637 161.9H34.4635M34.4637 161.9H34.4635M34.4635 161.9H34.4633M34.4635 161.9H34.4633M34.4633 161.9H34.4631M34.4633 161.9H34.4631M34.4631 161.9H34.4629M34.4631 161.9H34.4629M34.4629 161.9H34.4628M34.4629 161.9H34.4628M34.4628 161.9H34.4626M34.4628 161.9H34.4626M34.4626 161.9H34.4624M34.4626 161.9H34.4624M34.4624 161.9H34.4622M34.4624 161.9H34.4622M34.4622 161.9H34.462M34.4622 161.9H34.462M34.462 161.9H34.4618M34.462 161.9H34.4618M34.4618 161.9H34.4616M34.4618 161.9H34.4616M34.4616 161.9H34.4614M34.4616 161.9H34.4614M34.4614 161.9H34.4612M34.4614 161.9H34.4612M34.4612 161.9H34.461M34.4612 161.9H34.461M34.461 161.9H34.4608M34.461 161.9H34.4608M34.4608 161.9H34.4606M34.4608 161.9H34.4606M34.4606 161.9H34.4605M34.4606 161.9H34.4605M34.4605 161.9H34.4603M34.4605 161.9H34.4603M34.4603 161.9H34.4601M34.4603 161.9H34.4601M34.4601 161.9H34.4599M34.4601 161.9H34.4599M34.4599 161.9H34.4597M34.4599 161.9H34.4597M34.4597 161.9H34.4595M34.4597 161.9H34.4595M34.4595 161.9H34.4593M34.4595 161.9H34.4593M34.4593 161.9H34.4591M34.4593 161.9H34.4591M34.4591 161.9H34.459M34.4591 161.9H34.459M34.459 161.9H34.4588M34.459 161.9H34.4588M34.4588 161.9H34.4586M34.4588 161.9H34.4586M34.4586 161.9H34.4584M34.4586 161.9H34.4584M34.4584 161.9H34.4582M34.4584 161.9H34.4582M34.4582 161.9H34.4581M34.4582 161.9H34.4581M34.4581 161.9H34.4579M34.4581 161.9H34.4579M34.4579 161.9H34.4577M34.4579 161.9H34.4577M34.4577 161.9H34.4575M34.4577 161.9H34.4575M34.4575 161.9H34.4573M34.4575 161.9H34.4573M34.4573 161.9H34.4572M34.4573 161.9H34.4572M34.4572 161.9H34.457M34.4572 161.9H34.457M34.457 161.9H34.4568M34.457 161.9H34.4568M34.4568 161.9H34.4566M34.4568 161.9H34.4566M34.4566 161.9H34.4564M34.4566 161.9H34.4564M34.4564 161.9H34.4563M34.4564 161.9H34.4563M34.4563 161.9H34.4561M34.4563 161.9H34.4561M34.4561 161.9H34.4559M34.4561 161.9H34.4559M34.4559 161.9H34.4557M34.4559 161.9H34.4557M34.4557 161.9H34.4556M34.4557 161.9H34.4556M34.4556 161.9H34.4554M34.4556 161.9H34.4554M34.4554 161.9H34.4553M34.4554 161.9H34.4553M34.4553 161.9C33.8921 161.889 33.5073 161.464 33.5148 161.038L34.4553 161.9Z" fill="#005CA1" stroke="#005CA1"/>
<path d="M49.1286 161.182C49.0962 161.561 48.7678 161.904 48.302 161.958H48.2365H48.2361H48.2358H48.2354H48.2351H48.2347H48.2344H48.2341H48.2337H48.2334H48.233H48.2327H48.2323H48.232H48.2316H48.2313H48.231H48.2306H48.2303H48.2299H48.2296H48.2292H48.2289H48.2285H48.2282H48.2279H48.2275H48.2272H48.2268H48.2265H48.2261H48.2258H48.2254H48.2251H48.2248H48.2244H48.2241H48.2237H48.2234H48.223H48.2227H48.2224H48.222H48.2217H48.2213H48.221H48.2206H48.2203H48.2199H48.2196H48.2193H48.2189H48.2186H48.2182H48.2179H48.2175H48.2172H48.2168H48.2165H48.2162H48.2158H48.2155H48.2151H48.2148H48.2144H48.2141H48.2137H48.2134H48.2131H48.2127H48.2124H48.212H48.2117H48.2113H48.211H48.2106H48.2103H48.21H48.2096H48.2093H48.2089H48.2086H48.2082H48.2079H48.2075H48.2072H48.2069H48.2065H48.2062H48.2058H48.2055H48.2051H48.2048H48.2045H48.2041H48.2038H48.2034H48.2031H48.2027H48.2024H48.202H48.2017H48.2014H48.201H48.2007H48.2003H48.2H48.1996H48.1993H48.1989H48.1986H48.1983H48.1979H48.1976H48.1972H48.1969H48.1965H48.1962H48.1958H48.1955H48.1952H48.1948H48.1945H48.1941H48.1938H48.1934H48.1931H48.1927H48.1924H48.1921H48.1917H48.1914H48.191H48.1907H48.1903H48.19H48.1897H48.1893H48.189H48.1886H48.1883H48.1879H48.1876H48.1872H48.1869H48.1866H48.1862H48.1859H48.1855H48.1852H48.1848H48.1845H48.1841H48.1838H48.1835H48.1831H48.1828H48.1824H48.1821H48.1817H48.1814H48.181H48.1807H48.1804H48.18H48.1797H48.1793H48.179H48.1786H48.1783H48.1779H48.1776H48.1773H48.1769H48.1766H48.1762H48.1759H48.1755H48.1752H48.1748H48.1745H48.1742H48.1738H48.1735H48.1731H48.1728H48.1724H48.1721H48.1718H48.1714H48.1711H48.1707H48.1704H48.17H48.1697H48.1693H48.169H48.1687H48.1683H48.168H48.1676H48.1673H48.1669H48.1666H48.1662H48.1659H48.1656H48.1652H48.1649H48.1645H48.1642H48.1638H48.1635H48.1631H48.1628H48.1625H48.1621H48.1618H48.1614H48.1611H48.1607H48.1604H48.16H48.1597H48.1594H48.159H48.1587H48.1583H48.158H48.1576H48.1573H48.1569H48.1566H48.1563H48.1559H48.1556H48.1552H48.1549H48.1545H48.1542H48.1539H48.1535H48.1532H48.1528H48.1525H48.1521H48.1518H48.1514H48.1511H48.1508H48.1504H48.1501H48.1497H48.1494H48.149H48.1487H48.1483H48.148H48.1477H48.1473H48.147H48.1466H48.1463H48.1459H48.1456H48.1452H48.1449H48.1446H48.1442H48.1439H48.1435H48.1432H48.1428H48.1425H48.1421H48.1418H48.1415H48.1411H48.1408H48.1404H48.1401H48.1397H48.1394H48.1391H48.1387H48.1384H48.138H48.1377H48.1373H48.137H48.1366H48.1363H48.136H48.1356H48.1353H48.1349H48.1346H48.1342H48.1339H48.1335H48.1332H48.1329H48.1325H48.1322H48.1318H48.1315H48.1311H48.1308H48.1304H48.1301H48.1298H48.1294H48.1291H48.1287H48.1284H48.128H48.1277H48.1273H48.127H48.1267H48.1263H48.126H48.1256H48.1253H48.1249H48.1246H48.1242H48.1239H48.1236H48.1232H48.1229H48.1225H48.1222H48.1218H48.1215H48.1212H48.1208H48.1205H48.1201H48.1198H48.1194H48.1191H48.1187H48.1184H48.1181H48.1177H48.1174H48.117H48.1167H48.1163H48.116H48.1156H48.1153H48.115H48.1146H48.1143H48.1139H48.1136H48.1132H48.1129H48.1125H48.1122H48.1119H48.1115H48.1112H48.1108H48.1105H48.1101H48.1098H48.1094H48.1091H48.1088H48.1084H48.1081H48.1077H48.1074H48.107H48.1067H48.1063H48.106H48.1057H48.1053H48.105H48.1046H48.1043H48.1039H48.1036H48.1033H48.1029H48.1026H48.1022H48.1019H48.1015H48.1012H48.1008H48.1005H48.1002H48.0998H48.0995H48.0991H48.0988H48.0984H48.0981H48.0977H48.0974H48.0971H48.0967H48.0964H48.096H48.0957H48.0953H48.095H48.0946H48.0943H48.094H48.0936H48.0933H48.0929H48.0926H48.0922H48.0919H48.0915H48.0912H48.0909H48.0905H48.0902H48.0898H48.0895H48.0891H48.0888H48.0885H48.0881H48.0878H48.0874H48.0871H48.0867H48.0864H48.086H48.0857H48.0854H48.085H48.0847H48.0843H48.084H48.0836H48.0833H48.0829H48.0826H48.0823H48.0819H48.0816H48.0812H48.0809H48.0805H48.0802H48.0801C47.5286 161.91 47.1829 161.47 47.2202 161.047L47.2202 161.047C48.0108 152.051 48.5072 143.395 48.7816 137.715L48.7816 137.715L48.7817 137.713C48.8007 137.278 49.2162 136.878 49.7788 136.905L49.7828 136.905C50.347 136.928 50.7166 137.358 50.694 137.788L50.6939 137.791C50.4199 143.488 49.9242 152.163 49.1287 161.18L49.1286 161.182Z" fill="#005CA1" stroke="#005CA1"/>
<path d="M61.7511 151.744C61.5879 154.998 61.4184 158.357 61.1969 161.547L61.1968 161.548C61.1704 161.95 60.8031 162.319 60.2892 162.341H60.2891H60.2888H60.2884H60.2881H60.2878H60.2875H60.2872H60.2869H60.2866H60.2863H60.286H60.2857H60.2854H60.2851H60.2848H60.2845H60.2842H60.2839H60.2836H60.2832H60.2829H60.2826H60.2823H60.282H60.2817H60.2814H60.2811H60.2808H60.2805H60.2802H60.2799H60.2796H60.2793H60.279H60.2787H60.2784H60.278H60.2777H60.2774H60.2771H60.2768H60.2765H60.2762H60.2759H60.2756H60.2753H60.275H60.2747H60.2744H60.2741H60.2738H60.2735H60.2731H60.2728H60.2725H60.2722H60.2719H60.2716H60.2713H60.271H60.2707H60.2704H60.2701H60.2698H60.2695H60.2692H60.2689H60.2686H60.2683H60.2679H60.2676H60.2673H60.267H60.2667H60.2664H60.2661H60.2658H60.2655H60.2652H60.2649H60.2646H60.2643H60.264H60.2637H60.2634H60.2631H60.2627H60.2624H60.2621H60.2618H60.2615H60.2612H60.2609H60.2606H60.2603H60.26H60.2597H60.2594H60.2591H60.2588H60.2585H60.2582H60.2579H60.2575H60.2572H60.2569H60.2566H60.2563H60.256H60.2557H60.2554H60.2551H60.2548H60.2545H60.2542H60.2539H60.2536H60.2533H60.253H60.2526H60.2523H60.252H60.2517H60.2514H60.2511H60.2508H60.2505H60.2502H60.2499H60.2496H60.2493H60.249H60.2487H60.2484H60.2481H60.2478H60.2474H60.2471H60.2468H60.2465H60.2462H60.2459H60.2456H60.2453H60.245H60.2447H60.2444H60.2441H60.2438H60.2435H60.2432H60.2429H60.2426H60.2422H60.2419H60.2416H60.2413H60.241H60.2407H60.2404H60.2401H60.2398H60.2395H60.2392H60.2389H60.2386H60.2383H60.238H60.2377H60.2374H60.237H60.2367H60.2364H60.2361H60.2358H60.2355H60.2352H60.2349H60.2346H60.2343H60.234H60.2337H60.2334H60.2331H60.2328H60.2325H60.2322H60.2318H60.2315H60.2312H60.2309H60.2306H60.2303H60.23H60.2297H60.2294H60.2291H60.2288H60.2285H60.2282H60.2279H60.2276H60.2273H60.2269H60.2266H60.2263H60.226H60.2257H60.2254H60.2251H60.2248H60.2245H60.2242H60.2239H60.2236H60.2233H60.223H60.2227H60.2224H60.2221H60.2217H60.2214H60.2211H60.2208H60.2205H60.2202H60.2199H60.2196H60.2193H60.219H60.2187H60.2184H60.2181H60.2178H60.2175H60.2172H60.2169H60.2165H60.2162H60.2159H60.2156H60.2153H60.215H60.2147H60.2144H60.2141H60.2138H60.2135H60.2132H60.2129H60.2126H60.2123H60.212H60.2117H60.2113H60.211H60.2107H60.2104H60.2101H60.2098H60.2095H60.2092H60.2089H60.2086H60.2083H60.208H60.2077H60.2074H60.2071H60.2068H60.2064H60.2061H60.2058H60.2055H60.2052H60.2049H60.2046H60.2043H60.204H60.2037H60.2034H60.2031H60.2028H60.2025H60.2022H60.2019H60.2016H60.2012H60.2009H60.2006H60.2003H60.2H60.1997H60.1994H60.1991H60.1988H60.1985H60.1982H60.1979H60.1976H60.1973H60.197H60.1967H60.1964H60.196H60.1957H60.1954H60.1951H60.1948H60.1945H60.1942H60.1939H60.1936H60.1933H60.193H60.1927H60.1924H60.1921H60.1918H60.1915H60.1912H60.1908H60.1905H60.1902H60.1899H60.1896H60.1893H60.189H60.1887H60.1884H60.1881H60.1878H60.1875H60.1872H60.1869H60.1866H60.1863H60.186H60.1856H60.1853H60.185H60.1847H60.1844H60.1841H60.1838H60.1835H60.1832H60.1829H60.1826H60.1823H60.182H60.1817H60.1814H60.1811H60.1807H60.1804H60.1801H60.1798H60.1795H60.1792H60.1789H60.1786H60.1783H60.178H60.1777H60.1774H60.1771H60.1768H60.1765H60.1762H60.1759H60.1755H60.1752H60.1749H60.1746H60.1743H60.174H60.1737H60.1734H60.1731H60.1728H60.1725H60.1722H60.1719H60.1716H60.1713H60.171H60.1707H60.1703H60.17H60.1697H60.1694H60.1691H60.1688H60.1685H60.1682H60.1679H60.1676H60.1673H60.167H60.1667H60.1664H60.1661H60.1658H60.1655H60.1651H60.1648H60.1645H60.1642H60.1639H60.1636H60.1633H60.163H60.1627H60.1624H60.1621H60.1618H60.1615H60.1612H60.1609H60.1606H60.1602H60.1599H60.1596H60.1593H60.159H60.1587H60.1584H60.1581H60.1578H60.1576C59.6032 162.303 59.2467 161.871 59.2768 161.441C59.4991 158.266 59.669 154.904 59.8322 151.665C59.8387 151.537 59.8452 151.41 59.8517 151.283C60.0991 146.44 60.3316 141.888 60.7243 138.094C60.771 137.656 61.2185 137.271 61.771 137.325L61.7754 137.326C62.3382 137.376 62.6798 137.817 62.6344 138.249L62.6344 138.25C62.2345 142.104 61.999 146.794 61.7511 151.744ZM61.7511 151.744L62.2505 151.769L61.7511 151.744Z" fill="#005CA1" stroke="#005CA1"/>
<path d="M77.9615 139.191C77.9811 138.444 77.3414 137.828 76.5385 137.808L77.9615 139.191ZM77.9615 139.191C77.9093 141.302 77.8636 143.542 77.8179 145.86L77.9615 139.191ZM76.5264 138.308L76.5226 138.308C75.9557 138.29 75.5554 138.697 75.5436 139.139C75.4915 141.254 75.4458 143.5 75.4001 145.824L76.5264 138.308ZM76.5264 138.308C77.0919 138.322 77.473 138.745 77.4617 139.178L77.4616 139.179M76.5264 138.308L77.4616 139.179M77.4616 139.179C77.4094 141.291 77.3637 143.532 77.318 145.85L77.318 145.85M77.4616 139.179L77.318 145.85M77.318 145.85C77.3157 145.967 77.3135 146.083 77.3112 146.199C77.2089 151.462 77.1035 156.885 76.8485 162.22L76.8485 162.221M77.318 145.85L76.8485 162.221M76.8485 162.221C76.8296 162.631 76.4645 163.009 75.9393 163.036M76.8485 162.221L75.9393 163.036M75.9393 163.036H75.9392H75.939H75.9388H75.9385H75.9383H75.9381H75.9379H75.9376H75.9374H75.9372H75.9369H75.9367H75.9365H75.9362H75.936H75.9358H75.9355H75.9353H75.9351H75.9349H75.9346H75.9344H75.9342H75.9339H75.9337H75.9335H75.9332H75.933H75.9328H75.9325H75.9323H75.9321H75.9318H75.9316H75.9314H75.9312H75.9309H75.9307H75.9305H75.9302H75.93H75.9298H75.9295H75.9293H75.9291H75.9288H75.9286H75.9284H75.9281H75.9279H75.9277H75.9274H75.9272H75.927H75.9268H75.9265H75.9263H75.9261H75.9258H75.9256H75.9254H75.9251H75.9249H75.9247H75.9244H75.9242H75.924H75.9237H75.9235H75.9233H75.923H75.9228H75.9226H75.9223H75.9221H75.9219H75.9216H75.9214H75.9212H75.9209H75.9207H75.9205H75.9202H75.92H75.9198H75.9195H75.9193H75.9191H75.9188H75.9186H75.9184H75.9181H75.9179H75.9177H75.9174H75.9172H75.917H75.9167H75.9165H75.9163H75.916H75.9158H75.9156H75.9153H75.9151H75.9149H75.9146H75.9144H75.9142H75.9139H75.9137H75.9134H75.9132H75.913H75.9127H75.9125H75.9123H75.912H75.9118H75.9116H75.9113H75.9111H75.9109H75.9106H75.9104H75.9102H75.9099H75.9097H75.9094H75.9092H75.909H75.9087H75.9085H75.9083H75.908H75.9078H75.9076H75.9073H75.9071H75.9069H75.9066H75.9064H75.9061H75.9059H75.9057H75.9054H75.9052H75.905H75.9047H75.9045H75.9042H75.904H75.9038H75.9035H75.9033H75.9031H75.9028H75.9026H75.9023H75.9021H75.9019H75.9016H75.9014H75.9012H75.9009H75.9007H75.9004H75.9002H75.9H75.8997H75.8995H75.8993H75.899H75.8988H75.8985H75.8983H75.8981H75.8978H75.8976H75.8973H75.8971H75.8969H75.8966H75.8964H75.8961H75.8959H75.8957H75.8954H75.8952H75.8949H75.8947H75.8945H75.8942H75.894H75.8937H75.8935H75.8933H75.893H75.8928H75.8925H75.8923H75.8921H75.8918H75.8916H75.8913H75.8911H75.8908H75.8906H75.8904H75.8901H75.8899H75.8896H75.8894H75.8892H75.8889H75.8887H75.8884H75.8882H75.8879H75.8877H75.8875H75.8872H75.887H75.8867H75.8865H75.8862H75.886H75.8858H75.8855H75.8853H75.885H75.8848H75.8845H75.8843H75.8841H75.8838H75.8836H75.8833H75.8831H75.8828H75.8826H75.8823H75.8821H75.8819H75.8816H75.8814H75.8811H75.8809H75.8806H75.8804H75.8801H75.8799H75.8797H75.8794H75.8792H75.8789H75.8787H75.8784H75.8782H75.8779H75.8777H75.8774H75.8772H75.8769H75.8767H75.8765H75.8762H75.876H75.8757H75.8755H75.8752H75.875H75.8747H75.8745H75.8742H75.874H75.8737H75.8735H75.8732H75.873H75.8727H75.8725H75.8722H75.872H75.8717H75.8715H75.8712H75.871H75.8707H75.8705H75.8702H75.87H75.8697H75.8695H75.8692H75.869H75.8687H75.8685H75.8682H75.868H75.8677H75.8675H75.8672H75.867H75.8667H75.8665H75.8662H75.866H75.8657H75.8655H75.8652H75.865H75.8647H75.8645H75.8642H75.864H75.8637H75.8635H75.8632H75.863H75.8627H75.8625H75.8622H75.862H75.8617H75.8614H75.8612H75.8609H75.8607H75.8604H75.8602H75.8599H75.8597H75.8594H75.8592H75.8589H75.8587H75.8584H75.8581H75.8579H75.8576H75.8574H75.8571H75.8569H75.8566H75.8564H75.8561H75.8558H75.8556H75.8553H75.8551H75.8548H75.8546H75.8543H75.854H75.8538H75.8535H75.8533H75.853H75.8528H75.8525H75.8522H75.852H75.8517H75.8515H75.8512H75.851H75.8507H75.8504H75.8502H75.8499H75.8497H75.8494H75.8491H75.8489H75.8486H75.8484H75.8481H75.8478H75.8476H75.8473H75.8471H75.8468H75.8465H75.8463H75.846H75.8458H75.8455H75.8452H75.845H75.8447H75.8446C75.287 163.009 74.9178 162.582 74.9363 162.149C75.1851 156.848 75.2907 151.436 75.3927 146.205C75.3952 146.078 75.3976 145.951 75.4001 145.825L75.9393 163.036Z" fill="#005CA1" stroke="#005CA1"/>
<path d="M89.1723 149.695L89.1723 149.694L89.1835 149.445C89.3557 145.612 89.5175 142.01 89.7972 139.038C89.8399 138.601 90.2751 138.215 90.8387 138.261C91.4016 138.307 91.7477 138.75 91.7064 139.175L91.7063 139.177C91.4312 142.105 91.2687 145.693 91.0975 149.473C91.0932 149.569 91.0888 149.664 91.0845 149.76L91.0845 149.76C91.0782 149.899 91.0719 150.039 91.0656 150.178C90.8889 154.094 90.7076 158.111 90.3808 162C90.3462 162.404 89.9779 162.768 89.4725 162.789H89.4724H89.4721H89.4717H89.4714H89.471H89.4707H89.4704H89.47H89.4697H89.4694H89.469H89.4687H89.4683H89.468H89.4677H89.4673H89.467H89.4667H89.4663H89.466H89.4657H89.4653H89.465H89.4647H89.4643H89.464H89.4637H89.4633H89.463H89.4626H89.4623H89.462H89.4616H89.4613H89.461H89.4606H89.4603H89.46H89.4596H89.4593H89.459H89.4586H89.4583H89.458H89.4576H89.4573H89.457H89.4566H89.4563H89.456H89.4556H89.4553H89.455H89.4547H89.4543H89.454H89.4537H89.4533H89.453H89.4527H89.4523H89.452H89.4517H89.4513H89.451H89.4507H89.4503H89.45H89.4497H89.4493H89.449H89.4487H89.4484H89.448H89.4477H89.4474H89.447H89.4467H89.4464H89.446H89.4457H89.4454H89.4451H89.4447H89.4444H89.4441H89.4437H89.4434H89.4431H89.4427H89.4424H89.4421H89.4418H89.4414H89.4411H89.4408H89.4404H89.4401H89.4398H89.4395H89.4391H89.4388H89.4385H89.4381H89.4378H89.4375H89.4372H89.4368H89.4365H89.4362H89.4358H89.4355H89.4352H89.4349H89.4345H89.4342H89.4339H89.4336H89.4332H89.4329H89.4326H89.4322H89.4319H89.4316H89.4313H89.4309H89.4306H89.4303H89.43H89.4296H89.4293H89.429H89.4286H89.4283H89.428H89.4277H89.4273H89.427H89.4267H89.4264H89.426H89.4257H89.4254H89.4251H89.4247H89.4244H89.4241H89.4238H89.4234H89.4231H89.4228H89.4224H89.4221H89.4218H89.4215H89.4211H89.4208H89.4205H89.4202H89.4198H89.4195H89.4192H89.4189H89.4185H89.4182H89.4179H89.4176H89.4172H89.4169H89.4166H89.4163H89.4159H89.4156H89.4153H89.415H89.4146H89.4143H89.414H89.4137H89.4133H89.413H89.4127H89.4124H89.412H89.4117H89.4114H89.4111H89.4107H89.4104H89.4101H89.4097H89.4094H89.4091H89.4088H89.4084H89.4081H89.4078H89.4075H89.4071H89.4068H89.4065H89.4062H89.4058H89.4055H89.4052H89.4049H89.4045H89.4042H89.4039H89.4036H89.4032H89.4029H89.4026H89.4023H89.4019H89.4016H89.4013H89.401H89.4006H89.4003H89.4H89.3997H89.3993H89.399H89.3987H89.3984H89.398H89.3977H89.3974H89.3971H89.3967H89.3964H89.3961H89.3958H89.3954H89.3951H89.3948H89.3945H89.3941H89.3938H89.3935H89.3932H89.3928H89.3925H89.3922H89.3919H89.3915H89.3912H89.3909H89.3906H89.3902H89.3899H89.3896H89.3893H89.3889H89.3886H89.3883H89.388H89.3876H89.3873H89.387H89.3867H89.3863H89.386H89.3857H89.3853H89.385H89.3847H89.3844H89.384H89.3837H89.3834H89.3831H89.3827H89.3824H89.3821H89.3818H89.3814H89.3811H89.3808H89.3805H89.3801H89.3798H89.3795H89.3791H89.3788H89.3785H89.3782H89.3778H89.3775H89.3772H89.3769H89.3765H89.3762H89.3759H89.3755H89.3752H89.3749H89.3746H89.3742H89.3739H89.3736H89.3733H89.3729H89.3726H89.3723H89.3719H89.3716H89.3713H89.371H89.3706H89.3703H89.37H89.3696H89.3693H89.369H89.3687H89.3683H89.368H89.3677H89.3673H89.367H89.3667H89.3664H89.366H89.3657H89.3654H89.365H89.3647H89.3644H89.3641H89.3637H89.3634H89.3631H89.3627H89.3624H89.3621H89.3617H89.3614H89.3611H89.3608H89.3604H89.3601H89.3598H89.3594H89.3591H89.3588H89.3584H89.3581H89.3578H89.3575H89.3571H89.3568H89.3565H89.3561H89.3558H89.3555H89.3551H89.3548H89.3545H89.3541H89.3538H89.3535H89.3531H89.3528H89.3525H89.3521H89.3518H89.3515H89.3511H89.3508H89.3505H89.3502H89.3498H89.3495H89.3492H89.3488H89.3485H89.3482H89.3478H89.3475H89.3472H89.3468H89.3465H89.3461H89.3458H89.3455H89.3451H89.3448H89.3445H89.3441H89.3438H89.3435H89.3431H89.3428H89.3425H89.3421H89.3418H89.3415H89.3411H89.3408H89.3405H89.3401H89.3398H89.3394H89.3391H89.3388C88.7859 162.741 88.4397 162.305 88.4728 161.881C88.7938 158.03 88.9755 154.029 89.1514 150.154C89.1584 150.001 89.1654 149.848 89.1723 149.695Z" fill="#005CA1" stroke="#005CA1"/>
<path d="M80.9192 80.4397C74.0029 74.5056 63.3713 72.98 54.296 75.6052C45.2338 78.235 37.741 84.5707 32.8271 92.1316C30.5864 95.5809 26.9321 101.704 25.5419 107.161C24.8453 109.894 24.7413 112.371 25.5757 114.247C26.3894 116.076 28.1501 117.448 31.4732 117.877C44.6788 119.58 58.5414 119.548 72.0298 119.517C73.9812 119.513 75.9247 119.508 77.8573 119.509L78.8556 119.51C81.0081 119.482 83.2268 119.348 85.2534 118.884C87.596 118.347 89.631 117.38 91.0127 115.675C92.2508 114.146 92.7295 112.302 92.7878 110.316C92.8463 108.324 92.4807 106.224 92.0606 104.215C90.2241 95.4699 87.8249 86.3684 80.9192 80.4397ZM80.9192 80.4397L81.2448 80.0602L80.9192 80.4397Z" fill="#005CA1" stroke="#005CA1"/>
<path d="M16.7877 161.435L16.8576 160.704L17.0917 160.704L19.0575 160.701L26.2305 160.693C32.256 160.686 40.5058 160.677 49.4029 160.668C66.9278 160.651 86.9633 160.637 97.4576 160.646C98.5204 183.57 99.2069 199.315 99.7824 212.515C100.996 240.347 101.716 256.865 104.43 305.5H3.09471C5.04261 284.721 8.4724 248.636 11.426 217.633C12.9159 201.995 14.2846 187.65 15.2808 177.214C15.7789 171.996 16.1839 167.756 16.4643 164.82L16.7877 161.435Z" fill="#005CA1" stroke="#005CA1"/>
<path d="M27.8126 199.589C27.8126 199.589 27.8126 199.569 27.8126 199.556C28.8113 193.829 35.8281 173.413 46.0628 180.582C52.1462 184.842 52.7924 192.277 52.2376 198.79C51.7937 203.998 52.6488 214.07 46.4022 216.609C44.3004 217.459 41.9376 217.531 39.64 217.589C34.4051 217.719 26.7552 217.18 26.7943 210.797C26.8204 207.043 27.1599 203.297 27.8061 199.589H27.8126Z" fill="white"/>
<path d="M104.958 270.571C104.266 259.155 102.765 243.239 101.943 232.024C99.0642 231.856 36.9247 232.804 7.72829 231.141C6.0051 244.674 4.39939 259.272 2.54565 273.96C8.94889 273.571 94.5538 271.291 104.958 270.577V270.571Z" fill="white"/>
<path d="M0.572414 275.659L2.66457 275.533C2.66468 275.533 2.66478 275.533 2.66489 275.533C5.22395 275.373 20.7908 274.907 38.9942 274.363L40.0755 274.331L40.0904 274.831L40.0755 274.331C67.6826 273.506 98.9381 272.571 105.087 272.143L105.088 272.143L106.792 272.028L106.698 270.484C106.29 263.761 105.606 255.538 104.941 247.531L104.897 247.008L104.897 247.008L104.868 246.657C104.428 241.393 104.002 236.299 103.683 231.926L0.572414 275.659ZM0.572414 275.659L0.809367 273.783L0.809387 273.783C1.66865 266.962 2.47521 260.166 3.26765 253.488C3.31219 253.112 3.35669 252.738 3.40114 252.363L3.40115 252.363C3.49274 251.59 3.58404 250.819 3.67512 250.05C4.44742 243.527 5.20402 237.136 5.99192 230.964L5.99197 230.964L6.18121 229.473L7.83631 229.569L7.83685 229.569C29.6592 230.815 70.0595 230.588 90.0683 230.476L90.7903 230.472L90.7904 230.472L91.6663 230.468C98.3582 230.432 101.36 230.416 102.052 230.452C102.052 230.452 102.053 230.452 102.053 230.452L103.579 230.543L103.683 231.924L0.572414 275.659ZM10.2815 232.864L10.396 231.953L9.3668 232.975L9.36028 232.981L8.55737 233.778L9.15508 233.809C8.38874 239.929 7.64004 246.254 6.87925 252.693L6.87923 252.694C6.14169 258.953 5.38468 265.316 4.58857 271.704L4.51585 272.287L5.10349 272.265C10.9102 272.047 24.2824 271.645 39.3993 271.191L39.9618 271.174C39.9618 271.174 39.9618 271.174 39.9618 271.174C63.8284 270.46 93.0315 269.583 102.606 269.122L103.115 269.098L103.081 268.59C102.657 262.156 102.03 254.586 101.416 247.243L101.416 247.242C101.025 242.6 100.653 238.075 100.346 234.051L100.311 233.589H99.8474C97.8677 233.589 94.6025 233.609 90.8174 233.635C90.8172 233.635 90.817 233.635 90.8168 233.635L90.4805 233.637C71.3262 233.747 32.8545 233.969 10.2815 232.864Z" fill="#005CA1" stroke="#005CA1"/>
<mask id="path-14-inside-1_2132_3482" fill="white">
<path d="M58.6865 59.7805C58.1578 66.3196 57.5899 75.3393 57.4463 81.9238L58.6865 59.7805Z"/>
</mask>
<path d="M58.6865 59.7805C58.1578 66.3196 57.5899 75.3393 57.4463 81.9238L58.6865 59.7805Z" fill="#005CA1"/>
<path d="M58.6865 59.7805L59.6849 59.8364L57.6897 59.6999L58.6865 59.7805ZM57.4463 81.9238L56.4465 81.902L58.4447 81.9798L57.4463 81.9238ZM57.6897 59.6999C57.1602 66.2486 56.5907 75.2899 56.4465 81.902L58.4461 81.9457C58.5891 75.3886 59.1553 66.3906 59.6832 59.8611L57.6897 59.6999ZM58.4447 81.9798L59.6849 59.8364L57.688 59.7246L56.4479 81.8679L58.4447 81.9798Z" fill="#005CA1" mask="url(#path-14-inside-1_2132_3482)"/>
<path d="M58.05 83.1748C57.8812 83.4174 57.6984 83.5273 57.5409 83.5538H57.4658H57.4658H57.4658H57.4658H57.4657H57.4657H57.4657H57.4657H57.4657H57.4656H57.4656H57.4656H57.4656H57.4656H57.4655H57.4655H57.4655H57.4655H57.4655H57.4654H57.4654H57.4654H57.4653H57.4653H57.4653H57.4653H57.4652H57.4652H57.4652H57.4651H57.4651H57.4651H57.465H57.465H57.4649H57.4649H57.4649H57.4648H57.4648H57.4647H57.4647H57.4647H57.4646H57.4646H57.4645H57.4645H57.4644H57.4644H57.4643H57.4643H57.4642H57.4642H57.4641H57.4641H57.464H57.464H57.4639H57.4639H57.4638H57.4638H57.4637H57.4636H57.4636H57.4635H57.4635H57.4634H57.4633H57.4633H57.4632H57.4632H57.4631H57.463H57.463H57.4629H57.4628H57.4628H57.4627H57.4626H57.4625H57.4625H57.4624H57.4623H57.4623H57.4622H57.4621H57.462H57.462H57.4619H57.4618H57.4617H57.4616H57.4616H57.4615H57.4614H57.4613H57.4612H57.4612H57.4611H57.461H57.4609H57.4608H57.4607H57.4607H57.4606H57.4605H57.4604H57.4603H57.4602H57.4601H57.46H57.4599H57.4599H57.4598H57.4597H57.4596H57.4595H57.4594H57.4593H57.4592H57.4591H57.459H57.4589H57.4588H57.4587H57.4586H57.4585H57.4584H57.4583H57.4582H57.4581H57.458H57.4579H57.4578H57.4577H57.4576H57.4575H57.4574H57.4573H57.4572H57.457H57.4569H57.4568H57.4567H57.4566H57.4565H57.4564H57.4563H57.4562H57.4561H57.4559H57.4558H57.4557H57.4556H57.4555H57.4554H57.4553H57.4551H57.455H57.4549H57.4548H57.4547H57.4545H57.4544H57.4543H57.4542H57.4541H57.4539H57.4538H57.4537H57.4536H57.4534H57.4533H57.4532H57.4531H57.4529H57.4528H57.4527H57.4526H57.4524H57.4523H57.4522H57.4521H57.4519H57.4518H57.4517H57.4515H57.4514H57.4513H57.4511H57.451H57.4509H57.4507H57.4506H57.4505H57.4503H57.4502H57.4501H57.4499H57.4498H57.4497H57.4495H57.4494H57.4492H57.4491H57.449H57.4488H57.4487H57.4486H57.4484H57.4483H57.4481H57.448H57.4478H57.4477H57.4476H57.4474H57.4473H57.4471H57.447H57.4468H57.4467H57.4466H57.4464H57.4463H57.4461H57.446H57.4458H57.4457H57.4455H57.4454H57.4452H57.4451H57.4449H57.4448H57.4446H57.4445H57.4443H57.4442H57.444H57.4439H57.4437H57.4436H57.4434H57.4433H57.4431H57.443H57.4428H57.4427H57.4425H57.4424H57.4422H57.4421H57.4419H57.4417H57.4416H57.4414H57.4413H57.4411H57.441H57.4408H57.4406H57.4405H57.4403H57.4402H57.44H57.4399H57.4397H57.4395H57.4394H57.4392H57.4391H57.4389H57.4387H57.4386H57.4384H57.4383H57.4381H57.4379H57.4378H57.4376H57.4375H57.4373H57.4371H57.437H57.4368H57.4366H57.4365H57.4363H57.4362H57.436H57.4358H57.4357H57.4355H57.4353H57.4352H57.435H57.4348H57.4347H57.4345H57.4343H57.4342H57.434H57.4338H57.4337H57.4335H57.4333H57.4332H57.433H57.4328H57.4327H57.4325H57.4323H57.4322H57.432H57.4318H57.4317H57.4315H57.4313H57.4312H57.431H57.4308H57.4307H57.4305H57.4303H57.4301H57.43H57.4298H57.4296H57.4295H57.4293H57.4291H57.429H57.4288H57.4286H57.4285H57.4283H57.4281H57.4279H57.4278H57.4276H57.4274H57.4273H57.4271H57.4269H57.4267H57.4266H57.4264H57.4262H57.4261H57.4259H57.4257H57.4255H57.4254H57.4252H57.425H57.4249H57.4247H57.4245H57.4243H57.4242H57.424H57.4238H57.4237H57.4235H57.4233H57.4231H57.423H57.4228H57.4226H57.4225H57.4223H57.4221H57.4219H57.4218H57.4216H57.4214H57.4212H57.4211H57.4209H57.4207H57.4206H57.4204H57.4202H57.42H57.4199H57.4197H57.4195H57.4194H57.4192H57.419H57.4188H57.4187H57.4185H57.4183H57.4182H57.418H57.4178H57.4176H57.4175H57.4174C57.2323 83.5386 57.0095 83.4112 56.8164 83.1056C56.6218 82.7978 56.4925 82.3547 56.5036 81.8505L56.5036 81.8499C56.6469 75.007 57.24 65.8427 57.7488 59.5546L57.7489 59.5533C57.7878 59.0552 57.9585 58.6624 58.1668 58.422C58.3717 58.1856 58.5821 58.1211 58.7636 58.155C58.9607 58.1924 59.1933 58.36 59.3783 58.7077C59.5596 59.0485 59.6627 59.5108 59.624 60.0074C59.1276 66.2189 58.5393 75.2557 58.3954 81.9972C58.3842 82.4839 58.2436 82.8967 58.05 83.1748Z" fill="#005CA1" stroke="#005CA1"/>
<path d="M65.1849 81.0909C65.0187 81.7613 64.6581 82.0414 64.3968 82.0862H64.3261C64.2616 82.0862 64.2124 82.078 64.1767 82.0662L64.1767 82.0661L64.1703 82.0641C63.8237 81.9543 63.6091 81.6555 63.4839 81.1772C63.3584 80.6973 63.3574 80.1573 63.3574 79.755C63.3574 79.3174 63.3639 78.6842 63.3769 77.8996L63.377 77.8972C63.3965 76.2361 63.4292 74.0553 63.4683 71.7638C63.5205 68.9707 63.6575 61.9758 63.8336 57.176C63.8532 56.6742 64.0076 56.2597 64.211 55.992C64.4143 55.7243 64.6307 55.639 64.8101 55.6551C64.9986 55.672 65.2273 55.808 65.4219 56.131C65.6131 56.4485 65.7358 56.8979 65.7193 57.3992C65.4385 64.8904 65.2293 78.626 65.249 80.2287L65.2492 80.2457L65.2506 80.2626C65.2724 80.5338 65.2507 80.8178 65.1849 81.0909Z" fill="#005CA1" stroke="#005CA1"/>
<mask id="path-18-inside-2_2132_3482" fill="white">
<path d="M64.777 57.2804C64.4829 65.2351 64.2542 80.6835 64.313 80.4497L64.777 57.2804Z"/>
</mask>
<path d="M64.777 57.2804C64.4829 65.2351 64.2542 80.6835 64.313 80.4497L64.777 57.2804Z" fill="#005CA1"/>
<path d="M64.777 57.2804L65.7768 57.3004L63.7777 57.2434L64.777 57.2804ZM64.313 80.4497L65.2828 80.6937L65.3105 80.5835L65.3128 80.4697L64.313 80.4497ZM63.7777 57.2434C63.6303 61.2308 63.4994 67.0894 63.4128 71.9178C63.3695 74.3329 63.3372 76.4928 63.3194 78.0352C63.3105 78.8059 63.3052 79.4247 63.304 79.8447C63.3034 80.0534 63.3038 80.2185 63.3054 80.3299C63.3061 80.3818 63.3073 80.4375 63.3099 80.483C63.31 80.4849 63.3131 80.5613 63.3297 80.6445C63.3338 80.6652 63.3481 80.7364 63.3823 80.8221C63.4027 80.8697 63.4669 80.9877 63.5141 81.0557C63.6068 81.1618 63.9129 81.3694 64.1334 81.4363C64.4001 81.4484 64.8336 81.3054 64.9874 81.1897C65.066 81.1091 65.1716 80.9633 65.2042 80.9039C65.2561 80.8017 65.2777 80.7137 65.2828 80.6937L63.3432 80.2057C63.3478 80.1876 63.369 80.1009 63.4204 79.9996C63.4528 79.9407 63.5581 79.7952 63.6366 79.7147C63.7902 79.5992 64.2234 79.4563 64.49 79.4684C64.7103 79.5352 65.0161 79.7426 65.1086 79.8485C65.1556 79.9162 65.2196 80.0338 65.2398 80.0809C65.2736 80.1656 65.2875 80.2354 65.2912 80.2541C65.3012 80.3042 65.3045 80.3427 65.305 80.348C65.3062 80.3603 65.3066 80.3685 65.3067 80.3697C65.3067 80.3701 65.3059 80.3513 65.3052 80.3009C65.3038 80.2078 65.3034 80.0572 65.304 79.8504C65.3052 79.4392 65.3104 78.8273 65.3193 78.0583C65.337 76.5213 65.3692 74.3658 65.4125 71.9537C65.4991 67.1276 65.6297 61.2847 65.7764 57.3173L63.7777 57.2434ZM65.3128 80.4697L65.7768 57.3004L63.7772 57.2604L63.3132 80.4297L65.3128 80.4697Z" fill="#005CA1" mask="url(#path-18-inside-2_2132_3482)"/>
<path d="M29.3791 42.2281C32.6884 39.6242 37.1791 37.8774 40.1882 37.1955C44.7899 36.1566 49.5875 35.5397 53.7257 33.2864C60.4945 29.6045 62.5049 22.8576 64.9657 16.1172C66.9238 10.7339 69.8807 5.04551 75.2657 3.03248C82.0279 0.506457 88.6204 4.02601 91.2248 10.2794C93.1504 14.9029 89.704 21.3056 86.5187 28.3642C81.3491 39.8255 79.0645 53.0011 67.1458 57.1635C58.1121 60.3194 44.5745 60.2999 35.3711 57.7349C31.1871 56.5661 26.0371 55.7479 25.1429 50.6504C24.5359 47.1698 26.7878 44.2671 29.3791 42.2281Z" fill="white"/>
<path d="M66.6041 16.713L66.6044 16.7123C69.0325 10.0464 71.9533 6.13108 75.8738 4.66821C77.0719 4.21965 78.2862 3.98754 79.4762 3.96325L79.4849 3.95463H79.6913C83.9367 3.95463 87.7838 6.55897 89.6109 10.9443C90.3558 12.7258 90.0382 14.9864 89.2805 17.4047C88.522 19.8258 87.28 22.5283 86.02 25.2697L85.9946 25.325L85.9941 25.3262L84.9317 27.6539C84.9315 27.6543 84.9313 27.6548 84.9311 27.6552C83.8309 30.099 82.8559 32.6264 81.9083 35.0827L81.868 35.1872L81.8491 35.236C80.163 39.6072 78.5011 43.9153 76.2031 47.4959C73.8874 51.1041 70.9074 54.0043 66.5733 55.5186L66.5732 55.5187C58.2829 58.4126 45.0985 58.6373 35.8524 56.0547C35.8517 56.0545 35.851 56.0543 35.8503 56.0542L34.5319 55.6988C34.5316 55.6987 34.5312 55.6986 34.5308 55.6985C32.4441 55.1464 30.6805 54.6315 29.3758 53.8591C28.0344 53.0649 27.1566 51.9859 26.8699 50.3408C26.8698 50.3405 26.8698 50.3403 26.8697 50.3401L27.3623 50.2543C26.8989 47.6439 28.9615 45.3971 30.7761 43.9749L66.6041 16.713ZM66.6041 16.713L66.0885 18.1351L66.088 18.1365C63.7629 24.6067 61.4109 31.0802 54.5638 34.8084L54.5637 34.8084C51.0759 36.7086 47.2398 37.5022 43.4434 38.2771L43.4433 38.2772L43.2798 38.3106C42.3814 38.4942 41.4722 38.6799 40.5741 38.8833L40.5738 38.8834C37.6868 39.5385 33.4498 41.2335 30.4672 43.5818L66.6041 16.713ZM34.8925 59.4029L34.8925 59.4028L34.8872 59.4014L33.6274 59.0637L33.6252 59.0632C31.6033 58.5309 29.2963 57.9168 27.3608 56.7159C25.4493 55.53 23.9128 53.7792 23.4163 50.9472L23.4162 50.9469C22.7926 47.4007 24.4081 43.9193 28.2913 40.868L28.2918 40.8676C31.9189 38.0102 36.7594 36.1912 39.7965 35.5013C40.7697 35.2819 41.744 35.0815 42.7355 34.8803L42.7364 34.8802L42.752 34.877C46.3474 34.1409 49.8324 33.4275 52.8818 31.7643C58.5943 28.6515 60.5704 23.1527 62.7675 17.0388L62.7924 16.9693L62.7929 16.9681L63.3142 15.5289C63.3143 15.5286 63.3144 15.5282 63.3146 15.5278C65.1445 10.5153 68.2668 3.79005 74.6444 1.41001C81.9199 -1.29697 89.7394 2.20172 92.8326 9.62116C93.8161 11.9816 93.6644 14.6305 92.869 17.5347C92.0726 20.4428 90.6512 23.5383 89.165 26.7723L89.1643 26.7737L88.1134 29.0789L88.1123 29.0814C87.0354 31.4789 86.0583 34.0041 85.1253 36.4382C81.5053 45.8397 77.838 55.2731 67.7253 58.8019C62.9169 60.4797 56.7096 61.339 50.4231 61.339C44.9887 61.339 39.5263 60.6998 34.8925 59.4029Z" fill="#005CA1" stroke="#005CA1"/>
<path d="M89.7432 10.9742L88.2876 20.1238C94.0381 19.9939 112.125 21.5394 111.322 17.364C110.624 13.7275 90.6896 10.734 89.7432 10.9742Z" fill="#F5E83A"/>
<path d="M108.112 21.485C105.959 21.8782 103.065 22.0263 99.2827 22.0264C97.4289 22.0264 95.3784 21.994 93.0913 21.9357L93.0403 21.9343C91.1563 21.8831 89.5019 21.8382 88.3209 21.8707C88.3204 21.8707 88.3199 21.8708 88.3195 21.8708L86.2319 21.9161L88.1944 9.57933L89.3111 9.29655L89.3111 9.29666L89.3213 9.29383C89.4558 9.25674 89.8132 9.23605 90.4244 9.26698C91.0089 9.29657 91.7624 9.36889 92.6406 9.48007C94.3956 9.70228 96.6251 10.0767 98.9514 10.5619C101.278 11.0471 103.693 11.6414 105.822 12.3019C107.961 12.9656 109.773 13.6849 110.917 14.4095C112.207 15.23 112.857 16.0953 113.037 17.0412C113.211 17.9642 112.978 18.8557 112.359 19.5776L112.358 19.5789C111.606 20.4624 110.277 21.09 108.112 21.485ZM90.4181 17.9029V18.3938L90.9088 18.4029C91.4854 18.4135 92.1012 18.4285 92.7511 18.4443C92.8938 18.4477 93.0381 18.4512 93.184 18.4548L93.2299 18.4559C95.1177 18.5047 98.0849 18.5813 100.979 18.5417C103.875 18.5021 106.767 18.3462 108.416 17.9055L109.649 17.576L108.52 16.9802C106.855 16.1013 103.678 15.1998 100.446 14.457C97.1955 13.7098 93.817 13.1073 91.7049 12.8418L91.2248 12.7815L91.1488 13.2594L90.4243 17.818L90.4181 17.857V17.8965V17.9029Z" fill="#005CA1" stroke="#005CA1"/>
<path d="M50.3448 45.7282C49.3918 46.6828 48.5041 48.2478 49.3984 49.2608C49.8553 49.7803 50.6059 49.9036 51.2978 49.9686C55.5731 50.3582 59.9333 49.6699 63.8954 48.04C66.0037 47.1763 72.4722 44.5919 71.2842 41.5853C70.0441 38.4554 64.1957 38.9878 61.761 39.5333C57.4726 40.4814 53.4453 42.6243 50.3513 45.7347L50.3448 45.7282Z" fill="#F5E83A"/>
<mask id="path-25-inside-3_2132_3482" fill="white">
<path d="M53.6539 50.3517C52.8576 50.3517 52.0612 50.3192 51.2714 50.2413C50.4947 50.1764 49.6984 50.027 49.1892 49.4426C48.2363 48.3582 48.9869 46.6958 50.1488 45.5334C53.2166 42.4554 57.3157 40.2281 61.6955 39.2606C64.5479 38.6242 70.2723 38.2735 71.5451 41.4814C72.8114 44.6828 66.4995 47.2737 64.1301 48.2478L64.0061 48.2997C60.7033 49.6569 57.1721 50.3582 53.6604 50.3582L53.6539 50.3517ZM65.5988 39.4034C64.104 39.4034 62.6746 39.6112 61.8195 39.7995C57.5376 40.7476 53.5364 42.923 50.5469 45.923C49.8159 46.6568 48.7976 48.1439 49.607 49.0725C49.9921 49.5075 50.6579 49.6244 51.3171 49.6829C55.5142 50.066 59.8221 49.4036 63.7842 47.7737L63.9082 47.7218C65.9317 46.8971 72.0803 44.3711 71.0164 41.6827C70.3049 39.8904 67.8768 39.4034 65.5922 39.4034H65.5988Z"/>
</mask>
<path d="M53.6539 50.3517C52.8576 50.3517 52.0612 50.3192 51.2714 50.2413C50.4947 50.1764 49.6984 50.027 49.1892 49.4426C48.2363 48.3582 48.9869 46.6958 50.1488 45.5334C53.2166 42.4554 57.3157 40.2281 61.6955 39.2606C64.5479 38.6242 70.2723 38.2735 71.5451 41.4814C72.8114 44.6828 66.4995 47.2737 64.1301 48.2478L64.0061 48.2997C60.7033 49.6569 57.1721 50.3582 53.6604 50.3582L53.6539 50.3517ZM65.5988 39.4034C64.104 39.4034 62.6746 39.6112 61.8195 39.7995C57.5376 40.7476 53.5364 42.923 50.5469 45.923C49.8159 46.6568 48.7976 48.1439 49.607 49.0725C49.9921 49.5075 50.6579 49.6244 51.3171 49.6829C55.5142 50.066 59.8221 49.4036 63.7842 47.7737L63.9082 47.7218C65.9317 46.8971 72.0803 44.3711 71.0164 41.6827C70.3049 39.8904 67.8768 39.4034 65.5922 39.4034H65.5988Z" fill="#005CA1"/>
<path d="M53.6539 50.3517L54.3592 49.6428L54.0666 49.3517H53.6539V50.3517ZM51.2714 50.2413L51.3696 49.2461L51.3622 49.2454L51.3548 49.2448L51.2714 50.2413ZM49.1892 49.4426L49.9433 48.7857L49.9404 48.7825L49.1892 49.4426ZM50.1488 45.5334L50.856 46.2404L50.857 46.2394L50.1488 45.5334ZM61.6955 39.2606L61.9112 40.237L61.9132 40.2366L61.6955 39.2606ZM71.5451 41.4814L72.475 41.1136L72.4746 41.1126L71.5451 41.4814ZM64.1301 48.2478L63.7499 47.3229L63.7438 47.3254L64.1301 48.2478ZM64.0061 48.2997L64.3862 49.2247L64.3924 49.2221L64.0061 48.2997ZM53.6604 50.3582L52.9551 51.0671L53.2477 51.3582H53.6604V50.3582ZM61.8195 39.7995L61.6044 38.8229L61.6033 38.8232L61.8195 39.7995ZM50.5469 45.923L49.8386 45.2172L49.8385 45.2173L50.5469 45.923ZM49.607 49.0725L48.8531 49.7295L48.8582 49.7353L49.607 49.0725ZM51.3171 49.6829L51.408 48.687L51.4054 48.6868L51.3171 49.6829ZM63.7842 47.7737L64.1646 48.6986L64.1706 48.6961L63.7842 47.7737ZM63.9082 47.7218L63.5308 46.7957L63.5218 46.7994L63.9082 47.7218ZM71.0164 41.6827L71.9462 41.3147L71.9458 41.3137L71.0164 41.6827ZM53.6539 49.3517C52.8844 49.3517 52.1214 49.3203 51.3696 49.2461L51.1733 51.2365C52.0011 51.3182 52.8307 51.3517 53.6539 51.3517V49.3517ZM51.3548 49.2448C50.5821 49.1802 50.1661 49.0415 49.9433 48.7857L48.4352 50.0995C49.2307 51.0125 50.4073 51.1726 51.1881 51.2378L51.3548 49.2448ZM49.9404 48.7825C49.7619 48.5794 49.6851 48.289 49.8319 47.8107C49.9845 47.3136 50.3536 46.7431 50.856 46.2404L49.4415 44.8265C48.7821 45.4862 48.1949 46.328 47.92 47.2238C47.6392 48.1384 47.6636 49.2214 48.4381 50.1027L49.9404 48.7825ZM50.857 46.2394C53.7854 43.3012 57.7118 41.1647 61.9112 40.237L61.4798 38.2841C56.9195 39.2915 52.6477 41.6096 49.4405 44.8275L50.857 46.2394ZM61.9132 40.2366C63.2647 39.935 65.2906 39.7058 67.0934 39.9223C68.9612 40.1465 70.1947 40.7895 70.6156 41.8502L72.4746 41.1126C71.6227 38.9654 69.3576 38.1798 67.3319 37.9365C65.2412 37.6855 62.9786 37.9497 61.4777 38.2846L61.9132 40.2366ZM70.6152 41.8492C70.7869 42.2833 70.7326 42.7088 70.4102 43.2154C70.0656 43.7571 69.4493 44.3203 68.6377 44.8735C67.0219 45.9751 64.9486 46.8301 63.7499 47.3229L64.5104 49.1727C65.6811 48.6914 67.9484 47.7639 69.7643 46.5261C70.6685 45.9097 71.5409 45.164 72.0976 44.2891C72.6767 43.379 72.9364 42.2802 72.475 41.1136L70.6152 41.8492ZM63.7438 47.3254L63.6198 47.3774L64.3924 49.2221L64.5165 49.1701L63.7438 47.3254ZM63.626 47.3748C60.4421 48.6831 57.0398 49.3582 53.6604 49.3582V51.3582C57.3043 51.3582 60.9645 50.6307 64.3862 49.2247L63.626 47.3748ZM54.3657 49.6493L54.3592 49.6428L52.9486 51.0606L52.9551 51.0671L54.3657 49.6493ZM65.5988 38.4034C64.0226 38.4034 62.5206 38.6212 61.6044 38.8229L62.0346 40.7761C62.8285 40.6013 64.1855 40.4034 65.5988 40.4034V38.4034ZM61.6033 38.8232C57.1415 39.8111 52.9676 42.0771 49.8386 45.2172L51.2553 46.6289C54.1052 43.7689 57.9337 41.6841 62.0357 40.7759L61.6033 38.8232ZM49.8385 45.2173C49.4175 45.6398 48.8891 46.2993 48.5781 47.0356C48.2751 47.753 48.0742 48.8358 48.8532 49.7295L50.3608 48.4154C50.3304 48.3805 50.2339 48.2556 50.4205 47.8138C50.5991 47.391 50.9453 46.94 51.2553 46.6288L49.8385 45.2173ZM48.8582 49.7353C49.2141 50.1373 49.6643 50.352 50.0666 50.4751C50.4657 50.5973 50.8807 50.6481 51.2288 50.679L51.4054 48.6868C51.0943 48.6592 50.8468 48.6223 50.652 48.5627C50.4603 48.504 50.385 48.4427 50.3558 48.4097L48.8582 49.7353ZM51.2262 50.6787C55.5872 51.0768 60.0567 50.3885 64.1646 48.6985L63.4037 46.8489C59.5876 48.4188 55.4411 49.0552 51.408 48.687L51.2262 50.6787ZM64.1706 48.6961L64.2946 48.6441L63.5218 46.7994L63.3978 46.8514L64.1706 48.6961ZM64.2856 48.6478C65.2895 48.2387 67.4161 47.3695 69.1628 46.2411C70.0298 45.6809 70.8815 45.0081 71.4467 44.2342C72.0264 43.4405 72.3819 42.4157 71.9462 41.3147L70.0866 42.0507C70.1828 42.2939 70.1688 42.593 69.8316 43.0547C69.4799 43.5363 68.8675 44.0507 68.0774 44.5612C66.5098 45.574 64.5503 46.3802 63.5308 46.7957L64.2856 48.6478ZM71.9458 41.3137C71.4443 40.0502 70.3615 39.3276 69.2265 38.9278C68.0946 38.529 66.7896 38.4034 65.5922 38.4034V40.4034C66.6794 40.4034 67.7308 40.5213 68.5619 40.8141C69.39 41.1059 69.877 41.5229 70.0869 42.0517L71.9458 41.3137ZM65.5922 40.4034H65.5988V38.4034H65.5922V40.4034Z" fill="#005CA1" mask="url(#path-25-inside-3_2132_3482)"/>
<path d="M81.6315 14.7057C82.3628 15.057 83.3795 14.716 83.7436 14.0059C84.1087 13.294 83.7904 12.2736 83.0847 11.8957L81.6315 14.7057ZM81.6315 14.7057C81.1415 14.469 80.9003 14.1238 80.81 13.7674C80.7161 13.3967 80.7762 12.9734 80.9694 12.5957C81.1626 12.2182 81.4712 11.9209 81.8288 11.7794C82.1732 11.6431 82.5987 11.6359 83.0845 11.8956L81.6315 14.7057Z" fill="#005CA1" stroke="#005CA1"/>
</svg>
